%TF.GenerationSoftware,KiCad,Pcbnew,(5.1.6)-1*%
%TF.CreationDate,2024-05-27T20:35:23-04:00*%
%TF.ProjectId,watercooled-pi-120mm,77617465-7263-46f6-9f6c-65642d70692d,rev?*%
%TF.SameCoordinates,Original*%
%TF.FileFunction,Copper,L2,Bot*%
%TF.FilePolarity,Positive*%
%FSLAX46Y46*%
G04 Gerber Fmt 4.6, Leading zero omitted, Abs format (unit mm)*
G04 Created by KiCad (PCBNEW (5.1.6)-1) date 2024-05-27 20:35:23*
%MOMM*%
%LPD*%
G01*
G04 APERTURE LIST*
%TA.AperFunction,ComponentPad*%
%ADD10R,2.200000X2.200000*%
%TD*%
%TA.AperFunction,ComponentPad*%
%ADD11O,2.200000X2.200000*%
%TD*%
%TA.AperFunction,ComponentPad*%
%ADD12C,1.605000*%
%TD*%
%TA.AperFunction,ComponentPad*%
%ADD13C,4.800000*%
%TD*%
%TA.AperFunction,ComponentPad*%
%ADD14R,1.700000X1.700000*%
%TD*%
%TA.AperFunction,ComponentPad*%
%ADD15O,1.700000X1.700000*%
%TD*%
%TA.AperFunction,ComponentPad*%
%ADD16C,1.120000*%
%TD*%
%TA.AperFunction,ComponentPad*%
%ADD17R,1.727200X1.727200*%
%TD*%
%TA.AperFunction,ComponentPad*%
%ADD18C,1.727200*%
%TD*%
%TA.AperFunction,ViaPad*%
%ADD19C,0.800000*%
%TD*%
%TA.AperFunction,Conductor*%
%ADD20C,0.500000*%
%TD*%
%TA.AperFunction,Conductor*%
%ADD21C,0.250000*%
%TD*%
%TA.AperFunction,Conductor*%
%ADD22C,0.254000*%
%TD*%
G04 APERTURE END LIST*
D10*
%TO.P,D1,1*%
%TO.N,Net-(D1-Pad1)*%
X117157500Y-75565000D03*
D11*
%TO.P,D1,2*%
%TO.N,+12V*%
X117157500Y-65405000D03*
%TD*%
D12*
%TO.P,J0,1*%
%TO.N,GND*%
X102171500Y-85534500D03*
%TO.P,J0,2*%
%TO.N,+12V*%
X102171500Y-82994500D03*
%TO.P,J0,3*%
%TO.N,TACH0*%
X102171500Y-80454500D03*
%TO.P,J0,4*%
%TO.N,PWM0*%
X102171500Y-77914500D03*
%TD*%
%TO.P,J1,4*%
%TO.N,PWM1*%
X102171500Y-62674500D03*
%TO.P,J1,3*%
%TO.N,TACH1*%
X102171500Y-65214500D03*
%TO.P,J1,2*%
%TO.N,+12V*%
X102171500Y-67754500D03*
%TO.P,J1,1*%
%TO.N,GND*%
X102171500Y-70294500D03*
%TD*%
D13*
%TO.P,J2,1*%
%TO.N,Net-(F0-Pad1)*%
X117147500Y-49668000D03*
%TO.P,J2,2*%
%TO.N,GND*%
X117147500Y-43868000D03*
%TO.P,J2,3*%
X112347500Y-46668000D03*
%TD*%
D14*
%TO.P,J3,1*%
%TO.N,GND*%
X120586500Y-84137500D03*
D15*
%TO.P,J3,2*%
%TO.N,+5V*%
X123126500Y-84137500D03*
%TO.P,J3,3*%
%TO.N,SCL*%
X125666500Y-84137500D03*
%TO.P,J3,4*%
%TO.N,SDA*%
X128206500Y-84137500D03*
%TD*%
D16*
%TO.P,R0,1*%
%TO.N,GND*%
X114109500Y-116802500D03*
%TO.P,R0,2*%
%TO.N,CTRL0*%
X116649500Y-114262500D03*
%TO.P,R0,3*%
%TO.N,+5V*%
X119189500Y-116802500D03*
%TD*%
%TO.P,R1,3*%
%TO.N,+5V*%
X134556500Y-116866000D03*
%TO.P,R1,2*%
%TO.N,CTRL1*%
X132016500Y-114326000D03*
%TO.P,R1,1*%
%TO.N,GND*%
X129476500Y-116866000D03*
%TD*%
D17*
%TO.P,TB0,1*%
%TO.N,N/C*%
X142303500Y-75565000D03*
D18*
%TO.P,TB0,2*%
X142303500Y-73025000D03*
%TO.P,TB0,3*%
%TO.N,Net-(TB0-Pad28)*%
X142303500Y-70485000D03*
%TO.P,TB0,4*%
%TO.N,GND*%
X142303500Y-67945000D03*
%TO.P,TB0,5*%
%TO.N,TACH0*%
X142303500Y-65405000D03*
%TO.P,TB0,6*%
%TO.N,N/C*%
X142303500Y-62865000D03*
%TO.P,TB0,7*%
X142303500Y-60325000D03*
%TO.P,TB0,8*%
X142303500Y-57785000D03*
%TO.P,TB0,9*%
%TO.N,TACH1*%
X142303500Y-55245000D03*
%TO.P,TB0,10*%
%TO.N,N/C*%
X142303500Y-52705000D03*
%TO.P,TB0,11*%
X142303500Y-50165000D03*
%TO.P,TB0,12*%
%TO.N,PWM0*%
X142303500Y-47625000D03*
%TO.P,TB0,13*%
%TO.N,PWM1*%
X142303500Y-45085000D03*
%TO.P,TB0,14*%
%TO.N,N/C*%
X142303500Y-42545000D03*
%TO.P,TB0,15*%
X142303500Y-40005000D03*
%TO.P,TB0,16*%
X127063500Y-40005000D03*
%TO.P,TB0,17*%
X127063500Y-42545000D03*
%TO.P,TB0,18*%
X127063500Y-45085000D03*
%TO.P,TB0,19*%
%TO.N,CTRL0*%
X127063500Y-47625000D03*
%TO.P,TB0,20*%
%TO.N,CTRL1*%
X127063500Y-50165000D03*
%TO.P,TB0,21*%
%TO.N,N/C*%
X127063500Y-52705000D03*
%TO.P,TB0,22*%
X127063500Y-55245000D03*
%TO.P,TB0,23*%
%TO.N,SDA*%
X127063500Y-57785000D03*
%TO.P,TB0,24*%
%TO.N,SCL*%
X127063500Y-60325000D03*
%TO.P,TB0,25*%
%TO.N,N/C*%
X127063500Y-62865000D03*
%TO.P,TB0,26*%
X127063500Y-65405000D03*
%TO.P,TB0,27*%
%TO.N,+5V*%
X127063500Y-67945000D03*
%TO.P,TB0,28*%
%TO.N,Net-(TB0-Pad28)*%
X127063500Y-70485000D03*
%TO.P,TB0,29*%
%TO.N,GND*%
X127063500Y-73025000D03*
%TO.P,TB0,30*%
%TO.N,Net-(D1-Pad1)*%
X127063500Y-75565000D03*
%TD*%
%TO.P,D6,2*%
%TO.N,Net-(D6-Pad2)*%
%TA.AperFunction,SMDPad,CuDef*%
G36*
G01*
X207956999Y-74808500D02*
X208857001Y-74808500D01*
G75*
G02*
X209107000Y-75058499I0J-249999D01*
G01*
X209107000Y-75708501D01*
G75*
G02*
X208857001Y-75958500I-249999J0D01*
G01*
X207956999Y-75958500D01*
G75*
G02*
X207707000Y-75708501I0J249999D01*
G01*
X207707000Y-75058499D01*
G75*
G02*
X207956999Y-74808500I249999J0D01*
G01*
G37*
%TD.AperFunction*%
%TO.P,D6,1*%
%TO.N,GND*%
%TA.AperFunction,SMDPad,CuDef*%
G36*
G01*
X207956999Y-72758500D02*
X208857001Y-72758500D01*
G75*
G02*
X209107000Y-73008499I0J-249999D01*
G01*
X209107000Y-73658501D01*
G75*
G02*
X208857001Y-73908500I-249999J0D01*
G01*
X207956999Y-73908500D01*
G75*
G02*
X207707000Y-73658501I0J249999D01*
G01*
X207707000Y-73008499D01*
G75*
G02*
X207956999Y-72758500I249999J0D01*
G01*
G37*
%TD.AperFunction*%
%TD*%
%TO.P,D7,1*%
%TO.N,GND*%
%TA.AperFunction,SMDPad,CuDef*%
G36*
G01*
X207956999Y-113970000D02*
X208857001Y-113970000D01*
G75*
G02*
X209107000Y-114219999I0J-249999D01*
G01*
X209107000Y-114870001D01*
G75*
G02*
X208857001Y-115120000I-249999J0D01*
G01*
X207956999Y-115120000D01*
G75*
G02*
X207707000Y-114870001I0J249999D01*
G01*
X207707000Y-114219999D01*
G75*
G02*
X207956999Y-113970000I249999J0D01*
G01*
G37*
%TD.AperFunction*%
%TO.P,D7,2*%
%TO.N,Net-(D7-Pad2)*%
%TA.AperFunction,SMDPad,CuDef*%
G36*
G01*
X207956999Y-116020000D02*
X208857001Y-116020000D01*
G75*
G02*
X209107000Y-116269999I0J-249999D01*
G01*
X209107000Y-116920001D01*
G75*
G02*
X208857001Y-117170000I-249999J0D01*
G01*
X207956999Y-117170000D01*
G75*
G02*
X207707000Y-116920001I0J249999D01*
G01*
X207707000Y-116269999D01*
G75*
G02*
X207956999Y-116020000I249999J0D01*
G01*
G37*
%TD.AperFunction*%
%TD*%
%TO.P,D8,1*%
%TO.N,GND*%
%TA.AperFunction,SMDPad,CuDef*%
G36*
G01*
X133201500Y-150056001D02*
X133201500Y-149155999D01*
G75*
G02*
X133451499Y-148906000I249999J0D01*
G01*
X134101501Y-148906000D01*
G75*
G02*
X134351500Y-149155999I0J-249999D01*
G01*
X134351500Y-150056001D01*
G75*
G02*
X134101501Y-150306000I-249999J0D01*
G01*
X133451499Y-150306000D01*
G75*
G02*
X133201500Y-150056001I0J249999D01*
G01*
G37*
%TD.AperFunction*%
%TO.P,D8,2*%
%TO.N,Net-(D8-Pad2)*%
%TA.AperFunction,SMDPad,CuDef*%
G36*
G01*
X135251500Y-150056001D02*
X135251500Y-149155999D01*
G75*
G02*
X135501499Y-148906000I249999J0D01*
G01*
X136151501Y-148906000D01*
G75*
G02*
X136401500Y-149155999I0J-249999D01*
G01*
X136401500Y-150056001D01*
G75*
G02*
X136151501Y-150306000I-249999J0D01*
G01*
X135501499Y-150306000D01*
G75*
G02*
X135251500Y-150056001I0J249999D01*
G01*
G37*
%TD.AperFunction*%
%TD*%
%TO.P,D9,2*%
%TO.N,Net-(D9-Pad2)*%
%TA.AperFunction,SMDPad,CuDef*%
G36*
G01*
X173288000Y-150056001D02*
X173288000Y-149155999D01*
G75*
G02*
X173537999Y-148906000I249999J0D01*
G01*
X174188001Y-148906000D01*
G75*
G02*
X174438000Y-149155999I0J-249999D01*
G01*
X174438000Y-150056001D01*
G75*
G02*
X174188001Y-150306000I-249999J0D01*
G01*
X173537999Y-150306000D01*
G75*
G02*
X173288000Y-150056001I0J249999D01*
G01*
G37*
%TD.AperFunction*%
%TO.P,D9,1*%
%TO.N,GND*%
%TA.AperFunction,SMDPad,CuDef*%
G36*
G01*
X171238000Y-150056001D02*
X171238000Y-149155999D01*
G75*
G02*
X171487999Y-148906000I249999J0D01*
G01*
X172138001Y-148906000D01*
G75*
G02*
X172388000Y-149155999I0J-249999D01*
G01*
X172388000Y-150056001D01*
G75*
G02*
X172138001Y-150306000I-249999J0D01*
G01*
X171487999Y-150306000D01*
G75*
G02*
X171238000Y-150056001I0J249999D01*
G01*
G37*
%TD.AperFunction*%
%TD*%
%TO.P,D10,1*%
%TO.N,GND*%
%TA.AperFunction,SMDPad,CuDef*%
G36*
G01*
X133201500Y-42741001D02*
X133201500Y-41840999D01*
G75*
G02*
X133451499Y-41591000I249999J0D01*
G01*
X134101501Y-41591000D01*
G75*
G02*
X134351500Y-41840999I0J-249999D01*
G01*
X134351500Y-42741001D01*
G75*
G02*
X134101501Y-42991000I-249999J0D01*
G01*
X133451499Y-42991000D01*
G75*
G02*
X133201500Y-42741001I0J249999D01*
G01*
G37*
%TD.AperFunction*%
%TO.P,D10,2*%
%TO.N,Net-(D10-Pad2)*%
%TA.AperFunction,SMDPad,CuDef*%
G36*
G01*
X135251500Y-42741001D02*
X135251500Y-41840999D01*
G75*
G02*
X135501499Y-41591000I249999J0D01*
G01*
X136151501Y-41591000D01*
G75*
G02*
X136401500Y-41840999I0J-249999D01*
G01*
X136401500Y-42741001D01*
G75*
G02*
X136151501Y-42991000I-249999J0D01*
G01*
X135501499Y-42991000D01*
G75*
G02*
X135251500Y-42741001I0J249999D01*
G01*
G37*
%TD.AperFunction*%
%TD*%
%TO.P,D11,2*%
%TO.N,Net-(D11-Pad2)*%
%TA.AperFunction,SMDPad,CuDef*%
G36*
G01*
X173288000Y-42677501D02*
X173288000Y-41777499D01*
G75*
G02*
X173537999Y-41527500I249999J0D01*
G01*
X174188001Y-41527500D01*
G75*
G02*
X174438000Y-41777499I0J-249999D01*
G01*
X174438000Y-42677501D01*
G75*
G02*
X174188001Y-42927500I-249999J0D01*
G01*
X173537999Y-42927500D01*
G75*
G02*
X173288000Y-42677501I0J249999D01*
G01*
G37*
%TD.AperFunction*%
%TO.P,D11,1*%
%TO.N,GND*%
%TA.AperFunction,SMDPad,CuDef*%
G36*
G01*
X171238000Y-42677501D02*
X171238000Y-41777499D01*
G75*
G02*
X171487999Y-41527500I249999J0D01*
G01*
X172138001Y-41527500D01*
G75*
G02*
X172388000Y-41777499I0J-249999D01*
G01*
X172388000Y-42677501D01*
G75*
G02*
X172138001Y-42927500I-249999J0D01*
G01*
X171487999Y-42927500D01*
G75*
G02*
X171238000Y-42677501I0J249999D01*
G01*
G37*
%TD.AperFunction*%
%TD*%
%TO.P,D12,1*%
%TO.N,GND*%
%TA.AperFunction,SMDPad,CuDef*%
G36*
G01*
X100578499Y-113970000D02*
X101478501Y-113970000D01*
G75*
G02*
X101728500Y-114219999I0J-249999D01*
G01*
X101728500Y-114870001D01*
G75*
G02*
X101478501Y-115120000I-249999J0D01*
G01*
X100578499Y-115120000D01*
G75*
G02*
X100328500Y-114870001I0J249999D01*
G01*
X100328500Y-114219999D01*
G75*
G02*
X100578499Y-113970000I249999J0D01*
G01*
G37*
%TD.AperFunction*%
%TO.P,D12,2*%
%TO.N,Net-(D12-Pad2)*%
%TA.AperFunction,SMDPad,CuDef*%
G36*
G01*
X100578499Y-116020000D02*
X101478501Y-116020000D01*
G75*
G02*
X101728500Y-116269999I0J-249999D01*
G01*
X101728500Y-116920001D01*
G75*
G02*
X101478501Y-117170000I-249999J0D01*
G01*
X100578499Y-117170000D01*
G75*
G02*
X100328500Y-116920001I0J249999D01*
G01*
X100328500Y-116269999D01*
G75*
G02*
X100578499Y-116020000I249999J0D01*
G01*
G37*
%TD.AperFunction*%
%TD*%
%TO.P,D13,2*%
%TO.N,Net-(D13-Pad2)*%
%TA.AperFunction,SMDPad,CuDef*%
G36*
G01*
X100578499Y-74808500D02*
X101478501Y-74808500D01*
G75*
G02*
X101728500Y-75058499I0J-249999D01*
G01*
X101728500Y-75708501D01*
G75*
G02*
X101478501Y-75958500I-249999J0D01*
G01*
X100578499Y-75958500D01*
G75*
G02*
X100328500Y-75708501I0J249999D01*
G01*
X100328500Y-75058499D01*
G75*
G02*
X100578499Y-74808500I249999J0D01*
G01*
G37*
%TD.AperFunction*%
%TO.P,D13,1*%
%TO.N,GND*%
%TA.AperFunction,SMDPad,CuDef*%
G36*
G01*
X100578499Y-72758500D02*
X101478501Y-72758500D01*
G75*
G02*
X101728500Y-73008499I0J-249999D01*
G01*
X101728500Y-73658501D01*
G75*
G02*
X101478501Y-73908500I-249999J0D01*
G01*
X100578499Y-73908500D01*
G75*
G02*
X100328500Y-73658501I0J249999D01*
G01*
X100328500Y-73008499D01*
G75*
G02*
X100578499Y-72758500I249999J0D01*
G01*
G37*
%TD.AperFunction*%
%TD*%
%TO.P,R6,1*%
%TO.N,Net-(D6-Pad2)*%
%TA.AperFunction,SMDPad,CuDef*%
G36*
G01*
X204591499Y-72749500D02*
X205491501Y-72749500D01*
G75*
G02*
X205741500Y-72999499I0J-249999D01*
G01*
X205741500Y-73649501D01*
G75*
G02*
X205491501Y-73899500I-249999J0D01*
G01*
X204591499Y-73899500D01*
G75*
G02*
X204341500Y-73649501I0J249999D01*
G01*
X204341500Y-72999499D01*
G75*
G02*
X204591499Y-72749500I249999J0D01*
G01*
G37*
%TD.AperFunction*%
%TO.P,R6,2*%
%TO.N,+12V*%
%TA.AperFunction,SMDPad,CuDef*%
G36*
G01*
X204591499Y-74799500D02*
X205491501Y-74799500D01*
G75*
G02*
X205741500Y-75049499I0J-249999D01*
G01*
X205741500Y-75699501D01*
G75*
G02*
X205491501Y-75949500I-249999J0D01*
G01*
X204591499Y-75949500D01*
G75*
G02*
X204341500Y-75699501I0J249999D01*
G01*
X204341500Y-75049499D01*
G75*
G02*
X204591499Y-74799500I249999J0D01*
G01*
G37*
%TD.AperFunction*%
%TD*%
%TO.P,R7,2*%
%TO.N,+12V*%
%TA.AperFunction,SMDPad,CuDef*%
G36*
G01*
X204527999Y-116020000D02*
X205428001Y-116020000D01*
G75*
G02*
X205678000Y-116269999I0J-249999D01*
G01*
X205678000Y-116920001D01*
G75*
G02*
X205428001Y-117170000I-249999J0D01*
G01*
X204527999Y-117170000D01*
G75*
G02*
X204278000Y-116920001I0J249999D01*
G01*
X204278000Y-116269999D01*
G75*
G02*
X204527999Y-116020000I249999J0D01*
G01*
G37*
%TD.AperFunction*%
%TO.P,R7,1*%
%TO.N,Net-(D7-Pad2)*%
%TA.AperFunction,SMDPad,CuDef*%
G36*
G01*
X204527999Y-113970000D02*
X205428001Y-113970000D01*
G75*
G02*
X205678000Y-114219999I0J-249999D01*
G01*
X205678000Y-114870001D01*
G75*
G02*
X205428001Y-115120000I-249999J0D01*
G01*
X204527999Y-115120000D01*
G75*
G02*
X204278000Y-114870001I0J249999D01*
G01*
X204278000Y-114219999D01*
G75*
G02*
X204527999Y-113970000I249999J0D01*
G01*
G37*
%TD.AperFunction*%
%TD*%
%TO.P,R8,1*%
%TO.N,Net-(D8-Pad2)*%
%TA.AperFunction,SMDPad,CuDef*%
G36*
G01*
X133201500Y-146563501D02*
X133201500Y-145663499D01*
G75*
G02*
X133451499Y-145413500I249999J0D01*
G01*
X134101501Y-145413500D01*
G75*
G02*
X134351500Y-145663499I0J-249999D01*
G01*
X134351500Y-146563501D01*
G75*
G02*
X134101501Y-146813500I-249999J0D01*
G01*
X133451499Y-146813500D01*
G75*
G02*
X133201500Y-146563501I0J249999D01*
G01*
G37*
%TD.AperFunction*%
%TO.P,R8,2*%
%TO.N,+12V*%
%TA.AperFunction,SMDPad,CuDef*%
G36*
G01*
X135251500Y-146563501D02*
X135251500Y-145663499D01*
G75*
G02*
X135501499Y-145413500I249999J0D01*
G01*
X136151501Y-145413500D01*
G75*
G02*
X136401500Y-145663499I0J-249999D01*
G01*
X136401500Y-146563501D01*
G75*
G02*
X136151501Y-146813500I-249999J0D01*
G01*
X135501499Y-146813500D01*
G75*
G02*
X135251500Y-146563501I0J249999D01*
G01*
G37*
%TD.AperFunction*%
%TD*%
%TO.P,R9,2*%
%TO.N,+12V*%
%TA.AperFunction,SMDPad,CuDef*%
G36*
G01*
X173233500Y-146500001D02*
X173233500Y-145599999D01*
G75*
G02*
X173483499Y-145350000I249999J0D01*
G01*
X174133501Y-145350000D01*
G75*
G02*
X174383500Y-145599999I0J-249999D01*
G01*
X174383500Y-146500001D01*
G75*
G02*
X174133501Y-146750000I-249999J0D01*
G01*
X173483499Y-146750000D01*
G75*
G02*
X173233500Y-146500001I0J249999D01*
G01*
G37*
%TD.AperFunction*%
%TO.P,R9,1*%
%TO.N,Net-(D9-Pad2)*%
%TA.AperFunction,SMDPad,CuDef*%
G36*
G01*
X171183500Y-146500001D02*
X171183500Y-145599999D01*
G75*
G02*
X171433499Y-145350000I249999J0D01*
G01*
X172083501Y-145350000D01*
G75*
G02*
X172333500Y-145599999I0J-249999D01*
G01*
X172333500Y-146500001D01*
G75*
G02*
X172083501Y-146750000I-249999J0D01*
G01*
X171433499Y-146750000D01*
G75*
G02*
X171183500Y-146500001I0J249999D01*
G01*
G37*
%TD.AperFunction*%
%TD*%
%TO.P,R10,1*%
%TO.N,Net-(D10-Pad2)*%
%TA.AperFunction,SMDPad,CuDef*%
G36*
G01*
X133138000Y-46106501D02*
X133138000Y-45206499D01*
G75*
G02*
X133387999Y-44956500I249999J0D01*
G01*
X134038001Y-44956500D01*
G75*
G02*
X134288000Y-45206499I0J-249999D01*
G01*
X134288000Y-46106501D01*
G75*
G02*
X134038001Y-46356500I-249999J0D01*
G01*
X133387999Y-46356500D01*
G75*
G02*
X133138000Y-46106501I0J249999D01*
G01*
G37*
%TD.AperFunction*%
%TO.P,R10,2*%
%TO.N,+12V*%
%TA.AperFunction,SMDPad,CuDef*%
G36*
G01*
X135188000Y-46106501D02*
X135188000Y-45206499D01*
G75*
G02*
X135437999Y-44956500I249999J0D01*
G01*
X136088001Y-44956500D01*
G75*
G02*
X136338000Y-45206499I0J-249999D01*
G01*
X136338000Y-46106501D01*
G75*
G02*
X136088001Y-46356500I-249999J0D01*
G01*
X135437999Y-46356500D01*
G75*
G02*
X135188000Y-46106501I0J249999D01*
G01*
G37*
%TD.AperFunction*%
%TD*%
%TO.P,R11,2*%
%TO.N,+12V*%
%TA.AperFunction,SMDPad,CuDef*%
G36*
G01*
X173242500Y-46043001D02*
X173242500Y-45142999D01*
G75*
G02*
X173492499Y-44893000I249999J0D01*
G01*
X174142501Y-44893000D01*
G75*
G02*
X174392500Y-45142999I0J-249999D01*
G01*
X174392500Y-46043001D01*
G75*
G02*
X174142501Y-46293000I-249999J0D01*
G01*
X173492499Y-46293000D01*
G75*
G02*
X173242500Y-46043001I0J249999D01*
G01*
G37*
%TD.AperFunction*%
%TO.P,R11,1*%
%TO.N,Net-(D11-Pad2)*%
%TA.AperFunction,SMDPad,CuDef*%
G36*
G01*
X171192500Y-46043001D02*
X171192500Y-45142999D01*
G75*
G02*
X171442499Y-44893000I249999J0D01*
G01*
X172092501Y-44893000D01*
G75*
G02*
X172342500Y-45142999I0J-249999D01*
G01*
X172342500Y-46043001D01*
G75*
G02*
X172092501Y-46293000I-249999J0D01*
G01*
X171442499Y-46293000D01*
G75*
G02*
X171192500Y-46043001I0J249999D01*
G01*
G37*
%TD.AperFunction*%
%TD*%
%TO.P,R12,1*%
%TO.N,Net-(D12-Pad2)*%
%TA.AperFunction,SMDPad,CuDef*%
G36*
G01*
X104261499Y-113961000D02*
X105161501Y-113961000D01*
G75*
G02*
X105411500Y-114210999I0J-249999D01*
G01*
X105411500Y-114861001D01*
G75*
G02*
X105161501Y-115111000I-249999J0D01*
G01*
X104261499Y-115111000D01*
G75*
G02*
X104011500Y-114861001I0J249999D01*
G01*
X104011500Y-114210999D01*
G75*
G02*
X104261499Y-113961000I249999J0D01*
G01*
G37*
%TD.AperFunction*%
%TO.P,R12,2*%
%TO.N,+12V*%
%TA.AperFunction,SMDPad,CuDef*%
G36*
G01*
X104261499Y-116011000D02*
X105161501Y-116011000D01*
G75*
G02*
X105411500Y-116260999I0J-249999D01*
G01*
X105411500Y-116911001D01*
G75*
G02*
X105161501Y-117161000I-249999J0D01*
G01*
X104261499Y-117161000D01*
G75*
G02*
X104011500Y-116911001I0J249999D01*
G01*
X104011500Y-116260999D01*
G75*
G02*
X104261499Y-116011000I249999J0D01*
G01*
G37*
%TD.AperFunction*%
%TD*%
%TO.P,R13,2*%
%TO.N,+12V*%
%TA.AperFunction,SMDPad,CuDef*%
G36*
G01*
X105606001Y-70924000D02*
X104705999Y-70924000D01*
G75*
G02*
X104456000Y-70674001I0J249999D01*
G01*
X104456000Y-70023999D01*
G75*
G02*
X104705999Y-69774000I249999J0D01*
G01*
X105606001Y-69774000D01*
G75*
G02*
X105856000Y-70023999I0J-249999D01*
G01*
X105856000Y-70674001D01*
G75*
G02*
X105606001Y-70924000I-249999J0D01*
G01*
G37*
%TD.AperFunction*%
%TO.P,R13,1*%
%TO.N,Net-(D13-Pad2)*%
%TA.AperFunction,SMDPad,CuDef*%
G36*
G01*
X105606001Y-72974000D02*
X104705999Y-72974000D01*
G75*
G02*
X104456000Y-72724001I0J249999D01*
G01*
X104456000Y-72073999D01*
G75*
G02*
X104705999Y-71824000I249999J0D01*
G01*
X105606001Y-71824000D01*
G75*
G02*
X105856000Y-72073999I0J-249999D01*
G01*
X105856000Y-72724001D01*
G75*
G02*
X105606001Y-72974000I-249999J0D01*
G01*
G37*
%TD.AperFunction*%
%TD*%
D19*
%TO.N,+12V*%
X134874000Y-78867000D03*
X137477500Y-45656500D03*
X173799500Y-48641000D03*
%TO.N,GND*%
X129794000Y-57975500D03*
X139255500Y-57975500D03*
X123507500Y-69215000D03*
X106870500Y-63881000D03*
X135001000Y-37465000D03*
X134874000Y-51498500D03*
X134874000Y-55245000D03*
X129794000Y-66675000D03*
X108204000Y-69786500D03*
%TD*%
D20*
%TO.N,+12V*%
X132778500Y-80962500D02*
X134874000Y-78867000D01*
X104203500Y-80962500D02*
X132778500Y-80962500D01*
X102171500Y-82994500D02*
X104203500Y-80962500D01*
X135763000Y-45656500D02*
X137477500Y-45656500D01*
X173817500Y-45593000D02*
X173817500Y-48623000D01*
X173817500Y-48623000D02*
X173799500Y-48641000D01*
X104766000Y-70349000D02*
X102171500Y-67754500D01*
X105156000Y-70349000D02*
X104766000Y-70349000D01*
X106426000Y-87249000D02*
X102171500Y-82994500D01*
X104711500Y-116586000D02*
X106426000Y-114871500D01*
X106426000Y-114871500D02*
X106426000Y-87249000D01*
X135826500Y-143573500D02*
X135826500Y-146113500D01*
X104711500Y-116586000D02*
X108839000Y-116586000D01*
X108839000Y-116586000D02*
X135826500Y-143573500D01*
X173808500Y-145043000D02*
X173808500Y-146050000D01*
X135826500Y-143573500D02*
X172339000Y-143573500D01*
X172339000Y-143573500D02*
X173808500Y-145043000D01*
X200533000Y-75374500D02*
X173799500Y-48641000D01*
X205041500Y-75374500D02*
X200533000Y-75374500D01*
X204978000Y-116595000D02*
X204978000Y-120396000D01*
X179324000Y-146050000D02*
X173808500Y-146050000D01*
X204978000Y-120396000D02*
X179324000Y-146050000D01*
D21*
%TO.N,TACH0*%
X135953500Y-71755000D02*
X142303500Y-65405000D01*
X102171500Y-80454500D02*
X110871000Y-71755000D01*
X110871000Y-71755000D02*
X135953500Y-71755000D01*
%TO.N,PWM0*%
X144018000Y-49339500D02*
X142303500Y-47625000D01*
X142938500Y-56515000D02*
X144018000Y-55435500D01*
X144018000Y-55435500D02*
X144018000Y-49339500D01*
X102171500Y-77914500D02*
X123571000Y-56515000D01*
X123571000Y-56515000D02*
X142938500Y-56515000D01*
%TO.N,PWM1*%
X138493500Y-48895000D02*
X142303500Y-45085000D01*
X126492000Y-48895000D02*
X138493500Y-48895000D01*
X102171500Y-62674500D02*
X112712500Y-62674500D01*
X112712500Y-62674500D02*
X126492000Y-48895000D01*
%TO.N,TACH1*%
X124034370Y-53975000D02*
X141033500Y-53975000D01*
X102171500Y-65214500D02*
X112794870Y-65214500D01*
X141033500Y-53975000D02*
X142303500Y-55245000D01*
X112794870Y-65214500D02*
X124034370Y-53975000D01*
D20*
%TO.N,Net-(D6-Pad2)*%
X205041500Y-73324500D02*
X205595000Y-73324500D01*
X207654000Y-75383500D02*
X208407000Y-75383500D01*
X205595000Y-73324500D02*
X207654000Y-75383500D01*
%TO.N,Net-(D7-Pad2)*%
X207781000Y-116595000D02*
X208407000Y-116595000D01*
X204978000Y-114545000D02*
X205731000Y-114545000D01*
X205731000Y-114545000D02*
X207781000Y-116595000D01*
%TO.N,Net-(D8-Pad2)*%
X133776500Y-146794000D02*
X133776500Y-146113500D01*
X135826500Y-149606000D02*
X135826500Y-148844000D01*
X135826500Y-148844000D02*
X133776500Y-146794000D01*
%TO.N,Net-(D9-Pad2)*%
X171758500Y-146803000D02*
X171758500Y-146050000D01*
X173863000Y-149606000D02*
X173863000Y-148907500D01*
X173863000Y-148907500D02*
X171758500Y-146803000D01*
%TO.N,Net-(D10-Pad2)*%
X133713000Y-45656500D02*
X133713000Y-45103000D01*
X135826500Y-42989500D02*
X135826500Y-42291000D01*
X133713000Y-45103000D02*
X135826500Y-42989500D01*
%TO.N,Net-(D11-Pad2)*%
X171767500Y-45593000D02*
X171767500Y-44894500D01*
X173863000Y-42799000D02*
X173863000Y-42227500D01*
X171767500Y-44894500D02*
X173863000Y-42799000D01*
%TO.N,Net-(D12-Pad2)*%
X103840500Y-114536000D02*
X104711500Y-114536000D01*
X101028500Y-116595000D02*
X101781500Y-116595000D01*
X101781500Y-116595000D02*
X103840500Y-114536000D01*
%TO.N,Net-(D13-Pad2)*%
X103178500Y-75383500D02*
X101028500Y-75383500D01*
X105156000Y-72399000D02*
X105156000Y-73406000D01*
X105156000Y-73406000D02*
X103178500Y-75383500D01*
%TD*%
D22*
%TO.N,GND*%
G36*
X125681046Y-36726063D02*
G01*
X125563450Y-37009965D01*
X125503500Y-37311353D01*
X125503500Y-37618647D01*
X125563450Y-37920035D01*
X125681046Y-38203937D01*
X125851769Y-38459442D01*
X126069058Y-38676731D01*
X126211522Y-38771922D01*
X126108198Y-38840961D01*
X125899461Y-39049698D01*
X125735458Y-39295147D01*
X125622490Y-39567875D01*
X125564900Y-39857401D01*
X125564900Y-40152599D01*
X125622490Y-40442125D01*
X125735458Y-40714853D01*
X125899461Y-40960302D01*
X126108198Y-41169039D01*
X126266781Y-41275000D01*
X126108198Y-41380961D01*
X125899461Y-41589698D01*
X125735458Y-41835147D01*
X125622490Y-42107875D01*
X125564900Y-42397401D01*
X125564900Y-42692599D01*
X125622490Y-42982125D01*
X125735458Y-43254853D01*
X125899461Y-43500302D01*
X126108198Y-43709039D01*
X126266781Y-43815000D01*
X126108198Y-43920961D01*
X125899461Y-44129698D01*
X125735458Y-44375147D01*
X125622490Y-44647875D01*
X125564900Y-44937401D01*
X125564900Y-45232599D01*
X125622490Y-45522125D01*
X125735458Y-45794853D01*
X125899461Y-46040302D01*
X126108198Y-46249039D01*
X126266781Y-46355000D01*
X126108198Y-46460961D01*
X125899461Y-46669698D01*
X125735458Y-46915147D01*
X125622490Y-47187875D01*
X125564900Y-47477401D01*
X125564900Y-47772599D01*
X125622490Y-48062125D01*
X125735458Y-48334853D01*
X125832344Y-48479854D01*
X112397699Y-61914500D01*
X103392551Y-61914500D01*
X103288079Y-61758147D01*
X103087853Y-61557921D01*
X102852411Y-61400604D01*
X102590803Y-61292243D01*
X102313081Y-61237000D01*
X102029919Y-61237000D01*
X101752197Y-61292243D01*
X101490589Y-61400604D01*
X101255147Y-61557921D01*
X101054921Y-61758147D01*
X100897604Y-61993589D01*
X100789243Y-62255197D01*
X100734000Y-62532919D01*
X100734000Y-62816081D01*
X100789243Y-63093803D01*
X100897604Y-63355411D01*
X101054921Y-63590853D01*
X101255147Y-63791079D01*
X101484758Y-63944500D01*
X101255147Y-64097921D01*
X101054921Y-64298147D01*
X100997840Y-64383575D01*
X100830640Y-64216375D01*
X100620176Y-64075747D01*
X100386321Y-63978881D01*
X100138061Y-63929500D01*
X99884939Y-63929500D01*
X99636679Y-63978881D01*
X99402824Y-64075747D01*
X99192360Y-64216375D01*
X99013375Y-64395360D01*
X98872747Y-64605824D01*
X98775881Y-64839679D01*
X98726500Y-65087939D01*
X98726500Y-65341061D01*
X98775881Y-65589321D01*
X98872747Y-65823176D01*
X99013375Y-66033640D01*
X99192360Y-66212625D01*
X99402824Y-66353253D01*
X99636679Y-66450119D01*
X99884939Y-66499500D01*
X100138061Y-66499500D01*
X100386321Y-66450119D01*
X100620176Y-66353253D01*
X100830640Y-66212625D01*
X100997840Y-66045425D01*
X101054921Y-66130853D01*
X101255147Y-66331079D01*
X101484758Y-66484500D01*
X101255147Y-66637921D01*
X101054921Y-66838147D01*
X100897604Y-67073589D01*
X100789243Y-67335197D01*
X100734000Y-67612919D01*
X100734000Y-67896081D01*
X100789243Y-68173803D01*
X100897604Y-68435411D01*
X101054921Y-68670853D01*
X101255147Y-68871079D01*
X101485772Y-69025178D01*
X101428504Y-69055788D01*
X101356618Y-69300013D01*
X102171500Y-70114895D01*
X102185643Y-70100753D01*
X102365248Y-70280358D01*
X102351105Y-70294500D01*
X103165987Y-71109382D01*
X103410212Y-71037496D01*
X103531362Y-70781559D01*
X103600252Y-70506904D01*
X103603648Y-70438227D01*
X103817928Y-70652507D01*
X103817928Y-70674001D01*
X103834992Y-70847255D01*
X103885528Y-71013851D01*
X103967595Y-71167387D01*
X104078038Y-71301962D01*
X104165816Y-71374000D01*
X104078038Y-71446038D01*
X103967595Y-71580613D01*
X103885528Y-71734149D01*
X103834992Y-71900745D01*
X103817928Y-72073999D01*
X103817928Y-72724001D01*
X103834992Y-72897255D01*
X103885528Y-73063851D01*
X103967595Y-73217387D01*
X104024137Y-73286284D01*
X102811922Y-74498500D01*
X102162237Y-74498500D01*
X102106462Y-74430538D01*
X102099906Y-74425158D01*
X102179685Y-74359685D01*
X102259037Y-74262994D01*
X102318002Y-74152680D01*
X102354312Y-74032982D01*
X102366572Y-73908500D01*
X102363500Y-73619250D01*
X102204750Y-73460500D01*
X101155500Y-73460500D01*
X101155500Y-73480500D01*
X100901500Y-73480500D01*
X100901500Y-73460500D01*
X99852250Y-73460500D01*
X99693500Y-73619250D01*
X99690428Y-73908500D01*
X99702688Y-74032982D01*
X99738998Y-74152680D01*
X99797963Y-74262994D01*
X99877315Y-74359685D01*
X99957094Y-74425158D01*
X99950538Y-74430538D01*
X99840095Y-74565113D01*
X99758028Y-74718649D01*
X99707492Y-74885245D01*
X99690428Y-75058499D01*
X99690428Y-75708501D01*
X99707492Y-75881755D01*
X99758028Y-76048351D01*
X99840095Y-76201887D01*
X99950538Y-76336462D01*
X100085113Y-76446905D01*
X100238649Y-76528972D01*
X100405245Y-76579508D01*
X100578499Y-76596572D01*
X101478501Y-76596572D01*
X101633825Y-76581274D01*
X101490589Y-76640604D01*
X101255147Y-76797921D01*
X101054921Y-76998147D01*
X100897604Y-77233589D01*
X100789243Y-77495197D01*
X100734000Y-77772919D01*
X100734000Y-78056081D01*
X100789243Y-78333803D01*
X100897604Y-78595411D01*
X101054921Y-78830853D01*
X101255147Y-79031079D01*
X101484758Y-79184500D01*
X101255147Y-79337921D01*
X101054921Y-79538147D01*
X100997840Y-79623575D01*
X100830640Y-79456375D01*
X100620176Y-79315747D01*
X100386321Y-79218881D01*
X100138061Y-79169500D01*
X99884939Y-79169500D01*
X99636679Y-79218881D01*
X99402824Y-79315747D01*
X99192360Y-79456375D01*
X99013375Y-79635360D01*
X98872747Y-79845824D01*
X98775881Y-80079679D01*
X98726500Y-80327939D01*
X98726500Y-80581061D01*
X98775881Y-80829321D01*
X98872747Y-81063176D01*
X99013375Y-81273640D01*
X99192360Y-81452625D01*
X99402824Y-81593253D01*
X99636679Y-81690119D01*
X99884939Y-81739500D01*
X100138061Y-81739500D01*
X100386321Y-81690119D01*
X100620176Y-81593253D01*
X100830640Y-81452625D01*
X100997840Y-81285425D01*
X101054921Y-81370853D01*
X101255147Y-81571079D01*
X101484758Y-81724500D01*
X101255147Y-81877921D01*
X101054921Y-82078147D01*
X100897604Y-82313589D01*
X100789243Y-82575197D01*
X100734000Y-82852919D01*
X100734000Y-83136081D01*
X100789243Y-83413803D01*
X100897604Y-83675411D01*
X101054921Y-83910853D01*
X101255147Y-84111079D01*
X101485772Y-84265178D01*
X101428504Y-84295788D01*
X101356618Y-84540013D01*
X102171500Y-85354895D01*
X102185643Y-85340753D01*
X102365248Y-85520358D01*
X102351105Y-85534500D01*
X103165987Y-86349382D01*
X103410212Y-86277496D01*
X103531362Y-86021559D01*
X103600252Y-85746904D01*
X103603648Y-85678227D01*
X105541001Y-87615580D01*
X105541000Y-113411721D01*
X105501351Y-113390528D01*
X105334755Y-113339992D01*
X105161501Y-113322928D01*
X104261499Y-113322928D01*
X104088245Y-113339992D01*
X103921649Y-113390528D01*
X103768113Y-113472595D01*
X103633538Y-113583038D01*
X103534187Y-113704097D01*
X103500187Y-113714411D01*
X103346441Y-113796589D01*
X103245453Y-113879468D01*
X103245451Y-113879470D01*
X103211683Y-113907183D01*
X103183970Y-113940951D01*
X102328836Y-114796086D01*
X102204750Y-114672000D01*
X101155500Y-114672000D01*
X101155500Y-114692000D01*
X100901500Y-114692000D01*
X100901500Y-114672000D01*
X99852250Y-114672000D01*
X99693500Y-114830750D01*
X99690428Y-115120000D01*
X99702688Y-115244482D01*
X99738998Y-115364180D01*
X99797963Y-115474494D01*
X99877315Y-115571185D01*
X99957094Y-115636658D01*
X99950538Y-115642038D01*
X99840095Y-115776613D01*
X99758028Y-115930149D01*
X99707492Y-116096745D01*
X99690428Y-116269999D01*
X99690428Y-116920001D01*
X99707492Y-117093255D01*
X99758028Y-117259851D01*
X99840095Y-117413387D01*
X99950538Y-117547962D01*
X100085113Y-117658405D01*
X100238649Y-117740472D01*
X100405245Y-117791008D01*
X100578499Y-117808072D01*
X101478501Y-117808072D01*
X101651755Y-117791008D01*
X101818351Y-117740472D01*
X101971887Y-117658405D01*
X102106462Y-117547962D01*
X102216905Y-117413387D01*
X102252543Y-117346713D01*
X102275559Y-117334411D01*
X102410317Y-117223817D01*
X102438034Y-117190044D01*
X103374122Y-116253957D01*
X103373428Y-116260999D01*
X103373428Y-116911001D01*
X103390492Y-117084255D01*
X103441028Y-117250851D01*
X103523095Y-117404387D01*
X103633538Y-117538962D01*
X103768113Y-117649405D01*
X103921649Y-117731472D01*
X104088245Y-117782008D01*
X104261499Y-117799072D01*
X105161501Y-117799072D01*
X105334755Y-117782008D01*
X105501351Y-117731472D01*
X105654887Y-117649405D01*
X105789462Y-117538962D01*
X105845237Y-117471000D01*
X108472422Y-117471000D01*
X134941500Y-143940079D01*
X134941501Y-144979762D01*
X134873538Y-145035538D01*
X134801500Y-145123316D01*
X134729462Y-145035538D01*
X134594887Y-144925095D01*
X134441351Y-144843028D01*
X134274755Y-144792492D01*
X134101501Y-144775428D01*
X133451499Y-144775428D01*
X133278245Y-144792492D01*
X133111649Y-144843028D01*
X132958113Y-144925095D01*
X132823538Y-145035538D01*
X132713095Y-145170113D01*
X132631028Y-145323649D01*
X132580492Y-145490245D01*
X132563428Y-145663499D01*
X132563428Y-146563501D01*
X132580492Y-146736755D01*
X132631028Y-146903351D01*
X132713095Y-147056887D01*
X132823538Y-147191462D01*
X132958113Y-147301905D01*
X133111649Y-147383972D01*
X133117181Y-147385650D01*
X133147683Y-147422817D01*
X133181456Y-147450534D01*
X134032086Y-148301164D01*
X133903500Y-148429750D01*
X133903500Y-149479000D01*
X133923500Y-149479000D01*
X133923500Y-149733000D01*
X133903500Y-149733000D01*
X133903500Y-150782250D01*
X134062250Y-150941000D01*
X134351500Y-150944072D01*
X134475982Y-150931812D01*
X134595680Y-150895502D01*
X134705994Y-150836537D01*
X134802685Y-150757185D01*
X134868158Y-150677406D01*
X134873538Y-150683962D01*
X135008113Y-150794405D01*
X135161649Y-150876472D01*
X135328245Y-150927008D01*
X135501499Y-150944072D01*
X136151501Y-150944072D01*
X136324755Y-150927008D01*
X136491351Y-150876472D01*
X136644887Y-150794405D01*
X136779462Y-150683962D01*
X136889905Y-150549387D01*
X136971972Y-150395851D01*
X136999227Y-150306000D01*
X170599928Y-150306000D01*
X170612188Y-150430482D01*
X170648498Y-150550180D01*
X170707463Y-150660494D01*
X170786815Y-150757185D01*
X170883506Y-150836537D01*
X170993820Y-150895502D01*
X171113518Y-150931812D01*
X171238000Y-150944072D01*
X171527250Y-150941000D01*
X171686000Y-150782250D01*
X171686000Y-149733000D01*
X170761750Y-149733000D01*
X170603000Y-149891750D01*
X170599928Y-150306000D01*
X136999227Y-150306000D01*
X137022508Y-150229255D01*
X137039572Y-150056001D01*
X137039572Y-149155999D01*
X137022508Y-148982745D01*
X136999228Y-148906000D01*
X170599928Y-148906000D01*
X170603000Y-149320250D01*
X170761750Y-149479000D01*
X171686000Y-149479000D01*
X171686000Y-148429750D01*
X171527250Y-148271000D01*
X171238000Y-148267928D01*
X171113518Y-148280188D01*
X170993820Y-148316498D01*
X170883506Y-148375463D01*
X170786815Y-148454815D01*
X170707463Y-148551506D01*
X170648498Y-148661820D01*
X170612188Y-148781518D01*
X170599928Y-148906000D01*
X136999228Y-148906000D01*
X136971972Y-148816149D01*
X136889905Y-148662613D01*
X136779462Y-148528038D01*
X136644887Y-148417595D01*
X136584948Y-148385557D01*
X136565911Y-148349941D01*
X136483032Y-148248953D01*
X136483030Y-148248951D01*
X136455317Y-148215183D01*
X136421549Y-148187470D01*
X135685651Y-147451572D01*
X136151501Y-147451572D01*
X136324755Y-147434508D01*
X136491351Y-147383972D01*
X136644887Y-147301905D01*
X136779462Y-147191462D01*
X136889905Y-147056887D01*
X136971972Y-146903351D01*
X137022508Y-146736755D01*
X137039572Y-146563501D01*
X137039572Y-145663499D01*
X137022508Y-145490245D01*
X136971972Y-145323649D01*
X136889905Y-145170113D01*
X136779462Y-145035538D01*
X136711500Y-144979763D01*
X136711500Y-144458500D01*
X171972422Y-144458500D01*
X172241401Y-144727480D01*
X172083501Y-144711928D01*
X171433499Y-144711928D01*
X171260245Y-144728992D01*
X171093649Y-144779528D01*
X170940113Y-144861595D01*
X170805538Y-144972038D01*
X170695095Y-145106613D01*
X170613028Y-145260149D01*
X170562492Y-145426745D01*
X170545428Y-145599999D01*
X170545428Y-146500001D01*
X170562492Y-146673255D01*
X170613028Y-146839851D01*
X170695095Y-146993387D01*
X170805538Y-147127962D01*
X170940113Y-147238405D01*
X171006788Y-147274043D01*
X171019089Y-147297058D01*
X171129683Y-147431817D01*
X171163456Y-147459534D01*
X172036836Y-148332914D01*
X171940000Y-148429750D01*
X171940000Y-149479000D01*
X171960000Y-149479000D01*
X171960000Y-149733000D01*
X171940000Y-149733000D01*
X171940000Y-150782250D01*
X172098750Y-150941000D01*
X172388000Y-150944072D01*
X172512482Y-150931812D01*
X172632180Y-150895502D01*
X172742494Y-150836537D01*
X172839185Y-150757185D01*
X172904658Y-150677406D01*
X172910038Y-150683962D01*
X173044613Y-150794405D01*
X173198149Y-150876472D01*
X173364745Y-150927008D01*
X173537999Y-150944072D01*
X174188001Y-150944072D01*
X174361255Y-150927008D01*
X174527851Y-150876472D01*
X174681387Y-150794405D01*
X174815962Y-150683962D01*
X174926405Y-150549387D01*
X175008472Y-150395851D01*
X175059008Y-150229255D01*
X175076072Y-150056001D01*
X175076072Y-149155999D01*
X175059008Y-148982745D01*
X175008472Y-148816149D01*
X174926405Y-148662613D01*
X174815962Y-148528038D01*
X174681387Y-148417595D01*
X174546767Y-148345639D01*
X174519532Y-148312453D01*
X174519530Y-148312451D01*
X174491817Y-148278683D01*
X174458049Y-148250970D01*
X174386451Y-148179372D01*
X204965500Y-148179372D01*
X204965500Y-148619628D01*
X205051390Y-149051425D01*
X205219869Y-149458169D01*
X205464462Y-149824229D01*
X205775771Y-150135538D01*
X206141831Y-150380131D01*
X206548575Y-150548610D01*
X206980372Y-150634500D01*
X207420628Y-150634500D01*
X207852425Y-150548610D01*
X208259169Y-150380131D01*
X208625229Y-150135538D01*
X208936538Y-149824229D01*
X209181131Y-149458169D01*
X209349610Y-149051425D01*
X209435500Y-148619628D01*
X209435500Y-148179372D01*
X209349610Y-147747575D01*
X209181131Y-147340831D01*
X208936538Y-146974771D01*
X208625229Y-146663462D01*
X208259169Y-146418869D01*
X207852425Y-146250390D01*
X207420628Y-146164500D01*
X206980372Y-146164500D01*
X206548575Y-146250390D01*
X206141831Y-146418869D01*
X205775771Y-146663462D01*
X205464462Y-146974771D01*
X205219869Y-147340831D01*
X205051390Y-147747575D01*
X204965500Y-148179372D01*
X174386451Y-148179372D01*
X173595151Y-147388072D01*
X174133501Y-147388072D01*
X174306755Y-147371008D01*
X174473351Y-147320472D01*
X174626887Y-147238405D01*
X174761462Y-147127962D01*
X174871905Y-146993387D01*
X174903114Y-146935000D01*
X179280531Y-146935000D01*
X179324000Y-146939281D01*
X179367469Y-146935000D01*
X179367477Y-146935000D01*
X179497490Y-146922195D01*
X179664313Y-146871589D01*
X179818059Y-146789411D01*
X179952817Y-146678817D01*
X179980534Y-146645044D01*
X205573049Y-121052530D01*
X205606817Y-121024817D01*
X205717411Y-120890059D01*
X205799589Y-120736313D01*
X205850195Y-120569490D01*
X205863000Y-120439477D01*
X205863000Y-120439469D01*
X205867281Y-120396000D01*
X205863000Y-120352531D01*
X205863000Y-117689614D01*
X205921387Y-117658405D01*
X206055962Y-117547962D01*
X206166405Y-117413387D01*
X206248472Y-117259851D01*
X206299008Y-117093255D01*
X206316072Y-116920001D01*
X206316072Y-116381651D01*
X207111385Y-117176963D01*
X207136528Y-117259851D01*
X207218595Y-117413387D01*
X207329038Y-117547962D01*
X207463613Y-117658405D01*
X207617149Y-117740472D01*
X207783745Y-117791008D01*
X207956999Y-117808072D01*
X208857001Y-117808072D01*
X209030255Y-117791008D01*
X209196851Y-117740472D01*
X209350387Y-117658405D01*
X209484962Y-117547962D01*
X209595405Y-117413387D01*
X209677472Y-117259851D01*
X209728008Y-117093255D01*
X209745072Y-116920001D01*
X209745072Y-116269999D01*
X209728008Y-116096745D01*
X209677472Y-115930149D01*
X209595405Y-115776613D01*
X209484962Y-115642038D01*
X209478406Y-115636658D01*
X209558185Y-115571185D01*
X209637537Y-115474494D01*
X209696502Y-115364180D01*
X209732812Y-115244482D01*
X209745072Y-115120000D01*
X209742000Y-114830750D01*
X209583250Y-114672000D01*
X208534000Y-114672000D01*
X208534000Y-114692000D01*
X208280000Y-114692000D01*
X208280000Y-114672000D01*
X207230750Y-114672000D01*
X207170164Y-114732586D01*
X206407578Y-113970000D01*
X207068928Y-113970000D01*
X207072000Y-114259250D01*
X207230750Y-114418000D01*
X208280000Y-114418000D01*
X208280000Y-113493750D01*
X208534000Y-113493750D01*
X208534000Y-114418000D01*
X209583250Y-114418000D01*
X209742000Y-114259250D01*
X209745072Y-113970000D01*
X209732812Y-113845518D01*
X209696502Y-113725820D01*
X209637537Y-113615506D01*
X209558185Y-113518815D01*
X209461494Y-113439463D01*
X209351180Y-113380498D01*
X209231482Y-113344188D01*
X209107000Y-113331928D01*
X208692750Y-113335000D01*
X208534000Y-113493750D01*
X208280000Y-113493750D01*
X208121250Y-113335000D01*
X207707000Y-113331928D01*
X207582518Y-113344188D01*
X207462820Y-113380498D01*
X207352506Y-113439463D01*
X207255815Y-113518815D01*
X207176463Y-113615506D01*
X207117498Y-113725820D01*
X207081188Y-113845518D01*
X207068928Y-113970000D01*
X206407578Y-113970000D01*
X206387534Y-113949956D01*
X206359817Y-113916183D01*
X206225059Y-113805589D01*
X206202043Y-113793287D01*
X206166405Y-113726613D01*
X206055962Y-113592038D01*
X205921387Y-113481595D01*
X205767851Y-113399528D01*
X205601255Y-113348992D01*
X205428001Y-113331928D01*
X204527999Y-113331928D01*
X204354745Y-113348992D01*
X204188149Y-113399528D01*
X204034613Y-113481595D01*
X203900038Y-113592038D01*
X203789595Y-113726613D01*
X203707528Y-113880149D01*
X203656992Y-114046745D01*
X203639928Y-114219999D01*
X203639928Y-114870001D01*
X203656992Y-115043255D01*
X203707528Y-115209851D01*
X203789595Y-115363387D01*
X203900038Y-115497962D01*
X203987816Y-115570000D01*
X203900038Y-115642038D01*
X203789595Y-115776613D01*
X203707528Y-115930149D01*
X203656992Y-116096745D01*
X203639928Y-116269999D01*
X203639928Y-116920001D01*
X203656992Y-117093255D01*
X203707528Y-117259851D01*
X203789595Y-117413387D01*
X203900038Y-117547962D01*
X204034613Y-117658405D01*
X204093000Y-117689614D01*
X204093001Y-120029420D01*
X178957422Y-145165000D01*
X174903114Y-145165000D01*
X174871905Y-145106613D01*
X174761462Y-144972038D01*
X174684579Y-144908941D01*
X174680695Y-144869510D01*
X174630089Y-144702687D01*
X174547911Y-144548941D01*
X174477201Y-144462781D01*
X174465032Y-144447953D01*
X174465030Y-144447951D01*
X174437317Y-144414183D01*
X174403550Y-144386471D01*
X172995534Y-142978456D01*
X172967817Y-142944683D01*
X172833059Y-142834089D01*
X172679313Y-142751911D01*
X172512490Y-142701305D01*
X172382477Y-142688500D01*
X172382469Y-142688500D01*
X172339000Y-142684219D01*
X172295531Y-142688500D01*
X136193079Y-142688500D01*
X111128217Y-117623638D01*
X113467967Y-117623638D01*
X113510402Y-117843153D01*
X113724936Y-117940035D01*
X113954248Y-117993203D01*
X114189525Y-118000613D01*
X114421728Y-117961979D01*
X114641932Y-117878787D01*
X114708598Y-117843153D01*
X114751033Y-117623638D01*
X114109500Y-116982105D01*
X113467967Y-117623638D01*
X111128217Y-117623638D01*
X110387104Y-116882525D01*
X112911387Y-116882525D01*
X112950021Y-117114728D01*
X113033213Y-117334932D01*
X113068847Y-117401598D01*
X113288362Y-117444033D01*
X113929895Y-116802500D01*
X114289105Y-116802500D01*
X114930638Y-117444033D01*
X115150153Y-117401598D01*
X115247035Y-117187064D01*
X115300203Y-116957752D01*
X115307613Y-116722475D01*
X115301346Y-116684803D01*
X117994500Y-116684803D01*
X117994500Y-116920197D01*
X118040423Y-117151069D01*
X118130505Y-117368545D01*
X118261283Y-117564268D01*
X118427732Y-117730717D01*
X118623455Y-117861495D01*
X118840931Y-117951577D01*
X119071803Y-117997500D01*
X119307197Y-117997500D01*
X119538069Y-117951577D01*
X119755545Y-117861495D01*
X119951268Y-117730717D01*
X119994847Y-117687138D01*
X128834967Y-117687138D01*
X128877402Y-117906653D01*
X129091936Y-118003535D01*
X129321248Y-118056703D01*
X129556525Y-118064113D01*
X129788728Y-118025479D01*
X130008932Y-117942287D01*
X130075598Y-117906653D01*
X130118033Y-117687138D01*
X129476500Y-117045605D01*
X128834967Y-117687138D01*
X119994847Y-117687138D01*
X120117717Y-117564268D01*
X120248495Y-117368545D01*
X120338577Y-117151069D01*
X120379362Y-116946025D01*
X128278387Y-116946025D01*
X128317021Y-117178228D01*
X128400213Y-117398432D01*
X128435847Y-117465098D01*
X128655362Y-117507533D01*
X129296895Y-116866000D01*
X129656105Y-116866000D01*
X130297638Y-117507533D01*
X130517153Y-117465098D01*
X130614035Y-117250564D01*
X130667203Y-117021252D01*
X130674613Y-116785975D01*
X130668346Y-116748303D01*
X133361500Y-116748303D01*
X133361500Y-116983697D01*
X133407423Y-117214569D01*
X133497505Y-117432045D01*
X133628283Y-117627768D01*
X133794732Y-117794217D01*
X133990455Y-117924995D01*
X134207931Y-118015077D01*
X134438803Y-118061000D01*
X134674197Y-118061000D01*
X134905069Y-118015077D01*
X135122545Y-117924995D01*
X135318268Y-117794217D01*
X135484717Y-117627768D01*
X135615495Y-117432045D01*
X135704986Y-117215995D01*
X146732000Y-117215995D01*
X146732000Y-117607005D01*
X146808282Y-117990503D01*
X146957915Y-118351750D01*
X147175149Y-118676864D01*
X147451636Y-118953351D01*
X147776750Y-119170585D01*
X148137997Y-119320218D01*
X148521495Y-119396500D01*
X148912505Y-119396500D01*
X149296003Y-119320218D01*
X149657250Y-119170585D01*
X149982364Y-118953351D01*
X150258851Y-118676864D01*
X150476085Y-118351750D01*
X150625718Y-117990503D01*
X150702000Y-117607005D01*
X150702000Y-117215995D01*
X195754000Y-117215995D01*
X195754000Y-117607005D01*
X195830282Y-117990503D01*
X195979915Y-118351750D01*
X196197149Y-118676864D01*
X196473636Y-118953351D01*
X196798750Y-119170585D01*
X197159997Y-119320218D01*
X197543495Y-119396500D01*
X197934505Y-119396500D01*
X198318003Y-119320218D01*
X198679250Y-119170585D01*
X199004364Y-118953351D01*
X199280851Y-118676864D01*
X199498085Y-118351750D01*
X199647718Y-117990503D01*
X199724000Y-117607005D01*
X199724000Y-117215995D01*
X199647718Y-116832497D01*
X199498085Y-116471250D01*
X199280851Y-116146136D01*
X199004364Y-115869649D01*
X198679250Y-115652415D01*
X198318003Y-115502782D01*
X197934505Y-115426500D01*
X197543495Y-115426500D01*
X197159997Y-115502782D01*
X196798750Y-115652415D01*
X196473636Y-115869649D01*
X196197149Y-116146136D01*
X195979915Y-116471250D01*
X195830282Y-116832497D01*
X195754000Y-117215995D01*
X150702000Y-117215995D01*
X150625718Y-116832497D01*
X150476085Y-116471250D01*
X150258851Y-116146136D01*
X149982364Y-115869649D01*
X149657250Y-115652415D01*
X149296003Y-115502782D01*
X148912505Y-115426500D01*
X148521495Y-115426500D01*
X148137997Y-115502782D01*
X147776750Y-115652415D01*
X147451636Y-115869649D01*
X147175149Y-116146136D01*
X146957915Y-116471250D01*
X146808282Y-116832497D01*
X146732000Y-117215995D01*
X135704986Y-117215995D01*
X135705577Y-117214569D01*
X135751500Y-116983697D01*
X135751500Y-116748303D01*
X135705577Y-116517431D01*
X135615495Y-116299955D01*
X135484717Y-116104232D01*
X135318268Y-115937783D01*
X135122545Y-115807005D01*
X134905069Y-115716923D01*
X134674197Y-115671000D01*
X134438803Y-115671000D01*
X134207931Y-115716923D01*
X133990455Y-115807005D01*
X133794732Y-115937783D01*
X133628283Y-116104232D01*
X133497505Y-116299955D01*
X133407423Y-116517431D01*
X133361500Y-116748303D01*
X130668346Y-116748303D01*
X130635979Y-116553772D01*
X130552787Y-116333568D01*
X130517153Y-116266902D01*
X130297638Y-116224467D01*
X129656105Y-116866000D01*
X129296895Y-116866000D01*
X128655362Y-116224467D01*
X128435847Y-116266902D01*
X128338965Y-116481436D01*
X128285797Y-116710748D01*
X128278387Y-116946025D01*
X120379362Y-116946025D01*
X120384500Y-116920197D01*
X120384500Y-116684803D01*
X120338577Y-116453931D01*
X120248495Y-116236455D01*
X120120477Y-116044862D01*
X128834967Y-116044862D01*
X129476500Y-116686395D01*
X130118033Y-116044862D01*
X130075598Y-115825347D01*
X129861064Y-115728465D01*
X129631752Y-115675297D01*
X129396475Y-115667887D01*
X129164272Y-115706521D01*
X128944068Y-115789713D01*
X128877402Y-115825347D01*
X128834967Y-116044862D01*
X120120477Y-116044862D01*
X120117717Y-116040732D01*
X119951268Y-115874283D01*
X119755545Y-115743505D01*
X119538069Y-115653423D01*
X119307197Y-115607500D01*
X119071803Y-115607500D01*
X118840931Y-115653423D01*
X118623455Y-115743505D01*
X118427732Y-115874283D01*
X118261283Y-116040732D01*
X118130505Y-116236455D01*
X118040423Y-116453931D01*
X117994500Y-116684803D01*
X115301346Y-116684803D01*
X115268979Y-116490272D01*
X115185787Y-116270068D01*
X115150153Y-116203402D01*
X114930638Y-116160967D01*
X114289105Y-116802500D01*
X113929895Y-116802500D01*
X113288362Y-116160967D01*
X113068847Y-116203402D01*
X112971965Y-116417936D01*
X112918797Y-116647248D01*
X112911387Y-116882525D01*
X110387104Y-116882525D01*
X109495532Y-115990954D01*
X109487661Y-115981362D01*
X113467967Y-115981362D01*
X114109500Y-116622895D01*
X114751033Y-115981362D01*
X114708598Y-115761847D01*
X114494064Y-115664965D01*
X114264752Y-115611797D01*
X114029475Y-115604387D01*
X113797272Y-115643021D01*
X113577068Y-115726213D01*
X113510402Y-115761847D01*
X113467967Y-115981362D01*
X109487661Y-115981362D01*
X109467817Y-115957183D01*
X109333059Y-115846589D01*
X109179313Y-115764411D01*
X109012490Y-115713805D01*
X108882477Y-115701000D01*
X108882469Y-115701000D01*
X108839000Y-115696719D01*
X108795531Y-115701000D01*
X106848079Y-115701000D01*
X107021050Y-115528029D01*
X107054817Y-115500317D01*
X107089957Y-115457500D01*
X107165410Y-115365560D01*
X107165411Y-115365559D01*
X107247589Y-115211813D01*
X107298195Y-115044990D01*
X107311000Y-114914977D01*
X107311000Y-114914967D01*
X107315281Y-114871501D01*
X107311000Y-114828035D01*
X107311000Y-114144803D01*
X115454500Y-114144803D01*
X115454500Y-114380197D01*
X115500423Y-114611069D01*
X115590505Y-114828545D01*
X115721283Y-115024268D01*
X115887732Y-115190717D01*
X116083455Y-115321495D01*
X116300931Y-115411577D01*
X116531803Y-115457500D01*
X116767197Y-115457500D01*
X116998069Y-115411577D01*
X117215545Y-115321495D01*
X117411268Y-115190717D01*
X117577717Y-115024268D01*
X117708495Y-114828545D01*
X117798577Y-114611069D01*
X117844500Y-114380197D01*
X117844500Y-114208303D01*
X130821500Y-114208303D01*
X130821500Y-114443697D01*
X130867423Y-114674569D01*
X130957505Y-114892045D01*
X131088283Y-115087768D01*
X131254732Y-115254217D01*
X131450455Y-115384995D01*
X131667931Y-115475077D01*
X131898803Y-115521000D01*
X132134197Y-115521000D01*
X132365069Y-115475077D01*
X132582545Y-115384995D01*
X132778268Y-115254217D01*
X132944717Y-115087768D01*
X133075495Y-114892045D01*
X133165577Y-114674569D01*
X133211500Y-114443697D01*
X133211500Y-114208303D01*
X133165577Y-113977431D01*
X133075495Y-113759955D01*
X132944717Y-113564232D01*
X132778268Y-113397783D01*
X132582545Y-113267005D01*
X132365069Y-113176923D01*
X132134197Y-113131000D01*
X131898803Y-113131000D01*
X131667931Y-113176923D01*
X131450455Y-113267005D01*
X131254732Y-113397783D01*
X131088283Y-113564232D01*
X130957505Y-113759955D01*
X130867423Y-113977431D01*
X130821500Y-114208303D01*
X117844500Y-114208303D01*
X117844500Y-114144803D01*
X117798577Y-113913931D01*
X117708495Y-113696455D01*
X117577717Y-113500732D01*
X117411268Y-113334283D01*
X117215545Y-113203505D01*
X116998069Y-113113423D01*
X116767197Y-113067500D01*
X116531803Y-113067500D01*
X116300931Y-113113423D01*
X116083455Y-113203505D01*
X115887732Y-113334283D01*
X115721283Y-113500732D01*
X115590505Y-113696455D01*
X115500423Y-113913931D01*
X115454500Y-114144803D01*
X107311000Y-114144803D01*
X107311000Y-87292469D01*
X107315281Y-87249000D01*
X107311000Y-87205531D01*
X107311000Y-87205523D01*
X107298195Y-87075510D01*
X107268384Y-86977238D01*
X107247589Y-86908686D01*
X107165411Y-86754941D01*
X107082532Y-86653953D01*
X107082530Y-86653951D01*
X107054817Y-86620183D01*
X107021049Y-86592470D01*
X105416079Y-84987500D01*
X119098428Y-84987500D01*
X119110688Y-85111982D01*
X119146998Y-85231680D01*
X119205963Y-85341994D01*
X119285315Y-85438685D01*
X119382006Y-85518037D01*
X119492320Y-85577002D01*
X119612018Y-85613312D01*
X119736500Y-85625572D01*
X120300750Y-85622500D01*
X120459500Y-85463750D01*
X120459500Y-84264500D01*
X119260250Y-84264500D01*
X119101500Y-84423250D01*
X119098428Y-84987500D01*
X105416079Y-84987500D01*
X103716079Y-83287500D01*
X119098428Y-83287500D01*
X119101500Y-83851750D01*
X119260250Y-84010500D01*
X120459500Y-84010500D01*
X120459500Y-82811250D01*
X120713500Y-82811250D01*
X120713500Y-84010500D01*
X120733500Y-84010500D01*
X120733500Y-84264500D01*
X120713500Y-84264500D01*
X120713500Y-85463750D01*
X120872250Y-85622500D01*
X121436500Y-85625572D01*
X121560982Y-85613312D01*
X121680680Y-85577002D01*
X121790994Y-85518037D01*
X121887685Y-85438685D01*
X121967037Y-85341994D01*
X122026002Y-85231680D01*
X122048013Y-85159120D01*
X122179868Y-85290975D01*
X122423089Y-85453490D01*
X122693342Y-85565432D01*
X122980240Y-85622500D01*
X123272760Y-85622500D01*
X123559658Y-85565432D01*
X123829911Y-85453490D01*
X124073132Y-85290975D01*
X124279975Y-85084132D01*
X124396500Y-84909740D01*
X124513025Y-85084132D01*
X124719868Y-85290975D01*
X124963089Y-85453490D01*
X125233342Y-85565432D01*
X125520240Y-85622500D01*
X125812760Y-85622500D01*
X126099658Y-85565432D01*
X126369911Y-85453490D01*
X126613132Y-85290975D01*
X126819975Y-85084132D01*
X126936500Y-84909740D01*
X127053025Y-85084132D01*
X127259868Y-85290975D01*
X127503089Y-85453490D01*
X127773342Y-85565432D01*
X128060240Y-85622500D01*
X128352760Y-85622500D01*
X128639658Y-85565432D01*
X128909911Y-85453490D01*
X129153132Y-85290975D01*
X129359975Y-85084132D01*
X129522490Y-84840911D01*
X129634432Y-84570658D01*
X129691500Y-84283760D01*
X129691500Y-83991240D01*
X129634432Y-83704342D01*
X129522490Y-83434089D01*
X129359975Y-83190868D01*
X129153132Y-82984025D01*
X128909911Y-82821510D01*
X128639658Y-82709568D01*
X128352760Y-82652500D01*
X128060240Y-82652500D01*
X127773342Y-82709568D01*
X127503089Y-82821510D01*
X127259868Y-82984025D01*
X127053025Y-83190868D01*
X126936500Y-83365260D01*
X126819975Y-83190868D01*
X126613132Y-82984025D01*
X126369911Y-82821510D01*
X126099658Y-82709568D01*
X125812760Y-82652500D01*
X125520240Y-82652500D01*
X125233342Y-82709568D01*
X124963089Y-82821510D01*
X124719868Y-82984025D01*
X124513025Y-83190868D01*
X124396500Y-83365260D01*
X124279975Y-83190868D01*
X124073132Y-82984025D01*
X123829911Y-82821510D01*
X123559658Y-82709568D01*
X123272760Y-82652500D01*
X122980240Y-82652500D01*
X122693342Y-82709568D01*
X122423089Y-82821510D01*
X122179868Y-82984025D01*
X122048013Y-83115880D01*
X122026002Y-83043320D01*
X121967037Y-82933006D01*
X121887685Y-82836315D01*
X121790994Y-82756963D01*
X121680680Y-82697998D01*
X121560982Y-82661688D01*
X121436500Y-82649428D01*
X120872250Y-82652500D01*
X120713500Y-82811250D01*
X120459500Y-82811250D01*
X120300750Y-82652500D01*
X119736500Y-82649428D01*
X119612018Y-82661688D01*
X119492320Y-82697998D01*
X119382006Y-82756963D01*
X119285315Y-82836315D01*
X119205963Y-82933006D01*
X119146998Y-83043320D01*
X119110688Y-83163018D01*
X119098428Y-83287500D01*
X103716079Y-83287500D01*
X103601643Y-83173065D01*
X103609000Y-83136081D01*
X103609000Y-82852919D01*
X103601643Y-82815935D01*
X104570079Y-81847500D01*
X132735031Y-81847500D01*
X132778500Y-81851781D01*
X132821969Y-81847500D01*
X132821977Y-81847500D01*
X132951990Y-81834695D01*
X133118813Y-81784089D01*
X133272559Y-81701911D01*
X133407317Y-81591317D01*
X133435034Y-81557544D01*
X135119044Y-79873535D01*
X135175898Y-79862226D01*
X135364256Y-79784205D01*
X135533774Y-79670937D01*
X135677937Y-79526774D01*
X135791205Y-79357256D01*
X135869226Y-79168898D01*
X135909000Y-78968939D01*
X135909000Y-78765061D01*
X135869226Y-78565102D01*
X135791205Y-78376744D01*
X135677937Y-78207226D01*
X135533774Y-78063063D01*
X135366588Y-77951353D01*
X140743500Y-77951353D01*
X140743500Y-78258647D01*
X140803450Y-78560035D01*
X140921046Y-78843937D01*
X141091769Y-79099442D01*
X141309058Y-79316731D01*
X141564563Y-79487454D01*
X141848465Y-79605050D01*
X142149853Y-79665000D01*
X142457147Y-79665000D01*
X142758535Y-79605050D01*
X143042437Y-79487454D01*
X143297942Y-79316731D01*
X143515231Y-79099442D01*
X143685954Y-78843937D01*
X143803550Y-78560035D01*
X143863500Y-78258647D01*
X143863500Y-77951353D01*
X143803550Y-77649965D01*
X143685954Y-77366063D01*
X143515231Y-77110558D01*
X143418771Y-77014098D01*
X143521594Y-76959137D01*
X143618285Y-76879785D01*
X143697637Y-76783094D01*
X143756602Y-76672780D01*
X143792912Y-76553082D01*
X143805172Y-76428600D01*
X143805172Y-74701400D01*
X143792912Y-74576918D01*
X143756602Y-74457220D01*
X143697637Y-74346906D01*
X143618285Y-74250215D01*
X143521594Y-74170863D01*
X143411280Y-74111898D01*
X143353477Y-74094364D01*
X143467539Y-73980302D01*
X143631542Y-73734853D01*
X143744510Y-73462125D01*
X143802100Y-73172599D01*
X143802100Y-72877401D01*
X143744510Y-72587875D01*
X143631542Y-72315147D01*
X143467539Y-72069698D01*
X143258802Y-71860961D01*
X143100219Y-71755000D01*
X143258802Y-71649039D01*
X143467539Y-71440302D01*
X143631542Y-71194853D01*
X143744510Y-70922125D01*
X143802100Y-70632599D01*
X143802100Y-70337401D01*
X143744510Y-70047875D01*
X143631542Y-69775147D01*
X143467539Y-69529698D01*
X143258802Y-69320961D01*
X143090625Y-69208589D01*
X143161999Y-68983104D01*
X142303500Y-68124605D01*
X141445001Y-68983104D01*
X141516375Y-69208589D01*
X141348198Y-69320961D01*
X141139461Y-69529698D01*
X140975458Y-69775147D01*
X140862490Y-70047875D01*
X140804900Y-70337401D01*
X140804900Y-70632599D01*
X140862490Y-70922125D01*
X140975458Y-71194853D01*
X141139461Y-71440302D01*
X141348198Y-71649039D01*
X141506781Y-71755000D01*
X141348198Y-71860961D01*
X141139461Y-72069698D01*
X140975458Y-72315147D01*
X140862490Y-72587875D01*
X140804900Y-72877401D01*
X140804900Y-73172599D01*
X140862490Y-73462125D01*
X140975458Y-73734853D01*
X141139461Y-73980302D01*
X141253523Y-74094364D01*
X141195720Y-74111898D01*
X141085406Y-74170863D01*
X140988715Y-74250215D01*
X140909363Y-74346906D01*
X140850398Y-74457220D01*
X140814088Y-74576918D01*
X140801828Y-74701400D01*
X140801828Y-76428600D01*
X140814088Y-76553082D01*
X140850398Y-76672780D01*
X140909363Y-76783094D01*
X140988715Y-76879785D01*
X141085406Y-76959137D01*
X141188229Y-77014098D01*
X141091769Y-77110558D01*
X140921046Y-77366063D01*
X140803450Y-77649965D01*
X140743500Y-77951353D01*
X135366588Y-77951353D01*
X135364256Y-77949795D01*
X135175898Y-77871774D01*
X134975939Y-77832000D01*
X134772061Y-77832000D01*
X134572102Y-77871774D01*
X134383744Y-77949795D01*
X134214226Y-78063063D01*
X134070063Y-78207226D01*
X133956795Y-78376744D01*
X133878774Y-78565102D01*
X133867465Y-78621956D01*
X132411922Y-80077500D01*
X104246969Y-80077500D01*
X104203500Y-80073219D01*
X104160031Y-80077500D01*
X104160023Y-80077500D01*
X104044806Y-80088848D01*
X104030009Y-80090305D01*
X103979403Y-80105657D01*
X103863187Y-80140911D01*
X103709441Y-80223089D01*
X103709439Y-80223090D01*
X103709440Y-80223090D01*
X103608453Y-80305968D01*
X103608451Y-80305970D01*
X103607735Y-80306558D01*
X103572314Y-80128487D01*
X105749448Y-77951353D01*
X125503500Y-77951353D01*
X125503500Y-78258647D01*
X125563450Y-78560035D01*
X125681046Y-78843937D01*
X125851769Y-79099442D01*
X126069058Y-79316731D01*
X126324563Y-79487454D01*
X126608465Y-79605050D01*
X126909853Y-79665000D01*
X127217147Y-79665000D01*
X127518535Y-79605050D01*
X127802437Y-79487454D01*
X128057942Y-79316731D01*
X128275231Y-79099442D01*
X128445954Y-78843937D01*
X128563550Y-78560035D01*
X128623500Y-78258647D01*
X128623500Y-77951353D01*
X128563550Y-77649965D01*
X128445954Y-77366063D01*
X128275231Y-77110558D01*
X128057942Y-76893269D01*
X127915478Y-76798078D01*
X128018802Y-76729039D01*
X128227539Y-76520302D01*
X128391542Y-76274853D01*
X128504510Y-76002125D01*
X128562100Y-75712599D01*
X128562100Y-75417401D01*
X128504510Y-75127875D01*
X128391542Y-74855147D01*
X128227539Y-74609698D01*
X128018802Y-74400961D01*
X127850625Y-74288589D01*
X127921999Y-74063104D01*
X127063500Y-73204605D01*
X126205001Y-74063104D01*
X126276375Y-74288589D01*
X126108198Y-74400961D01*
X125899461Y-74609698D01*
X125735458Y-74855147D01*
X125622490Y-75127875D01*
X125564900Y-75417401D01*
X125564900Y-75712599D01*
X125622490Y-76002125D01*
X125735458Y-76274853D01*
X125899461Y-76520302D01*
X126108198Y-76729039D01*
X126211522Y-76798078D01*
X126069058Y-76893269D01*
X125851769Y-77110558D01*
X125681046Y-77366063D01*
X125563450Y-77649965D01*
X125503500Y-77951353D01*
X105749448Y-77951353D01*
X109235801Y-74465000D01*
X115419428Y-74465000D01*
X115419428Y-76665000D01*
X115431688Y-76789482D01*
X115467998Y-76909180D01*
X115526963Y-77019494D01*
X115606315Y-77116185D01*
X115703006Y-77195537D01*
X115813320Y-77254502D01*
X115933018Y-77290812D01*
X116057500Y-77303072D01*
X118257500Y-77303072D01*
X118381982Y-77290812D01*
X118501680Y-77254502D01*
X118611994Y-77195537D01*
X118708685Y-77116185D01*
X118788037Y-77019494D01*
X118847002Y-76909180D01*
X118883312Y-76789482D01*
X118895572Y-76665000D01*
X118895572Y-74465000D01*
X118883312Y-74340518D01*
X118847002Y-74220820D01*
X118788037Y-74110506D01*
X118708685Y-74013815D01*
X118611994Y-73934463D01*
X118501680Y-73875498D01*
X118381982Y-73839188D01*
X118257500Y-73826928D01*
X116057500Y-73826928D01*
X115933018Y-73839188D01*
X115813320Y-73875498D01*
X115703006Y-73934463D01*
X115606315Y-74013815D01*
X115526963Y-74110506D01*
X115467998Y-74220820D01*
X115431688Y-74340518D01*
X115419428Y-74465000D01*
X109235801Y-74465000D01*
X111185802Y-72515000D01*
X125646946Y-72515000D01*
X125574825Y-72798210D01*
X125559185Y-73092993D01*
X125601355Y-73385164D01*
X125699714Y-73663493D01*
X125774933Y-73804218D01*
X126025396Y-73883499D01*
X126883895Y-73025000D01*
X126869753Y-73010858D01*
X127049358Y-72831253D01*
X127063500Y-72845395D01*
X127077643Y-72831253D01*
X127257248Y-73010858D01*
X127243105Y-73025000D01*
X128101604Y-73883499D01*
X128352067Y-73804218D01*
X128479326Y-73537859D01*
X128552175Y-73251790D01*
X128567815Y-72957007D01*
X128525645Y-72664836D01*
X128472694Y-72515000D01*
X135916178Y-72515000D01*
X135953500Y-72518676D01*
X135990822Y-72515000D01*
X135990833Y-72515000D01*
X136102486Y-72504003D01*
X136245747Y-72460546D01*
X136377776Y-72389974D01*
X136493501Y-72295001D01*
X136517304Y-72265997D01*
X140800803Y-67982499D01*
X140799185Y-68012993D01*
X140841355Y-68305164D01*
X140939714Y-68583493D01*
X141014933Y-68724218D01*
X141265396Y-68803499D01*
X142123895Y-67945000D01*
X142483105Y-67945000D01*
X143341604Y-68803499D01*
X143592067Y-68724218D01*
X143719326Y-68457859D01*
X143792175Y-68171790D01*
X143807815Y-67877007D01*
X143765645Y-67584836D01*
X143667286Y-67306507D01*
X143592067Y-67165782D01*
X143341604Y-67086501D01*
X142483105Y-67945000D01*
X142123895Y-67945000D01*
X142109753Y-67930858D01*
X142289358Y-67751253D01*
X142303500Y-67765395D01*
X143161999Y-66906896D01*
X143090625Y-66681411D01*
X143258802Y-66569039D01*
X143467539Y-66360302D01*
X143631542Y-66114853D01*
X143744510Y-65842125D01*
X143802100Y-65552599D01*
X143802100Y-65257401D01*
X143744510Y-64967875D01*
X143631542Y-64695147D01*
X143467539Y-64449698D01*
X143258802Y-64240961D01*
X143100219Y-64135000D01*
X143258802Y-64029039D01*
X143467539Y-63820302D01*
X143631542Y-63574853D01*
X143744510Y-63302125D01*
X143802100Y-63012599D01*
X143802100Y-62717401D01*
X143744510Y-62427875D01*
X143631542Y-62155147D01*
X143467539Y-61909698D01*
X143258802Y-61700961D01*
X143100219Y-61595000D01*
X143258802Y-61489039D01*
X143467539Y-61280302D01*
X143631542Y-61034853D01*
X143744510Y-60762125D01*
X143802100Y-60472599D01*
X143802100Y-60177401D01*
X143744510Y-59887875D01*
X143631542Y-59615147D01*
X143467539Y-59369698D01*
X143274836Y-59176995D01*
X146732000Y-59176995D01*
X146732000Y-59568005D01*
X146808282Y-59951503D01*
X146957915Y-60312750D01*
X147175149Y-60637864D01*
X147451636Y-60914351D01*
X147776750Y-61131585D01*
X148137997Y-61281218D01*
X148521495Y-61357500D01*
X148912505Y-61357500D01*
X149296003Y-61281218D01*
X149657250Y-61131585D01*
X149982364Y-60914351D01*
X150258851Y-60637864D01*
X150476085Y-60312750D01*
X150625718Y-59951503D01*
X150702000Y-59568005D01*
X150702000Y-59176995D01*
X150625718Y-58793497D01*
X150476085Y-58432250D01*
X150258851Y-58107136D01*
X149982364Y-57830649D01*
X149657250Y-57613415D01*
X149296003Y-57463782D01*
X148912505Y-57387500D01*
X148521495Y-57387500D01*
X148137997Y-57463782D01*
X147776750Y-57613415D01*
X147451636Y-57830649D01*
X147175149Y-58107136D01*
X146957915Y-58432250D01*
X146808282Y-58793497D01*
X146732000Y-59176995D01*
X143274836Y-59176995D01*
X143258802Y-59160961D01*
X143100219Y-59055000D01*
X143258802Y-58949039D01*
X143467539Y-58740302D01*
X143631542Y-58494853D01*
X143744510Y-58222125D01*
X143802100Y-57932599D01*
X143802100Y-57637401D01*
X143744510Y-57347875D01*
X143631542Y-57075147D01*
X143560090Y-56968211D01*
X144529004Y-55999298D01*
X144558001Y-55975501D01*
X144652974Y-55859776D01*
X144723546Y-55727747D01*
X144767003Y-55584486D01*
X144778000Y-55472833D01*
X144778000Y-55472832D01*
X144781677Y-55435500D01*
X144778000Y-55398167D01*
X144778000Y-49376822D01*
X144781676Y-49339499D01*
X144778000Y-49302176D01*
X144778000Y-49302167D01*
X144767003Y-49190514D01*
X144723546Y-49047253D01*
X144688300Y-48981313D01*
X144652974Y-48915223D01*
X144581799Y-48828497D01*
X144558001Y-48799499D01*
X144529003Y-48775701D01*
X143756276Y-48002974D01*
X143802100Y-47772599D01*
X143802100Y-47477401D01*
X143744510Y-47187875D01*
X143631542Y-46915147D01*
X143467539Y-46669698D01*
X143258802Y-46460961D01*
X143100219Y-46355000D01*
X143258802Y-46249039D01*
X143467539Y-46040302D01*
X143631542Y-45794853D01*
X143744510Y-45522125D01*
X143802100Y-45232599D01*
X143802100Y-45142999D01*
X170554428Y-45142999D01*
X170554428Y-46043001D01*
X170571492Y-46216255D01*
X170622028Y-46382851D01*
X170704095Y-46536387D01*
X170814538Y-46670962D01*
X170949113Y-46781405D01*
X171102649Y-46863472D01*
X171269245Y-46914008D01*
X171442499Y-46931072D01*
X172092501Y-46931072D01*
X172265755Y-46914008D01*
X172432351Y-46863472D01*
X172585887Y-46781405D01*
X172720462Y-46670962D01*
X172792500Y-46583184D01*
X172864538Y-46670962D01*
X172932500Y-46726737D01*
X172932501Y-48075605D01*
X172882295Y-48150744D01*
X172804274Y-48339102D01*
X172764500Y-48539061D01*
X172764500Y-48742939D01*
X172804274Y-48942898D01*
X172882295Y-49131256D01*
X172995563Y-49300774D01*
X173139726Y-49444937D01*
X173309244Y-49558205D01*
X173497602Y-49636226D01*
X173554457Y-49647535D01*
X199876470Y-75969549D01*
X199904183Y-76003317D01*
X199937951Y-76031030D01*
X199937953Y-76031032D01*
X200009452Y-76089710D01*
X200038941Y-76113911D01*
X200192687Y-76196089D01*
X200359510Y-76246695D01*
X200489523Y-76259500D01*
X200489533Y-76259500D01*
X200532999Y-76263781D01*
X200576465Y-76259500D01*
X203907763Y-76259500D01*
X203963538Y-76327462D01*
X204098113Y-76437905D01*
X204251649Y-76519972D01*
X204418245Y-76570508D01*
X204591499Y-76587572D01*
X205491501Y-76587572D01*
X205664755Y-76570508D01*
X205831351Y-76519972D01*
X205984887Y-76437905D01*
X206119462Y-76327462D01*
X206229905Y-76192887D01*
X206311972Y-76039351D01*
X206362508Y-75872755D01*
X206379572Y-75699501D01*
X206379572Y-75360651D01*
X206997470Y-75978549D01*
X207025183Y-76012317D01*
X207058951Y-76040030D01*
X207058953Y-76040032D01*
X207069090Y-76048351D01*
X207159941Y-76122911D01*
X207182957Y-76135213D01*
X207218595Y-76201887D01*
X207329038Y-76336462D01*
X207463613Y-76446905D01*
X207617149Y-76528972D01*
X207783745Y-76579508D01*
X207956999Y-76596572D01*
X208857001Y-76596572D01*
X209030255Y-76579508D01*
X209196851Y-76528972D01*
X209350387Y-76446905D01*
X209484962Y-76336462D01*
X209595405Y-76201887D01*
X209677472Y-76048351D01*
X209728008Y-75881755D01*
X209745072Y-75708501D01*
X209745072Y-75058499D01*
X209728008Y-74885245D01*
X209677472Y-74718649D01*
X209595405Y-74565113D01*
X209484962Y-74430538D01*
X209478406Y-74425158D01*
X209558185Y-74359685D01*
X209637537Y-74262994D01*
X209696502Y-74152680D01*
X209732812Y-74032982D01*
X209745072Y-73908500D01*
X209742000Y-73619250D01*
X209583250Y-73460500D01*
X208534000Y-73460500D01*
X208534000Y-73480500D01*
X208280000Y-73480500D01*
X208280000Y-73460500D01*
X207230750Y-73460500D01*
X207106664Y-73584586D01*
X206364058Y-72841980D01*
X206362508Y-72826245D01*
X206341958Y-72758500D01*
X207068928Y-72758500D01*
X207072000Y-73047750D01*
X207230750Y-73206500D01*
X208280000Y-73206500D01*
X208280000Y-72282250D01*
X208534000Y-72282250D01*
X208534000Y-73206500D01*
X209583250Y-73206500D01*
X209742000Y-73047750D01*
X209745072Y-72758500D01*
X209732812Y-72634018D01*
X209696502Y-72514320D01*
X209637537Y-72404006D01*
X209558185Y-72307315D01*
X209461494Y-72227963D01*
X209351180Y-72168998D01*
X209231482Y-72132688D01*
X209107000Y-72120428D01*
X208692750Y-72123500D01*
X208534000Y-72282250D01*
X208280000Y-72282250D01*
X208121250Y-72123500D01*
X207707000Y-72120428D01*
X207582518Y-72132688D01*
X207462820Y-72168998D01*
X207352506Y-72227963D01*
X207255815Y-72307315D01*
X207176463Y-72404006D01*
X207117498Y-72514320D01*
X207081188Y-72634018D01*
X207068928Y-72758500D01*
X206341958Y-72758500D01*
X206311972Y-72659649D01*
X206229905Y-72506113D01*
X206119462Y-72371538D01*
X205984887Y-72261095D01*
X205831351Y-72179028D01*
X205664755Y-72128492D01*
X205491501Y-72111428D01*
X204591499Y-72111428D01*
X204418245Y-72128492D01*
X204251649Y-72179028D01*
X204098113Y-72261095D01*
X203963538Y-72371538D01*
X203853095Y-72506113D01*
X203771028Y-72659649D01*
X203720492Y-72826245D01*
X203703428Y-72999499D01*
X203703428Y-73649501D01*
X203720492Y-73822755D01*
X203771028Y-73989351D01*
X203853095Y-74142887D01*
X203963538Y-74277462D01*
X204051316Y-74349500D01*
X203963538Y-74421538D01*
X203907763Y-74489500D01*
X200899579Y-74489500D01*
X185587074Y-59176995D01*
X195754000Y-59176995D01*
X195754000Y-59568005D01*
X195830282Y-59951503D01*
X195979915Y-60312750D01*
X196197149Y-60637864D01*
X196473636Y-60914351D01*
X196798750Y-61131585D01*
X197159997Y-61281218D01*
X197543495Y-61357500D01*
X197934505Y-61357500D01*
X198318003Y-61281218D01*
X198679250Y-61131585D01*
X199004364Y-60914351D01*
X199280851Y-60637864D01*
X199498085Y-60312750D01*
X199647718Y-59951503D01*
X199724000Y-59568005D01*
X199724000Y-59176995D01*
X199647718Y-58793497D01*
X199498085Y-58432250D01*
X199280851Y-58107136D01*
X199004364Y-57830649D01*
X198679250Y-57613415D01*
X198318003Y-57463782D01*
X197934505Y-57387500D01*
X197543495Y-57387500D01*
X197159997Y-57463782D01*
X196798750Y-57613415D01*
X196473636Y-57830649D01*
X196197149Y-58107136D01*
X195979915Y-58432250D01*
X195830282Y-58793497D01*
X195754000Y-59176995D01*
X185587074Y-59176995D01*
X174806035Y-48395957D01*
X174794726Y-48339102D01*
X174716705Y-48150744D01*
X174702500Y-48129485D01*
X174702500Y-46726737D01*
X174770462Y-46670962D01*
X174880905Y-46536387D01*
X174962972Y-46382851D01*
X175013508Y-46216255D01*
X175030572Y-46043001D01*
X175030572Y-45142999D01*
X175013508Y-44969745D01*
X174962972Y-44803149D01*
X174880905Y-44649613D01*
X174770462Y-44515038D01*
X174635887Y-44404595D01*
X174482351Y-44322528D01*
X174315755Y-44271992D01*
X174142501Y-44254928D01*
X173658651Y-44254928D01*
X174366732Y-43546846D01*
X174527851Y-43497972D01*
X174681387Y-43415905D01*
X174815962Y-43305462D01*
X174926405Y-43170887D01*
X174937370Y-43150372D01*
X204965500Y-43150372D01*
X204965500Y-43590628D01*
X205051390Y-44022425D01*
X205219869Y-44429169D01*
X205464462Y-44795229D01*
X205775771Y-45106538D01*
X206141831Y-45351131D01*
X206548575Y-45519610D01*
X206980372Y-45605500D01*
X207420628Y-45605500D01*
X207852425Y-45519610D01*
X208259169Y-45351131D01*
X208625229Y-45106538D01*
X208936538Y-44795229D01*
X209181131Y-44429169D01*
X209349610Y-44022425D01*
X209435500Y-43590628D01*
X209435500Y-43150372D01*
X209349610Y-42718575D01*
X209181131Y-42311831D01*
X208936538Y-41945771D01*
X208625229Y-41634462D01*
X208259169Y-41389869D01*
X207852425Y-41221390D01*
X207420628Y-41135500D01*
X206980372Y-41135500D01*
X206548575Y-41221390D01*
X206141831Y-41389869D01*
X205775771Y-41634462D01*
X205464462Y-41945771D01*
X205219869Y-42311831D01*
X205051390Y-42718575D01*
X204965500Y-43150372D01*
X174937370Y-43150372D01*
X175008472Y-43017351D01*
X175059008Y-42850755D01*
X175076072Y-42677501D01*
X175076072Y-41777499D01*
X175059008Y-41604245D01*
X175008472Y-41437649D01*
X174926405Y-41284113D01*
X174815962Y-41149538D01*
X174681387Y-41039095D01*
X174527851Y-40957028D01*
X174361255Y-40906492D01*
X174188001Y-40889428D01*
X173537999Y-40889428D01*
X173364745Y-40906492D01*
X173198149Y-40957028D01*
X173044613Y-41039095D01*
X172910038Y-41149538D01*
X172904658Y-41156094D01*
X172839185Y-41076315D01*
X172742494Y-40996963D01*
X172632180Y-40937998D01*
X172512482Y-40901688D01*
X172388000Y-40889428D01*
X172098750Y-40892500D01*
X171940000Y-41051250D01*
X171940000Y-42100500D01*
X171960000Y-42100500D01*
X171960000Y-42354500D01*
X171940000Y-42354500D01*
X171940000Y-43403750D01*
X171973336Y-43437086D01*
X171172451Y-44237971D01*
X171138684Y-44265683D01*
X171110971Y-44299451D01*
X171110968Y-44299454D01*
X171083735Y-44332638D01*
X170949113Y-44404595D01*
X170814538Y-44515038D01*
X170704095Y-44649613D01*
X170622028Y-44803149D01*
X170571492Y-44969745D01*
X170554428Y-45142999D01*
X143802100Y-45142999D01*
X143802100Y-44937401D01*
X143744510Y-44647875D01*
X143631542Y-44375147D01*
X143467539Y-44129698D01*
X143258802Y-43920961D01*
X143100219Y-43815000D01*
X143258802Y-43709039D01*
X143467539Y-43500302D01*
X143631542Y-43254853D01*
X143744510Y-42982125D01*
X143755375Y-42927500D01*
X170599928Y-42927500D01*
X170612188Y-43051982D01*
X170648498Y-43171680D01*
X170707463Y-43281994D01*
X170786815Y-43378685D01*
X170883506Y-43458037D01*
X170993820Y-43517002D01*
X171113518Y-43553312D01*
X171238000Y-43565572D01*
X171527250Y-43562500D01*
X171686000Y-43403750D01*
X171686000Y-42354500D01*
X170761750Y-42354500D01*
X170603000Y-42513250D01*
X170599928Y-42927500D01*
X143755375Y-42927500D01*
X143802100Y-42692599D01*
X143802100Y-42397401D01*
X143744510Y-42107875D01*
X143631542Y-41835147D01*
X143467539Y-41589698D01*
X143405341Y-41527500D01*
X170599928Y-41527500D01*
X170603000Y-41941750D01*
X170761750Y-42100500D01*
X171686000Y-42100500D01*
X171686000Y-41051250D01*
X171527250Y-40892500D01*
X171238000Y-40889428D01*
X171113518Y-40901688D01*
X170993820Y-40937998D01*
X170883506Y-40996963D01*
X170786815Y-41076315D01*
X170707463Y-41173006D01*
X170648498Y-41283320D01*
X170612188Y-41403018D01*
X170599928Y-41527500D01*
X143405341Y-41527500D01*
X143258802Y-41380961D01*
X143100219Y-41275000D01*
X143258802Y-41169039D01*
X143467539Y-40960302D01*
X143631542Y-40714853D01*
X143744510Y-40442125D01*
X143802100Y-40152599D01*
X143802100Y-39857401D01*
X143744510Y-39567875D01*
X143631542Y-39295147D01*
X143467539Y-39049698D01*
X143258802Y-38840961D01*
X143155478Y-38771922D01*
X143297942Y-38676731D01*
X143515231Y-38459442D01*
X143685954Y-38203937D01*
X143803550Y-37920035D01*
X143863500Y-37618647D01*
X143863500Y-37311353D01*
X143803550Y-37009965D01*
X143685954Y-36726063D01*
X143559960Y-36537500D01*
X212629221Y-36537500D01*
X212927566Y-36566753D01*
X213183500Y-36644024D01*
X213419550Y-36769535D01*
X213626726Y-36938503D01*
X213797138Y-37144495D01*
X213924292Y-37379663D01*
X214003347Y-37635045D01*
X214034492Y-37931371D01*
X214033501Y-153828216D01*
X214004247Y-154126568D01*
X213926976Y-154382500D01*
X213801467Y-154618549D01*
X213632495Y-154825728D01*
X213426503Y-154996139D01*
X213191338Y-155123292D01*
X212935954Y-155202347D01*
X212639629Y-155233492D01*
X96742784Y-155232501D01*
X96444432Y-155203247D01*
X96188500Y-155125976D01*
X95952451Y-155000467D01*
X95745272Y-154831495D01*
X95574861Y-154625503D01*
X95447708Y-154390338D01*
X95368653Y-154134954D01*
X95337509Y-153838634D01*
X95337509Y-148179372D01*
X99936500Y-148179372D01*
X99936500Y-148619628D01*
X100022390Y-149051425D01*
X100190869Y-149458169D01*
X100435462Y-149824229D01*
X100746771Y-150135538D01*
X101112831Y-150380131D01*
X101519575Y-150548610D01*
X101951372Y-150634500D01*
X102391628Y-150634500D01*
X102823425Y-150548610D01*
X103230169Y-150380131D01*
X103341114Y-150306000D01*
X132563428Y-150306000D01*
X132575688Y-150430482D01*
X132611998Y-150550180D01*
X132670963Y-150660494D01*
X132750315Y-150757185D01*
X132847006Y-150836537D01*
X132957320Y-150895502D01*
X133077018Y-150931812D01*
X133201500Y-150944072D01*
X133490750Y-150941000D01*
X133649500Y-150782250D01*
X133649500Y-149733000D01*
X132725250Y-149733000D01*
X132566500Y-149891750D01*
X132563428Y-150306000D01*
X103341114Y-150306000D01*
X103596229Y-150135538D01*
X103907538Y-149824229D01*
X104152131Y-149458169D01*
X104320610Y-149051425D01*
X104349536Y-148906000D01*
X132563428Y-148906000D01*
X132566500Y-149320250D01*
X132725250Y-149479000D01*
X133649500Y-149479000D01*
X133649500Y-148429750D01*
X133490750Y-148271000D01*
X133201500Y-148267928D01*
X133077018Y-148280188D01*
X132957320Y-148316498D01*
X132847006Y-148375463D01*
X132750315Y-148454815D01*
X132670963Y-148551506D01*
X132611998Y-148661820D01*
X132575688Y-148781518D01*
X132563428Y-148906000D01*
X104349536Y-148906000D01*
X104406500Y-148619628D01*
X104406500Y-148179372D01*
X104320610Y-147747575D01*
X104152131Y-147340831D01*
X103907538Y-146974771D01*
X103596229Y-146663462D01*
X103230169Y-146418869D01*
X102823425Y-146250390D01*
X102391628Y-146164500D01*
X101951372Y-146164500D01*
X101519575Y-146250390D01*
X101112831Y-146418869D01*
X100746771Y-146663462D01*
X100435462Y-146974771D01*
X100190869Y-147340831D01*
X100022390Y-147747575D01*
X99936500Y-148179372D01*
X95337509Y-148179372D01*
X95337509Y-113970000D01*
X99690428Y-113970000D01*
X99693500Y-114259250D01*
X99852250Y-114418000D01*
X100901500Y-114418000D01*
X100901500Y-113493750D01*
X101155500Y-113493750D01*
X101155500Y-114418000D01*
X102204750Y-114418000D01*
X102363500Y-114259250D01*
X102366572Y-113970000D01*
X102354312Y-113845518D01*
X102318002Y-113725820D01*
X102259037Y-113615506D01*
X102179685Y-113518815D01*
X102082994Y-113439463D01*
X101972680Y-113380498D01*
X101852982Y-113344188D01*
X101728500Y-113331928D01*
X101314250Y-113335000D01*
X101155500Y-113493750D01*
X100901500Y-113493750D01*
X100742750Y-113335000D01*
X100328500Y-113331928D01*
X100204018Y-113344188D01*
X100084320Y-113380498D01*
X99974006Y-113439463D01*
X99877315Y-113518815D01*
X99797963Y-113615506D01*
X99738998Y-113725820D01*
X99702688Y-113845518D01*
X99690428Y-113970000D01*
X95337509Y-113970000D01*
X95337509Y-86528987D01*
X101356618Y-86528987D01*
X101428504Y-86773212D01*
X101684441Y-86894362D01*
X101959096Y-86963252D01*
X102241913Y-86977238D01*
X102522024Y-86935779D01*
X102788665Y-86840470D01*
X102914496Y-86773212D01*
X102986382Y-86528987D01*
X102171500Y-85714105D01*
X101356618Y-86528987D01*
X95337509Y-86528987D01*
X95337509Y-85604913D01*
X100728762Y-85604913D01*
X100770221Y-85885024D01*
X100865530Y-86151665D01*
X100932788Y-86277496D01*
X101177013Y-86349382D01*
X101991895Y-85534500D01*
X101177013Y-84719618D01*
X100932788Y-84791504D01*
X100811638Y-85047441D01*
X100742748Y-85322096D01*
X100728762Y-85604913D01*
X95337509Y-85604913D01*
X95337509Y-72758500D01*
X99690428Y-72758500D01*
X99693500Y-73047750D01*
X99852250Y-73206500D01*
X100901500Y-73206500D01*
X100901500Y-72282250D01*
X101155500Y-72282250D01*
X101155500Y-73206500D01*
X102204750Y-73206500D01*
X102363500Y-73047750D01*
X102366572Y-72758500D01*
X102354312Y-72634018D01*
X102318002Y-72514320D01*
X102259037Y-72404006D01*
X102179685Y-72307315D01*
X102082994Y-72227963D01*
X101972680Y-72168998D01*
X101852982Y-72132688D01*
X101728500Y-72120428D01*
X101314250Y-72123500D01*
X101155500Y-72282250D01*
X100901500Y-72282250D01*
X100742750Y-72123500D01*
X100328500Y-72120428D01*
X100204018Y-72132688D01*
X100084320Y-72168998D01*
X99974006Y-72227963D01*
X99877315Y-72307315D01*
X99797963Y-72404006D01*
X99738998Y-72514320D01*
X99702688Y-72634018D01*
X99690428Y-72758500D01*
X95337509Y-72758500D01*
X95337509Y-71288987D01*
X101356618Y-71288987D01*
X101428504Y-71533212D01*
X101684441Y-71654362D01*
X101959096Y-71723252D01*
X102241913Y-71737238D01*
X102522024Y-71695779D01*
X102788665Y-71600470D01*
X102914496Y-71533212D01*
X102986382Y-71288987D01*
X102171500Y-70474105D01*
X101356618Y-71288987D01*
X95337509Y-71288987D01*
X95337509Y-70364913D01*
X100728762Y-70364913D01*
X100770221Y-70645024D01*
X100865530Y-70911665D01*
X100932788Y-71037496D01*
X101177013Y-71109382D01*
X101991895Y-70294500D01*
X101177013Y-69479618D01*
X100932788Y-69551504D01*
X100811638Y-69807441D01*
X100742748Y-70082096D01*
X100728762Y-70364913D01*
X95337509Y-70364913D01*
X95337509Y-46675275D01*
X109297824Y-46675275D01*
X109357842Y-47270098D01*
X109532750Y-47841782D01*
X109807745Y-48356260D01*
X110215471Y-48620424D01*
X112167895Y-46668000D01*
X110215471Y-44715576D01*
X109807745Y-44979740D01*
X109527183Y-45507661D01*
X109355004Y-46080173D01*
X109297824Y-46675275D01*
X95337509Y-46675275D01*
X95337509Y-43150372D01*
X99936500Y-43150372D01*
X99936500Y-43590628D01*
X100022390Y-44022425D01*
X100190869Y-44429169D01*
X100435462Y-44795229D01*
X100746771Y-45106538D01*
X101112831Y-45351131D01*
X101519575Y-45519610D01*
X101951372Y-45605500D01*
X102391628Y-45605500D01*
X102823425Y-45519610D01*
X103230169Y-45351131D01*
X103596229Y-45106538D01*
X103907538Y-44795229D01*
X104080768Y-44535971D01*
X110395076Y-44535971D01*
X112347500Y-46488395D01*
X112361643Y-46474253D01*
X112541248Y-46653858D01*
X112527105Y-46668000D01*
X112541248Y-46682143D01*
X112361643Y-46861748D01*
X112347500Y-46847605D01*
X110395076Y-48800029D01*
X110659240Y-49207755D01*
X111187161Y-49488317D01*
X111759673Y-49660496D01*
X112354775Y-49717676D01*
X112949598Y-49657658D01*
X113521282Y-49482750D01*
X114035760Y-49207755D01*
X114192803Y-48965365D01*
X114112500Y-49369079D01*
X114112500Y-49966921D01*
X114229133Y-50553277D01*
X114457918Y-51105612D01*
X114790062Y-51602700D01*
X115212800Y-52025438D01*
X115709888Y-52357582D01*
X116262223Y-52586367D01*
X116848579Y-52703000D01*
X117446421Y-52703000D01*
X118032777Y-52586367D01*
X118585112Y-52357582D01*
X119082200Y-52025438D01*
X119504938Y-51602700D01*
X119837082Y-51105612D01*
X120065867Y-50553277D01*
X120182500Y-49966921D01*
X120182500Y-49369079D01*
X120065867Y-48782723D01*
X119837082Y-48230388D01*
X119504938Y-47733300D01*
X119082200Y-47310562D01*
X118585112Y-46978418D01*
X118062473Y-46761933D01*
X118321282Y-46682750D01*
X118835760Y-46407755D01*
X119099924Y-46000029D01*
X117147500Y-44047605D01*
X117133358Y-44061748D01*
X116953753Y-43882143D01*
X116967895Y-43868000D01*
X117327105Y-43868000D01*
X119279529Y-45820424D01*
X119687255Y-45556260D01*
X119967817Y-45028339D01*
X120139996Y-44455827D01*
X120197176Y-43860725D01*
X120137158Y-43265902D01*
X119962250Y-42694218D01*
X119687255Y-42179740D01*
X119279529Y-41915576D01*
X117327105Y-43868000D01*
X116967895Y-43868000D01*
X115015471Y-41915576D01*
X114607745Y-42179740D01*
X114327183Y-42707661D01*
X114155004Y-43280173D01*
X114097824Y-43875275D01*
X114139506Y-44288372D01*
X114035760Y-44128245D01*
X113507839Y-43847683D01*
X112935327Y-43675504D01*
X112340225Y-43618324D01*
X111745402Y-43678342D01*
X111173718Y-43853250D01*
X110659240Y-44128245D01*
X110395076Y-44535971D01*
X104080768Y-44535971D01*
X104152131Y-44429169D01*
X104320610Y-44022425D01*
X104406500Y-43590628D01*
X104406500Y-43150372D01*
X104320610Y-42718575D01*
X104152131Y-42311831D01*
X103907538Y-41945771D01*
X103697738Y-41735971D01*
X115195076Y-41735971D01*
X117147500Y-43688395D01*
X119099924Y-41735971D01*
X118835760Y-41328245D01*
X118307839Y-41047683D01*
X117735327Y-40875504D01*
X117140225Y-40818324D01*
X116545402Y-40878342D01*
X115973718Y-41053250D01*
X115459240Y-41328245D01*
X115195076Y-41735971D01*
X103697738Y-41735971D01*
X103596229Y-41634462D01*
X103230169Y-41389869D01*
X102823425Y-41221390D01*
X102391628Y-41135500D01*
X101951372Y-41135500D01*
X101519575Y-41221390D01*
X101112831Y-41389869D01*
X100746771Y-41634462D01*
X100435462Y-41945771D01*
X100190869Y-42311831D01*
X100022390Y-42718575D01*
X99936500Y-43150372D01*
X95337509Y-43150372D01*
X95337509Y-37942770D01*
X95366762Y-37644425D01*
X95444033Y-37388491D01*
X95569544Y-37152441D01*
X95738512Y-36945265D01*
X95944504Y-36774853D01*
X96179672Y-36647699D01*
X96435054Y-36568644D01*
X96731375Y-36537500D01*
X125807040Y-36537500D01*
X125681046Y-36726063D01*
G37*
X125681046Y-36726063D02*
X125563450Y-37009965D01*
X125503500Y-37311353D01*
X125503500Y-37618647D01*
X125563450Y-37920035D01*
X125681046Y-38203937D01*
X125851769Y-38459442D01*
X126069058Y-38676731D01*
X126211522Y-38771922D01*
X126108198Y-38840961D01*
X125899461Y-39049698D01*
X125735458Y-39295147D01*
X125622490Y-39567875D01*
X125564900Y-39857401D01*
X125564900Y-40152599D01*
X125622490Y-40442125D01*
X125735458Y-40714853D01*
X125899461Y-40960302D01*
X126108198Y-41169039D01*
X126266781Y-41275000D01*
X126108198Y-41380961D01*
X125899461Y-41589698D01*
X125735458Y-41835147D01*
X125622490Y-42107875D01*
X125564900Y-42397401D01*
X125564900Y-42692599D01*
X125622490Y-42982125D01*
X125735458Y-43254853D01*
X125899461Y-43500302D01*
X126108198Y-43709039D01*
X126266781Y-43815000D01*
X126108198Y-43920961D01*
X125899461Y-44129698D01*
X125735458Y-44375147D01*
X125622490Y-44647875D01*
X125564900Y-44937401D01*
X125564900Y-45232599D01*
X125622490Y-45522125D01*
X125735458Y-45794853D01*
X125899461Y-46040302D01*
X126108198Y-46249039D01*
X126266781Y-46355000D01*
X126108198Y-46460961D01*
X125899461Y-46669698D01*
X125735458Y-46915147D01*
X125622490Y-47187875D01*
X125564900Y-47477401D01*
X125564900Y-47772599D01*
X125622490Y-48062125D01*
X125735458Y-48334853D01*
X125832344Y-48479854D01*
X112397699Y-61914500D01*
X103392551Y-61914500D01*
X103288079Y-61758147D01*
X103087853Y-61557921D01*
X102852411Y-61400604D01*
X102590803Y-61292243D01*
X102313081Y-61237000D01*
X102029919Y-61237000D01*
X101752197Y-61292243D01*
X101490589Y-61400604D01*
X101255147Y-61557921D01*
X101054921Y-61758147D01*
X100897604Y-61993589D01*
X100789243Y-62255197D01*
X100734000Y-62532919D01*
X100734000Y-62816081D01*
X100789243Y-63093803D01*
X100897604Y-63355411D01*
X101054921Y-63590853D01*
X101255147Y-63791079D01*
X101484758Y-63944500D01*
X101255147Y-64097921D01*
X101054921Y-64298147D01*
X100997840Y-64383575D01*
X100830640Y-64216375D01*
X100620176Y-64075747D01*
X100386321Y-63978881D01*
X100138061Y-63929500D01*
X99884939Y-63929500D01*
X99636679Y-63978881D01*
X99402824Y-64075747D01*
X99192360Y-64216375D01*
X99013375Y-64395360D01*
X98872747Y-64605824D01*
X98775881Y-64839679D01*
X98726500Y-65087939D01*
X98726500Y-65341061D01*
X98775881Y-65589321D01*
X98872747Y-65823176D01*
X99013375Y-66033640D01*
X99192360Y-66212625D01*
X99402824Y-66353253D01*
X99636679Y-66450119D01*
X99884939Y-66499500D01*
X100138061Y-66499500D01*
X100386321Y-66450119D01*
X100620176Y-66353253D01*
X100830640Y-66212625D01*
X100997840Y-66045425D01*
X101054921Y-66130853D01*
X101255147Y-66331079D01*
X101484758Y-66484500D01*
X101255147Y-66637921D01*
X101054921Y-66838147D01*
X100897604Y-67073589D01*
X100789243Y-67335197D01*
X100734000Y-67612919D01*
X100734000Y-67896081D01*
X100789243Y-68173803D01*
X100897604Y-68435411D01*
X101054921Y-68670853D01*
X101255147Y-68871079D01*
X101485772Y-69025178D01*
X101428504Y-69055788D01*
X101356618Y-69300013D01*
X102171500Y-70114895D01*
X102185643Y-70100753D01*
X102365248Y-70280358D01*
X102351105Y-70294500D01*
X103165987Y-71109382D01*
X103410212Y-71037496D01*
X103531362Y-70781559D01*
X103600252Y-70506904D01*
X103603648Y-70438227D01*
X103817928Y-70652507D01*
X103817928Y-70674001D01*
X103834992Y-70847255D01*
X103885528Y-71013851D01*
X103967595Y-71167387D01*
X104078038Y-71301962D01*
X104165816Y-71374000D01*
X104078038Y-71446038D01*
X103967595Y-71580613D01*
X103885528Y-71734149D01*
X103834992Y-71900745D01*
X103817928Y-72073999D01*
X103817928Y-72724001D01*
X103834992Y-72897255D01*
X103885528Y-73063851D01*
X103967595Y-73217387D01*
X104024137Y-73286284D01*
X102811922Y-74498500D01*
X102162237Y-74498500D01*
X102106462Y-74430538D01*
X102099906Y-74425158D01*
X102179685Y-74359685D01*
X102259037Y-74262994D01*
X102318002Y-74152680D01*
X102354312Y-74032982D01*
X102366572Y-73908500D01*
X102363500Y-73619250D01*
X102204750Y-73460500D01*
X101155500Y-73460500D01*
X101155500Y-73480500D01*
X100901500Y-73480500D01*
X100901500Y-73460500D01*
X99852250Y-73460500D01*
X99693500Y-73619250D01*
X99690428Y-73908500D01*
X99702688Y-74032982D01*
X99738998Y-74152680D01*
X99797963Y-74262994D01*
X99877315Y-74359685D01*
X99957094Y-74425158D01*
X99950538Y-74430538D01*
X99840095Y-74565113D01*
X99758028Y-74718649D01*
X99707492Y-74885245D01*
X99690428Y-75058499D01*
X99690428Y-75708501D01*
X99707492Y-75881755D01*
X99758028Y-76048351D01*
X99840095Y-76201887D01*
X99950538Y-76336462D01*
X100085113Y-76446905D01*
X100238649Y-76528972D01*
X100405245Y-76579508D01*
X100578499Y-76596572D01*
X101478501Y-76596572D01*
X101633825Y-76581274D01*
X101490589Y-76640604D01*
X101255147Y-76797921D01*
X101054921Y-76998147D01*
X100897604Y-77233589D01*
X100789243Y-77495197D01*
X100734000Y-77772919D01*
X100734000Y-78056081D01*
X100789243Y-78333803D01*
X100897604Y-78595411D01*
X101054921Y-78830853D01*
X101255147Y-79031079D01*
X101484758Y-79184500D01*
X101255147Y-79337921D01*
X101054921Y-79538147D01*
X100997840Y-79623575D01*
X100830640Y-79456375D01*
X100620176Y-79315747D01*
X100386321Y-79218881D01*
X100138061Y-79169500D01*
X99884939Y-79169500D01*
X99636679Y-79218881D01*
X99402824Y-79315747D01*
X99192360Y-79456375D01*
X99013375Y-79635360D01*
X98872747Y-79845824D01*
X98775881Y-80079679D01*
X98726500Y-80327939D01*
X98726500Y-80581061D01*
X98775881Y-80829321D01*
X98872747Y-81063176D01*
X99013375Y-81273640D01*
X99192360Y-81452625D01*
X99402824Y-81593253D01*
X99636679Y-81690119D01*
X99884939Y-81739500D01*
X100138061Y-81739500D01*
X100386321Y-81690119D01*
X100620176Y-81593253D01*
X100830640Y-81452625D01*
X100997840Y-81285425D01*
X101054921Y-81370853D01*
X101255147Y-81571079D01*
X101484758Y-81724500D01*
X101255147Y-81877921D01*
X101054921Y-82078147D01*
X100897604Y-82313589D01*
X100789243Y-82575197D01*
X100734000Y-82852919D01*
X100734000Y-83136081D01*
X100789243Y-83413803D01*
X100897604Y-83675411D01*
X101054921Y-83910853D01*
X101255147Y-84111079D01*
X101485772Y-84265178D01*
X101428504Y-84295788D01*
X101356618Y-84540013D01*
X102171500Y-85354895D01*
X102185643Y-85340753D01*
X102365248Y-85520358D01*
X102351105Y-85534500D01*
X103165987Y-86349382D01*
X103410212Y-86277496D01*
X103531362Y-86021559D01*
X103600252Y-85746904D01*
X103603648Y-85678227D01*
X105541001Y-87615580D01*
X105541000Y-113411721D01*
X105501351Y-113390528D01*
X105334755Y-113339992D01*
X105161501Y-113322928D01*
X104261499Y-113322928D01*
X104088245Y-113339992D01*
X103921649Y-113390528D01*
X103768113Y-113472595D01*
X103633538Y-113583038D01*
X103534187Y-113704097D01*
X103500187Y-113714411D01*
X103346441Y-113796589D01*
X103245453Y-113879468D01*
X103245451Y-113879470D01*
X103211683Y-113907183D01*
X103183970Y-113940951D01*
X102328836Y-114796086D01*
X102204750Y-114672000D01*
X101155500Y-114672000D01*
X101155500Y-114692000D01*
X100901500Y-114692000D01*
X100901500Y-114672000D01*
X99852250Y-114672000D01*
X99693500Y-114830750D01*
X99690428Y-115120000D01*
X99702688Y-115244482D01*
X99738998Y-115364180D01*
X99797963Y-115474494D01*
X99877315Y-115571185D01*
X99957094Y-115636658D01*
X99950538Y-115642038D01*
X99840095Y-115776613D01*
X99758028Y-115930149D01*
X99707492Y-116096745D01*
X99690428Y-116269999D01*
X99690428Y-116920001D01*
X99707492Y-117093255D01*
X99758028Y-117259851D01*
X99840095Y-117413387D01*
X99950538Y-117547962D01*
X100085113Y-117658405D01*
X100238649Y-117740472D01*
X100405245Y-117791008D01*
X100578499Y-117808072D01*
X101478501Y-117808072D01*
X101651755Y-117791008D01*
X101818351Y-117740472D01*
X101971887Y-117658405D01*
X102106462Y-117547962D01*
X102216905Y-117413387D01*
X102252543Y-117346713D01*
X102275559Y-117334411D01*
X102410317Y-117223817D01*
X102438034Y-117190044D01*
X103374122Y-116253957D01*
X103373428Y-116260999D01*
X103373428Y-116911001D01*
X103390492Y-117084255D01*
X103441028Y-117250851D01*
X103523095Y-117404387D01*
X103633538Y-117538962D01*
X103768113Y-117649405D01*
X103921649Y-117731472D01*
X104088245Y-117782008D01*
X104261499Y-117799072D01*
X105161501Y-117799072D01*
X105334755Y-117782008D01*
X105501351Y-117731472D01*
X105654887Y-117649405D01*
X105789462Y-117538962D01*
X105845237Y-117471000D01*
X108472422Y-117471000D01*
X134941500Y-143940079D01*
X134941501Y-144979762D01*
X134873538Y-145035538D01*
X134801500Y-145123316D01*
X134729462Y-145035538D01*
X134594887Y-144925095D01*
X134441351Y-144843028D01*
X134274755Y-144792492D01*
X134101501Y-144775428D01*
X133451499Y-144775428D01*
X133278245Y-144792492D01*
X133111649Y-144843028D01*
X132958113Y-144925095D01*
X132823538Y-145035538D01*
X132713095Y-145170113D01*
X132631028Y-145323649D01*
X132580492Y-145490245D01*
X132563428Y-145663499D01*
X132563428Y-146563501D01*
X132580492Y-146736755D01*
X132631028Y-146903351D01*
X132713095Y-147056887D01*
X132823538Y-147191462D01*
X132958113Y-147301905D01*
X133111649Y-147383972D01*
X133117181Y-147385650D01*
X133147683Y-147422817D01*
X133181456Y-147450534D01*
X134032086Y-148301164D01*
X133903500Y-148429750D01*
X133903500Y-149479000D01*
X133923500Y-149479000D01*
X133923500Y-149733000D01*
X133903500Y-149733000D01*
X133903500Y-150782250D01*
X134062250Y-150941000D01*
X134351500Y-150944072D01*
X134475982Y-150931812D01*
X134595680Y-150895502D01*
X134705994Y-150836537D01*
X134802685Y-150757185D01*
X134868158Y-150677406D01*
X134873538Y-150683962D01*
X135008113Y-150794405D01*
X135161649Y-150876472D01*
X135328245Y-150927008D01*
X135501499Y-150944072D01*
X136151501Y-150944072D01*
X136324755Y-150927008D01*
X136491351Y-150876472D01*
X136644887Y-150794405D01*
X136779462Y-150683962D01*
X136889905Y-150549387D01*
X136971972Y-150395851D01*
X136999227Y-150306000D01*
X170599928Y-150306000D01*
X170612188Y-150430482D01*
X170648498Y-150550180D01*
X170707463Y-150660494D01*
X170786815Y-150757185D01*
X170883506Y-150836537D01*
X170993820Y-150895502D01*
X171113518Y-150931812D01*
X171238000Y-150944072D01*
X171527250Y-150941000D01*
X171686000Y-150782250D01*
X171686000Y-149733000D01*
X170761750Y-149733000D01*
X170603000Y-149891750D01*
X170599928Y-150306000D01*
X136999227Y-150306000D01*
X137022508Y-150229255D01*
X137039572Y-150056001D01*
X137039572Y-149155999D01*
X137022508Y-148982745D01*
X136999228Y-148906000D01*
X170599928Y-148906000D01*
X170603000Y-149320250D01*
X170761750Y-149479000D01*
X171686000Y-149479000D01*
X171686000Y-148429750D01*
X171527250Y-148271000D01*
X171238000Y-148267928D01*
X171113518Y-148280188D01*
X170993820Y-148316498D01*
X170883506Y-148375463D01*
X170786815Y-148454815D01*
X170707463Y-148551506D01*
X170648498Y-148661820D01*
X170612188Y-148781518D01*
X170599928Y-148906000D01*
X136999228Y-148906000D01*
X136971972Y-148816149D01*
X136889905Y-148662613D01*
X136779462Y-148528038D01*
X136644887Y-148417595D01*
X136584948Y-148385557D01*
X136565911Y-148349941D01*
X136483032Y-148248953D01*
X136483030Y-148248951D01*
X136455317Y-148215183D01*
X136421549Y-148187470D01*
X135685651Y-147451572D01*
X136151501Y-147451572D01*
X136324755Y-147434508D01*
X136491351Y-147383972D01*
X136644887Y-147301905D01*
X136779462Y-147191462D01*
X136889905Y-147056887D01*
X136971972Y-146903351D01*
X137022508Y-146736755D01*
X137039572Y-146563501D01*
X137039572Y-145663499D01*
X137022508Y-145490245D01*
X136971972Y-145323649D01*
X136889905Y-145170113D01*
X136779462Y-145035538D01*
X136711500Y-144979763D01*
X136711500Y-144458500D01*
X171972422Y-144458500D01*
X172241401Y-144727480D01*
X172083501Y-144711928D01*
X171433499Y-144711928D01*
X171260245Y-144728992D01*
X171093649Y-144779528D01*
X170940113Y-144861595D01*
X170805538Y-144972038D01*
X170695095Y-145106613D01*
X170613028Y-145260149D01*
X170562492Y-145426745D01*
X170545428Y-145599999D01*
X170545428Y-146500001D01*
X170562492Y-146673255D01*
X170613028Y-146839851D01*
X170695095Y-146993387D01*
X170805538Y-147127962D01*
X170940113Y-147238405D01*
X171006788Y-147274043D01*
X171019089Y-147297058D01*
X171129683Y-147431817D01*
X171163456Y-147459534D01*
X172036836Y-148332914D01*
X171940000Y-148429750D01*
X171940000Y-149479000D01*
X171960000Y-149479000D01*
X171960000Y-149733000D01*
X171940000Y-149733000D01*
X171940000Y-150782250D01*
X172098750Y-150941000D01*
X172388000Y-150944072D01*
X172512482Y-150931812D01*
X172632180Y-150895502D01*
X172742494Y-150836537D01*
X172839185Y-150757185D01*
X172904658Y-150677406D01*
X172910038Y-150683962D01*
X173044613Y-150794405D01*
X173198149Y-150876472D01*
X173364745Y-150927008D01*
X173537999Y-150944072D01*
X174188001Y-150944072D01*
X174361255Y-150927008D01*
X174527851Y-150876472D01*
X174681387Y-150794405D01*
X174815962Y-150683962D01*
X174926405Y-150549387D01*
X175008472Y-150395851D01*
X175059008Y-150229255D01*
X175076072Y-150056001D01*
X175076072Y-149155999D01*
X175059008Y-148982745D01*
X175008472Y-148816149D01*
X174926405Y-148662613D01*
X174815962Y-148528038D01*
X174681387Y-148417595D01*
X174546767Y-148345639D01*
X174519532Y-148312453D01*
X174519530Y-148312451D01*
X174491817Y-148278683D01*
X174458049Y-148250970D01*
X174386451Y-148179372D01*
X204965500Y-148179372D01*
X204965500Y-148619628D01*
X205051390Y-149051425D01*
X205219869Y-149458169D01*
X205464462Y-149824229D01*
X205775771Y-150135538D01*
X206141831Y-150380131D01*
X206548575Y-150548610D01*
X206980372Y-150634500D01*
X207420628Y-150634500D01*
X207852425Y-150548610D01*
X208259169Y-150380131D01*
X208625229Y-150135538D01*
X208936538Y-149824229D01*
X209181131Y-149458169D01*
X209349610Y-149051425D01*
X209435500Y-148619628D01*
X209435500Y-148179372D01*
X209349610Y-147747575D01*
X209181131Y-147340831D01*
X208936538Y-146974771D01*
X208625229Y-146663462D01*
X208259169Y-146418869D01*
X207852425Y-146250390D01*
X207420628Y-146164500D01*
X206980372Y-146164500D01*
X206548575Y-146250390D01*
X206141831Y-146418869D01*
X205775771Y-146663462D01*
X205464462Y-146974771D01*
X205219869Y-147340831D01*
X205051390Y-147747575D01*
X204965500Y-148179372D01*
X174386451Y-148179372D01*
X173595151Y-147388072D01*
X174133501Y-147388072D01*
X174306755Y-147371008D01*
X174473351Y-147320472D01*
X174626887Y-147238405D01*
X174761462Y-147127962D01*
X174871905Y-146993387D01*
X174903114Y-146935000D01*
X179280531Y-146935000D01*
X179324000Y-146939281D01*
X179367469Y-146935000D01*
X179367477Y-146935000D01*
X179497490Y-146922195D01*
X179664313Y-146871589D01*
X179818059Y-146789411D01*
X179952817Y-146678817D01*
X179980534Y-146645044D01*
X205573049Y-121052530D01*
X205606817Y-121024817D01*
X205717411Y-120890059D01*
X205799589Y-120736313D01*
X205850195Y-120569490D01*
X205863000Y-120439477D01*
X205863000Y-120439469D01*
X205867281Y-120396000D01*
X205863000Y-120352531D01*
X205863000Y-117689614D01*
X205921387Y-117658405D01*
X206055962Y-117547962D01*
X206166405Y-117413387D01*
X206248472Y-117259851D01*
X206299008Y-117093255D01*
X206316072Y-116920001D01*
X206316072Y-116381651D01*
X207111385Y-117176963D01*
X207136528Y-117259851D01*
X207218595Y-117413387D01*
X207329038Y-117547962D01*
X207463613Y-117658405D01*
X207617149Y-117740472D01*
X207783745Y-117791008D01*
X207956999Y-117808072D01*
X208857001Y-117808072D01*
X209030255Y-117791008D01*
X209196851Y-117740472D01*
X209350387Y-117658405D01*
X209484962Y-117547962D01*
X209595405Y-117413387D01*
X209677472Y-117259851D01*
X209728008Y-117093255D01*
X209745072Y-116920001D01*
X209745072Y-116269999D01*
X209728008Y-116096745D01*
X209677472Y-115930149D01*
X209595405Y-115776613D01*
X209484962Y-115642038D01*
X209478406Y-115636658D01*
X209558185Y-115571185D01*
X209637537Y-115474494D01*
X209696502Y-115364180D01*
X209732812Y-115244482D01*
X209745072Y-115120000D01*
X209742000Y-114830750D01*
X209583250Y-114672000D01*
X208534000Y-114672000D01*
X208534000Y-114692000D01*
X208280000Y-114692000D01*
X208280000Y-114672000D01*
X207230750Y-114672000D01*
X207170164Y-114732586D01*
X206407578Y-113970000D01*
X207068928Y-113970000D01*
X207072000Y-114259250D01*
X207230750Y-114418000D01*
X208280000Y-114418000D01*
X208280000Y-113493750D01*
X208534000Y-113493750D01*
X208534000Y-114418000D01*
X209583250Y-114418000D01*
X209742000Y-114259250D01*
X209745072Y-113970000D01*
X209732812Y-113845518D01*
X209696502Y-113725820D01*
X209637537Y-113615506D01*
X209558185Y-113518815D01*
X209461494Y-113439463D01*
X209351180Y-113380498D01*
X209231482Y-113344188D01*
X209107000Y-113331928D01*
X208692750Y-113335000D01*
X208534000Y-113493750D01*
X208280000Y-113493750D01*
X208121250Y-113335000D01*
X207707000Y-113331928D01*
X207582518Y-113344188D01*
X207462820Y-113380498D01*
X207352506Y-113439463D01*
X207255815Y-113518815D01*
X207176463Y-113615506D01*
X207117498Y-113725820D01*
X207081188Y-113845518D01*
X207068928Y-113970000D01*
X206407578Y-113970000D01*
X206387534Y-113949956D01*
X206359817Y-113916183D01*
X206225059Y-113805589D01*
X206202043Y-113793287D01*
X206166405Y-113726613D01*
X206055962Y-113592038D01*
X205921387Y-113481595D01*
X205767851Y-113399528D01*
X205601255Y-113348992D01*
X205428001Y-113331928D01*
X204527999Y-113331928D01*
X204354745Y-113348992D01*
X204188149Y-113399528D01*
X204034613Y-113481595D01*
X203900038Y-113592038D01*
X203789595Y-113726613D01*
X203707528Y-113880149D01*
X203656992Y-114046745D01*
X203639928Y-114219999D01*
X203639928Y-114870001D01*
X203656992Y-115043255D01*
X203707528Y-115209851D01*
X203789595Y-115363387D01*
X203900038Y-115497962D01*
X203987816Y-115570000D01*
X203900038Y-115642038D01*
X203789595Y-115776613D01*
X203707528Y-115930149D01*
X203656992Y-116096745D01*
X203639928Y-116269999D01*
X203639928Y-116920001D01*
X203656992Y-117093255D01*
X203707528Y-117259851D01*
X203789595Y-117413387D01*
X203900038Y-117547962D01*
X204034613Y-117658405D01*
X204093000Y-117689614D01*
X204093001Y-120029420D01*
X178957422Y-145165000D01*
X174903114Y-145165000D01*
X174871905Y-145106613D01*
X174761462Y-144972038D01*
X174684579Y-144908941D01*
X174680695Y-144869510D01*
X174630089Y-144702687D01*
X174547911Y-144548941D01*
X174477201Y-144462781D01*
X174465032Y-144447953D01*
X174465030Y-144447951D01*
X174437317Y-144414183D01*
X174403550Y-144386471D01*
X172995534Y-142978456D01*
X172967817Y-142944683D01*
X172833059Y-142834089D01*
X172679313Y-142751911D01*
X172512490Y-142701305D01*
X172382477Y-142688500D01*
X172382469Y-142688500D01*
X172339000Y-142684219D01*
X172295531Y-142688500D01*
X136193079Y-142688500D01*
X111128217Y-117623638D01*
X113467967Y-117623638D01*
X113510402Y-117843153D01*
X113724936Y-117940035D01*
X113954248Y-117993203D01*
X114189525Y-118000613D01*
X114421728Y-117961979D01*
X114641932Y-117878787D01*
X114708598Y-117843153D01*
X114751033Y-117623638D01*
X114109500Y-116982105D01*
X113467967Y-117623638D01*
X111128217Y-117623638D01*
X110387104Y-116882525D01*
X112911387Y-116882525D01*
X112950021Y-117114728D01*
X113033213Y-117334932D01*
X113068847Y-117401598D01*
X113288362Y-117444033D01*
X113929895Y-116802500D01*
X114289105Y-116802500D01*
X114930638Y-117444033D01*
X115150153Y-117401598D01*
X115247035Y-117187064D01*
X115300203Y-116957752D01*
X115307613Y-116722475D01*
X115301346Y-116684803D01*
X117994500Y-116684803D01*
X117994500Y-116920197D01*
X118040423Y-117151069D01*
X118130505Y-117368545D01*
X118261283Y-117564268D01*
X118427732Y-117730717D01*
X118623455Y-117861495D01*
X118840931Y-117951577D01*
X119071803Y-117997500D01*
X119307197Y-117997500D01*
X119538069Y-117951577D01*
X119755545Y-117861495D01*
X119951268Y-117730717D01*
X119994847Y-117687138D01*
X128834967Y-117687138D01*
X128877402Y-117906653D01*
X129091936Y-118003535D01*
X129321248Y-118056703D01*
X129556525Y-118064113D01*
X129788728Y-118025479D01*
X130008932Y-117942287D01*
X130075598Y-117906653D01*
X130118033Y-117687138D01*
X129476500Y-117045605D01*
X128834967Y-117687138D01*
X119994847Y-117687138D01*
X120117717Y-117564268D01*
X120248495Y-117368545D01*
X120338577Y-117151069D01*
X120379362Y-116946025D01*
X128278387Y-116946025D01*
X128317021Y-117178228D01*
X128400213Y-117398432D01*
X128435847Y-117465098D01*
X128655362Y-117507533D01*
X129296895Y-116866000D01*
X129656105Y-116866000D01*
X130297638Y-117507533D01*
X130517153Y-117465098D01*
X130614035Y-117250564D01*
X130667203Y-117021252D01*
X130674613Y-116785975D01*
X130668346Y-116748303D01*
X133361500Y-116748303D01*
X133361500Y-116983697D01*
X133407423Y-117214569D01*
X133497505Y-117432045D01*
X133628283Y-117627768D01*
X133794732Y-117794217D01*
X133990455Y-117924995D01*
X134207931Y-118015077D01*
X134438803Y-118061000D01*
X134674197Y-118061000D01*
X134905069Y-118015077D01*
X135122545Y-117924995D01*
X135318268Y-117794217D01*
X135484717Y-117627768D01*
X135615495Y-117432045D01*
X135704986Y-117215995D01*
X146732000Y-117215995D01*
X146732000Y-117607005D01*
X146808282Y-117990503D01*
X146957915Y-118351750D01*
X147175149Y-118676864D01*
X147451636Y-118953351D01*
X147776750Y-119170585D01*
X148137997Y-119320218D01*
X148521495Y-119396500D01*
X148912505Y-119396500D01*
X149296003Y-119320218D01*
X149657250Y-119170585D01*
X149982364Y-118953351D01*
X150258851Y-118676864D01*
X150476085Y-118351750D01*
X150625718Y-117990503D01*
X150702000Y-117607005D01*
X150702000Y-117215995D01*
X195754000Y-117215995D01*
X195754000Y-117607005D01*
X195830282Y-117990503D01*
X195979915Y-118351750D01*
X196197149Y-118676864D01*
X196473636Y-118953351D01*
X196798750Y-119170585D01*
X197159997Y-119320218D01*
X197543495Y-119396500D01*
X197934505Y-119396500D01*
X198318003Y-119320218D01*
X198679250Y-119170585D01*
X199004364Y-118953351D01*
X199280851Y-118676864D01*
X199498085Y-118351750D01*
X199647718Y-117990503D01*
X199724000Y-117607005D01*
X199724000Y-117215995D01*
X199647718Y-116832497D01*
X199498085Y-116471250D01*
X199280851Y-116146136D01*
X199004364Y-115869649D01*
X198679250Y-115652415D01*
X198318003Y-115502782D01*
X197934505Y-115426500D01*
X197543495Y-115426500D01*
X197159997Y-115502782D01*
X196798750Y-115652415D01*
X196473636Y-115869649D01*
X196197149Y-116146136D01*
X195979915Y-116471250D01*
X195830282Y-116832497D01*
X195754000Y-117215995D01*
X150702000Y-117215995D01*
X150625718Y-116832497D01*
X150476085Y-116471250D01*
X150258851Y-116146136D01*
X149982364Y-115869649D01*
X149657250Y-115652415D01*
X149296003Y-115502782D01*
X148912505Y-115426500D01*
X148521495Y-115426500D01*
X148137997Y-115502782D01*
X147776750Y-115652415D01*
X147451636Y-115869649D01*
X147175149Y-116146136D01*
X146957915Y-116471250D01*
X146808282Y-116832497D01*
X146732000Y-117215995D01*
X135704986Y-117215995D01*
X135705577Y-117214569D01*
X135751500Y-116983697D01*
X135751500Y-116748303D01*
X135705577Y-116517431D01*
X135615495Y-116299955D01*
X135484717Y-116104232D01*
X135318268Y-115937783D01*
X135122545Y-115807005D01*
X134905069Y-115716923D01*
X134674197Y-115671000D01*
X134438803Y-115671000D01*
X134207931Y-115716923D01*
X133990455Y-115807005D01*
X133794732Y-115937783D01*
X133628283Y-116104232D01*
X133497505Y-116299955D01*
X133407423Y-116517431D01*
X133361500Y-116748303D01*
X130668346Y-116748303D01*
X130635979Y-116553772D01*
X130552787Y-116333568D01*
X130517153Y-116266902D01*
X130297638Y-116224467D01*
X129656105Y-116866000D01*
X129296895Y-116866000D01*
X128655362Y-116224467D01*
X128435847Y-116266902D01*
X128338965Y-116481436D01*
X128285797Y-116710748D01*
X128278387Y-116946025D01*
X120379362Y-116946025D01*
X120384500Y-116920197D01*
X120384500Y-116684803D01*
X120338577Y-116453931D01*
X120248495Y-116236455D01*
X120120477Y-116044862D01*
X128834967Y-116044862D01*
X129476500Y-116686395D01*
X130118033Y-116044862D01*
X130075598Y-115825347D01*
X129861064Y-115728465D01*
X129631752Y-115675297D01*
X129396475Y-115667887D01*
X129164272Y-115706521D01*
X128944068Y-115789713D01*
X128877402Y-115825347D01*
X128834967Y-116044862D01*
X120120477Y-116044862D01*
X120117717Y-116040732D01*
X119951268Y-115874283D01*
X119755545Y-115743505D01*
X119538069Y-115653423D01*
X119307197Y-115607500D01*
X119071803Y-115607500D01*
X118840931Y-115653423D01*
X118623455Y-115743505D01*
X118427732Y-115874283D01*
X118261283Y-116040732D01*
X118130505Y-116236455D01*
X118040423Y-116453931D01*
X117994500Y-116684803D01*
X115301346Y-116684803D01*
X115268979Y-116490272D01*
X115185787Y-116270068D01*
X115150153Y-116203402D01*
X114930638Y-116160967D01*
X114289105Y-116802500D01*
X113929895Y-116802500D01*
X113288362Y-116160967D01*
X113068847Y-116203402D01*
X112971965Y-116417936D01*
X112918797Y-116647248D01*
X112911387Y-116882525D01*
X110387104Y-116882525D01*
X109495532Y-115990954D01*
X109487661Y-115981362D01*
X113467967Y-115981362D01*
X114109500Y-116622895D01*
X114751033Y-115981362D01*
X114708598Y-115761847D01*
X114494064Y-115664965D01*
X114264752Y-115611797D01*
X114029475Y-115604387D01*
X113797272Y-115643021D01*
X113577068Y-115726213D01*
X113510402Y-115761847D01*
X113467967Y-115981362D01*
X109487661Y-115981362D01*
X109467817Y-115957183D01*
X109333059Y-115846589D01*
X109179313Y-115764411D01*
X109012490Y-115713805D01*
X108882477Y-115701000D01*
X108882469Y-115701000D01*
X108839000Y-115696719D01*
X108795531Y-115701000D01*
X106848079Y-115701000D01*
X107021050Y-115528029D01*
X107054817Y-115500317D01*
X107089957Y-115457500D01*
X107165410Y-115365560D01*
X107165411Y-115365559D01*
X107247589Y-115211813D01*
X107298195Y-115044990D01*
X107311000Y-114914977D01*
X107311000Y-114914967D01*
X107315281Y-114871501D01*
X107311000Y-114828035D01*
X107311000Y-114144803D01*
X115454500Y-114144803D01*
X115454500Y-114380197D01*
X115500423Y-114611069D01*
X115590505Y-114828545D01*
X115721283Y-115024268D01*
X115887732Y-115190717D01*
X116083455Y-115321495D01*
X116300931Y-115411577D01*
X116531803Y-115457500D01*
X116767197Y-115457500D01*
X116998069Y-115411577D01*
X117215545Y-115321495D01*
X117411268Y-115190717D01*
X117577717Y-115024268D01*
X117708495Y-114828545D01*
X117798577Y-114611069D01*
X117844500Y-114380197D01*
X117844500Y-114208303D01*
X130821500Y-114208303D01*
X130821500Y-114443697D01*
X130867423Y-114674569D01*
X130957505Y-114892045D01*
X131088283Y-115087768D01*
X131254732Y-115254217D01*
X131450455Y-115384995D01*
X131667931Y-115475077D01*
X131898803Y-115521000D01*
X132134197Y-115521000D01*
X132365069Y-115475077D01*
X132582545Y-115384995D01*
X132778268Y-115254217D01*
X132944717Y-115087768D01*
X133075495Y-114892045D01*
X133165577Y-114674569D01*
X133211500Y-114443697D01*
X133211500Y-114208303D01*
X133165577Y-113977431D01*
X133075495Y-113759955D01*
X132944717Y-113564232D01*
X132778268Y-113397783D01*
X132582545Y-113267005D01*
X132365069Y-113176923D01*
X132134197Y-113131000D01*
X131898803Y-113131000D01*
X131667931Y-113176923D01*
X131450455Y-113267005D01*
X131254732Y-113397783D01*
X131088283Y-113564232D01*
X130957505Y-113759955D01*
X130867423Y-113977431D01*
X130821500Y-114208303D01*
X117844500Y-114208303D01*
X117844500Y-114144803D01*
X117798577Y-113913931D01*
X117708495Y-113696455D01*
X117577717Y-113500732D01*
X117411268Y-113334283D01*
X117215545Y-113203505D01*
X116998069Y-113113423D01*
X116767197Y-113067500D01*
X116531803Y-113067500D01*
X116300931Y-113113423D01*
X116083455Y-113203505D01*
X115887732Y-113334283D01*
X115721283Y-113500732D01*
X115590505Y-113696455D01*
X115500423Y-113913931D01*
X115454500Y-114144803D01*
X107311000Y-114144803D01*
X107311000Y-87292469D01*
X107315281Y-87249000D01*
X107311000Y-87205531D01*
X107311000Y-87205523D01*
X107298195Y-87075510D01*
X107268384Y-86977238D01*
X107247589Y-86908686D01*
X107165411Y-86754941D01*
X107082532Y-86653953D01*
X107082530Y-86653951D01*
X107054817Y-86620183D01*
X107021049Y-86592470D01*
X105416079Y-84987500D01*
X119098428Y-84987500D01*
X119110688Y-85111982D01*
X119146998Y-85231680D01*
X119205963Y-85341994D01*
X119285315Y-85438685D01*
X119382006Y-85518037D01*
X119492320Y-85577002D01*
X119612018Y-85613312D01*
X119736500Y-85625572D01*
X120300750Y-85622500D01*
X120459500Y-85463750D01*
X120459500Y-84264500D01*
X119260250Y-84264500D01*
X119101500Y-84423250D01*
X119098428Y-84987500D01*
X105416079Y-84987500D01*
X103716079Y-83287500D01*
X119098428Y-83287500D01*
X119101500Y-83851750D01*
X119260250Y-84010500D01*
X120459500Y-84010500D01*
X120459500Y-82811250D01*
X120713500Y-82811250D01*
X120713500Y-84010500D01*
X120733500Y-84010500D01*
X120733500Y-84264500D01*
X120713500Y-84264500D01*
X120713500Y-85463750D01*
X120872250Y-85622500D01*
X121436500Y-85625572D01*
X121560982Y-85613312D01*
X121680680Y-85577002D01*
X121790994Y-85518037D01*
X121887685Y-85438685D01*
X121967037Y-85341994D01*
X122026002Y-85231680D01*
X122048013Y-85159120D01*
X122179868Y-85290975D01*
X122423089Y-85453490D01*
X122693342Y-85565432D01*
X122980240Y-85622500D01*
X123272760Y-85622500D01*
X123559658Y-85565432D01*
X123829911Y-85453490D01*
X124073132Y-85290975D01*
X124279975Y-85084132D01*
X124396500Y-84909740D01*
X124513025Y-85084132D01*
X124719868Y-85290975D01*
X124963089Y-85453490D01*
X125233342Y-85565432D01*
X125520240Y-85622500D01*
X125812760Y-85622500D01*
X126099658Y-85565432D01*
X126369911Y-85453490D01*
X126613132Y-85290975D01*
X126819975Y-85084132D01*
X126936500Y-84909740D01*
X127053025Y-85084132D01*
X127259868Y-85290975D01*
X127503089Y-85453490D01*
X127773342Y-85565432D01*
X128060240Y-85622500D01*
X128352760Y-85622500D01*
X128639658Y-85565432D01*
X128909911Y-85453490D01*
X129153132Y-85290975D01*
X129359975Y-85084132D01*
X129522490Y-84840911D01*
X129634432Y-84570658D01*
X129691500Y-84283760D01*
X129691500Y-83991240D01*
X129634432Y-83704342D01*
X129522490Y-83434089D01*
X129359975Y-83190868D01*
X129153132Y-82984025D01*
X128909911Y-82821510D01*
X128639658Y-82709568D01*
X128352760Y-82652500D01*
X128060240Y-82652500D01*
X127773342Y-82709568D01*
X127503089Y-82821510D01*
X127259868Y-82984025D01*
X127053025Y-83190868D01*
X126936500Y-83365260D01*
X126819975Y-83190868D01*
X126613132Y-82984025D01*
X126369911Y-82821510D01*
X126099658Y-82709568D01*
X125812760Y-82652500D01*
X125520240Y-82652500D01*
X125233342Y-82709568D01*
X124963089Y-82821510D01*
X124719868Y-82984025D01*
X124513025Y-83190868D01*
X124396500Y-83365260D01*
X124279975Y-83190868D01*
X124073132Y-82984025D01*
X123829911Y-82821510D01*
X123559658Y-82709568D01*
X123272760Y-82652500D01*
X122980240Y-82652500D01*
X122693342Y-82709568D01*
X122423089Y-82821510D01*
X122179868Y-82984025D01*
X122048013Y-83115880D01*
X122026002Y-83043320D01*
X121967037Y-82933006D01*
X121887685Y-82836315D01*
X121790994Y-82756963D01*
X121680680Y-82697998D01*
X121560982Y-82661688D01*
X121436500Y-82649428D01*
X120872250Y-82652500D01*
X120713500Y-82811250D01*
X120459500Y-82811250D01*
X120300750Y-82652500D01*
X119736500Y-82649428D01*
X119612018Y-82661688D01*
X119492320Y-82697998D01*
X119382006Y-82756963D01*
X119285315Y-82836315D01*
X119205963Y-82933006D01*
X119146998Y-83043320D01*
X119110688Y-83163018D01*
X119098428Y-83287500D01*
X103716079Y-83287500D01*
X103601643Y-83173065D01*
X103609000Y-83136081D01*
X103609000Y-82852919D01*
X103601643Y-82815935D01*
X104570079Y-81847500D01*
X132735031Y-81847500D01*
X132778500Y-81851781D01*
X132821969Y-81847500D01*
X132821977Y-81847500D01*
X132951990Y-81834695D01*
X133118813Y-81784089D01*
X133272559Y-81701911D01*
X133407317Y-81591317D01*
X133435034Y-81557544D01*
X135119044Y-79873535D01*
X135175898Y-79862226D01*
X135364256Y-79784205D01*
X135533774Y-79670937D01*
X135677937Y-79526774D01*
X135791205Y-79357256D01*
X135869226Y-79168898D01*
X135909000Y-78968939D01*
X135909000Y-78765061D01*
X135869226Y-78565102D01*
X135791205Y-78376744D01*
X135677937Y-78207226D01*
X135533774Y-78063063D01*
X135366588Y-77951353D01*
X140743500Y-77951353D01*
X140743500Y-78258647D01*
X140803450Y-78560035D01*
X140921046Y-78843937D01*
X141091769Y-79099442D01*
X141309058Y-79316731D01*
X141564563Y-79487454D01*
X141848465Y-79605050D01*
X142149853Y-79665000D01*
X142457147Y-79665000D01*
X142758535Y-79605050D01*
X143042437Y-79487454D01*
X143297942Y-79316731D01*
X143515231Y-79099442D01*
X143685954Y-78843937D01*
X143803550Y-78560035D01*
X143863500Y-78258647D01*
X143863500Y-77951353D01*
X143803550Y-77649965D01*
X143685954Y-77366063D01*
X143515231Y-77110558D01*
X143418771Y-77014098D01*
X143521594Y-76959137D01*
X143618285Y-76879785D01*
X143697637Y-76783094D01*
X143756602Y-76672780D01*
X143792912Y-76553082D01*
X143805172Y-76428600D01*
X143805172Y-74701400D01*
X143792912Y-74576918D01*
X143756602Y-74457220D01*
X143697637Y-74346906D01*
X143618285Y-74250215D01*
X143521594Y-74170863D01*
X143411280Y-74111898D01*
X143353477Y-74094364D01*
X143467539Y-73980302D01*
X143631542Y-73734853D01*
X143744510Y-73462125D01*
X143802100Y-73172599D01*
X143802100Y-72877401D01*
X143744510Y-72587875D01*
X143631542Y-72315147D01*
X143467539Y-72069698D01*
X143258802Y-71860961D01*
X143100219Y-71755000D01*
X143258802Y-71649039D01*
X143467539Y-71440302D01*
X143631542Y-71194853D01*
X143744510Y-70922125D01*
X143802100Y-70632599D01*
X143802100Y-70337401D01*
X143744510Y-70047875D01*
X143631542Y-69775147D01*
X143467539Y-69529698D01*
X143258802Y-69320961D01*
X143090625Y-69208589D01*
X143161999Y-68983104D01*
X142303500Y-68124605D01*
X141445001Y-68983104D01*
X141516375Y-69208589D01*
X141348198Y-69320961D01*
X141139461Y-69529698D01*
X140975458Y-69775147D01*
X140862490Y-70047875D01*
X140804900Y-70337401D01*
X140804900Y-70632599D01*
X140862490Y-70922125D01*
X140975458Y-71194853D01*
X141139461Y-71440302D01*
X141348198Y-71649039D01*
X141506781Y-71755000D01*
X141348198Y-71860961D01*
X141139461Y-72069698D01*
X140975458Y-72315147D01*
X140862490Y-72587875D01*
X140804900Y-72877401D01*
X140804900Y-73172599D01*
X140862490Y-73462125D01*
X140975458Y-73734853D01*
X141139461Y-73980302D01*
X141253523Y-74094364D01*
X141195720Y-74111898D01*
X141085406Y-74170863D01*
X140988715Y-74250215D01*
X140909363Y-74346906D01*
X140850398Y-74457220D01*
X140814088Y-74576918D01*
X140801828Y-74701400D01*
X140801828Y-76428600D01*
X140814088Y-76553082D01*
X140850398Y-76672780D01*
X140909363Y-76783094D01*
X140988715Y-76879785D01*
X141085406Y-76959137D01*
X141188229Y-77014098D01*
X141091769Y-77110558D01*
X140921046Y-77366063D01*
X140803450Y-77649965D01*
X140743500Y-77951353D01*
X135366588Y-77951353D01*
X135364256Y-77949795D01*
X135175898Y-77871774D01*
X134975939Y-77832000D01*
X134772061Y-77832000D01*
X134572102Y-77871774D01*
X134383744Y-77949795D01*
X134214226Y-78063063D01*
X134070063Y-78207226D01*
X133956795Y-78376744D01*
X133878774Y-78565102D01*
X133867465Y-78621956D01*
X132411922Y-80077500D01*
X104246969Y-80077500D01*
X104203500Y-80073219D01*
X104160031Y-80077500D01*
X104160023Y-80077500D01*
X104044806Y-80088848D01*
X104030009Y-80090305D01*
X103979403Y-80105657D01*
X103863187Y-80140911D01*
X103709441Y-80223089D01*
X103709439Y-80223090D01*
X103709440Y-80223090D01*
X103608453Y-80305968D01*
X103608451Y-80305970D01*
X103607735Y-80306558D01*
X103572314Y-80128487D01*
X105749448Y-77951353D01*
X125503500Y-77951353D01*
X125503500Y-78258647D01*
X125563450Y-78560035D01*
X125681046Y-78843937D01*
X125851769Y-79099442D01*
X126069058Y-79316731D01*
X126324563Y-79487454D01*
X126608465Y-79605050D01*
X126909853Y-79665000D01*
X127217147Y-79665000D01*
X127518535Y-79605050D01*
X127802437Y-79487454D01*
X128057942Y-79316731D01*
X128275231Y-79099442D01*
X128445954Y-78843937D01*
X128563550Y-78560035D01*
X128623500Y-78258647D01*
X128623500Y-77951353D01*
X128563550Y-77649965D01*
X128445954Y-77366063D01*
X128275231Y-77110558D01*
X128057942Y-76893269D01*
X127915478Y-76798078D01*
X128018802Y-76729039D01*
X128227539Y-76520302D01*
X128391542Y-76274853D01*
X128504510Y-76002125D01*
X128562100Y-75712599D01*
X128562100Y-75417401D01*
X128504510Y-75127875D01*
X128391542Y-74855147D01*
X128227539Y-74609698D01*
X128018802Y-74400961D01*
X127850625Y-74288589D01*
X127921999Y-74063104D01*
X127063500Y-73204605D01*
X126205001Y-74063104D01*
X126276375Y-74288589D01*
X126108198Y-74400961D01*
X125899461Y-74609698D01*
X125735458Y-74855147D01*
X125622490Y-75127875D01*
X125564900Y-75417401D01*
X125564900Y-75712599D01*
X125622490Y-76002125D01*
X125735458Y-76274853D01*
X125899461Y-76520302D01*
X126108198Y-76729039D01*
X126211522Y-76798078D01*
X126069058Y-76893269D01*
X125851769Y-77110558D01*
X125681046Y-77366063D01*
X125563450Y-77649965D01*
X125503500Y-77951353D01*
X105749448Y-77951353D01*
X109235801Y-74465000D01*
X115419428Y-74465000D01*
X115419428Y-76665000D01*
X115431688Y-76789482D01*
X115467998Y-76909180D01*
X115526963Y-77019494D01*
X115606315Y-77116185D01*
X115703006Y-77195537D01*
X115813320Y-77254502D01*
X115933018Y-77290812D01*
X116057500Y-77303072D01*
X118257500Y-77303072D01*
X118381982Y-77290812D01*
X118501680Y-77254502D01*
X118611994Y-77195537D01*
X118708685Y-77116185D01*
X118788037Y-77019494D01*
X118847002Y-76909180D01*
X118883312Y-76789482D01*
X118895572Y-76665000D01*
X118895572Y-74465000D01*
X118883312Y-74340518D01*
X118847002Y-74220820D01*
X118788037Y-74110506D01*
X118708685Y-74013815D01*
X118611994Y-73934463D01*
X118501680Y-73875498D01*
X118381982Y-73839188D01*
X118257500Y-73826928D01*
X116057500Y-73826928D01*
X115933018Y-73839188D01*
X115813320Y-73875498D01*
X115703006Y-73934463D01*
X115606315Y-74013815D01*
X115526963Y-74110506D01*
X115467998Y-74220820D01*
X115431688Y-74340518D01*
X115419428Y-74465000D01*
X109235801Y-74465000D01*
X111185802Y-72515000D01*
X125646946Y-72515000D01*
X125574825Y-72798210D01*
X125559185Y-73092993D01*
X125601355Y-73385164D01*
X125699714Y-73663493D01*
X125774933Y-73804218D01*
X126025396Y-73883499D01*
X126883895Y-73025000D01*
X126869753Y-73010858D01*
X127049358Y-72831253D01*
X127063500Y-72845395D01*
X127077643Y-72831253D01*
X127257248Y-73010858D01*
X127243105Y-73025000D01*
X128101604Y-73883499D01*
X128352067Y-73804218D01*
X128479326Y-73537859D01*
X128552175Y-73251790D01*
X128567815Y-72957007D01*
X128525645Y-72664836D01*
X128472694Y-72515000D01*
X135916178Y-72515000D01*
X135953500Y-72518676D01*
X135990822Y-72515000D01*
X135990833Y-72515000D01*
X136102486Y-72504003D01*
X136245747Y-72460546D01*
X136377776Y-72389974D01*
X136493501Y-72295001D01*
X136517304Y-72265997D01*
X140800803Y-67982499D01*
X140799185Y-68012993D01*
X140841355Y-68305164D01*
X140939714Y-68583493D01*
X141014933Y-68724218D01*
X141265396Y-68803499D01*
X142123895Y-67945000D01*
X142483105Y-67945000D01*
X143341604Y-68803499D01*
X143592067Y-68724218D01*
X143719326Y-68457859D01*
X143792175Y-68171790D01*
X143807815Y-67877007D01*
X143765645Y-67584836D01*
X143667286Y-67306507D01*
X143592067Y-67165782D01*
X143341604Y-67086501D01*
X142483105Y-67945000D01*
X142123895Y-67945000D01*
X142109753Y-67930858D01*
X142289358Y-67751253D01*
X142303500Y-67765395D01*
X143161999Y-66906896D01*
X143090625Y-66681411D01*
X143258802Y-66569039D01*
X143467539Y-66360302D01*
X143631542Y-66114853D01*
X143744510Y-65842125D01*
X143802100Y-65552599D01*
X143802100Y-65257401D01*
X143744510Y-64967875D01*
X143631542Y-64695147D01*
X143467539Y-64449698D01*
X143258802Y-64240961D01*
X143100219Y-64135000D01*
X143258802Y-64029039D01*
X143467539Y-63820302D01*
X143631542Y-63574853D01*
X143744510Y-63302125D01*
X143802100Y-63012599D01*
X143802100Y-62717401D01*
X143744510Y-62427875D01*
X143631542Y-62155147D01*
X143467539Y-61909698D01*
X143258802Y-61700961D01*
X143100219Y-61595000D01*
X143258802Y-61489039D01*
X143467539Y-61280302D01*
X143631542Y-61034853D01*
X143744510Y-60762125D01*
X143802100Y-60472599D01*
X143802100Y-60177401D01*
X143744510Y-59887875D01*
X143631542Y-59615147D01*
X143467539Y-59369698D01*
X143274836Y-59176995D01*
X146732000Y-59176995D01*
X146732000Y-59568005D01*
X146808282Y-59951503D01*
X146957915Y-60312750D01*
X147175149Y-60637864D01*
X147451636Y-60914351D01*
X147776750Y-61131585D01*
X148137997Y-61281218D01*
X148521495Y-61357500D01*
X148912505Y-61357500D01*
X149296003Y-61281218D01*
X149657250Y-61131585D01*
X149982364Y-60914351D01*
X150258851Y-60637864D01*
X150476085Y-60312750D01*
X150625718Y-59951503D01*
X150702000Y-59568005D01*
X150702000Y-59176995D01*
X150625718Y-58793497D01*
X150476085Y-58432250D01*
X150258851Y-58107136D01*
X149982364Y-57830649D01*
X149657250Y-57613415D01*
X149296003Y-57463782D01*
X148912505Y-57387500D01*
X148521495Y-57387500D01*
X148137997Y-57463782D01*
X147776750Y-57613415D01*
X147451636Y-57830649D01*
X147175149Y-58107136D01*
X146957915Y-58432250D01*
X146808282Y-58793497D01*
X146732000Y-59176995D01*
X143274836Y-59176995D01*
X143258802Y-59160961D01*
X143100219Y-59055000D01*
X143258802Y-58949039D01*
X143467539Y-58740302D01*
X143631542Y-58494853D01*
X143744510Y-58222125D01*
X143802100Y-57932599D01*
X143802100Y-57637401D01*
X143744510Y-57347875D01*
X143631542Y-57075147D01*
X143560090Y-56968211D01*
X144529004Y-55999298D01*
X144558001Y-55975501D01*
X144652974Y-55859776D01*
X144723546Y-55727747D01*
X144767003Y-55584486D01*
X144778000Y-55472833D01*
X144778000Y-55472832D01*
X144781677Y-55435500D01*
X144778000Y-55398167D01*
X144778000Y-49376822D01*
X144781676Y-49339499D01*
X144778000Y-49302176D01*
X144778000Y-49302167D01*
X144767003Y-49190514D01*
X144723546Y-49047253D01*
X144688300Y-48981313D01*
X144652974Y-48915223D01*
X144581799Y-48828497D01*
X144558001Y-48799499D01*
X144529003Y-48775701D01*
X143756276Y-48002974D01*
X143802100Y-47772599D01*
X143802100Y-47477401D01*
X143744510Y-47187875D01*
X143631542Y-46915147D01*
X143467539Y-46669698D01*
X143258802Y-46460961D01*
X143100219Y-46355000D01*
X143258802Y-46249039D01*
X143467539Y-46040302D01*
X143631542Y-45794853D01*
X143744510Y-45522125D01*
X143802100Y-45232599D01*
X143802100Y-45142999D01*
X170554428Y-45142999D01*
X170554428Y-46043001D01*
X170571492Y-46216255D01*
X170622028Y-46382851D01*
X170704095Y-46536387D01*
X170814538Y-46670962D01*
X170949113Y-46781405D01*
X171102649Y-46863472D01*
X171269245Y-46914008D01*
X171442499Y-46931072D01*
X172092501Y-46931072D01*
X172265755Y-46914008D01*
X172432351Y-46863472D01*
X172585887Y-46781405D01*
X172720462Y-46670962D01*
X172792500Y-46583184D01*
X172864538Y-46670962D01*
X172932500Y-46726737D01*
X172932501Y-48075605D01*
X172882295Y-48150744D01*
X172804274Y-48339102D01*
X172764500Y-48539061D01*
X172764500Y-48742939D01*
X172804274Y-48942898D01*
X172882295Y-49131256D01*
X172995563Y-49300774D01*
X173139726Y-49444937D01*
X173309244Y-49558205D01*
X173497602Y-49636226D01*
X173554457Y-49647535D01*
X199876470Y-75969549D01*
X199904183Y-76003317D01*
X199937951Y-76031030D01*
X199937953Y-76031032D01*
X200009452Y-76089710D01*
X200038941Y-76113911D01*
X200192687Y-76196089D01*
X200359510Y-76246695D01*
X200489523Y-76259500D01*
X200489533Y-76259500D01*
X200532999Y-76263781D01*
X200576465Y-76259500D01*
X203907763Y-76259500D01*
X203963538Y-76327462D01*
X204098113Y-76437905D01*
X204251649Y-76519972D01*
X204418245Y-76570508D01*
X204591499Y-76587572D01*
X205491501Y-76587572D01*
X205664755Y-76570508D01*
X205831351Y-76519972D01*
X205984887Y-76437905D01*
X206119462Y-76327462D01*
X206229905Y-76192887D01*
X206311972Y-76039351D01*
X206362508Y-75872755D01*
X206379572Y-75699501D01*
X206379572Y-75360651D01*
X206997470Y-75978549D01*
X207025183Y-76012317D01*
X207058951Y-76040030D01*
X207058953Y-76040032D01*
X207069090Y-76048351D01*
X207159941Y-76122911D01*
X207182957Y-76135213D01*
X207218595Y-76201887D01*
X207329038Y-76336462D01*
X207463613Y-76446905D01*
X207617149Y-76528972D01*
X207783745Y-76579508D01*
X207956999Y-76596572D01*
X208857001Y-76596572D01*
X209030255Y-76579508D01*
X209196851Y-76528972D01*
X209350387Y-76446905D01*
X209484962Y-76336462D01*
X209595405Y-76201887D01*
X209677472Y-76048351D01*
X209728008Y-75881755D01*
X209745072Y-75708501D01*
X209745072Y-75058499D01*
X209728008Y-74885245D01*
X209677472Y-74718649D01*
X209595405Y-74565113D01*
X209484962Y-74430538D01*
X209478406Y-74425158D01*
X209558185Y-74359685D01*
X209637537Y-74262994D01*
X209696502Y-74152680D01*
X209732812Y-74032982D01*
X209745072Y-73908500D01*
X209742000Y-73619250D01*
X209583250Y-73460500D01*
X208534000Y-73460500D01*
X208534000Y-73480500D01*
X208280000Y-73480500D01*
X208280000Y-73460500D01*
X207230750Y-73460500D01*
X207106664Y-73584586D01*
X206364058Y-72841980D01*
X206362508Y-72826245D01*
X206341958Y-72758500D01*
X207068928Y-72758500D01*
X207072000Y-73047750D01*
X207230750Y-73206500D01*
X208280000Y-73206500D01*
X208280000Y-72282250D01*
X208534000Y-72282250D01*
X208534000Y-73206500D01*
X209583250Y-73206500D01*
X209742000Y-73047750D01*
X209745072Y-72758500D01*
X209732812Y-72634018D01*
X209696502Y-72514320D01*
X209637537Y-72404006D01*
X209558185Y-72307315D01*
X209461494Y-72227963D01*
X209351180Y-72168998D01*
X209231482Y-72132688D01*
X209107000Y-72120428D01*
X208692750Y-72123500D01*
X208534000Y-72282250D01*
X208280000Y-72282250D01*
X208121250Y-72123500D01*
X207707000Y-72120428D01*
X207582518Y-72132688D01*
X207462820Y-72168998D01*
X207352506Y-72227963D01*
X207255815Y-72307315D01*
X207176463Y-72404006D01*
X207117498Y-72514320D01*
X207081188Y-72634018D01*
X207068928Y-72758500D01*
X206341958Y-72758500D01*
X206311972Y-72659649D01*
X206229905Y-72506113D01*
X206119462Y-72371538D01*
X205984887Y-72261095D01*
X205831351Y-72179028D01*
X205664755Y-72128492D01*
X205491501Y-72111428D01*
X204591499Y-72111428D01*
X204418245Y-72128492D01*
X204251649Y-72179028D01*
X204098113Y-72261095D01*
X203963538Y-72371538D01*
X203853095Y-72506113D01*
X203771028Y-72659649D01*
X203720492Y-72826245D01*
X203703428Y-72999499D01*
X203703428Y-73649501D01*
X203720492Y-73822755D01*
X203771028Y-73989351D01*
X203853095Y-74142887D01*
X203963538Y-74277462D01*
X204051316Y-74349500D01*
X203963538Y-74421538D01*
X203907763Y-74489500D01*
X200899579Y-74489500D01*
X185587074Y-59176995D01*
X195754000Y-59176995D01*
X195754000Y-59568005D01*
X195830282Y-59951503D01*
X195979915Y-60312750D01*
X196197149Y-60637864D01*
X196473636Y-60914351D01*
X196798750Y-61131585D01*
X197159997Y-61281218D01*
X197543495Y-61357500D01*
X197934505Y-61357500D01*
X198318003Y-61281218D01*
X198679250Y-61131585D01*
X199004364Y-60914351D01*
X199280851Y-60637864D01*
X199498085Y-60312750D01*
X199647718Y-59951503D01*
X199724000Y-59568005D01*
X199724000Y-59176995D01*
X199647718Y-58793497D01*
X199498085Y-58432250D01*
X199280851Y-58107136D01*
X199004364Y-57830649D01*
X198679250Y-57613415D01*
X198318003Y-57463782D01*
X197934505Y-57387500D01*
X197543495Y-57387500D01*
X197159997Y-57463782D01*
X196798750Y-57613415D01*
X196473636Y-57830649D01*
X196197149Y-58107136D01*
X195979915Y-58432250D01*
X195830282Y-58793497D01*
X195754000Y-59176995D01*
X185587074Y-59176995D01*
X174806035Y-48395957D01*
X174794726Y-48339102D01*
X174716705Y-48150744D01*
X174702500Y-48129485D01*
X174702500Y-46726737D01*
X174770462Y-46670962D01*
X174880905Y-46536387D01*
X174962972Y-46382851D01*
X175013508Y-46216255D01*
X175030572Y-46043001D01*
X175030572Y-45142999D01*
X175013508Y-44969745D01*
X174962972Y-44803149D01*
X174880905Y-44649613D01*
X174770462Y-44515038D01*
X174635887Y-44404595D01*
X174482351Y-44322528D01*
X174315755Y-44271992D01*
X174142501Y-44254928D01*
X173658651Y-44254928D01*
X174366732Y-43546846D01*
X174527851Y-43497972D01*
X174681387Y-43415905D01*
X174815962Y-43305462D01*
X174926405Y-43170887D01*
X174937370Y-43150372D01*
X204965500Y-43150372D01*
X204965500Y-43590628D01*
X205051390Y-44022425D01*
X205219869Y-44429169D01*
X205464462Y-44795229D01*
X205775771Y-45106538D01*
X206141831Y-45351131D01*
X206548575Y-45519610D01*
X206980372Y-45605500D01*
X207420628Y-45605500D01*
X207852425Y-45519610D01*
X208259169Y-45351131D01*
X208625229Y-45106538D01*
X208936538Y-44795229D01*
X209181131Y-44429169D01*
X209349610Y-44022425D01*
X209435500Y-43590628D01*
X209435500Y-43150372D01*
X209349610Y-42718575D01*
X209181131Y-42311831D01*
X208936538Y-41945771D01*
X208625229Y-41634462D01*
X208259169Y-41389869D01*
X207852425Y-41221390D01*
X207420628Y-41135500D01*
X206980372Y-41135500D01*
X206548575Y-41221390D01*
X206141831Y-41389869D01*
X205775771Y-41634462D01*
X205464462Y-41945771D01*
X205219869Y-42311831D01*
X205051390Y-42718575D01*
X204965500Y-43150372D01*
X174937370Y-43150372D01*
X175008472Y-43017351D01*
X175059008Y-42850755D01*
X175076072Y-42677501D01*
X175076072Y-41777499D01*
X175059008Y-41604245D01*
X175008472Y-41437649D01*
X174926405Y-41284113D01*
X174815962Y-41149538D01*
X174681387Y-41039095D01*
X174527851Y-40957028D01*
X174361255Y-40906492D01*
X174188001Y-40889428D01*
X173537999Y-40889428D01*
X173364745Y-40906492D01*
X173198149Y-40957028D01*
X173044613Y-41039095D01*
X172910038Y-41149538D01*
X172904658Y-41156094D01*
X172839185Y-41076315D01*
X172742494Y-40996963D01*
X172632180Y-40937998D01*
X172512482Y-40901688D01*
X172388000Y-40889428D01*
X172098750Y-40892500D01*
X171940000Y-41051250D01*
X171940000Y-42100500D01*
X171960000Y-42100500D01*
X171960000Y-42354500D01*
X171940000Y-42354500D01*
X171940000Y-43403750D01*
X171973336Y-43437086D01*
X171172451Y-44237971D01*
X171138684Y-44265683D01*
X171110971Y-44299451D01*
X171110968Y-44299454D01*
X171083735Y-44332638D01*
X170949113Y-44404595D01*
X170814538Y-44515038D01*
X170704095Y-44649613D01*
X170622028Y-44803149D01*
X170571492Y-44969745D01*
X170554428Y-45142999D01*
X143802100Y-45142999D01*
X143802100Y-44937401D01*
X143744510Y-44647875D01*
X143631542Y-44375147D01*
X143467539Y-44129698D01*
X143258802Y-43920961D01*
X143100219Y-43815000D01*
X143258802Y-43709039D01*
X143467539Y-43500302D01*
X143631542Y-43254853D01*
X143744510Y-42982125D01*
X143755375Y-42927500D01*
X170599928Y-42927500D01*
X170612188Y-43051982D01*
X170648498Y-43171680D01*
X170707463Y-43281994D01*
X170786815Y-43378685D01*
X170883506Y-43458037D01*
X170993820Y-43517002D01*
X171113518Y-43553312D01*
X171238000Y-43565572D01*
X171527250Y-43562500D01*
X171686000Y-43403750D01*
X171686000Y-42354500D01*
X170761750Y-42354500D01*
X170603000Y-42513250D01*
X170599928Y-42927500D01*
X143755375Y-42927500D01*
X143802100Y-42692599D01*
X143802100Y-42397401D01*
X143744510Y-42107875D01*
X143631542Y-41835147D01*
X143467539Y-41589698D01*
X143405341Y-41527500D01*
X170599928Y-41527500D01*
X170603000Y-41941750D01*
X170761750Y-42100500D01*
X171686000Y-42100500D01*
X171686000Y-41051250D01*
X171527250Y-40892500D01*
X171238000Y-40889428D01*
X171113518Y-40901688D01*
X170993820Y-40937998D01*
X170883506Y-40996963D01*
X170786815Y-41076315D01*
X170707463Y-41173006D01*
X170648498Y-41283320D01*
X170612188Y-41403018D01*
X170599928Y-41527500D01*
X143405341Y-41527500D01*
X143258802Y-41380961D01*
X143100219Y-41275000D01*
X143258802Y-41169039D01*
X143467539Y-40960302D01*
X143631542Y-40714853D01*
X143744510Y-40442125D01*
X143802100Y-40152599D01*
X143802100Y-39857401D01*
X143744510Y-39567875D01*
X143631542Y-39295147D01*
X143467539Y-39049698D01*
X143258802Y-38840961D01*
X143155478Y-38771922D01*
X143297942Y-38676731D01*
X143515231Y-38459442D01*
X143685954Y-38203937D01*
X143803550Y-37920035D01*
X143863500Y-37618647D01*
X143863500Y-37311353D01*
X143803550Y-37009965D01*
X143685954Y-36726063D01*
X143559960Y-36537500D01*
X212629221Y-36537500D01*
X212927566Y-36566753D01*
X213183500Y-36644024D01*
X213419550Y-36769535D01*
X213626726Y-36938503D01*
X213797138Y-37144495D01*
X213924292Y-37379663D01*
X214003347Y-37635045D01*
X214034492Y-37931371D01*
X214033501Y-153828216D01*
X214004247Y-154126568D01*
X213926976Y-154382500D01*
X213801467Y-154618549D01*
X213632495Y-154825728D01*
X213426503Y-154996139D01*
X213191338Y-155123292D01*
X212935954Y-155202347D01*
X212639629Y-155233492D01*
X96742784Y-155232501D01*
X96444432Y-155203247D01*
X96188500Y-155125976D01*
X95952451Y-155000467D01*
X95745272Y-154831495D01*
X95574861Y-154625503D01*
X95447708Y-154390338D01*
X95368653Y-154134954D01*
X95337509Y-153838634D01*
X95337509Y-148179372D01*
X99936500Y-148179372D01*
X99936500Y-148619628D01*
X100022390Y-149051425D01*
X100190869Y-149458169D01*
X100435462Y-149824229D01*
X100746771Y-150135538D01*
X101112831Y-150380131D01*
X101519575Y-150548610D01*
X101951372Y-150634500D01*
X102391628Y-150634500D01*
X102823425Y-150548610D01*
X103230169Y-150380131D01*
X103341114Y-150306000D01*
X132563428Y-150306000D01*
X132575688Y-150430482D01*
X132611998Y-150550180D01*
X132670963Y-150660494D01*
X132750315Y-150757185D01*
X132847006Y-150836537D01*
X132957320Y-150895502D01*
X133077018Y-150931812D01*
X133201500Y-150944072D01*
X133490750Y-150941000D01*
X133649500Y-150782250D01*
X133649500Y-149733000D01*
X132725250Y-149733000D01*
X132566500Y-149891750D01*
X132563428Y-150306000D01*
X103341114Y-150306000D01*
X103596229Y-150135538D01*
X103907538Y-149824229D01*
X104152131Y-149458169D01*
X104320610Y-149051425D01*
X104349536Y-148906000D01*
X132563428Y-148906000D01*
X132566500Y-149320250D01*
X132725250Y-149479000D01*
X133649500Y-149479000D01*
X133649500Y-148429750D01*
X133490750Y-148271000D01*
X133201500Y-148267928D01*
X133077018Y-148280188D01*
X132957320Y-148316498D01*
X132847006Y-148375463D01*
X132750315Y-148454815D01*
X132670963Y-148551506D01*
X132611998Y-148661820D01*
X132575688Y-148781518D01*
X132563428Y-148906000D01*
X104349536Y-148906000D01*
X104406500Y-148619628D01*
X104406500Y-148179372D01*
X104320610Y-147747575D01*
X104152131Y-147340831D01*
X103907538Y-146974771D01*
X103596229Y-146663462D01*
X103230169Y-146418869D01*
X102823425Y-146250390D01*
X102391628Y-146164500D01*
X101951372Y-146164500D01*
X101519575Y-146250390D01*
X101112831Y-146418869D01*
X100746771Y-146663462D01*
X100435462Y-146974771D01*
X100190869Y-147340831D01*
X100022390Y-147747575D01*
X99936500Y-148179372D01*
X95337509Y-148179372D01*
X95337509Y-113970000D01*
X99690428Y-113970000D01*
X99693500Y-114259250D01*
X99852250Y-114418000D01*
X100901500Y-114418000D01*
X100901500Y-113493750D01*
X101155500Y-113493750D01*
X101155500Y-114418000D01*
X102204750Y-114418000D01*
X102363500Y-114259250D01*
X102366572Y-113970000D01*
X102354312Y-113845518D01*
X102318002Y-113725820D01*
X102259037Y-113615506D01*
X102179685Y-113518815D01*
X102082994Y-113439463D01*
X101972680Y-113380498D01*
X101852982Y-113344188D01*
X101728500Y-113331928D01*
X101314250Y-113335000D01*
X101155500Y-113493750D01*
X100901500Y-113493750D01*
X100742750Y-113335000D01*
X100328500Y-113331928D01*
X100204018Y-113344188D01*
X100084320Y-113380498D01*
X99974006Y-113439463D01*
X99877315Y-113518815D01*
X99797963Y-113615506D01*
X99738998Y-113725820D01*
X99702688Y-113845518D01*
X99690428Y-113970000D01*
X95337509Y-113970000D01*
X95337509Y-86528987D01*
X101356618Y-86528987D01*
X101428504Y-86773212D01*
X101684441Y-86894362D01*
X101959096Y-86963252D01*
X102241913Y-86977238D01*
X102522024Y-86935779D01*
X102788665Y-86840470D01*
X102914496Y-86773212D01*
X102986382Y-86528987D01*
X102171500Y-85714105D01*
X101356618Y-86528987D01*
X95337509Y-86528987D01*
X95337509Y-85604913D01*
X100728762Y-85604913D01*
X100770221Y-85885024D01*
X100865530Y-86151665D01*
X100932788Y-86277496D01*
X101177013Y-86349382D01*
X101991895Y-85534500D01*
X101177013Y-84719618D01*
X100932788Y-84791504D01*
X100811638Y-85047441D01*
X100742748Y-85322096D01*
X100728762Y-85604913D01*
X95337509Y-85604913D01*
X95337509Y-72758500D01*
X99690428Y-72758500D01*
X99693500Y-73047750D01*
X99852250Y-73206500D01*
X100901500Y-73206500D01*
X100901500Y-72282250D01*
X101155500Y-72282250D01*
X101155500Y-73206500D01*
X102204750Y-73206500D01*
X102363500Y-73047750D01*
X102366572Y-72758500D01*
X102354312Y-72634018D01*
X102318002Y-72514320D01*
X102259037Y-72404006D01*
X102179685Y-72307315D01*
X102082994Y-72227963D01*
X101972680Y-72168998D01*
X101852982Y-72132688D01*
X101728500Y-72120428D01*
X101314250Y-72123500D01*
X101155500Y-72282250D01*
X100901500Y-72282250D01*
X100742750Y-72123500D01*
X100328500Y-72120428D01*
X100204018Y-72132688D01*
X100084320Y-72168998D01*
X99974006Y-72227963D01*
X99877315Y-72307315D01*
X99797963Y-72404006D01*
X99738998Y-72514320D01*
X99702688Y-72634018D01*
X99690428Y-72758500D01*
X95337509Y-72758500D01*
X95337509Y-71288987D01*
X101356618Y-71288987D01*
X101428504Y-71533212D01*
X101684441Y-71654362D01*
X101959096Y-71723252D01*
X102241913Y-71737238D01*
X102522024Y-71695779D01*
X102788665Y-71600470D01*
X102914496Y-71533212D01*
X102986382Y-71288987D01*
X102171500Y-70474105D01*
X101356618Y-71288987D01*
X95337509Y-71288987D01*
X95337509Y-70364913D01*
X100728762Y-70364913D01*
X100770221Y-70645024D01*
X100865530Y-70911665D01*
X100932788Y-71037496D01*
X101177013Y-71109382D01*
X101991895Y-70294500D01*
X101177013Y-69479618D01*
X100932788Y-69551504D01*
X100811638Y-69807441D01*
X100742748Y-70082096D01*
X100728762Y-70364913D01*
X95337509Y-70364913D01*
X95337509Y-46675275D01*
X109297824Y-46675275D01*
X109357842Y-47270098D01*
X109532750Y-47841782D01*
X109807745Y-48356260D01*
X110215471Y-48620424D01*
X112167895Y-46668000D01*
X110215471Y-44715576D01*
X109807745Y-44979740D01*
X109527183Y-45507661D01*
X109355004Y-46080173D01*
X109297824Y-46675275D01*
X95337509Y-46675275D01*
X95337509Y-43150372D01*
X99936500Y-43150372D01*
X99936500Y-43590628D01*
X100022390Y-44022425D01*
X100190869Y-44429169D01*
X100435462Y-44795229D01*
X100746771Y-45106538D01*
X101112831Y-45351131D01*
X101519575Y-45519610D01*
X101951372Y-45605500D01*
X102391628Y-45605500D01*
X102823425Y-45519610D01*
X103230169Y-45351131D01*
X103596229Y-45106538D01*
X103907538Y-44795229D01*
X104080768Y-44535971D01*
X110395076Y-44535971D01*
X112347500Y-46488395D01*
X112361643Y-46474253D01*
X112541248Y-46653858D01*
X112527105Y-46668000D01*
X112541248Y-46682143D01*
X112361643Y-46861748D01*
X112347500Y-46847605D01*
X110395076Y-48800029D01*
X110659240Y-49207755D01*
X111187161Y-49488317D01*
X111759673Y-49660496D01*
X112354775Y-49717676D01*
X112949598Y-49657658D01*
X113521282Y-49482750D01*
X114035760Y-49207755D01*
X114192803Y-48965365D01*
X114112500Y-49369079D01*
X114112500Y-49966921D01*
X114229133Y-50553277D01*
X114457918Y-51105612D01*
X114790062Y-51602700D01*
X115212800Y-52025438D01*
X115709888Y-52357582D01*
X116262223Y-52586367D01*
X116848579Y-52703000D01*
X117446421Y-52703000D01*
X118032777Y-52586367D01*
X118585112Y-52357582D01*
X119082200Y-52025438D01*
X119504938Y-51602700D01*
X119837082Y-51105612D01*
X120065867Y-50553277D01*
X120182500Y-49966921D01*
X120182500Y-49369079D01*
X120065867Y-48782723D01*
X119837082Y-48230388D01*
X119504938Y-47733300D01*
X119082200Y-47310562D01*
X118585112Y-46978418D01*
X118062473Y-46761933D01*
X118321282Y-46682750D01*
X118835760Y-46407755D01*
X119099924Y-46000029D01*
X117147500Y-44047605D01*
X117133358Y-44061748D01*
X116953753Y-43882143D01*
X116967895Y-43868000D01*
X117327105Y-43868000D01*
X119279529Y-45820424D01*
X119687255Y-45556260D01*
X119967817Y-45028339D01*
X120139996Y-44455827D01*
X120197176Y-43860725D01*
X120137158Y-43265902D01*
X119962250Y-42694218D01*
X119687255Y-42179740D01*
X119279529Y-41915576D01*
X117327105Y-43868000D01*
X116967895Y-43868000D01*
X115015471Y-41915576D01*
X114607745Y-42179740D01*
X114327183Y-42707661D01*
X114155004Y-43280173D01*
X114097824Y-43875275D01*
X114139506Y-44288372D01*
X114035760Y-44128245D01*
X113507839Y-43847683D01*
X112935327Y-43675504D01*
X112340225Y-43618324D01*
X111745402Y-43678342D01*
X111173718Y-43853250D01*
X110659240Y-44128245D01*
X110395076Y-44535971D01*
X104080768Y-44535971D01*
X104152131Y-44429169D01*
X104320610Y-44022425D01*
X104406500Y-43590628D01*
X104406500Y-43150372D01*
X104320610Y-42718575D01*
X104152131Y-42311831D01*
X103907538Y-41945771D01*
X103697738Y-41735971D01*
X115195076Y-41735971D01*
X117147500Y-43688395D01*
X119099924Y-41735971D01*
X118835760Y-41328245D01*
X118307839Y-41047683D01*
X117735327Y-40875504D01*
X117140225Y-40818324D01*
X116545402Y-40878342D01*
X115973718Y-41053250D01*
X115459240Y-41328245D01*
X115195076Y-41735971D01*
X103697738Y-41735971D01*
X103596229Y-41634462D01*
X103230169Y-41389869D01*
X102823425Y-41221390D01*
X102391628Y-41135500D01*
X101951372Y-41135500D01*
X101519575Y-41221390D01*
X101112831Y-41389869D01*
X100746771Y-41634462D01*
X100435462Y-41945771D01*
X100190869Y-42311831D01*
X100022390Y-42718575D01*
X99936500Y-43150372D01*
X95337509Y-43150372D01*
X95337509Y-37942770D01*
X95366762Y-37644425D01*
X95444033Y-37388491D01*
X95569544Y-37152441D01*
X95738512Y-36945265D01*
X95944504Y-36774853D01*
X96179672Y-36647699D01*
X96435054Y-36568644D01*
X96731375Y-36537500D01*
X125807040Y-36537500D01*
X125681046Y-36726063D01*
G36*
X125622490Y-57347875D02*
G01*
X125564900Y-57637401D01*
X125564900Y-57932599D01*
X125622490Y-58222125D01*
X125735458Y-58494853D01*
X125899461Y-58740302D01*
X126108198Y-58949039D01*
X126266781Y-59055000D01*
X126108198Y-59160961D01*
X125899461Y-59369698D01*
X125735458Y-59615147D01*
X125622490Y-59887875D01*
X125564900Y-60177401D01*
X125564900Y-60472599D01*
X125622490Y-60762125D01*
X125735458Y-61034853D01*
X125899461Y-61280302D01*
X126108198Y-61489039D01*
X126266781Y-61595000D01*
X126108198Y-61700961D01*
X125899461Y-61909698D01*
X125735458Y-62155147D01*
X125622490Y-62427875D01*
X125564900Y-62717401D01*
X125564900Y-63012599D01*
X125622490Y-63302125D01*
X125735458Y-63574853D01*
X125899461Y-63820302D01*
X126108198Y-64029039D01*
X126266781Y-64135000D01*
X126108198Y-64240961D01*
X125899461Y-64449698D01*
X125735458Y-64695147D01*
X125622490Y-64967875D01*
X125564900Y-65257401D01*
X125564900Y-65552599D01*
X125622490Y-65842125D01*
X125735458Y-66114853D01*
X125899461Y-66360302D01*
X126108198Y-66569039D01*
X126266781Y-66675000D01*
X126108198Y-66780961D01*
X125899461Y-66989698D01*
X125735458Y-67235147D01*
X125622490Y-67507875D01*
X125564900Y-67797401D01*
X125564900Y-68092599D01*
X125622490Y-68382125D01*
X125735458Y-68654853D01*
X125899461Y-68900302D01*
X126108198Y-69109039D01*
X126266781Y-69215000D01*
X126108198Y-69320961D01*
X125899461Y-69529698D01*
X125735458Y-69775147D01*
X125622490Y-70047875D01*
X125564900Y-70337401D01*
X125564900Y-70632599D01*
X125622490Y-70922125D01*
X125652676Y-70995000D01*
X110908323Y-70995000D01*
X110871000Y-70991324D01*
X110833677Y-70995000D01*
X110833667Y-70995000D01*
X110722014Y-71005997D01*
X110578753Y-71049454D01*
X110446723Y-71120026D01*
X110389014Y-71167387D01*
X110330999Y-71214999D01*
X110307201Y-71243997D01*
X103609000Y-77942199D01*
X103609000Y-77772919D01*
X103572314Y-77588487D01*
X115449447Y-65711355D01*
X115489175Y-65911081D01*
X115619963Y-66226831D01*
X115809837Y-66510998D01*
X116051502Y-66752663D01*
X116335669Y-66942537D01*
X116651419Y-67073325D01*
X116986617Y-67140000D01*
X117328383Y-67140000D01*
X117663581Y-67073325D01*
X117979331Y-66942537D01*
X118263498Y-66752663D01*
X118505163Y-66510998D01*
X118695037Y-66226831D01*
X118825825Y-65911081D01*
X118892500Y-65575883D01*
X118892500Y-65234117D01*
X118825825Y-64898919D01*
X118695037Y-64583169D01*
X118505163Y-64299002D01*
X118263498Y-64057337D01*
X117979331Y-63867463D01*
X117663581Y-63736675D01*
X117463855Y-63696947D01*
X123885802Y-57275000D01*
X125652676Y-57275000D01*
X125622490Y-57347875D01*
G37*
X125622490Y-57347875D02*
X125564900Y-57637401D01*
X125564900Y-57932599D01*
X125622490Y-58222125D01*
X125735458Y-58494853D01*
X125899461Y-58740302D01*
X126108198Y-58949039D01*
X126266781Y-59055000D01*
X126108198Y-59160961D01*
X125899461Y-59369698D01*
X125735458Y-59615147D01*
X125622490Y-59887875D01*
X125564900Y-60177401D01*
X125564900Y-60472599D01*
X125622490Y-60762125D01*
X125735458Y-61034853D01*
X125899461Y-61280302D01*
X126108198Y-61489039D01*
X126266781Y-61595000D01*
X126108198Y-61700961D01*
X125899461Y-61909698D01*
X125735458Y-62155147D01*
X125622490Y-62427875D01*
X125564900Y-62717401D01*
X125564900Y-63012599D01*
X125622490Y-63302125D01*
X125735458Y-63574853D01*
X125899461Y-63820302D01*
X126108198Y-64029039D01*
X126266781Y-64135000D01*
X126108198Y-64240961D01*
X125899461Y-64449698D01*
X125735458Y-64695147D01*
X125622490Y-64967875D01*
X125564900Y-65257401D01*
X125564900Y-65552599D01*
X125622490Y-65842125D01*
X125735458Y-66114853D01*
X125899461Y-66360302D01*
X126108198Y-66569039D01*
X126266781Y-66675000D01*
X126108198Y-66780961D01*
X125899461Y-66989698D01*
X125735458Y-67235147D01*
X125622490Y-67507875D01*
X125564900Y-67797401D01*
X125564900Y-68092599D01*
X125622490Y-68382125D01*
X125735458Y-68654853D01*
X125899461Y-68900302D01*
X126108198Y-69109039D01*
X126266781Y-69215000D01*
X126108198Y-69320961D01*
X125899461Y-69529698D01*
X125735458Y-69775147D01*
X125622490Y-70047875D01*
X125564900Y-70337401D01*
X125564900Y-70632599D01*
X125622490Y-70922125D01*
X125652676Y-70995000D01*
X110908323Y-70995000D01*
X110871000Y-70991324D01*
X110833677Y-70995000D01*
X110833667Y-70995000D01*
X110722014Y-71005997D01*
X110578753Y-71049454D01*
X110446723Y-71120026D01*
X110389014Y-71167387D01*
X110330999Y-71214999D01*
X110307201Y-71243997D01*
X103609000Y-77942199D01*
X103609000Y-77772919D01*
X103572314Y-77588487D01*
X115449447Y-65711355D01*
X115489175Y-65911081D01*
X115619963Y-66226831D01*
X115809837Y-66510998D01*
X116051502Y-66752663D01*
X116335669Y-66942537D01*
X116651419Y-67073325D01*
X116986617Y-67140000D01*
X117328383Y-67140000D01*
X117663581Y-67073325D01*
X117979331Y-66942537D01*
X118263498Y-66752663D01*
X118505163Y-66510998D01*
X118695037Y-66226831D01*
X118825825Y-65911081D01*
X118892500Y-65575883D01*
X118892500Y-65234117D01*
X118825825Y-64898919D01*
X118695037Y-64583169D01*
X118505163Y-64299002D01*
X118263498Y-64057337D01*
X117979331Y-63867463D01*
X117663581Y-63736675D01*
X117463855Y-63696947D01*
X123885802Y-57275000D01*
X125652676Y-57275000D01*
X125622490Y-57347875D01*
G36*
X106494072Y-72517127D02*
G01*
X106494072Y-72073999D01*
X106477008Y-71900745D01*
X106426472Y-71734149D01*
X106344405Y-71580613D01*
X106233962Y-71446038D01*
X106146184Y-71374000D01*
X106233962Y-71301962D01*
X106344405Y-71167387D01*
X106426472Y-71013851D01*
X106477008Y-70847255D01*
X106494072Y-70674001D01*
X106494072Y-70023999D01*
X106477008Y-69850745D01*
X106426472Y-69684149D01*
X106344405Y-69530613D01*
X106233962Y-69396038D01*
X106099387Y-69285595D01*
X105945851Y-69203528D01*
X105779255Y-69152992D01*
X105606001Y-69135928D01*
X104804507Y-69135928D01*
X103601643Y-67933065D01*
X103609000Y-67896081D01*
X103609000Y-67612919D01*
X103553757Y-67335197D01*
X103445396Y-67073589D01*
X103288079Y-66838147D01*
X103087853Y-66637921D01*
X102858242Y-66484500D01*
X103087853Y-66331079D01*
X103288079Y-66130853D01*
X103392551Y-65974500D01*
X112757548Y-65974500D01*
X112794870Y-65978176D01*
X112832192Y-65974500D01*
X112832203Y-65974500D01*
X112943856Y-65963503D01*
X113087117Y-65920046D01*
X113095786Y-65915412D01*
X106494072Y-72517127D01*
G37*
X106494072Y-72517127D02*
X106494072Y-72073999D01*
X106477008Y-71900745D01*
X106426472Y-71734149D01*
X106344405Y-71580613D01*
X106233962Y-71446038D01*
X106146184Y-71374000D01*
X106233962Y-71301962D01*
X106344405Y-71167387D01*
X106426472Y-71013851D01*
X106477008Y-70847255D01*
X106494072Y-70674001D01*
X106494072Y-70023999D01*
X106477008Y-69850745D01*
X106426472Y-69684149D01*
X106344405Y-69530613D01*
X106233962Y-69396038D01*
X106099387Y-69285595D01*
X105945851Y-69203528D01*
X105779255Y-69152992D01*
X105606001Y-69135928D01*
X104804507Y-69135928D01*
X103601643Y-67933065D01*
X103609000Y-67896081D01*
X103609000Y-67612919D01*
X103553757Y-67335197D01*
X103445396Y-67073589D01*
X103288079Y-66838147D01*
X103087853Y-66637921D01*
X102858242Y-66484500D01*
X103087853Y-66331079D01*
X103288079Y-66130853D01*
X103392551Y-65974500D01*
X112757548Y-65974500D01*
X112794870Y-65978176D01*
X112832192Y-65974500D01*
X112832203Y-65974500D01*
X112943856Y-65963503D01*
X113087117Y-65920046D01*
X113095786Y-65915412D01*
X106494072Y-72517127D01*
G36*
X140862490Y-57347875D02*
G01*
X140804900Y-57637401D01*
X140804900Y-57932599D01*
X140862490Y-58222125D01*
X140975458Y-58494853D01*
X141139461Y-58740302D01*
X141348198Y-58949039D01*
X141506781Y-59055000D01*
X141348198Y-59160961D01*
X141139461Y-59369698D01*
X140975458Y-59615147D01*
X140862490Y-59887875D01*
X140804900Y-60177401D01*
X140804900Y-60472599D01*
X140862490Y-60762125D01*
X140975458Y-61034853D01*
X141139461Y-61280302D01*
X141348198Y-61489039D01*
X141506781Y-61595000D01*
X141348198Y-61700961D01*
X141139461Y-61909698D01*
X140975458Y-62155147D01*
X140862490Y-62427875D01*
X140804900Y-62717401D01*
X140804900Y-63012599D01*
X140862490Y-63302125D01*
X140975458Y-63574853D01*
X141139461Y-63820302D01*
X141348198Y-64029039D01*
X141506781Y-64135000D01*
X141348198Y-64240961D01*
X141139461Y-64449698D01*
X140975458Y-64695147D01*
X140862490Y-64967875D01*
X140804900Y-65257401D01*
X140804900Y-65552599D01*
X140850724Y-65782974D01*
X135638699Y-70995000D01*
X128474324Y-70995000D01*
X128504510Y-70922125D01*
X128562100Y-70632599D01*
X128562100Y-70337401D01*
X128504510Y-70047875D01*
X128391542Y-69775147D01*
X128227539Y-69529698D01*
X128018802Y-69320961D01*
X127860219Y-69215000D01*
X128018802Y-69109039D01*
X128227539Y-68900302D01*
X128391542Y-68654853D01*
X128504510Y-68382125D01*
X128562100Y-68092599D01*
X128562100Y-67797401D01*
X128504510Y-67507875D01*
X128391542Y-67235147D01*
X128227539Y-66989698D01*
X128018802Y-66780961D01*
X127860219Y-66675000D01*
X128018802Y-66569039D01*
X128227539Y-66360302D01*
X128391542Y-66114853D01*
X128504510Y-65842125D01*
X128562100Y-65552599D01*
X128562100Y-65257401D01*
X128504510Y-64967875D01*
X128391542Y-64695147D01*
X128227539Y-64449698D01*
X128018802Y-64240961D01*
X127860219Y-64135000D01*
X128018802Y-64029039D01*
X128227539Y-63820302D01*
X128391542Y-63574853D01*
X128504510Y-63302125D01*
X128562100Y-63012599D01*
X128562100Y-62717401D01*
X128504510Y-62427875D01*
X128391542Y-62155147D01*
X128227539Y-61909698D01*
X128018802Y-61700961D01*
X127860219Y-61595000D01*
X128018802Y-61489039D01*
X128227539Y-61280302D01*
X128391542Y-61034853D01*
X128504510Y-60762125D01*
X128562100Y-60472599D01*
X128562100Y-60177401D01*
X128504510Y-59887875D01*
X128391542Y-59615147D01*
X128227539Y-59369698D01*
X128018802Y-59160961D01*
X127860219Y-59055000D01*
X128018802Y-58949039D01*
X128227539Y-58740302D01*
X128391542Y-58494853D01*
X128504510Y-58222125D01*
X128562100Y-57932599D01*
X128562100Y-57637401D01*
X128504510Y-57347875D01*
X128474324Y-57275000D01*
X140892676Y-57275000D01*
X140862490Y-57347875D01*
G37*
X140862490Y-57347875D02*
X140804900Y-57637401D01*
X140804900Y-57932599D01*
X140862490Y-58222125D01*
X140975458Y-58494853D01*
X141139461Y-58740302D01*
X141348198Y-58949039D01*
X141506781Y-59055000D01*
X141348198Y-59160961D01*
X141139461Y-59369698D01*
X140975458Y-59615147D01*
X140862490Y-59887875D01*
X140804900Y-60177401D01*
X140804900Y-60472599D01*
X140862490Y-60762125D01*
X140975458Y-61034853D01*
X141139461Y-61280302D01*
X141348198Y-61489039D01*
X141506781Y-61595000D01*
X141348198Y-61700961D01*
X141139461Y-61909698D01*
X140975458Y-62155147D01*
X140862490Y-62427875D01*
X140804900Y-62717401D01*
X140804900Y-63012599D01*
X140862490Y-63302125D01*
X140975458Y-63574853D01*
X141139461Y-63820302D01*
X141348198Y-64029039D01*
X141506781Y-64135000D01*
X141348198Y-64240961D01*
X141139461Y-64449698D01*
X140975458Y-64695147D01*
X140862490Y-64967875D01*
X140804900Y-65257401D01*
X140804900Y-65552599D01*
X140850724Y-65782974D01*
X135638699Y-70995000D01*
X128474324Y-70995000D01*
X128504510Y-70922125D01*
X128562100Y-70632599D01*
X128562100Y-70337401D01*
X128504510Y-70047875D01*
X128391542Y-69775147D01*
X128227539Y-69529698D01*
X128018802Y-69320961D01*
X127860219Y-69215000D01*
X128018802Y-69109039D01*
X128227539Y-68900302D01*
X128391542Y-68654853D01*
X128504510Y-68382125D01*
X128562100Y-68092599D01*
X128562100Y-67797401D01*
X128504510Y-67507875D01*
X128391542Y-67235147D01*
X128227539Y-66989698D01*
X128018802Y-66780961D01*
X127860219Y-66675000D01*
X128018802Y-66569039D01*
X128227539Y-66360302D01*
X128391542Y-66114853D01*
X128504510Y-65842125D01*
X128562100Y-65552599D01*
X128562100Y-65257401D01*
X128504510Y-64967875D01*
X128391542Y-64695147D01*
X128227539Y-64449698D01*
X128018802Y-64240961D01*
X127860219Y-64135000D01*
X128018802Y-64029039D01*
X128227539Y-63820302D01*
X128391542Y-63574853D01*
X128504510Y-63302125D01*
X128562100Y-63012599D01*
X128562100Y-62717401D01*
X128504510Y-62427875D01*
X128391542Y-62155147D01*
X128227539Y-61909698D01*
X128018802Y-61700961D01*
X127860219Y-61595000D01*
X128018802Y-61489039D01*
X128227539Y-61280302D01*
X128391542Y-61034853D01*
X128504510Y-60762125D01*
X128562100Y-60472599D01*
X128562100Y-60177401D01*
X128504510Y-59887875D01*
X128391542Y-59615147D01*
X128227539Y-59369698D01*
X128018802Y-59160961D01*
X127860219Y-59055000D01*
X128018802Y-58949039D01*
X128227539Y-58740302D01*
X128391542Y-58494853D01*
X128504510Y-58222125D01*
X128562100Y-57932599D01*
X128562100Y-57637401D01*
X128504510Y-57347875D01*
X128474324Y-57275000D01*
X140892676Y-57275000D01*
X140862490Y-57347875D01*
G36*
X125735458Y-50874853D02*
G01*
X125899461Y-51120302D01*
X126108198Y-51329039D01*
X126266781Y-51435000D01*
X126108198Y-51540961D01*
X125899461Y-51749698D01*
X125735458Y-51995147D01*
X125622490Y-52267875D01*
X125564900Y-52557401D01*
X125564900Y-52852599D01*
X125622490Y-53142125D01*
X125652676Y-53215000D01*
X124071692Y-53215000D01*
X124034369Y-53211324D01*
X123997046Y-53215000D01*
X123997037Y-53215000D01*
X123885384Y-53225997D01*
X123742123Y-53269454D01*
X123610094Y-53340026D01*
X123494369Y-53434999D01*
X123470571Y-53463997D01*
X112480069Y-64454500D01*
X103392551Y-64454500D01*
X103288079Y-64298147D01*
X103087853Y-64097921D01*
X102858242Y-63944500D01*
X103087853Y-63791079D01*
X103288079Y-63590853D01*
X103392551Y-63434500D01*
X112675178Y-63434500D01*
X112712500Y-63438176D01*
X112749822Y-63434500D01*
X112749833Y-63434500D01*
X112861486Y-63423503D01*
X113004747Y-63380046D01*
X113136776Y-63309474D01*
X113252501Y-63214501D01*
X113276304Y-63185497D01*
X125691961Y-50769841D01*
X125735458Y-50874853D01*
G37*
X125735458Y-50874853D02*
X125899461Y-51120302D01*
X126108198Y-51329039D01*
X126266781Y-51435000D01*
X126108198Y-51540961D01*
X125899461Y-51749698D01*
X125735458Y-51995147D01*
X125622490Y-52267875D01*
X125564900Y-52557401D01*
X125564900Y-52852599D01*
X125622490Y-53142125D01*
X125652676Y-53215000D01*
X124071692Y-53215000D01*
X124034369Y-53211324D01*
X123997046Y-53215000D01*
X123997037Y-53215000D01*
X123885384Y-53225997D01*
X123742123Y-53269454D01*
X123610094Y-53340026D01*
X123494369Y-53434999D01*
X123470571Y-53463997D01*
X112480069Y-64454500D01*
X103392551Y-64454500D01*
X103288079Y-64298147D01*
X103087853Y-64097921D01*
X102858242Y-63944500D01*
X103087853Y-63791079D01*
X103288079Y-63590853D01*
X103392551Y-63434500D01*
X112675178Y-63434500D01*
X112712500Y-63438176D01*
X112749822Y-63434500D01*
X112749833Y-63434500D01*
X112861486Y-63423503D01*
X113004747Y-63380046D01*
X113136776Y-63309474D01*
X113252501Y-63214501D01*
X113276304Y-63185497D01*
X125691961Y-50769841D01*
X125735458Y-50874853D01*
G36*
X140850724Y-54867026D02*
G01*
X140804900Y-55097401D01*
X140804900Y-55392599D01*
X140862490Y-55682125D01*
X140892676Y-55755000D01*
X128474324Y-55755000D01*
X128504510Y-55682125D01*
X128562100Y-55392599D01*
X128562100Y-55097401D01*
X128504510Y-54807875D01*
X128474324Y-54735000D01*
X140718699Y-54735000D01*
X140850724Y-54867026D01*
G37*
X140850724Y-54867026D02*
X140804900Y-55097401D01*
X140804900Y-55392599D01*
X140862490Y-55682125D01*
X140892676Y-55755000D01*
X128474324Y-55755000D01*
X128504510Y-55682125D01*
X128562100Y-55392599D01*
X128562100Y-55097401D01*
X128504510Y-54807875D01*
X128474324Y-54735000D01*
X140718699Y-54735000D01*
X140850724Y-54867026D01*
G36*
X140804900Y-47772599D02*
G01*
X140862490Y-48062125D01*
X140975458Y-48334853D01*
X141139461Y-48580302D01*
X141348198Y-48789039D01*
X141506781Y-48895000D01*
X141348198Y-49000961D01*
X141139461Y-49209698D01*
X140975458Y-49455147D01*
X140862490Y-49727875D01*
X140804900Y-50017401D01*
X140804900Y-50312599D01*
X140862490Y-50602125D01*
X140975458Y-50874853D01*
X141139461Y-51120302D01*
X141348198Y-51329039D01*
X141506781Y-51435000D01*
X141348198Y-51540961D01*
X141139461Y-51749698D01*
X140975458Y-51995147D01*
X140862490Y-52267875D01*
X140804900Y-52557401D01*
X140804900Y-52852599D01*
X140862490Y-53142125D01*
X140892676Y-53215000D01*
X128474324Y-53215000D01*
X128504510Y-53142125D01*
X128562100Y-52852599D01*
X128562100Y-52557401D01*
X128504510Y-52267875D01*
X128391542Y-51995147D01*
X128227539Y-51749698D01*
X128018802Y-51540961D01*
X127860219Y-51435000D01*
X128018802Y-51329039D01*
X128227539Y-51120302D01*
X128391542Y-50874853D01*
X128504510Y-50602125D01*
X128562100Y-50312599D01*
X128562100Y-50017401D01*
X128504510Y-49727875D01*
X128474324Y-49655000D01*
X138456178Y-49655000D01*
X138493500Y-49658676D01*
X138530822Y-49655000D01*
X138530833Y-49655000D01*
X138642486Y-49644003D01*
X138785747Y-49600546D01*
X138917776Y-49529974D01*
X139033501Y-49435001D01*
X139057304Y-49405997D01*
X140804900Y-47658401D01*
X140804900Y-47772599D01*
G37*
X140804900Y-47772599D02*
X140862490Y-48062125D01*
X140975458Y-48334853D01*
X141139461Y-48580302D01*
X141348198Y-48789039D01*
X141506781Y-48895000D01*
X141348198Y-49000961D01*
X141139461Y-49209698D01*
X140975458Y-49455147D01*
X140862490Y-49727875D01*
X140804900Y-50017401D01*
X140804900Y-50312599D01*
X140862490Y-50602125D01*
X140975458Y-50874853D01*
X141139461Y-51120302D01*
X141348198Y-51329039D01*
X141506781Y-51435000D01*
X141348198Y-51540961D01*
X141139461Y-51749698D01*
X140975458Y-51995147D01*
X140862490Y-52267875D01*
X140804900Y-52557401D01*
X140804900Y-52852599D01*
X140862490Y-53142125D01*
X140892676Y-53215000D01*
X128474324Y-53215000D01*
X128504510Y-53142125D01*
X128562100Y-52852599D01*
X128562100Y-52557401D01*
X128504510Y-52267875D01*
X128391542Y-51995147D01*
X128227539Y-51749698D01*
X128018802Y-51540961D01*
X127860219Y-51435000D01*
X128018802Y-51329039D01*
X128227539Y-51120302D01*
X128391542Y-50874853D01*
X128504510Y-50602125D01*
X128562100Y-50312599D01*
X128562100Y-50017401D01*
X128504510Y-49727875D01*
X128474324Y-49655000D01*
X138456178Y-49655000D01*
X138493500Y-49658676D01*
X138530822Y-49655000D01*
X138530833Y-49655000D01*
X138642486Y-49644003D01*
X138785747Y-49600546D01*
X138917776Y-49529974D01*
X139033501Y-49435001D01*
X139057304Y-49405997D01*
X140804900Y-47658401D01*
X140804900Y-47772599D01*
G36*
X140921046Y-36726063D02*
G01*
X140803450Y-37009965D01*
X140743500Y-37311353D01*
X140743500Y-37618647D01*
X140803450Y-37920035D01*
X140921046Y-38203937D01*
X141091769Y-38459442D01*
X141309058Y-38676731D01*
X141451522Y-38771922D01*
X141348198Y-38840961D01*
X141139461Y-39049698D01*
X140975458Y-39295147D01*
X140862490Y-39567875D01*
X140804900Y-39857401D01*
X140804900Y-40152599D01*
X140862490Y-40442125D01*
X140975458Y-40714853D01*
X141139461Y-40960302D01*
X141348198Y-41169039D01*
X141506781Y-41275000D01*
X141348198Y-41380961D01*
X141139461Y-41589698D01*
X140975458Y-41835147D01*
X140862490Y-42107875D01*
X140804900Y-42397401D01*
X140804900Y-42692599D01*
X140862490Y-42982125D01*
X140975458Y-43254853D01*
X141139461Y-43500302D01*
X141348198Y-43709039D01*
X141506781Y-43815000D01*
X141348198Y-43920961D01*
X141139461Y-44129698D01*
X140975458Y-44375147D01*
X140862490Y-44647875D01*
X140804900Y-44937401D01*
X140804900Y-45232599D01*
X140850724Y-45462974D01*
X138178699Y-48135000D01*
X128474324Y-48135000D01*
X128504510Y-48062125D01*
X128562100Y-47772599D01*
X128562100Y-47477401D01*
X128504510Y-47187875D01*
X128391542Y-46915147D01*
X128227539Y-46669698D01*
X128018802Y-46460961D01*
X127860219Y-46355000D01*
X128018802Y-46249039D01*
X128227539Y-46040302D01*
X128391542Y-45794853D01*
X128504510Y-45522125D01*
X128562100Y-45232599D01*
X128562100Y-45206499D01*
X132499928Y-45206499D01*
X132499928Y-46106501D01*
X132516992Y-46279755D01*
X132567528Y-46446351D01*
X132649595Y-46599887D01*
X132760038Y-46734462D01*
X132894613Y-46844905D01*
X133048149Y-46926972D01*
X133214745Y-46977508D01*
X133387999Y-46994572D01*
X134038001Y-46994572D01*
X134211255Y-46977508D01*
X134377851Y-46926972D01*
X134531387Y-46844905D01*
X134665962Y-46734462D01*
X134738000Y-46646684D01*
X134810038Y-46734462D01*
X134944613Y-46844905D01*
X135098149Y-46926972D01*
X135264745Y-46977508D01*
X135437999Y-46994572D01*
X136088001Y-46994572D01*
X136261255Y-46977508D01*
X136427851Y-46926972D01*
X136581387Y-46844905D01*
X136715962Y-46734462D01*
X136826405Y-46599887D01*
X136857614Y-46541500D01*
X136939046Y-46541500D01*
X136987244Y-46573705D01*
X137175602Y-46651726D01*
X137375561Y-46691500D01*
X137579439Y-46691500D01*
X137779398Y-46651726D01*
X137967756Y-46573705D01*
X138137274Y-46460437D01*
X138281437Y-46316274D01*
X138394705Y-46146756D01*
X138472726Y-45958398D01*
X138512500Y-45758439D01*
X138512500Y-45554561D01*
X138472726Y-45354602D01*
X138394705Y-45166244D01*
X138281437Y-44996726D01*
X138137274Y-44852563D01*
X137967756Y-44739295D01*
X137779398Y-44661274D01*
X137579439Y-44621500D01*
X137375561Y-44621500D01*
X137175602Y-44661274D01*
X136987244Y-44739295D01*
X136939046Y-44771500D01*
X136857614Y-44771500D01*
X136826405Y-44713113D01*
X136715962Y-44578538D01*
X136581387Y-44468095D01*
X136427851Y-44386028D01*
X136261255Y-44335492D01*
X136088001Y-44318428D01*
X135749151Y-44318428D01*
X136421550Y-43646029D01*
X136455317Y-43618317D01*
X136486352Y-43580502D01*
X136510267Y-43551361D01*
X136644887Y-43479405D01*
X136779462Y-43368962D01*
X136889905Y-43234387D01*
X136971972Y-43080851D01*
X137022508Y-42914255D01*
X137039572Y-42741001D01*
X137039572Y-41840999D01*
X137022508Y-41667745D01*
X136971972Y-41501149D01*
X136889905Y-41347613D01*
X136779462Y-41213038D01*
X136644887Y-41102595D01*
X136491351Y-41020528D01*
X136324755Y-40969992D01*
X136151501Y-40952928D01*
X135501499Y-40952928D01*
X135328245Y-40969992D01*
X135161649Y-41020528D01*
X135008113Y-41102595D01*
X134873538Y-41213038D01*
X134868158Y-41219594D01*
X134802685Y-41139815D01*
X134705994Y-41060463D01*
X134595680Y-41001498D01*
X134475982Y-40965188D01*
X134351500Y-40952928D01*
X134062250Y-40956000D01*
X133903500Y-41114750D01*
X133903500Y-42164000D01*
X133923500Y-42164000D01*
X133923500Y-42418000D01*
X133903500Y-42418000D01*
X133903500Y-43467250D01*
X134000336Y-43564086D01*
X133230480Y-44333942D01*
X133214745Y-44335492D01*
X133048149Y-44386028D01*
X132894613Y-44468095D01*
X132760038Y-44578538D01*
X132649595Y-44713113D01*
X132567528Y-44866649D01*
X132516992Y-45033245D01*
X132499928Y-45206499D01*
X128562100Y-45206499D01*
X128562100Y-44937401D01*
X128504510Y-44647875D01*
X128391542Y-44375147D01*
X128227539Y-44129698D01*
X128018802Y-43920961D01*
X127860219Y-43815000D01*
X128018802Y-43709039D01*
X128227539Y-43500302D01*
X128391542Y-43254853D01*
X128500833Y-42991000D01*
X132563428Y-42991000D01*
X132575688Y-43115482D01*
X132611998Y-43235180D01*
X132670963Y-43345494D01*
X132750315Y-43442185D01*
X132847006Y-43521537D01*
X132957320Y-43580502D01*
X133077018Y-43616812D01*
X133201500Y-43629072D01*
X133490750Y-43626000D01*
X133649500Y-43467250D01*
X133649500Y-42418000D01*
X132725250Y-42418000D01*
X132566500Y-42576750D01*
X132563428Y-42991000D01*
X128500833Y-42991000D01*
X128504510Y-42982125D01*
X128562100Y-42692599D01*
X128562100Y-42397401D01*
X128504510Y-42107875D01*
X128391542Y-41835147D01*
X128228409Y-41591000D01*
X132563428Y-41591000D01*
X132566500Y-42005250D01*
X132725250Y-42164000D01*
X133649500Y-42164000D01*
X133649500Y-41114750D01*
X133490750Y-40956000D01*
X133201500Y-40952928D01*
X133077018Y-40965188D01*
X132957320Y-41001498D01*
X132847006Y-41060463D01*
X132750315Y-41139815D01*
X132670963Y-41236506D01*
X132611998Y-41346820D01*
X132575688Y-41466518D01*
X132563428Y-41591000D01*
X128228409Y-41591000D01*
X128227539Y-41589698D01*
X128018802Y-41380961D01*
X127860219Y-41275000D01*
X128018802Y-41169039D01*
X128227539Y-40960302D01*
X128391542Y-40714853D01*
X128504510Y-40442125D01*
X128562100Y-40152599D01*
X128562100Y-39857401D01*
X128504510Y-39567875D01*
X128391542Y-39295147D01*
X128227539Y-39049698D01*
X128018802Y-38840961D01*
X127915478Y-38771922D01*
X128057942Y-38676731D01*
X128275231Y-38459442D01*
X128445954Y-38203937D01*
X128563550Y-37920035D01*
X128623500Y-37618647D01*
X128623500Y-37311353D01*
X128563550Y-37009965D01*
X128445954Y-36726063D01*
X128319960Y-36537500D01*
X141047040Y-36537500D01*
X140921046Y-36726063D01*
G37*
X140921046Y-36726063D02*
X140803450Y-37009965D01*
X140743500Y-37311353D01*
X140743500Y-37618647D01*
X140803450Y-37920035D01*
X140921046Y-38203937D01*
X141091769Y-38459442D01*
X141309058Y-38676731D01*
X141451522Y-38771922D01*
X141348198Y-38840961D01*
X141139461Y-39049698D01*
X140975458Y-39295147D01*
X140862490Y-39567875D01*
X140804900Y-39857401D01*
X140804900Y-40152599D01*
X140862490Y-40442125D01*
X140975458Y-40714853D01*
X141139461Y-40960302D01*
X141348198Y-41169039D01*
X141506781Y-41275000D01*
X141348198Y-41380961D01*
X141139461Y-41589698D01*
X140975458Y-41835147D01*
X140862490Y-42107875D01*
X140804900Y-42397401D01*
X140804900Y-42692599D01*
X140862490Y-42982125D01*
X140975458Y-43254853D01*
X141139461Y-43500302D01*
X141348198Y-43709039D01*
X141506781Y-43815000D01*
X141348198Y-43920961D01*
X141139461Y-44129698D01*
X140975458Y-44375147D01*
X140862490Y-44647875D01*
X140804900Y-44937401D01*
X140804900Y-45232599D01*
X140850724Y-45462974D01*
X138178699Y-48135000D01*
X128474324Y-48135000D01*
X128504510Y-48062125D01*
X128562100Y-47772599D01*
X128562100Y-47477401D01*
X128504510Y-47187875D01*
X128391542Y-46915147D01*
X128227539Y-46669698D01*
X128018802Y-46460961D01*
X127860219Y-46355000D01*
X128018802Y-46249039D01*
X128227539Y-46040302D01*
X128391542Y-45794853D01*
X128504510Y-45522125D01*
X128562100Y-45232599D01*
X128562100Y-45206499D01*
X132499928Y-45206499D01*
X132499928Y-46106501D01*
X132516992Y-46279755D01*
X132567528Y-46446351D01*
X132649595Y-46599887D01*
X132760038Y-46734462D01*
X132894613Y-46844905D01*
X133048149Y-46926972D01*
X133214745Y-46977508D01*
X133387999Y-46994572D01*
X134038001Y-46994572D01*
X134211255Y-46977508D01*
X134377851Y-46926972D01*
X134531387Y-46844905D01*
X134665962Y-46734462D01*
X134738000Y-46646684D01*
X134810038Y-46734462D01*
X134944613Y-46844905D01*
X135098149Y-46926972D01*
X135264745Y-46977508D01*
X135437999Y-46994572D01*
X136088001Y-46994572D01*
X136261255Y-46977508D01*
X136427851Y-46926972D01*
X136581387Y-46844905D01*
X136715962Y-46734462D01*
X136826405Y-46599887D01*
X136857614Y-46541500D01*
X136939046Y-46541500D01*
X136987244Y-46573705D01*
X137175602Y-46651726D01*
X137375561Y-46691500D01*
X137579439Y-46691500D01*
X137779398Y-46651726D01*
X137967756Y-46573705D01*
X138137274Y-46460437D01*
X138281437Y-46316274D01*
X138394705Y-46146756D01*
X138472726Y-45958398D01*
X138512500Y-45758439D01*
X138512500Y-45554561D01*
X138472726Y-45354602D01*
X138394705Y-45166244D01*
X138281437Y-44996726D01*
X138137274Y-44852563D01*
X137967756Y-44739295D01*
X137779398Y-44661274D01*
X137579439Y-44621500D01*
X137375561Y-44621500D01*
X137175602Y-44661274D01*
X136987244Y-44739295D01*
X136939046Y-44771500D01*
X136857614Y-44771500D01*
X136826405Y-44713113D01*
X136715962Y-44578538D01*
X136581387Y-44468095D01*
X136427851Y-44386028D01*
X136261255Y-44335492D01*
X136088001Y-44318428D01*
X135749151Y-44318428D01*
X136421550Y-43646029D01*
X136455317Y-43618317D01*
X136486352Y-43580502D01*
X136510267Y-43551361D01*
X136644887Y-43479405D01*
X136779462Y-43368962D01*
X136889905Y-43234387D01*
X136971972Y-43080851D01*
X137022508Y-42914255D01*
X137039572Y-42741001D01*
X137039572Y-41840999D01*
X137022508Y-41667745D01*
X136971972Y-41501149D01*
X136889905Y-41347613D01*
X136779462Y-41213038D01*
X136644887Y-41102595D01*
X136491351Y-41020528D01*
X136324755Y-40969992D01*
X136151501Y-40952928D01*
X135501499Y-40952928D01*
X135328245Y-40969992D01*
X135161649Y-41020528D01*
X135008113Y-41102595D01*
X134873538Y-41213038D01*
X134868158Y-41219594D01*
X134802685Y-41139815D01*
X134705994Y-41060463D01*
X134595680Y-41001498D01*
X134475982Y-40965188D01*
X134351500Y-40952928D01*
X134062250Y-40956000D01*
X133903500Y-41114750D01*
X133903500Y-42164000D01*
X133923500Y-42164000D01*
X133923500Y-42418000D01*
X133903500Y-42418000D01*
X133903500Y-43467250D01*
X134000336Y-43564086D01*
X133230480Y-44333942D01*
X133214745Y-44335492D01*
X133048149Y-44386028D01*
X132894613Y-44468095D01*
X132760038Y-44578538D01*
X132649595Y-44713113D01*
X132567528Y-44866649D01*
X132516992Y-45033245D01*
X132499928Y-45206499D01*
X128562100Y-45206499D01*
X128562100Y-44937401D01*
X128504510Y-44647875D01*
X128391542Y-44375147D01*
X128227539Y-44129698D01*
X128018802Y-43920961D01*
X127860219Y-43815000D01*
X128018802Y-43709039D01*
X128227539Y-43500302D01*
X128391542Y-43254853D01*
X128500833Y-42991000D01*
X132563428Y-42991000D01*
X132575688Y-43115482D01*
X132611998Y-43235180D01*
X132670963Y-43345494D01*
X132750315Y-43442185D01*
X132847006Y-43521537D01*
X132957320Y-43580502D01*
X133077018Y-43616812D01*
X133201500Y-43629072D01*
X133490750Y-43626000D01*
X133649500Y-43467250D01*
X133649500Y-42418000D01*
X132725250Y-42418000D01*
X132566500Y-42576750D01*
X132563428Y-42991000D01*
X128500833Y-42991000D01*
X128504510Y-42982125D01*
X128562100Y-42692599D01*
X128562100Y-42397401D01*
X128504510Y-42107875D01*
X128391542Y-41835147D01*
X128228409Y-41591000D01*
X132563428Y-41591000D01*
X132566500Y-42005250D01*
X132725250Y-42164000D01*
X133649500Y-42164000D01*
X133649500Y-41114750D01*
X133490750Y-40956000D01*
X133201500Y-40952928D01*
X133077018Y-40965188D01*
X132957320Y-41001498D01*
X132847006Y-41060463D01*
X132750315Y-41139815D01*
X132670963Y-41236506D01*
X132611998Y-41346820D01*
X132575688Y-41466518D01*
X132563428Y-41591000D01*
X128228409Y-41591000D01*
X128227539Y-41589698D01*
X128018802Y-41380961D01*
X127860219Y-41275000D01*
X128018802Y-41169039D01*
X128227539Y-40960302D01*
X128391542Y-40714853D01*
X128504510Y-40442125D01*
X128562100Y-40152599D01*
X128562100Y-39857401D01*
X128504510Y-39567875D01*
X128391542Y-39295147D01*
X128227539Y-39049698D01*
X128018802Y-38840961D01*
X127915478Y-38771922D01*
X128057942Y-38676731D01*
X128275231Y-38459442D01*
X128445954Y-38203937D01*
X128563550Y-37920035D01*
X128623500Y-37618647D01*
X128623500Y-37311353D01*
X128563550Y-37009965D01*
X128445954Y-36726063D01*
X128319960Y-36537500D01*
X141047040Y-36537500D01*
X140921046Y-36726063D01*
%TD*%
M02*
