%TF.GenerationSoftware,KiCad,Pcbnew,(5.1.6)-1*%
%TF.CreationDate,2024-05-27T20:35:23-04:00*%
%TF.ProjectId,watercooled-pi-120mm,77617465-7263-46f6-9f6c-65642d70692d,rev?*%
%TF.SameCoordinates,Original*%
%TF.FileFunction,Legend,Bot*%
%TF.FilePolarity,Positive*%
%FSLAX46Y46*%
G04 Gerber Fmt 4.6, Leading zero omitted, Abs format (unit mm)*
G04 Created by KiCad (PCBNEW (5.1.6)-1) date 2024-05-27 20:35:23*
%MOMM*%
%LPD*%
G01*
G04 APERTURE LIST*
%ADD10C,0.120000*%
%ADD11C,0.150000*%
G04 APERTURE END LIST*
D10*
%TO.C,D6*%
X209367000Y-72498500D02*
X209367000Y-75358500D01*
X207447000Y-72498500D02*
X209367000Y-72498500D01*
X207447000Y-75358500D02*
X207447000Y-72498500D01*
%TO.C,D7*%
X207447000Y-116570000D02*
X207447000Y-113710000D01*
X207447000Y-113710000D02*
X209367000Y-113710000D01*
X209367000Y-113710000D02*
X209367000Y-116570000D01*
%TO.C,D8*%
X135801500Y-150566000D02*
X132941500Y-150566000D01*
X132941500Y-150566000D02*
X132941500Y-148646000D01*
X132941500Y-148646000D02*
X135801500Y-148646000D01*
%TO.C,D9*%
X170978000Y-148646000D02*
X173838000Y-148646000D01*
X170978000Y-150566000D02*
X170978000Y-148646000D01*
X173838000Y-150566000D02*
X170978000Y-150566000D01*
%TO.C,D10*%
X135801500Y-43251000D02*
X132941500Y-43251000D01*
X132941500Y-43251000D02*
X132941500Y-41331000D01*
X132941500Y-41331000D02*
X135801500Y-41331000D01*
%TO.C,D11*%
X170978000Y-41267500D02*
X173838000Y-41267500D01*
X170978000Y-43187500D02*
X170978000Y-41267500D01*
X173838000Y-43187500D02*
X170978000Y-43187500D01*
%TO.C,D12*%
X100068500Y-116570000D02*
X100068500Y-113710000D01*
X100068500Y-113710000D02*
X101988500Y-113710000D01*
X101988500Y-113710000D02*
X101988500Y-116570000D01*
%TO.C,D13*%
X101988500Y-72498500D02*
X101988500Y-75358500D01*
X100068500Y-72498500D02*
X101988500Y-72498500D01*
X100068500Y-75358500D02*
X100068500Y-72498500D01*
%TO.C,R6*%
X204331500Y-74088248D02*
X204331500Y-74610752D01*
X205751500Y-74088248D02*
X205751500Y-74610752D01*
%TO.C,R7*%
X205688000Y-115308748D02*
X205688000Y-115831252D01*
X204268000Y-115308748D02*
X204268000Y-115831252D01*
%TO.C,R8*%
X134540248Y-146823500D02*
X135062752Y-146823500D01*
X134540248Y-145403500D02*
X135062752Y-145403500D01*
%TO.C,R9*%
X172522248Y-145340000D02*
X173044752Y-145340000D01*
X172522248Y-146760000D02*
X173044752Y-146760000D01*
%TO.C,R10*%
X134476748Y-46366500D02*
X134999252Y-46366500D01*
X134476748Y-44946500D02*
X134999252Y-44946500D01*
%TO.C,R11*%
X172531248Y-44883000D02*
X173053752Y-44883000D01*
X172531248Y-46303000D02*
X173053752Y-46303000D01*
%TO.C,R12*%
X104001500Y-115299748D02*
X104001500Y-115822252D01*
X105421500Y-115299748D02*
X105421500Y-115822252D01*
%TO.C,R13*%
X104446000Y-71635252D02*
X104446000Y-71112748D01*
X105866000Y-71635252D02*
X105866000Y-71112748D01*
%TO.C,D6*%
D11*
X207209380Y-73620404D02*
X206209380Y-73620404D01*
X206209380Y-73858500D01*
X206257000Y-74001357D01*
X206352238Y-74096595D01*
X206447476Y-74144214D01*
X206637952Y-74191833D01*
X206780809Y-74191833D01*
X206971285Y-74144214D01*
X207066523Y-74096595D01*
X207161761Y-74001357D01*
X207209380Y-73858500D01*
X207209380Y-73620404D01*
X206209380Y-75048976D02*
X206209380Y-74858500D01*
X206257000Y-74763261D01*
X206304619Y-74715642D01*
X206447476Y-74620404D01*
X206637952Y-74572785D01*
X207018904Y-74572785D01*
X207114142Y-74620404D01*
X207161761Y-74668023D01*
X207209380Y-74763261D01*
X207209380Y-74953738D01*
X207161761Y-75048976D01*
X207114142Y-75096595D01*
X207018904Y-75144214D01*
X206780809Y-75144214D01*
X206685571Y-75096595D01*
X206637952Y-75048976D01*
X206590333Y-74953738D01*
X206590333Y-74763261D01*
X206637952Y-74668023D01*
X206685571Y-74620404D01*
X206780809Y-74572785D01*
%TO.C,D7*%
X207209380Y-114831904D02*
X206209380Y-114831904D01*
X206209380Y-115070000D01*
X206257000Y-115212857D01*
X206352238Y-115308095D01*
X206447476Y-115355714D01*
X206637952Y-115403333D01*
X206780809Y-115403333D01*
X206971285Y-115355714D01*
X207066523Y-115308095D01*
X207161761Y-115212857D01*
X207209380Y-115070000D01*
X207209380Y-114831904D01*
X206209380Y-115736666D02*
X206209380Y-116403333D01*
X207209380Y-115974761D01*
%TO.C,D8*%
X135539595Y-151708380D02*
X135539595Y-150708380D01*
X135301500Y-150708380D01*
X135158642Y-150756000D01*
X135063404Y-150851238D01*
X135015785Y-150946476D01*
X134968166Y-151136952D01*
X134968166Y-151279809D01*
X135015785Y-151470285D01*
X135063404Y-151565523D01*
X135158642Y-151660761D01*
X135301500Y-151708380D01*
X135539595Y-151708380D01*
X134396738Y-151136952D02*
X134491976Y-151089333D01*
X134539595Y-151041714D01*
X134587214Y-150946476D01*
X134587214Y-150898857D01*
X134539595Y-150803619D01*
X134491976Y-150756000D01*
X134396738Y-150708380D01*
X134206261Y-150708380D01*
X134111023Y-150756000D01*
X134063404Y-150803619D01*
X134015785Y-150898857D01*
X134015785Y-150946476D01*
X134063404Y-151041714D01*
X134111023Y-151089333D01*
X134206261Y-151136952D01*
X134396738Y-151136952D01*
X134491976Y-151184571D01*
X134539595Y-151232190D01*
X134587214Y-151327428D01*
X134587214Y-151517904D01*
X134539595Y-151613142D01*
X134491976Y-151660761D01*
X134396738Y-151708380D01*
X134206261Y-151708380D01*
X134111023Y-151660761D01*
X134063404Y-151613142D01*
X134015785Y-151517904D01*
X134015785Y-151327428D01*
X134063404Y-151232190D01*
X134111023Y-151184571D01*
X134206261Y-151136952D01*
%TO.C,D9*%
X173576095Y-151708380D02*
X173576095Y-150708380D01*
X173338000Y-150708380D01*
X173195142Y-150756000D01*
X173099904Y-150851238D01*
X173052285Y-150946476D01*
X173004666Y-151136952D01*
X173004666Y-151279809D01*
X173052285Y-151470285D01*
X173099904Y-151565523D01*
X173195142Y-151660761D01*
X173338000Y-151708380D01*
X173576095Y-151708380D01*
X172528476Y-151708380D02*
X172338000Y-151708380D01*
X172242761Y-151660761D01*
X172195142Y-151613142D01*
X172099904Y-151470285D01*
X172052285Y-151279809D01*
X172052285Y-150898857D01*
X172099904Y-150803619D01*
X172147523Y-150756000D01*
X172242761Y-150708380D01*
X172433238Y-150708380D01*
X172528476Y-150756000D01*
X172576095Y-150803619D01*
X172623714Y-150898857D01*
X172623714Y-151136952D01*
X172576095Y-151232190D01*
X172528476Y-151279809D01*
X172433238Y-151327428D01*
X172242761Y-151327428D01*
X172147523Y-151279809D01*
X172099904Y-151232190D01*
X172052285Y-151136952D01*
%TO.C,D10*%
X136015785Y-44393380D02*
X136015785Y-43393380D01*
X135777690Y-43393380D01*
X135634833Y-43441000D01*
X135539595Y-43536238D01*
X135491976Y-43631476D01*
X135444357Y-43821952D01*
X135444357Y-43964809D01*
X135491976Y-44155285D01*
X135539595Y-44250523D01*
X135634833Y-44345761D01*
X135777690Y-44393380D01*
X136015785Y-44393380D01*
X134491976Y-44393380D02*
X135063404Y-44393380D01*
X134777690Y-44393380D02*
X134777690Y-43393380D01*
X134872928Y-43536238D01*
X134968166Y-43631476D01*
X135063404Y-43679095D01*
X133872928Y-43393380D02*
X133777690Y-43393380D01*
X133682452Y-43441000D01*
X133634833Y-43488619D01*
X133587214Y-43583857D01*
X133539595Y-43774333D01*
X133539595Y-44012428D01*
X133587214Y-44202904D01*
X133634833Y-44298142D01*
X133682452Y-44345761D01*
X133777690Y-44393380D01*
X133872928Y-44393380D01*
X133968166Y-44345761D01*
X134015785Y-44298142D01*
X134063404Y-44202904D01*
X134111023Y-44012428D01*
X134111023Y-43774333D01*
X134063404Y-43583857D01*
X134015785Y-43488619D01*
X133968166Y-43441000D01*
X133872928Y-43393380D01*
%TO.C,D11*%
X174052285Y-44329880D02*
X174052285Y-43329880D01*
X173814190Y-43329880D01*
X173671333Y-43377500D01*
X173576095Y-43472738D01*
X173528476Y-43567976D01*
X173480857Y-43758452D01*
X173480857Y-43901309D01*
X173528476Y-44091785D01*
X173576095Y-44187023D01*
X173671333Y-44282261D01*
X173814190Y-44329880D01*
X174052285Y-44329880D01*
X172528476Y-44329880D02*
X173099904Y-44329880D01*
X172814190Y-44329880D02*
X172814190Y-43329880D01*
X172909428Y-43472738D01*
X173004666Y-43567976D01*
X173099904Y-43615595D01*
X171576095Y-44329880D02*
X172147523Y-44329880D01*
X171861809Y-44329880D02*
X171861809Y-43329880D01*
X171957047Y-43472738D01*
X172052285Y-43567976D01*
X172147523Y-43615595D01*
%TO.C,D12*%
X99830880Y-114355714D02*
X98830880Y-114355714D01*
X98830880Y-114593809D01*
X98878500Y-114736666D01*
X98973738Y-114831904D01*
X99068976Y-114879523D01*
X99259452Y-114927142D01*
X99402309Y-114927142D01*
X99592785Y-114879523D01*
X99688023Y-114831904D01*
X99783261Y-114736666D01*
X99830880Y-114593809D01*
X99830880Y-114355714D01*
X99830880Y-115879523D02*
X99830880Y-115308095D01*
X99830880Y-115593809D02*
X98830880Y-115593809D01*
X98973738Y-115498571D01*
X99068976Y-115403333D01*
X99116595Y-115308095D01*
X98926119Y-116260476D02*
X98878500Y-116308095D01*
X98830880Y-116403333D01*
X98830880Y-116641428D01*
X98878500Y-116736666D01*
X98926119Y-116784285D01*
X99021357Y-116831904D01*
X99116595Y-116831904D01*
X99259452Y-116784285D01*
X99830880Y-116212857D01*
X99830880Y-116831904D01*
%TO.C,D13*%
X99830880Y-73144214D02*
X98830880Y-73144214D01*
X98830880Y-73382309D01*
X98878500Y-73525166D01*
X98973738Y-73620404D01*
X99068976Y-73668023D01*
X99259452Y-73715642D01*
X99402309Y-73715642D01*
X99592785Y-73668023D01*
X99688023Y-73620404D01*
X99783261Y-73525166D01*
X99830880Y-73382309D01*
X99830880Y-73144214D01*
X99830880Y-74668023D02*
X99830880Y-74096595D01*
X99830880Y-74382309D02*
X98830880Y-74382309D01*
X98973738Y-74287071D01*
X99068976Y-74191833D01*
X99116595Y-74096595D01*
X98830880Y-75001357D02*
X98830880Y-75620404D01*
X99211833Y-75287071D01*
X99211833Y-75429928D01*
X99259452Y-75525166D01*
X99307071Y-75572785D01*
X99402309Y-75620404D01*
X99640404Y-75620404D01*
X99735642Y-75572785D01*
X99783261Y-75525166D01*
X99830880Y-75429928D01*
X99830880Y-75144214D01*
X99783261Y-75048976D01*
X99735642Y-75001357D01*
%TO.C,R6*%
X203843880Y-74182833D02*
X203367690Y-73849500D01*
X203843880Y-73611404D02*
X202843880Y-73611404D01*
X202843880Y-73992357D01*
X202891500Y-74087595D01*
X202939119Y-74135214D01*
X203034357Y-74182833D01*
X203177214Y-74182833D01*
X203272452Y-74135214D01*
X203320071Y-74087595D01*
X203367690Y-73992357D01*
X203367690Y-73611404D01*
X202843880Y-75039976D02*
X202843880Y-74849500D01*
X202891500Y-74754261D01*
X202939119Y-74706642D01*
X203081976Y-74611404D01*
X203272452Y-74563785D01*
X203653404Y-74563785D01*
X203748642Y-74611404D01*
X203796261Y-74659023D01*
X203843880Y-74754261D01*
X203843880Y-74944738D01*
X203796261Y-75039976D01*
X203748642Y-75087595D01*
X203653404Y-75135214D01*
X203415309Y-75135214D01*
X203320071Y-75087595D01*
X203272452Y-75039976D01*
X203224833Y-74944738D01*
X203224833Y-74754261D01*
X203272452Y-74659023D01*
X203320071Y-74611404D01*
X203415309Y-74563785D01*
%TO.C,R7*%
X203780380Y-115403333D02*
X203304190Y-115070000D01*
X203780380Y-114831904D02*
X202780380Y-114831904D01*
X202780380Y-115212857D01*
X202828000Y-115308095D01*
X202875619Y-115355714D01*
X202970857Y-115403333D01*
X203113714Y-115403333D01*
X203208952Y-115355714D01*
X203256571Y-115308095D01*
X203304190Y-115212857D01*
X203304190Y-114831904D01*
X202780380Y-115736666D02*
X202780380Y-116403333D01*
X203780380Y-115974761D01*
%TO.C,R8*%
X134968166Y-148215880D02*
X135301500Y-147739690D01*
X135539595Y-148215880D02*
X135539595Y-147215880D01*
X135158642Y-147215880D01*
X135063404Y-147263500D01*
X135015785Y-147311119D01*
X134968166Y-147406357D01*
X134968166Y-147549214D01*
X135015785Y-147644452D01*
X135063404Y-147692071D01*
X135158642Y-147739690D01*
X135539595Y-147739690D01*
X134396738Y-147644452D02*
X134491976Y-147596833D01*
X134539595Y-147549214D01*
X134587214Y-147453976D01*
X134587214Y-147406357D01*
X134539595Y-147311119D01*
X134491976Y-147263500D01*
X134396738Y-147215880D01*
X134206261Y-147215880D01*
X134111023Y-147263500D01*
X134063404Y-147311119D01*
X134015785Y-147406357D01*
X134015785Y-147453976D01*
X134063404Y-147549214D01*
X134111023Y-147596833D01*
X134206261Y-147644452D01*
X134396738Y-147644452D01*
X134491976Y-147692071D01*
X134539595Y-147739690D01*
X134587214Y-147834928D01*
X134587214Y-148025404D01*
X134539595Y-148120642D01*
X134491976Y-148168261D01*
X134396738Y-148215880D01*
X134206261Y-148215880D01*
X134111023Y-148168261D01*
X134063404Y-148120642D01*
X134015785Y-148025404D01*
X134015785Y-147834928D01*
X134063404Y-147739690D01*
X134111023Y-147692071D01*
X134206261Y-147644452D01*
%TO.C,R9*%
X172950166Y-148152380D02*
X173283500Y-147676190D01*
X173521595Y-148152380D02*
X173521595Y-147152380D01*
X173140642Y-147152380D01*
X173045404Y-147200000D01*
X172997785Y-147247619D01*
X172950166Y-147342857D01*
X172950166Y-147485714D01*
X172997785Y-147580952D01*
X173045404Y-147628571D01*
X173140642Y-147676190D01*
X173521595Y-147676190D01*
X172473976Y-148152380D02*
X172283500Y-148152380D01*
X172188261Y-148104761D01*
X172140642Y-148057142D01*
X172045404Y-147914285D01*
X171997785Y-147723809D01*
X171997785Y-147342857D01*
X172045404Y-147247619D01*
X172093023Y-147200000D01*
X172188261Y-147152380D01*
X172378738Y-147152380D01*
X172473976Y-147200000D01*
X172521595Y-147247619D01*
X172569214Y-147342857D01*
X172569214Y-147580952D01*
X172521595Y-147676190D01*
X172473976Y-147723809D01*
X172378738Y-147771428D01*
X172188261Y-147771428D01*
X172093023Y-147723809D01*
X172045404Y-147676190D01*
X171997785Y-147580952D01*
%TO.C,R10*%
X135380857Y-47758880D02*
X135714190Y-47282690D01*
X135952285Y-47758880D02*
X135952285Y-46758880D01*
X135571333Y-46758880D01*
X135476095Y-46806500D01*
X135428476Y-46854119D01*
X135380857Y-46949357D01*
X135380857Y-47092214D01*
X135428476Y-47187452D01*
X135476095Y-47235071D01*
X135571333Y-47282690D01*
X135952285Y-47282690D01*
X134428476Y-47758880D02*
X134999904Y-47758880D01*
X134714190Y-47758880D02*
X134714190Y-46758880D01*
X134809428Y-46901738D01*
X134904666Y-46996976D01*
X134999904Y-47044595D01*
X133809428Y-46758880D02*
X133714190Y-46758880D01*
X133618952Y-46806500D01*
X133571333Y-46854119D01*
X133523714Y-46949357D01*
X133476095Y-47139833D01*
X133476095Y-47377928D01*
X133523714Y-47568404D01*
X133571333Y-47663642D01*
X133618952Y-47711261D01*
X133714190Y-47758880D01*
X133809428Y-47758880D01*
X133904666Y-47711261D01*
X133952285Y-47663642D01*
X133999904Y-47568404D01*
X134047523Y-47377928D01*
X134047523Y-47139833D01*
X133999904Y-46949357D01*
X133952285Y-46854119D01*
X133904666Y-46806500D01*
X133809428Y-46758880D01*
%TO.C,R11*%
X173435357Y-47695380D02*
X173768690Y-47219190D01*
X174006785Y-47695380D02*
X174006785Y-46695380D01*
X173625833Y-46695380D01*
X173530595Y-46743000D01*
X173482976Y-46790619D01*
X173435357Y-46885857D01*
X173435357Y-47028714D01*
X173482976Y-47123952D01*
X173530595Y-47171571D01*
X173625833Y-47219190D01*
X174006785Y-47219190D01*
X172482976Y-47695380D02*
X173054404Y-47695380D01*
X172768690Y-47695380D02*
X172768690Y-46695380D01*
X172863928Y-46838238D01*
X172959166Y-46933476D01*
X173054404Y-46981095D01*
X171530595Y-47695380D02*
X172102023Y-47695380D01*
X171816309Y-47695380D02*
X171816309Y-46695380D01*
X171911547Y-46838238D01*
X172006785Y-46933476D01*
X172102023Y-46981095D01*
%TO.C,R12*%
X103513880Y-114918142D02*
X103037690Y-114584809D01*
X103513880Y-114346714D02*
X102513880Y-114346714D01*
X102513880Y-114727666D01*
X102561500Y-114822904D01*
X102609119Y-114870523D01*
X102704357Y-114918142D01*
X102847214Y-114918142D01*
X102942452Y-114870523D01*
X102990071Y-114822904D01*
X103037690Y-114727666D01*
X103037690Y-114346714D01*
X103513880Y-115870523D02*
X103513880Y-115299095D01*
X103513880Y-115584809D02*
X102513880Y-115584809D01*
X102656738Y-115489571D01*
X102751976Y-115394333D01*
X102799595Y-115299095D01*
X102609119Y-116251476D02*
X102561500Y-116299095D01*
X102513880Y-116394333D01*
X102513880Y-116632428D01*
X102561500Y-116727666D01*
X102609119Y-116775285D01*
X102704357Y-116822904D01*
X102799595Y-116822904D01*
X102942452Y-116775285D01*
X103513880Y-116203857D01*
X103513880Y-116822904D01*
%TO.C,R13*%
X107258380Y-70731142D02*
X106782190Y-70397809D01*
X107258380Y-70159714D02*
X106258380Y-70159714D01*
X106258380Y-70540666D01*
X106306000Y-70635904D01*
X106353619Y-70683523D01*
X106448857Y-70731142D01*
X106591714Y-70731142D01*
X106686952Y-70683523D01*
X106734571Y-70635904D01*
X106782190Y-70540666D01*
X106782190Y-70159714D01*
X107258380Y-71683523D02*
X107258380Y-71112095D01*
X107258380Y-71397809D02*
X106258380Y-71397809D01*
X106401238Y-71302571D01*
X106496476Y-71207333D01*
X106544095Y-71112095D01*
X106258380Y-72016857D02*
X106258380Y-72635904D01*
X106639333Y-72302571D01*
X106639333Y-72445428D01*
X106686952Y-72540666D01*
X106734571Y-72588285D01*
X106829809Y-72635904D01*
X107067904Y-72635904D01*
X107163142Y-72588285D01*
X107210761Y-72540666D01*
X107258380Y-72445428D01*
X107258380Y-72159714D01*
X107210761Y-72064476D01*
X107163142Y-72016857D01*
%TD*%
M02*
