M48
; DRILL file {KiCad (5.1.6)-1} date 05/27/24 20:35:26
; FORMAT={-:-/ absolute / metric / decimal}
; #@! TF.CreationDate,2024-05-27T20:35:26-04:00
; #@! TF.GenerationSoftware,Kicad,Pcbnew,(5.1.6)-1
; #@! TF.FileFunction,Plated,1,2,PTH
FMAT,2
METRIC
T1C0.400
T2C0.690
T3C1.000
T4C1.016
T5C1.070
T6C1.100
T7C3.200
%
G90
G05
T1
X106.87Y-63.881
X108.204Y-69.787
X123.507Y-69.215
X129.794Y-57.975
X129.794Y-66.675
X134.874Y-51.498
X134.874Y-55.245
X134.874Y-78.867
X135.001Y-37.465
X137.477Y-45.657
X139.255Y-57.975
X173.799Y-48.641
T2
X129.476Y-116.866
X132.017Y-114.326
X134.556Y-116.866
X114.109Y-116.802
X116.649Y-114.262
X119.189Y-116.802
T3
X120.587Y-84.138
X123.126Y-84.138
X125.666Y-84.138
X128.207Y-84.138
T4
X127.063Y-40.005
X127.063Y-42.545
X127.063Y-45.085
X127.063Y-47.625
X127.063Y-50.165
X127.063Y-52.705
X127.063Y-55.245
X127.063Y-57.785
X127.063Y-60.325
X127.063Y-62.865
X127.063Y-65.405
X127.063Y-67.945
X127.063Y-70.485
X127.063Y-73.025
X127.063Y-75.565
X142.303Y-40.005
X142.303Y-42.545
X142.303Y-45.085
X142.303Y-47.625
X142.303Y-50.165
X142.303Y-52.705
X142.303Y-55.245
X142.303Y-57.785
X142.303Y-60.325
X142.303Y-62.865
X142.303Y-65.405
X142.303Y-67.945
X142.303Y-70.485
X142.303Y-73.025
X142.303Y-75.565
T5
X102.171Y-77.914
X102.171Y-80.454
X102.171Y-82.995
X102.171Y-85.534
X102.171Y-62.674
X102.171Y-65.215
X102.171Y-67.754
X102.171Y-70.294
T6
X117.157Y-65.405
X117.157Y-75.565
T7
X112.347Y-46.668
X117.147Y-43.868
X117.147Y-49.668
T0
M30
