%TF.GenerationSoftware,KiCad,Pcbnew,(5.1.6)-1*%
%TF.CreationDate,2024-05-27T20:35:23-04:00*%
%TF.ProjectId,watercooled-pi-120mm,77617465-7263-46f6-9f6c-65642d70692d,rev?*%
%TF.SameCoordinates,Original*%
%TF.FileFunction,Soldermask,Bot*%
%TF.FilePolarity,Negative*%
%FSLAX46Y46*%
G04 Gerber Fmt 4.6, Leading zero omitted, Abs format (unit mm)*
G04 Created by KiCad (PCBNEW (5.1.6)-1) date 2024-05-27 20:35:23*
%MOMM*%
%LPD*%
G01*
G04 APERTURE LIST*
%ADD10R,2.300000X2.300000*%
%ADD11O,2.300000X2.300000*%
%ADD12C,3.300000*%
%ADD13C,2.800000*%
%ADD14C,1.705000*%
%ADD15C,1.400000*%
%ADD16C,4.900000*%
%ADD17R,1.800000X1.800000*%
%ADD18O,1.800000X1.800000*%
%ADD19C,1.220000*%
%ADD20C,1.950000*%
%ADD21R,1.827200X1.827200*%
%ADD22C,1.827200*%
G04 APERTURE END LIST*
D10*
%TO.C,D1*%
X117157500Y-75565000D03*
D11*
X117157500Y-65405000D03*
%TD*%
D12*
%TO.C,H1*%
X102171500Y-43370500D03*
%TD*%
%TO.C,H2*%
X207200500Y-43370500D03*
%TD*%
%TO.C,H3*%
X102171500Y-148399500D03*
%TD*%
%TO.C,H4*%
X207200500Y-148399500D03*
%TD*%
D13*
%TO.C,H5*%
X148717000Y-59372500D03*
%TD*%
%TO.C,H6*%
X197739000Y-59372500D03*
%TD*%
%TO.C,H7*%
X148717000Y-117411500D03*
%TD*%
%TO.C,H8*%
X197739000Y-117411500D03*
%TD*%
D14*
%TO.C,J0*%
X102171500Y-85534500D03*
X102171500Y-82994500D03*
X102171500Y-80454500D03*
X102171500Y-77914500D03*
D15*
X100011500Y-80454500D03*
%TD*%
%TO.C,J1*%
X100011500Y-65214500D03*
D14*
X102171500Y-62674500D03*
X102171500Y-65214500D03*
X102171500Y-67754500D03*
X102171500Y-70294500D03*
%TD*%
D16*
%TO.C,J2*%
X117147500Y-49668000D03*
X117147500Y-43868000D03*
X112347500Y-46668000D03*
%TD*%
D17*
%TO.C,J3*%
X120586500Y-84137500D03*
D18*
X123126500Y-84137500D03*
X125666500Y-84137500D03*
X128206500Y-84137500D03*
%TD*%
D19*
%TO.C,R0*%
X114109500Y-116802500D03*
X116649500Y-114262500D03*
X119189500Y-116802500D03*
%TD*%
%TO.C,R1*%
X134556500Y-116866000D03*
X132016500Y-114326000D03*
X129476500Y-116866000D03*
%TD*%
D20*
%TO.C,TB0*%
X127063500Y-37465000D03*
X142303500Y-37465000D03*
X127063500Y-78105000D03*
X142303500Y-78105000D03*
D21*
X142303500Y-75565000D03*
D22*
X142303500Y-73025000D03*
X142303500Y-70485000D03*
X142303500Y-67945000D03*
X142303500Y-65405000D03*
X142303500Y-62865000D03*
X142303500Y-60325000D03*
X142303500Y-57785000D03*
X142303500Y-55245000D03*
X142303500Y-52705000D03*
X142303500Y-50165000D03*
X142303500Y-47625000D03*
X142303500Y-45085000D03*
X142303500Y-42545000D03*
X142303500Y-40005000D03*
X127063500Y-40005000D03*
X127063500Y-42545000D03*
X127063500Y-45085000D03*
X127063500Y-47625000D03*
X127063500Y-50165000D03*
X127063500Y-52705000D03*
X127063500Y-55245000D03*
X127063500Y-57785000D03*
X127063500Y-60325000D03*
X127063500Y-62865000D03*
X127063500Y-65405000D03*
X127063500Y-67945000D03*
X127063500Y-70485000D03*
X127063500Y-73025000D03*
X127063500Y-75565000D03*
%TD*%
%TO.C,D6*%
G36*
G01*
X207928738Y-74758500D02*
X208885262Y-74758500D01*
G75*
G02*
X209157000Y-75030238I0J-271738D01*
G01*
X209157000Y-75736762D01*
G75*
G02*
X208885262Y-76008500I-271738J0D01*
G01*
X207928738Y-76008500D01*
G75*
G02*
X207657000Y-75736762I0J271738D01*
G01*
X207657000Y-75030238D01*
G75*
G02*
X207928738Y-74758500I271738J0D01*
G01*
G37*
G36*
G01*
X207928738Y-72708500D02*
X208885262Y-72708500D01*
G75*
G02*
X209157000Y-72980238I0J-271738D01*
G01*
X209157000Y-73686762D01*
G75*
G02*
X208885262Y-73958500I-271738J0D01*
G01*
X207928738Y-73958500D01*
G75*
G02*
X207657000Y-73686762I0J271738D01*
G01*
X207657000Y-72980238D01*
G75*
G02*
X207928738Y-72708500I271738J0D01*
G01*
G37*
%TD*%
%TO.C,D7*%
G36*
G01*
X207928738Y-113920000D02*
X208885262Y-113920000D01*
G75*
G02*
X209157000Y-114191738I0J-271738D01*
G01*
X209157000Y-114898262D01*
G75*
G02*
X208885262Y-115170000I-271738J0D01*
G01*
X207928738Y-115170000D01*
G75*
G02*
X207657000Y-114898262I0J271738D01*
G01*
X207657000Y-114191738D01*
G75*
G02*
X207928738Y-113920000I271738J0D01*
G01*
G37*
G36*
G01*
X207928738Y-115970000D02*
X208885262Y-115970000D01*
G75*
G02*
X209157000Y-116241738I0J-271738D01*
G01*
X209157000Y-116948262D01*
G75*
G02*
X208885262Y-117220000I-271738J0D01*
G01*
X207928738Y-117220000D01*
G75*
G02*
X207657000Y-116948262I0J271738D01*
G01*
X207657000Y-116241738D01*
G75*
G02*
X207928738Y-115970000I271738J0D01*
G01*
G37*
%TD*%
%TO.C,D8*%
G36*
G01*
X133151500Y-150084262D02*
X133151500Y-149127738D01*
G75*
G02*
X133423238Y-148856000I271738J0D01*
G01*
X134129762Y-148856000D01*
G75*
G02*
X134401500Y-149127738I0J-271738D01*
G01*
X134401500Y-150084262D01*
G75*
G02*
X134129762Y-150356000I-271738J0D01*
G01*
X133423238Y-150356000D01*
G75*
G02*
X133151500Y-150084262I0J271738D01*
G01*
G37*
G36*
G01*
X135201500Y-150084262D02*
X135201500Y-149127738D01*
G75*
G02*
X135473238Y-148856000I271738J0D01*
G01*
X136179762Y-148856000D01*
G75*
G02*
X136451500Y-149127738I0J-271738D01*
G01*
X136451500Y-150084262D01*
G75*
G02*
X136179762Y-150356000I-271738J0D01*
G01*
X135473238Y-150356000D01*
G75*
G02*
X135201500Y-150084262I0J271738D01*
G01*
G37*
%TD*%
%TO.C,D9*%
G36*
G01*
X173238000Y-150084262D02*
X173238000Y-149127738D01*
G75*
G02*
X173509738Y-148856000I271738J0D01*
G01*
X174216262Y-148856000D01*
G75*
G02*
X174488000Y-149127738I0J-271738D01*
G01*
X174488000Y-150084262D01*
G75*
G02*
X174216262Y-150356000I-271738J0D01*
G01*
X173509738Y-150356000D01*
G75*
G02*
X173238000Y-150084262I0J271738D01*
G01*
G37*
G36*
G01*
X171188000Y-150084262D02*
X171188000Y-149127738D01*
G75*
G02*
X171459738Y-148856000I271738J0D01*
G01*
X172166262Y-148856000D01*
G75*
G02*
X172438000Y-149127738I0J-271738D01*
G01*
X172438000Y-150084262D01*
G75*
G02*
X172166262Y-150356000I-271738J0D01*
G01*
X171459738Y-150356000D01*
G75*
G02*
X171188000Y-150084262I0J271738D01*
G01*
G37*
%TD*%
%TO.C,D10*%
G36*
G01*
X133151500Y-42769262D02*
X133151500Y-41812738D01*
G75*
G02*
X133423238Y-41541000I271738J0D01*
G01*
X134129762Y-41541000D01*
G75*
G02*
X134401500Y-41812738I0J-271738D01*
G01*
X134401500Y-42769262D01*
G75*
G02*
X134129762Y-43041000I-271738J0D01*
G01*
X133423238Y-43041000D01*
G75*
G02*
X133151500Y-42769262I0J271738D01*
G01*
G37*
G36*
G01*
X135201500Y-42769262D02*
X135201500Y-41812738D01*
G75*
G02*
X135473238Y-41541000I271738J0D01*
G01*
X136179762Y-41541000D01*
G75*
G02*
X136451500Y-41812738I0J-271738D01*
G01*
X136451500Y-42769262D01*
G75*
G02*
X136179762Y-43041000I-271738J0D01*
G01*
X135473238Y-43041000D01*
G75*
G02*
X135201500Y-42769262I0J271738D01*
G01*
G37*
%TD*%
%TO.C,D11*%
G36*
G01*
X173238000Y-42705762D02*
X173238000Y-41749238D01*
G75*
G02*
X173509738Y-41477500I271738J0D01*
G01*
X174216262Y-41477500D01*
G75*
G02*
X174488000Y-41749238I0J-271738D01*
G01*
X174488000Y-42705762D01*
G75*
G02*
X174216262Y-42977500I-271738J0D01*
G01*
X173509738Y-42977500D01*
G75*
G02*
X173238000Y-42705762I0J271738D01*
G01*
G37*
G36*
G01*
X171188000Y-42705762D02*
X171188000Y-41749238D01*
G75*
G02*
X171459738Y-41477500I271738J0D01*
G01*
X172166262Y-41477500D01*
G75*
G02*
X172438000Y-41749238I0J-271738D01*
G01*
X172438000Y-42705762D01*
G75*
G02*
X172166262Y-42977500I-271738J0D01*
G01*
X171459738Y-42977500D01*
G75*
G02*
X171188000Y-42705762I0J271738D01*
G01*
G37*
%TD*%
%TO.C,D12*%
G36*
G01*
X100550238Y-113920000D02*
X101506762Y-113920000D01*
G75*
G02*
X101778500Y-114191738I0J-271738D01*
G01*
X101778500Y-114898262D01*
G75*
G02*
X101506762Y-115170000I-271738J0D01*
G01*
X100550238Y-115170000D01*
G75*
G02*
X100278500Y-114898262I0J271738D01*
G01*
X100278500Y-114191738D01*
G75*
G02*
X100550238Y-113920000I271738J0D01*
G01*
G37*
G36*
G01*
X100550238Y-115970000D02*
X101506762Y-115970000D01*
G75*
G02*
X101778500Y-116241738I0J-271738D01*
G01*
X101778500Y-116948262D01*
G75*
G02*
X101506762Y-117220000I-271738J0D01*
G01*
X100550238Y-117220000D01*
G75*
G02*
X100278500Y-116948262I0J271738D01*
G01*
X100278500Y-116241738D01*
G75*
G02*
X100550238Y-115970000I271738J0D01*
G01*
G37*
%TD*%
%TO.C,D13*%
G36*
G01*
X100550238Y-74758500D02*
X101506762Y-74758500D01*
G75*
G02*
X101778500Y-75030238I0J-271738D01*
G01*
X101778500Y-75736762D01*
G75*
G02*
X101506762Y-76008500I-271738J0D01*
G01*
X100550238Y-76008500D01*
G75*
G02*
X100278500Y-75736762I0J271738D01*
G01*
X100278500Y-75030238D01*
G75*
G02*
X100550238Y-74758500I271738J0D01*
G01*
G37*
G36*
G01*
X100550238Y-72708500D02*
X101506762Y-72708500D01*
G75*
G02*
X101778500Y-72980238I0J-271738D01*
G01*
X101778500Y-73686762D01*
G75*
G02*
X101506762Y-73958500I-271738J0D01*
G01*
X100550238Y-73958500D01*
G75*
G02*
X100278500Y-73686762I0J271738D01*
G01*
X100278500Y-72980238D01*
G75*
G02*
X100550238Y-72708500I271738J0D01*
G01*
G37*
%TD*%
%TO.C,R6*%
G36*
G01*
X204563238Y-72699500D02*
X205519762Y-72699500D01*
G75*
G02*
X205791500Y-72971238I0J-271738D01*
G01*
X205791500Y-73677762D01*
G75*
G02*
X205519762Y-73949500I-271738J0D01*
G01*
X204563238Y-73949500D01*
G75*
G02*
X204291500Y-73677762I0J271738D01*
G01*
X204291500Y-72971238D01*
G75*
G02*
X204563238Y-72699500I271738J0D01*
G01*
G37*
G36*
G01*
X204563238Y-74749500D02*
X205519762Y-74749500D01*
G75*
G02*
X205791500Y-75021238I0J-271738D01*
G01*
X205791500Y-75727762D01*
G75*
G02*
X205519762Y-75999500I-271738J0D01*
G01*
X204563238Y-75999500D01*
G75*
G02*
X204291500Y-75727762I0J271738D01*
G01*
X204291500Y-75021238D01*
G75*
G02*
X204563238Y-74749500I271738J0D01*
G01*
G37*
%TD*%
%TO.C,R7*%
G36*
G01*
X204499738Y-115970000D02*
X205456262Y-115970000D01*
G75*
G02*
X205728000Y-116241738I0J-271738D01*
G01*
X205728000Y-116948262D01*
G75*
G02*
X205456262Y-117220000I-271738J0D01*
G01*
X204499738Y-117220000D01*
G75*
G02*
X204228000Y-116948262I0J271738D01*
G01*
X204228000Y-116241738D01*
G75*
G02*
X204499738Y-115970000I271738J0D01*
G01*
G37*
G36*
G01*
X204499738Y-113920000D02*
X205456262Y-113920000D01*
G75*
G02*
X205728000Y-114191738I0J-271738D01*
G01*
X205728000Y-114898262D01*
G75*
G02*
X205456262Y-115170000I-271738J0D01*
G01*
X204499738Y-115170000D01*
G75*
G02*
X204228000Y-114898262I0J271738D01*
G01*
X204228000Y-114191738D01*
G75*
G02*
X204499738Y-113920000I271738J0D01*
G01*
G37*
%TD*%
%TO.C,R8*%
G36*
G01*
X133151500Y-146591762D02*
X133151500Y-145635238D01*
G75*
G02*
X133423238Y-145363500I271738J0D01*
G01*
X134129762Y-145363500D01*
G75*
G02*
X134401500Y-145635238I0J-271738D01*
G01*
X134401500Y-146591762D01*
G75*
G02*
X134129762Y-146863500I-271738J0D01*
G01*
X133423238Y-146863500D01*
G75*
G02*
X133151500Y-146591762I0J271738D01*
G01*
G37*
G36*
G01*
X135201500Y-146591762D02*
X135201500Y-145635238D01*
G75*
G02*
X135473238Y-145363500I271738J0D01*
G01*
X136179762Y-145363500D01*
G75*
G02*
X136451500Y-145635238I0J-271738D01*
G01*
X136451500Y-146591762D01*
G75*
G02*
X136179762Y-146863500I-271738J0D01*
G01*
X135473238Y-146863500D01*
G75*
G02*
X135201500Y-146591762I0J271738D01*
G01*
G37*
%TD*%
%TO.C,R9*%
G36*
G01*
X173183500Y-146528262D02*
X173183500Y-145571738D01*
G75*
G02*
X173455238Y-145300000I271738J0D01*
G01*
X174161762Y-145300000D01*
G75*
G02*
X174433500Y-145571738I0J-271738D01*
G01*
X174433500Y-146528262D01*
G75*
G02*
X174161762Y-146800000I-271738J0D01*
G01*
X173455238Y-146800000D01*
G75*
G02*
X173183500Y-146528262I0J271738D01*
G01*
G37*
G36*
G01*
X171133500Y-146528262D02*
X171133500Y-145571738D01*
G75*
G02*
X171405238Y-145300000I271738J0D01*
G01*
X172111762Y-145300000D01*
G75*
G02*
X172383500Y-145571738I0J-271738D01*
G01*
X172383500Y-146528262D01*
G75*
G02*
X172111762Y-146800000I-271738J0D01*
G01*
X171405238Y-146800000D01*
G75*
G02*
X171133500Y-146528262I0J271738D01*
G01*
G37*
%TD*%
%TO.C,R10*%
G36*
G01*
X133088000Y-46134762D02*
X133088000Y-45178238D01*
G75*
G02*
X133359738Y-44906500I271738J0D01*
G01*
X134066262Y-44906500D01*
G75*
G02*
X134338000Y-45178238I0J-271738D01*
G01*
X134338000Y-46134762D01*
G75*
G02*
X134066262Y-46406500I-271738J0D01*
G01*
X133359738Y-46406500D01*
G75*
G02*
X133088000Y-46134762I0J271738D01*
G01*
G37*
G36*
G01*
X135138000Y-46134762D02*
X135138000Y-45178238D01*
G75*
G02*
X135409738Y-44906500I271738J0D01*
G01*
X136116262Y-44906500D01*
G75*
G02*
X136388000Y-45178238I0J-271738D01*
G01*
X136388000Y-46134762D01*
G75*
G02*
X136116262Y-46406500I-271738J0D01*
G01*
X135409738Y-46406500D01*
G75*
G02*
X135138000Y-46134762I0J271738D01*
G01*
G37*
%TD*%
%TO.C,R11*%
G36*
G01*
X173192500Y-46071262D02*
X173192500Y-45114738D01*
G75*
G02*
X173464238Y-44843000I271738J0D01*
G01*
X174170762Y-44843000D01*
G75*
G02*
X174442500Y-45114738I0J-271738D01*
G01*
X174442500Y-46071262D01*
G75*
G02*
X174170762Y-46343000I-271738J0D01*
G01*
X173464238Y-46343000D01*
G75*
G02*
X173192500Y-46071262I0J271738D01*
G01*
G37*
G36*
G01*
X171142500Y-46071262D02*
X171142500Y-45114738D01*
G75*
G02*
X171414238Y-44843000I271738J0D01*
G01*
X172120762Y-44843000D01*
G75*
G02*
X172392500Y-45114738I0J-271738D01*
G01*
X172392500Y-46071262D01*
G75*
G02*
X172120762Y-46343000I-271738J0D01*
G01*
X171414238Y-46343000D01*
G75*
G02*
X171142500Y-46071262I0J271738D01*
G01*
G37*
%TD*%
%TO.C,R12*%
G36*
G01*
X104233238Y-113911000D02*
X105189762Y-113911000D01*
G75*
G02*
X105461500Y-114182738I0J-271738D01*
G01*
X105461500Y-114889262D01*
G75*
G02*
X105189762Y-115161000I-271738J0D01*
G01*
X104233238Y-115161000D01*
G75*
G02*
X103961500Y-114889262I0J271738D01*
G01*
X103961500Y-114182738D01*
G75*
G02*
X104233238Y-113911000I271738J0D01*
G01*
G37*
G36*
G01*
X104233238Y-115961000D02*
X105189762Y-115961000D01*
G75*
G02*
X105461500Y-116232738I0J-271738D01*
G01*
X105461500Y-116939262D01*
G75*
G02*
X105189762Y-117211000I-271738J0D01*
G01*
X104233238Y-117211000D01*
G75*
G02*
X103961500Y-116939262I0J271738D01*
G01*
X103961500Y-116232738D01*
G75*
G02*
X104233238Y-115961000I271738J0D01*
G01*
G37*
%TD*%
%TO.C,R13*%
G36*
G01*
X105634262Y-70974000D02*
X104677738Y-70974000D01*
G75*
G02*
X104406000Y-70702262I0J271738D01*
G01*
X104406000Y-69995738D01*
G75*
G02*
X104677738Y-69724000I271738J0D01*
G01*
X105634262Y-69724000D01*
G75*
G02*
X105906000Y-69995738I0J-271738D01*
G01*
X105906000Y-70702262D01*
G75*
G02*
X105634262Y-70974000I-271738J0D01*
G01*
G37*
G36*
G01*
X105634262Y-73024000D02*
X104677738Y-73024000D01*
G75*
G02*
X104406000Y-72752262I0J271738D01*
G01*
X104406000Y-72045738D01*
G75*
G02*
X104677738Y-71774000I271738J0D01*
G01*
X105634262Y-71774000D01*
G75*
G02*
X105906000Y-72045738I0J-271738D01*
G01*
X105906000Y-72752262D01*
G75*
G02*
X105634262Y-73024000I-271738J0D01*
G01*
G37*
%TD*%
M02*
