%TF.GenerationSoftware,KiCad,Pcbnew,(5.1.6)-1*%
%TF.CreationDate,2024-05-27T20:35:23-04:00*%
%TF.ProjectId,watercooled-pi-120mm,77617465-7263-46f6-9f6c-65642d70692d,rev?*%
%TF.SameCoordinates,Original*%
%TF.FileFunction,Copper,L1,Top*%
%TF.FilePolarity,Positive*%
%FSLAX46Y46*%
G04 Gerber Fmt 4.6, Leading zero omitted, Abs format (unit mm)*
G04 Created by KiCad (PCBNEW (5.1.6)-1) date 2024-05-27 20:35:23*
%MOMM*%
%LPD*%
G01*
G04 APERTURE LIST*
%TA.AperFunction,ComponentPad*%
%ADD10R,2.200000X2.200000*%
%TD*%
%TA.AperFunction,ComponentPad*%
%ADD11O,2.200000X2.200000*%
%TD*%
%TA.AperFunction,SMDPad,CuDef*%
%ADD12R,1.800000X1.000000*%
%TD*%
%TA.AperFunction,ComponentPad*%
%ADD13C,1.605000*%
%TD*%
%TA.AperFunction,ComponentPad*%
%ADD14C,4.800000*%
%TD*%
%TA.AperFunction,ComponentPad*%
%ADD15R,1.700000X1.700000*%
%TD*%
%TA.AperFunction,ComponentPad*%
%ADD16O,1.700000X1.700000*%
%TD*%
%TA.AperFunction,ComponentPad*%
%ADD17C,1.120000*%
%TD*%
%TA.AperFunction,ComponentPad*%
%ADD18R,1.727200X1.727200*%
%TD*%
%TA.AperFunction,ComponentPad*%
%ADD19C,1.727200*%
%TD*%
%TA.AperFunction,ViaPad*%
%ADD20C,0.800000*%
%TD*%
%TA.AperFunction,Conductor*%
%ADD21C,1.000000*%
%TD*%
%TA.AperFunction,Conductor*%
%ADD22C,0.750000*%
%TD*%
%TA.AperFunction,Conductor*%
%ADD23C,0.500000*%
%TD*%
%TA.AperFunction,Conductor*%
%ADD24C,0.250000*%
%TD*%
%TA.AperFunction,Conductor*%
%ADD25C,0.254000*%
%TD*%
G04 APERTURE END LIST*
D10*
%TO.P,D1,1*%
%TO.N,Net-(D1-Pad1)*%
X117157500Y-75565000D03*
D11*
%TO.P,D1,2*%
%TO.N,+12V*%
X117157500Y-65405000D03*
%TD*%
D12*
%TO.P,F0,1*%
%TO.N,Net-(F0-Pad1)*%
X117157500Y-56512000D03*
%TO.P,F0,2*%
%TO.N,+12V*%
X117157500Y-59312000D03*
%TD*%
D13*
%TO.P,J0,1*%
%TO.N,GND*%
X102171500Y-85534500D03*
%TO.P,J0,2*%
%TO.N,+12V*%
X102171500Y-82994500D03*
%TO.P,J0,3*%
%TO.N,TACH0*%
X102171500Y-80454500D03*
%TO.P,J0,4*%
%TO.N,PWM0*%
X102171500Y-77914500D03*
%TD*%
%TO.P,J1,4*%
%TO.N,PWM1*%
X102171500Y-62674500D03*
%TO.P,J1,3*%
%TO.N,TACH1*%
X102171500Y-65214500D03*
%TO.P,J1,2*%
%TO.N,+12V*%
X102171500Y-67754500D03*
%TO.P,J1,1*%
%TO.N,GND*%
X102171500Y-70294500D03*
%TD*%
D14*
%TO.P,J2,1*%
%TO.N,Net-(F0-Pad1)*%
X117147500Y-49668000D03*
%TO.P,J2,2*%
%TO.N,GND*%
X117147500Y-43868000D03*
%TO.P,J2,3*%
X112347500Y-46668000D03*
%TD*%
D15*
%TO.P,J3,1*%
%TO.N,GND*%
X120586500Y-84137500D03*
D16*
%TO.P,J3,2*%
%TO.N,+5V*%
X123126500Y-84137500D03*
%TO.P,J3,3*%
%TO.N,SCL*%
X125666500Y-84137500D03*
%TO.P,J3,4*%
%TO.N,SDA*%
X128206500Y-84137500D03*
%TD*%
D17*
%TO.P,R0,1*%
%TO.N,GND*%
X114109500Y-116802500D03*
%TO.P,R0,2*%
%TO.N,CTRL0*%
X116649500Y-114262500D03*
%TO.P,R0,3*%
%TO.N,+5V*%
X119189500Y-116802500D03*
%TD*%
%TO.P,R1,3*%
%TO.N,+5V*%
X134556500Y-116866000D03*
%TO.P,R1,2*%
%TO.N,CTRL1*%
X132016500Y-114326000D03*
%TO.P,R1,1*%
%TO.N,GND*%
X129476500Y-116866000D03*
%TD*%
D18*
%TO.P,TB0,1*%
%TO.N,N/C*%
X142303500Y-75565000D03*
D19*
%TO.P,TB0,2*%
X142303500Y-73025000D03*
%TO.P,TB0,3*%
%TO.N,Net-(TB0-Pad28)*%
X142303500Y-70485000D03*
%TO.P,TB0,4*%
%TO.N,GND*%
X142303500Y-67945000D03*
%TO.P,TB0,5*%
%TO.N,TACH0*%
X142303500Y-65405000D03*
%TO.P,TB0,6*%
%TO.N,N/C*%
X142303500Y-62865000D03*
%TO.P,TB0,7*%
X142303500Y-60325000D03*
%TO.P,TB0,8*%
X142303500Y-57785000D03*
%TO.P,TB0,9*%
%TO.N,TACH1*%
X142303500Y-55245000D03*
%TO.P,TB0,10*%
%TO.N,N/C*%
X142303500Y-52705000D03*
%TO.P,TB0,11*%
X142303500Y-50165000D03*
%TO.P,TB0,12*%
%TO.N,PWM0*%
X142303500Y-47625000D03*
%TO.P,TB0,13*%
%TO.N,PWM1*%
X142303500Y-45085000D03*
%TO.P,TB0,14*%
%TO.N,N/C*%
X142303500Y-42545000D03*
%TO.P,TB0,15*%
X142303500Y-40005000D03*
%TO.P,TB0,16*%
X127063500Y-40005000D03*
%TO.P,TB0,17*%
X127063500Y-42545000D03*
%TO.P,TB0,18*%
X127063500Y-45085000D03*
%TO.P,TB0,19*%
%TO.N,CTRL0*%
X127063500Y-47625000D03*
%TO.P,TB0,20*%
%TO.N,CTRL1*%
X127063500Y-50165000D03*
%TO.P,TB0,21*%
%TO.N,N/C*%
X127063500Y-52705000D03*
%TO.P,TB0,22*%
X127063500Y-55245000D03*
%TO.P,TB0,23*%
%TO.N,SDA*%
X127063500Y-57785000D03*
%TO.P,TB0,24*%
%TO.N,SCL*%
X127063500Y-60325000D03*
%TO.P,TB0,25*%
%TO.N,N/C*%
X127063500Y-62865000D03*
%TO.P,TB0,26*%
X127063500Y-65405000D03*
%TO.P,TB0,27*%
%TO.N,+5V*%
X127063500Y-67945000D03*
%TO.P,TB0,28*%
%TO.N,Net-(TB0-Pad28)*%
X127063500Y-70485000D03*
%TO.P,TB0,29*%
%TO.N,GND*%
X127063500Y-73025000D03*
%TO.P,TB0,30*%
%TO.N,Net-(D1-Pad1)*%
X127063500Y-75565000D03*
%TD*%
%TO.P,D2,2*%
%TO.N,Net-(D2-Pad2)*%
%TA.AperFunction,SMDPad,CuDef*%
G36*
G01*
X134423999Y-58480000D02*
X135324001Y-58480000D01*
G75*
G02*
X135574000Y-58729999I0J-249999D01*
G01*
X135574000Y-59380001D01*
G75*
G02*
X135324001Y-59630000I-249999J0D01*
G01*
X134423999Y-59630000D01*
G75*
G02*
X134174000Y-59380001I0J249999D01*
G01*
X134174000Y-58729999D01*
G75*
G02*
X134423999Y-58480000I249999J0D01*
G01*
G37*
%TD.AperFunction*%
%TO.P,D2,1*%
%TO.N,GND*%
%TA.AperFunction,SMDPad,CuDef*%
G36*
G01*
X134423999Y-56430000D02*
X135324001Y-56430000D01*
G75*
G02*
X135574000Y-56679999I0J-249999D01*
G01*
X135574000Y-57330001D01*
G75*
G02*
X135324001Y-57580000I-249999J0D01*
G01*
X134423999Y-57580000D01*
G75*
G02*
X134174000Y-57330001I0J249999D01*
G01*
X134174000Y-56679999D01*
G75*
G02*
X134423999Y-56430000I249999J0D01*
G01*
G37*
%TD.AperFunction*%
%TD*%
%TO.P,D3,1*%
%TO.N,GND*%
%TA.AperFunction,SMDPad,CuDef*%
G36*
G01*
X176923500Y-51048499D02*
X176923500Y-51948501D01*
G75*
G02*
X176673501Y-52198500I-249999J0D01*
G01*
X176023499Y-52198500D01*
G75*
G02*
X175773500Y-51948501I0J249999D01*
G01*
X175773500Y-51048499D01*
G75*
G02*
X176023499Y-50798500I249999J0D01*
G01*
X176673501Y-50798500D01*
G75*
G02*
X176923500Y-51048499I0J-249999D01*
G01*
G37*
%TD.AperFunction*%
%TO.P,D3,2*%
%TO.N,Net-(D3-Pad2)*%
%TA.AperFunction,SMDPad,CuDef*%
G36*
G01*
X174873500Y-51048499D02*
X174873500Y-51948501D01*
G75*
G02*
X174623501Y-52198500I-249999J0D01*
G01*
X173973499Y-52198500D01*
G75*
G02*
X173723500Y-51948501I0J249999D01*
G01*
X173723500Y-51048499D01*
G75*
G02*
X173973499Y-50798500I249999J0D01*
G01*
X174623501Y-50798500D01*
G75*
G02*
X174873500Y-51048499I0J-249999D01*
G01*
G37*
%TD.AperFunction*%
%TD*%
%TO.P,D4,2*%
%TO.N,Net-(D4-Pad2)*%
%TA.AperFunction,SMDPad,CuDef*%
G36*
G01*
X174864500Y-81782499D02*
X174864500Y-82682501D01*
G75*
G02*
X174614501Y-82932500I-249999J0D01*
G01*
X173964499Y-82932500D01*
G75*
G02*
X173714500Y-82682501I0J249999D01*
G01*
X173714500Y-81782499D01*
G75*
G02*
X173964499Y-81532500I249999J0D01*
G01*
X174614501Y-81532500D01*
G75*
G02*
X174864500Y-81782499I0J-249999D01*
G01*
G37*
%TD.AperFunction*%
%TO.P,D4,1*%
%TO.N,GND*%
%TA.AperFunction,SMDPad,CuDef*%
G36*
G01*
X176914500Y-81782499D02*
X176914500Y-82682501D01*
G75*
G02*
X176664501Y-82932500I-249999J0D01*
G01*
X176014499Y-82932500D01*
G75*
G02*
X175764500Y-82682501I0J249999D01*
G01*
X175764500Y-81782499D01*
G75*
G02*
X176014499Y-81532500I249999J0D01*
G01*
X176664501Y-81532500D01*
G75*
G02*
X176914500Y-81782499I0J-249999D01*
G01*
G37*
%TD.AperFunction*%
%TD*%
%TO.P,D5,1*%
%TO.N,GND*%
%TA.AperFunction,SMDPad,CuDef*%
G36*
G01*
X176932500Y-112135499D02*
X176932500Y-113035501D01*
G75*
G02*
X176682501Y-113285500I-249999J0D01*
G01*
X176032499Y-113285500D01*
G75*
G02*
X175782500Y-113035501I0J249999D01*
G01*
X175782500Y-112135499D01*
G75*
G02*
X176032499Y-111885500I249999J0D01*
G01*
X176682501Y-111885500D01*
G75*
G02*
X176932500Y-112135499I0J-249999D01*
G01*
G37*
%TD.AperFunction*%
%TO.P,D5,2*%
%TO.N,Net-(D5-Pad2)*%
%TA.AperFunction,SMDPad,CuDef*%
G36*
G01*
X174882500Y-112135499D02*
X174882500Y-113035501D01*
G75*
G02*
X174632501Y-113285500I-249999J0D01*
G01*
X173982499Y-113285500D01*
G75*
G02*
X173732500Y-113035501I0J249999D01*
G01*
X173732500Y-112135499D01*
G75*
G02*
X173982499Y-111885500I249999J0D01*
G01*
X174632501Y-111885500D01*
G75*
G02*
X174882500Y-112135499I0J-249999D01*
G01*
G37*
%TD.AperFunction*%
%TD*%
%TO.P,R2,2*%
%TO.N,+12V*%
%TA.AperFunction,SMDPad,CuDef*%
G36*
G01*
X134423999Y-62734500D02*
X135324001Y-62734500D01*
G75*
G02*
X135574000Y-62984499I0J-249999D01*
G01*
X135574000Y-63634501D01*
G75*
G02*
X135324001Y-63884500I-249999J0D01*
G01*
X134423999Y-63884500D01*
G75*
G02*
X134174000Y-63634501I0J249999D01*
G01*
X134174000Y-62984499D01*
G75*
G02*
X134423999Y-62734500I249999J0D01*
G01*
G37*
%TD.AperFunction*%
%TO.P,R2,1*%
%TO.N,Net-(D2-Pad2)*%
%TA.AperFunction,SMDPad,CuDef*%
G36*
G01*
X134423999Y-60684500D02*
X135324001Y-60684500D01*
G75*
G02*
X135574000Y-60934499I0J-249999D01*
G01*
X135574000Y-61584501D01*
G75*
G02*
X135324001Y-61834500I-249999J0D01*
G01*
X134423999Y-61834500D01*
G75*
G02*
X134174000Y-61584501I0J249999D01*
G01*
X134174000Y-60934499D01*
G75*
G02*
X134423999Y-60684500I249999J0D01*
G01*
G37*
%TD.AperFunction*%
%TD*%
%TO.P,R3,1*%
%TO.N,Net-(D3-Pad2)*%
%TA.AperFunction,SMDPad,CuDef*%
G36*
G01*
X172342500Y-51048499D02*
X172342500Y-51948501D01*
G75*
G02*
X172092501Y-52198500I-249999J0D01*
G01*
X171442499Y-52198500D01*
G75*
G02*
X171192500Y-51948501I0J249999D01*
G01*
X171192500Y-51048499D01*
G75*
G02*
X171442499Y-50798500I249999J0D01*
G01*
X172092501Y-50798500D01*
G75*
G02*
X172342500Y-51048499I0J-249999D01*
G01*
G37*
%TD.AperFunction*%
%TO.P,R3,2*%
%TO.N,+12V*%
%TA.AperFunction,SMDPad,CuDef*%
G36*
G01*
X170292500Y-51048499D02*
X170292500Y-51948501D01*
G75*
G02*
X170042501Y-52198500I-249999J0D01*
G01*
X169392499Y-52198500D01*
G75*
G02*
X169142500Y-51948501I0J249999D01*
G01*
X169142500Y-51048499D01*
G75*
G02*
X169392499Y-50798500I249999J0D01*
G01*
X170042501Y-50798500D01*
G75*
G02*
X170292500Y-51048499I0J-249999D01*
G01*
G37*
%TD.AperFunction*%
%TD*%
%TO.P,R4,1*%
%TO.N,Net-(D4-Pad2)*%
%TA.AperFunction,SMDPad,CuDef*%
G36*
G01*
X172279000Y-81782499D02*
X172279000Y-82682501D01*
G75*
G02*
X172029001Y-82932500I-249999J0D01*
G01*
X171378999Y-82932500D01*
G75*
G02*
X171129000Y-82682501I0J249999D01*
G01*
X171129000Y-81782499D01*
G75*
G02*
X171378999Y-81532500I249999J0D01*
G01*
X172029001Y-81532500D01*
G75*
G02*
X172279000Y-81782499I0J-249999D01*
G01*
G37*
%TD.AperFunction*%
%TO.P,R4,2*%
%TO.N,+12V*%
%TA.AperFunction,SMDPad,CuDef*%
G36*
G01*
X170229000Y-81782499D02*
X170229000Y-82682501D01*
G75*
G02*
X169979001Y-82932500I-249999J0D01*
G01*
X169328999Y-82932500D01*
G75*
G02*
X169079000Y-82682501I0J249999D01*
G01*
X169079000Y-81782499D01*
G75*
G02*
X169328999Y-81532500I249999J0D01*
G01*
X169979001Y-81532500D01*
G75*
G02*
X170229000Y-81782499I0J-249999D01*
G01*
G37*
%TD.AperFunction*%
%TD*%
%TO.P,R5,2*%
%TO.N,+12V*%
%TA.AperFunction,SMDPad,CuDef*%
G36*
G01*
X170292500Y-112135499D02*
X170292500Y-113035501D01*
G75*
G02*
X170042501Y-113285500I-249999J0D01*
G01*
X169392499Y-113285500D01*
G75*
G02*
X169142500Y-113035501I0J249999D01*
G01*
X169142500Y-112135499D01*
G75*
G02*
X169392499Y-111885500I249999J0D01*
G01*
X170042501Y-111885500D01*
G75*
G02*
X170292500Y-112135499I0J-249999D01*
G01*
G37*
%TD.AperFunction*%
%TO.P,R5,1*%
%TO.N,Net-(D5-Pad2)*%
%TA.AperFunction,SMDPad,CuDef*%
G36*
G01*
X172342500Y-112135499D02*
X172342500Y-113035501D01*
G75*
G02*
X172092501Y-113285500I-249999J0D01*
G01*
X171442499Y-113285500D01*
G75*
G02*
X171192500Y-113035501I0J249999D01*
G01*
X171192500Y-112135499D01*
G75*
G02*
X171442499Y-111885500I249999J0D01*
G01*
X172092501Y-111885500D01*
G75*
G02*
X172342500Y-112135499I0J-249999D01*
G01*
G37*
%TD.AperFunction*%
%TD*%
D20*
%TO.N,+12V*%
X134874000Y-78867000D03*
X137477500Y-45656500D03*
X173799500Y-48641000D03*
%TO.N,GND*%
X129794000Y-57975500D03*
X139255500Y-57975500D03*
X123507500Y-69215000D03*
X106870500Y-63881000D03*
X135001000Y-37465000D03*
X134874000Y-51498500D03*
X134874000Y-55245000D03*
X129794000Y-66675000D03*
X108204000Y-69786500D03*
%TD*%
D21*
%TO.N,+12V*%
X117157500Y-59312000D02*
X117157500Y-65405000D01*
D22*
X117157500Y-65405000D02*
X111506000Y-65405000D01*
X109156500Y-67754500D02*
X102171500Y-67754500D01*
X111506000Y-65405000D02*
X109156500Y-67754500D01*
X102171500Y-67754500D02*
X99314000Y-67754500D01*
X99314000Y-67754500D02*
X97218500Y-69850000D01*
X97218500Y-69850000D02*
X97218500Y-80899000D01*
X99314000Y-82994500D02*
X102171500Y-82994500D01*
X97218500Y-80899000D02*
X99314000Y-82994500D01*
D23*
X169717500Y-82169000D02*
X169654000Y-82232500D01*
X169717500Y-51498500D02*
X169717500Y-82169000D01*
X169654000Y-112522000D02*
X169717500Y-112585500D01*
X169654000Y-82232500D02*
X169654000Y-112522000D01*
X138303000Y-82296000D02*
X134874000Y-78867000D01*
X134874000Y-78867000D02*
X134874000Y-63309500D01*
X169654000Y-82232500D02*
X169590500Y-82296000D01*
X169590500Y-82296000D02*
X138303000Y-82296000D01*
X136080500Y-63309500D02*
X134874000Y-63309500D01*
X137477500Y-45656500D02*
X137477500Y-61912500D01*
X137477500Y-61912500D02*
X136080500Y-63309500D01*
X169717500Y-50246500D02*
X169717500Y-51498500D01*
X173799500Y-48641000D02*
X171323000Y-48641000D01*
X171323000Y-48641000D02*
X169717500Y-50246500D01*
D21*
%TO.N,Net-(F0-Pad1)*%
X117147500Y-56502000D02*
X117157500Y-56512000D01*
X117147500Y-49668000D02*
X117147500Y-56502000D01*
D22*
%TO.N,+5V*%
X119189500Y-116802500D02*
X122719500Y-120332500D01*
X131090000Y-120332500D02*
X134556500Y-116866000D01*
X122719500Y-120332500D02*
X131090000Y-120332500D01*
X123126500Y-112865500D02*
X119189500Y-116802500D01*
X123126500Y-84137500D02*
X123126500Y-112865500D01*
X129349500Y-70231000D02*
X127063500Y-67945000D01*
X125476000Y-81788000D02*
X125476000Y-81661000D01*
X123126500Y-84137500D02*
X125476000Y-81788000D01*
X126301500Y-81661000D02*
X129349500Y-78613000D01*
X125476000Y-81661000D02*
X126301500Y-81661000D01*
X129349500Y-78613000D02*
X129349500Y-70231000D01*
D21*
%TO.N,Net-(D1-Pad1)*%
X117157500Y-75565000D02*
X127063500Y-75565000D01*
D24*
%TO.N,SCL*%
X130810000Y-78994000D02*
X125666500Y-84137500D01*
X127063500Y-60325000D02*
X130810000Y-64071500D01*
X130810000Y-64071500D02*
X130810000Y-78994000D01*
%TO.N,SDA*%
X131260011Y-81083989D02*
X128206500Y-84137500D01*
X127063500Y-57785000D02*
X131260011Y-61981511D01*
X131260011Y-61981511D02*
X131260011Y-81083989D01*
%TO.N,CTRL0*%
X114998500Y-112611500D02*
X116649500Y-114262500D01*
X114998500Y-72326500D02*
X114998500Y-112611500D01*
X125285500Y-62039500D02*
X114998500Y-72326500D01*
X127063500Y-47625000D02*
X125285500Y-49403000D01*
X125285500Y-49403000D02*
X125285500Y-62039500D01*
%TO.N,CTRL1*%
X131710020Y-54811520D02*
X131710020Y-114019520D01*
X131710020Y-114019520D02*
X132016500Y-114326000D01*
X127063500Y-50165000D02*
X131710020Y-54811520D01*
D23*
%TO.N,Net-(D2-Pad2)*%
X134874000Y-61259500D02*
X134874000Y-59055000D01*
%TO.N,Net-(D3-Pad2)*%
X171767500Y-51498500D02*
X174298500Y-51498500D01*
%TO.N,Net-(D4-Pad2)*%
X171704000Y-82232500D02*
X174289500Y-82232500D01*
%TO.N,Net-(D5-Pad2)*%
X171767500Y-112585500D02*
X174307500Y-112585500D01*
%TD*%
D25*
%TO.N,GND*%
G36*
X125681046Y-36726063D02*
G01*
X125563450Y-37009965D01*
X125503500Y-37311353D01*
X125503500Y-37618647D01*
X125563450Y-37920035D01*
X125681046Y-38203937D01*
X125851769Y-38459442D01*
X126069058Y-38676731D01*
X126211522Y-38771922D01*
X126108198Y-38840961D01*
X125899461Y-39049698D01*
X125735458Y-39295147D01*
X125622490Y-39567875D01*
X125564900Y-39857401D01*
X125564900Y-40152599D01*
X125622490Y-40442125D01*
X125735458Y-40714853D01*
X125899461Y-40960302D01*
X126108198Y-41169039D01*
X126266781Y-41275000D01*
X126108198Y-41380961D01*
X125899461Y-41589698D01*
X125735458Y-41835147D01*
X125622490Y-42107875D01*
X125564900Y-42397401D01*
X125564900Y-42692599D01*
X125622490Y-42982125D01*
X125735458Y-43254853D01*
X125899461Y-43500302D01*
X126108198Y-43709039D01*
X126266781Y-43815000D01*
X126108198Y-43920961D01*
X125899461Y-44129698D01*
X125735458Y-44375147D01*
X125622490Y-44647875D01*
X125564900Y-44937401D01*
X125564900Y-45232599D01*
X125622490Y-45522125D01*
X125735458Y-45794853D01*
X125899461Y-46040302D01*
X126108198Y-46249039D01*
X126266781Y-46355000D01*
X126108198Y-46460961D01*
X125899461Y-46669698D01*
X125735458Y-46915147D01*
X125622490Y-47187875D01*
X125564900Y-47477401D01*
X125564900Y-47772599D01*
X125610724Y-48002974D01*
X124774503Y-48839196D01*
X124745499Y-48862999D01*
X124690371Y-48930174D01*
X124650526Y-48978724D01*
X124579955Y-49110753D01*
X124579954Y-49110754D01*
X124536497Y-49254015D01*
X124525500Y-49365668D01*
X124525500Y-49365678D01*
X124521824Y-49403000D01*
X124525500Y-49440322D01*
X124525501Y-61724697D01*
X114487503Y-71762696D01*
X114458499Y-71786499D01*
X114403371Y-71853674D01*
X114363526Y-71902224D01*
X114318268Y-71986896D01*
X114292954Y-72034254D01*
X114249497Y-72177515D01*
X114238500Y-72289168D01*
X114238500Y-72289178D01*
X114234824Y-72326500D01*
X114238500Y-72363822D01*
X114238501Y-112574167D01*
X114234824Y-112611500D01*
X114249498Y-112760485D01*
X114292954Y-112903746D01*
X114363526Y-113035776D01*
X114434701Y-113122502D01*
X114458500Y-113151501D01*
X114487498Y-113175299D01*
X115454915Y-114142717D01*
X115454500Y-114144803D01*
X115454500Y-114380197D01*
X115500423Y-114611069D01*
X115590505Y-114828545D01*
X115721283Y-115024268D01*
X115887732Y-115190717D01*
X116083455Y-115321495D01*
X116300931Y-115411577D01*
X116531803Y-115457500D01*
X116767197Y-115457500D01*
X116998069Y-115411577D01*
X117215545Y-115321495D01*
X117411268Y-115190717D01*
X117577717Y-115024268D01*
X117708495Y-114828545D01*
X117798577Y-114611069D01*
X117844500Y-114380197D01*
X117844500Y-114144803D01*
X117798577Y-113913931D01*
X117708495Y-113696455D01*
X117577717Y-113500732D01*
X117411268Y-113334283D01*
X117215545Y-113203505D01*
X116998069Y-113113423D01*
X116767197Y-113067500D01*
X116531803Y-113067500D01*
X116529717Y-113067915D01*
X115758500Y-112296699D01*
X115758500Y-84987500D01*
X119098428Y-84987500D01*
X119110688Y-85111982D01*
X119146998Y-85231680D01*
X119205963Y-85341994D01*
X119285315Y-85438685D01*
X119382006Y-85518037D01*
X119492320Y-85577002D01*
X119612018Y-85613312D01*
X119736500Y-85625572D01*
X120300750Y-85622500D01*
X120459500Y-85463750D01*
X120459500Y-84264500D01*
X119260250Y-84264500D01*
X119101500Y-84423250D01*
X119098428Y-84987500D01*
X115758500Y-84987500D01*
X115758500Y-83287500D01*
X119098428Y-83287500D01*
X119101500Y-83851750D01*
X119260250Y-84010500D01*
X120459500Y-84010500D01*
X120459500Y-82811250D01*
X120300750Y-82652500D01*
X119736500Y-82649428D01*
X119612018Y-82661688D01*
X119492320Y-82697998D01*
X119382006Y-82756963D01*
X119285315Y-82836315D01*
X119205963Y-82933006D01*
X119146998Y-83043320D01*
X119110688Y-83163018D01*
X119098428Y-83287500D01*
X115758500Y-83287500D01*
X115758500Y-77225200D01*
X115813320Y-77254502D01*
X115933018Y-77290812D01*
X116057500Y-77303072D01*
X118257500Y-77303072D01*
X118381982Y-77290812D01*
X118501680Y-77254502D01*
X118611994Y-77195537D01*
X118708685Y-77116185D01*
X118788037Y-77019494D01*
X118847002Y-76909180D01*
X118883312Y-76789482D01*
X118892125Y-76700000D01*
X126079159Y-76700000D01*
X126108198Y-76729039D01*
X126211522Y-76798078D01*
X126069058Y-76893269D01*
X125851769Y-77110558D01*
X125681046Y-77366063D01*
X125563450Y-77649965D01*
X125503500Y-77951353D01*
X125503500Y-78258647D01*
X125563450Y-78560035D01*
X125681046Y-78843937D01*
X125851769Y-79099442D01*
X126069058Y-79316731D01*
X126324563Y-79487454D01*
X126608465Y-79605050D01*
X126875899Y-79658246D01*
X125883145Y-80651000D01*
X125525608Y-80651000D01*
X125476000Y-80646114D01*
X125426393Y-80651000D01*
X125426392Y-80651000D01*
X125278006Y-80665615D01*
X125087620Y-80723368D01*
X124912160Y-80817153D01*
X124812429Y-80899000D01*
X124758367Y-80943367D01*
X124632153Y-81097160D01*
X124538368Y-81272620D01*
X124527632Y-81308012D01*
X123183145Y-82652500D01*
X122980240Y-82652500D01*
X122693342Y-82709568D01*
X122423089Y-82821510D01*
X122179868Y-82984025D01*
X122048013Y-83115880D01*
X122026002Y-83043320D01*
X121967037Y-82933006D01*
X121887685Y-82836315D01*
X121790994Y-82756963D01*
X121680680Y-82697998D01*
X121560982Y-82661688D01*
X121436500Y-82649428D01*
X120872250Y-82652500D01*
X120713500Y-82811250D01*
X120713500Y-84010500D01*
X120733500Y-84010500D01*
X120733500Y-84264500D01*
X120713500Y-84264500D01*
X120713500Y-85463750D01*
X120872250Y-85622500D01*
X121436500Y-85625572D01*
X121560982Y-85613312D01*
X121680680Y-85577002D01*
X121790994Y-85518037D01*
X121887685Y-85438685D01*
X121967037Y-85341994D01*
X122026002Y-85231680D01*
X122048013Y-85159120D01*
X122116500Y-85227607D01*
X122116501Y-112447143D01*
X118927427Y-115636218D01*
X118840931Y-115653423D01*
X118623455Y-115743505D01*
X118427732Y-115874283D01*
X118261283Y-116040732D01*
X118130505Y-116236455D01*
X118040423Y-116453931D01*
X117994500Y-116684803D01*
X117994500Y-116920197D01*
X118040423Y-117151069D01*
X118130505Y-117368545D01*
X118261283Y-117564268D01*
X118427732Y-117730717D01*
X118623455Y-117861495D01*
X118840931Y-117951577D01*
X118927427Y-117968782D01*
X121970244Y-121011600D01*
X122001867Y-121050133D01*
X122155660Y-121176347D01*
X122331120Y-121270132D01*
X122521505Y-121327885D01*
X122719500Y-121347386D01*
X122769108Y-121342500D01*
X131040392Y-121342500D01*
X131090000Y-121347386D01*
X131287994Y-121327885D01*
X131478380Y-121270132D01*
X131653840Y-121176347D01*
X131807633Y-121050133D01*
X131839261Y-121011594D01*
X134818573Y-118032282D01*
X134905069Y-118015077D01*
X135122545Y-117924995D01*
X135318268Y-117794217D01*
X135484717Y-117627768D01*
X135615495Y-117432045D01*
X135704986Y-117215995D01*
X146732000Y-117215995D01*
X146732000Y-117607005D01*
X146808282Y-117990503D01*
X146957915Y-118351750D01*
X147175149Y-118676864D01*
X147451636Y-118953351D01*
X147776750Y-119170585D01*
X148137997Y-119320218D01*
X148521495Y-119396500D01*
X148912505Y-119396500D01*
X149296003Y-119320218D01*
X149657250Y-119170585D01*
X149982364Y-118953351D01*
X150258851Y-118676864D01*
X150476085Y-118351750D01*
X150625718Y-117990503D01*
X150702000Y-117607005D01*
X150702000Y-117215995D01*
X195754000Y-117215995D01*
X195754000Y-117607005D01*
X195830282Y-117990503D01*
X195979915Y-118351750D01*
X196197149Y-118676864D01*
X196473636Y-118953351D01*
X196798750Y-119170585D01*
X197159997Y-119320218D01*
X197543495Y-119396500D01*
X197934505Y-119396500D01*
X198318003Y-119320218D01*
X198679250Y-119170585D01*
X199004364Y-118953351D01*
X199280851Y-118676864D01*
X199498085Y-118351750D01*
X199647718Y-117990503D01*
X199724000Y-117607005D01*
X199724000Y-117215995D01*
X199647718Y-116832497D01*
X199498085Y-116471250D01*
X199280851Y-116146136D01*
X199004364Y-115869649D01*
X198679250Y-115652415D01*
X198318003Y-115502782D01*
X197934505Y-115426500D01*
X197543495Y-115426500D01*
X197159997Y-115502782D01*
X196798750Y-115652415D01*
X196473636Y-115869649D01*
X196197149Y-116146136D01*
X195979915Y-116471250D01*
X195830282Y-116832497D01*
X195754000Y-117215995D01*
X150702000Y-117215995D01*
X150625718Y-116832497D01*
X150476085Y-116471250D01*
X150258851Y-116146136D01*
X149982364Y-115869649D01*
X149657250Y-115652415D01*
X149296003Y-115502782D01*
X148912505Y-115426500D01*
X148521495Y-115426500D01*
X148137997Y-115502782D01*
X147776750Y-115652415D01*
X147451636Y-115869649D01*
X147175149Y-116146136D01*
X146957915Y-116471250D01*
X146808282Y-116832497D01*
X146732000Y-117215995D01*
X135704986Y-117215995D01*
X135705577Y-117214569D01*
X135751500Y-116983697D01*
X135751500Y-116748303D01*
X135705577Y-116517431D01*
X135615495Y-116299955D01*
X135484717Y-116104232D01*
X135318268Y-115937783D01*
X135122545Y-115807005D01*
X134905069Y-115716923D01*
X134674197Y-115671000D01*
X134438803Y-115671000D01*
X134207931Y-115716923D01*
X133990455Y-115807005D01*
X133794732Y-115937783D01*
X133628283Y-116104232D01*
X133497505Y-116299955D01*
X133407423Y-116517431D01*
X133390218Y-116603927D01*
X130671645Y-119322500D01*
X123137856Y-119322500D01*
X121502494Y-117687138D01*
X128834967Y-117687138D01*
X128877402Y-117906653D01*
X129091936Y-118003535D01*
X129321248Y-118056703D01*
X129556525Y-118064113D01*
X129788728Y-118025479D01*
X130008932Y-117942287D01*
X130075598Y-117906653D01*
X130118033Y-117687138D01*
X129476500Y-117045605D01*
X128834967Y-117687138D01*
X121502494Y-117687138D01*
X120761381Y-116946025D01*
X128278387Y-116946025D01*
X128317021Y-117178228D01*
X128400213Y-117398432D01*
X128435847Y-117465098D01*
X128655362Y-117507533D01*
X129296895Y-116866000D01*
X129656105Y-116866000D01*
X130297638Y-117507533D01*
X130517153Y-117465098D01*
X130614035Y-117250564D01*
X130667203Y-117021252D01*
X130674613Y-116785975D01*
X130635979Y-116553772D01*
X130552787Y-116333568D01*
X130517153Y-116266902D01*
X130297638Y-116224467D01*
X129656105Y-116866000D01*
X129296895Y-116866000D01*
X128655362Y-116224467D01*
X128435847Y-116266902D01*
X128338965Y-116481436D01*
X128285797Y-116710748D01*
X128278387Y-116946025D01*
X120761381Y-116946025D01*
X120617855Y-116802500D01*
X121375493Y-116044862D01*
X128834967Y-116044862D01*
X129476500Y-116686395D01*
X130118033Y-116044862D01*
X130075598Y-115825347D01*
X129861064Y-115728465D01*
X129631752Y-115675297D01*
X129396475Y-115667887D01*
X129164272Y-115706521D01*
X128944068Y-115789713D01*
X128877402Y-115825347D01*
X128834967Y-116044862D01*
X121375493Y-116044862D01*
X123805600Y-113614756D01*
X123844133Y-113583133D01*
X123970347Y-113429340D01*
X124064132Y-113253880D01*
X124087477Y-113176923D01*
X124121885Y-113063495D01*
X124141386Y-112865500D01*
X124136500Y-112815892D01*
X124136500Y-85227607D01*
X124279975Y-85084132D01*
X124396500Y-84909740D01*
X124513025Y-85084132D01*
X124719868Y-85290975D01*
X124963089Y-85453490D01*
X125233342Y-85565432D01*
X125520240Y-85622500D01*
X125812760Y-85622500D01*
X126099658Y-85565432D01*
X126369911Y-85453490D01*
X126613132Y-85290975D01*
X126819975Y-85084132D01*
X126936500Y-84909740D01*
X127053025Y-85084132D01*
X127259868Y-85290975D01*
X127503089Y-85453490D01*
X127773342Y-85565432D01*
X128060240Y-85622500D01*
X128352760Y-85622500D01*
X128639658Y-85565432D01*
X128909911Y-85453490D01*
X129153132Y-85290975D01*
X129359975Y-85084132D01*
X129522490Y-84840911D01*
X129634432Y-84570658D01*
X129691500Y-84283760D01*
X129691500Y-83991240D01*
X129647709Y-83771092D01*
X130950020Y-82468781D01*
X130950021Y-113778023D01*
X130867423Y-113977431D01*
X130821500Y-114208303D01*
X130821500Y-114443697D01*
X130867423Y-114674569D01*
X130957505Y-114892045D01*
X131088283Y-115087768D01*
X131254732Y-115254217D01*
X131450455Y-115384995D01*
X131667931Y-115475077D01*
X131898803Y-115521000D01*
X132134197Y-115521000D01*
X132365069Y-115475077D01*
X132582545Y-115384995D01*
X132778268Y-115254217D01*
X132944717Y-115087768D01*
X133075495Y-114892045D01*
X133165577Y-114674569D01*
X133211500Y-114443697D01*
X133211500Y-114208303D01*
X133165577Y-113977431D01*
X133075495Y-113759955D01*
X132944717Y-113564232D01*
X132778268Y-113397783D01*
X132582545Y-113267005D01*
X132470020Y-113220395D01*
X132470020Y-57580000D01*
X133535928Y-57580000D01*
X133548188Y-57704482D01*
X133584498Y-57824180D01*
X133643463Y-57934494D01*
X133722815Y-58031185D01*
X133802594Y-58096658D01*
X133796038Y-58102038D01*
X133685595Y-58236613D01*
X133603528Y-58390149D01*
X133552992Y-58556745D01*
X133535928Y-58729999D01*
X133535928Y-59380001D01*
X133552992Y-59553255D01*
X133603528Y-59719851D01*
X133685595Y-59873387D01*
X133796038Y-60007962D01*
X133930613Y-60118405D01*
X133989001Y-60149614D01*
X133989000Y-60164886D01*
X133930613Y-60196095D01*
X133796038Y-60306538D01*
X133685595Y-60441113D01*
X133603528Y-60594649D01*
X133552992Y-60761245D01*
X133535928Y-60934499D01*
X133535928Y-61584501D01*
X133552992Y-61757755D01*
X133603528Y-61924351D01*
X133685595Y-62077887D01*
X133796038Y-62212462D01*
X133883816Y-62284500D01*
X133796038Y-62356538D01*
X133685595Y-62491113D01*
X133603528Y-62644649D01*
X133552992Y-62811245D01*
X133535928Y-62984499D01*
X133535928Y-63634501D01*
X133552992Y-63807755D01*
X133603528Y-63974351D01*
X133685595Y-64127887D01*
X133796038Y-64262462D01*
X133930613Y-64372905D01*
X133989001Y-64404114D01*
X133989000Y-78328546D01*
X133956795Y-78376744D01*
X133878774Y-78565102D01*
X133839000Y-78765061D01*
X133839000Y-78968939D01*
X133878774Y-79168898D01*
X133956795Y-79357256D01*
X134070063Y-79526774D01*
X134214226Y-79670937D01*
X134383744Y-79784205D01*
X134572102Y-79862226D01*
X134628957Y-79873535D01*
X137646470Y-82891049D01*
X137674183Y-82924817D01*
X137707951Y-82952530D01*
X137707953Y-82952532D01*
X137754326Y-82990589D01*
X137808941Y-83035411D01*
X137962687Y-83117589D01*
X138129510Y-83168195D01*
X138259523Y-83181000D01*
X138259533Y-83181000D01*
X138302999Y-83185281D01*
X138346465Y-83181000D01*
X168594791Y-83181000D01*
X168701038Y-83310462D01*
X168769000Y-83366237D01*
X168769001Y-111503875D01*
X168764538Y-111507538D01*
X168654095Y-111642113D01*
X168572028Y-111795649D01*
X168521492Y-111962245D01*
X168504428Y-112135499D01*
X168504428Y-113035501D01*
X168521492Y-113208755D01*
X168572028Y-113375351D01*
X168654095Y-113528887D01*
X168764538Y-113663462D01*
X168899113Y-113773905D01*
X169052649Y-113855972D01*
X169219245Y-113906508D01*
X169392499Y-113923572D01*
X170042501Y-113923572D01*
X170215755Y-113906508D01*
X170382351Y-113855972D01*
X170535887Y-113773905D01*
X170670462Y-113663462D01*
X170742500Y-113575684D01*
X170814538Y-113663462D01*
X170949113Y-113773905D01*
X171102649Y-113855972D01*
X171269245Y-113906508D01*
X171442499Y-113923572D01*
X172092501Y-113923572D01*
X172265755Y-113906508D01*
X172432351Y-113855972D01*
X172585887Y-113773905D01*
X172720462Y-113663462D01*
X172830905Y-113528887D01*
X172862114Y-113470500D01*
X173212886Y-113470500D01*
X173244095Y-113528887D01*
X173354538Y-113663462D01*
X173489113Y-113773905D01*
X173642649Y-113855972D01*
X173809245Y-113906508D01*
X173982499Y-113923572D01*
X174632501Y-113923572D01*
X174805755Y-113906508D01*
X174972351Y-113855972D01*
X175125887Y-113773905D01*
X175260462Y-113663462D01*
X175265842Y-113656906D01*
X175331315Y-113736685D01*
X175428006Y-113816037D01*
X175538320Y-113875002D01*
X175658018Y-113911312D01*
X175782500Y-113923572D01*
X176071750Y-113920500D01*
X176230500Y-113761750D01*
X176230500Y-112712500D01*
X176484500Y-112712500D01*
X176484500Y-113761750D01*
X176643250Y-113920500D01*
X176932500Y-113923572D01*
X177056982Y-113911312D01*
X177176680Y-113875002D01*
X177286994Y-113816037D01*
X177383685Y-113736685D01*
X177463037Y-113639994D01*
X177522002Y-113529680D01*
X177558312Y-113409982D01*
X177570572Y-113285500D01*
X177567500Y-112871250D01*
X177408750Y-112712500D01*
X176484500Y-112712500D01*
X176230500Y-112712500D01*
X176210500Y-112712500D01*
X176210500Y-112458500D01*
X176230500Y-112458500D01*
X176230500Y-111409250D01*
X176484500Y-111409250D01*
X176484500Y-112458500D01*
X177408750Y-112458500D01*
X177567500Y-112299750D01*
X177570572Y-111885500D01*
X177558312Y-111761018D01*
X177522002Y-111641320D01*
X177463037Y-111531006D01*
X177383685Y-111434315D01*
X177286994Y-111354963D01*
X177176680Y-111295998D01*
X177056982Y-111259688D01*
X176932500Y-111247428D01*
X176643250Y-111250500D01*
X176484500Y-111409250D01*
X176230500Y-111409250D01*
X176071750Y-111250500D01*
X175782500Y-111247428D01*
X175658018Y-111259688D01*
X175538320Y-111295998D01*
X175428006Y-111354963D01*
X175331315Y-111434315D01*
X175265842Y-111514094D01*
X175260462Y-111507538D01*
X175125887Y-111397095D01*
X174972351Y-111315028D01*
X174805755Y-111264492D01*
X174632501Y-111247428D01*
X173982499Y-111247428D01*
X173809245Y-111264492D01*
X173642649Y-111315028D01*
X173489113Y-111397095D01*
X173354538Y-111507538D01*
X173244095Y-111642113D01*
X173212886Y-111700500D01*
X172862114Y-111700500D01*
X172830905Y-111642113D01*
X172720462Y-111507538D01*
X172585887Y-111397095D01*
X172432351Y-111315028D01*
X172265755Y-111264492D01*
X172092501Y-111247428D01*
X171442499Y-111247428D01*
X171269245Y-111264492D01*
X171102649Y-111315028D01*
X170949113Y-111397095D01*
X170814538Y-111507538D01*
X170742500Y-111595316D01*
X170670462Y-111507538D01*
X170539000Y-111399650D01*
X170539000Y-83366237D01*
X170606962Y-83310462D01*
X170679000Y-83222684D01*
X170751038Y-83310462D01*
X170885613Y-83420905D01*
X171039149Y-83502972D01*
X171205745Y-83553508D01*
X171378999Y-83570572D01*
X172029001Y-83570572D01*
X172202255Y-83553508D01*
X172368851Y-83502972D01*
X172522387Y-83420905D01*
X172656962Y-83310462D01*
X172767405Y-83175887D01*
X172798614Y-83117500D01*
X173194886Y-83117500D01*
X173226095Y-83175887D01*
X173336538Y-83310462D01*
X173471113Y-83420905D01*
X173624649Y-83502972D01*
X173791245Y-83553508D01*
X173964499Y-83570572D01*
X174614501Y-83570572D01*
X174787755Y-83553508D01*
X174954351Y-83502972D01*
X175107887Y-83420905D01*
X175242462Y-83310462D01*
X175247842Y-83303906D01*
X175313315Y-83383685D01*
X175410006Y-83463037D01*
X175520320Y-83522002D01*
X175640018Y-83558312D01*
X175764500Y-83570572D01*
X176053750Y-83567500D01*
X176212500Y-83408750D01*
X176212500Y-82359500D01*
X176466500Y-82359500D01*
X176466500Y-83408750D01*
X176625250Y-83567500D01*
X176914500Y-83570572D01*
X177038982Y-83558312D01*
X177158680Y-83522002D01*
X177268994Y-83463037D01*
X177365685Y-83383685D01*
X177445037Y-83286994D01*
X177504002Y-83176680D01*
X177540312Y-83056982D01*
X177552572Y-82932500D01*
X177549500Y-82518250D01*
X177390750Y-82359500D01*
X176466500Y-82359500D01*
X176212500Y-82359500D01*
X176192500Y-82359500D01*
X176192500Y-82105500D01*
X176212500Y-82105500D01*
X176212500Y-81056250D01*
X176466500Y-81056250D01*
X176466500Y-82105500D01*
X177390750Y-82105500D01*
X177549500Y-81946750D01*
X177552572Y-81532500D01*
X177540312Y-81408018D01*
X177504002Y-81288320D01*
X177445037Y-81178006D01*
X177365685Y-81081315D01*
X177268994Y-81001963D01*
X177158680Y-80942998D01*
X177038982Y-80906688D01*
X176914500Y-80894428D01*
X176625250Y-80897500D01*
X176466500Y-81056250D01*
X176212500Y-81056250D01*
X176053750Y-80897500D01*
X175764500Y-80894428D01*
X175640018Y-80906688D01*
X175520320Y-80942998D01*
X175410006Y-81001963D01*
X175313315Y-81081315D01*
X175247842Y-81161094D01*
X175242462Y-81154538D01*
X175107887Y-81044095D01*
X174954351Y-80962028D01*
X174787755Y-80911492D01*
X174614501Y-80894428D01*
X173964499Y-80894428D01*
X173791245Y-80911492D01*
X173624649Y-80962028D01*
X173471113Y-81044095D01*
X173336538Y-81154538D01*
X173226095Y-81289113D01*
X173194886Y-81347500D01*
X172798614Y-81347500D01*
X172767405Y-81289113D01*
X172656962Y-81154538D01*
X172522387Y-81044095D01*
X172368851Y-80962028D01*
X172202255Y-80911492D01*
X172029001Y-80894428D01*
X171378999Y-80894428D01*
X171205745Y-80911492D01*
X171039149Y-80962028D01*
X170885613Y-81044095D01*
X170751038Y-81154538D01*
X170679000Y-81242316D01*
X170606962Y-81154538D01*
X170602500Y-81150876D01*
X170602500Y-59176995D01*
X195754000Y-59176995D01*
X195754000Y-59568005D01*
X195830282Y-59951503D01*
X195979915Y-60312750D01*
X196197149Y-60637864D01*
X196473636Y-60914351D01*
X196798750Y-61131585D01*
X197159997Y-61281218D01*
X197543495Y-61357500D01*
X197934505Y-61357500D01*
X198318003Y-61281218D01*
X198679250Y-61131585D01*
X199004364Y-60914351D01*
X199280851Y-60637864D01*
X199498085Y-60312750D01*
X199647718Y-59951503D01*
X199724000Y-59568005D01*
X199724000Y-59176995D01*
X199647718Y-58793497D01*
X199498085Y-58432250D01*
X199280851Y-58107136D01*
X199004364Y-57830649D01*
X198679250Y-57613415D01*
X198318003Y-57463782D01*
X197934505Y-57387500D01*
X197543495Y-57387500D01*
X197159997Y-57463782D01*
X196798750Y-57613415D01*
X196473636Y-57830649D01*
X196197149Y-58107136D01*
X195979915Y-58432250D01*
X195830282Y-58793497D01*
X195754000Y-59176995D01*
X170602500Y-59176995D01*
X170602500Y-52632237D01*
X170670462Y-52576462D01*
X170742500Y-52488684D01*
X170814538Y-52576462D01*
X170949113Y-52686905D01*
X171102649Y-52768972D01*
X171269245Y-52819508D01*
X171442499Y-52836572D01*
X172092501Y-52836572D01*
X172265755Y-52819508D01*
X172432351Y-52768972D01*
X172585887Y-52686905D01*
X172720462Y-52576462D01*
X172830905Y-52441887D01*
X172862114Y-52383500D01*
X173203886Y-52383500D01*
X173235095Y-52441887D01*
X173345538Y-52576462D01*
X173480113Y-52686905D01*
X173633649Y-52768972D01*
X173800245Y-52819508D01*
X173973499Y-52836572D01*
X174623501Y-52836572D01*
X174796755Y-52819508D01*
X174963351Y-52768972D01*
X175116887Y-52686905D01*
X175251462Y-52576462D01*
X175256842Y-52569906D01*
X175322315Y-52649685D01*
X175419006Y-52729037D01*
X175529320Y-52788002D01*
X175649018Y-52824312D01*
X175773500Y-52836572D01*
X176062750Y-52833500D01*
X176221500Y-52674750D01*
X176221500Y-51625500D01*
X176475500Y-51625500D01*
X176475500Y-52674750D01*
X176634250Y-52833500D01*
X176923500Y-52836572D01*
X177047982Y-52824312D01*
X177167680Y-52788002D01*
X177277994Y-52729037D01*
X177374685Y-52649685D01*
X177454037Y-52552994D01*
X177513002Y-52442680D01*
X177549312Y-52322982D01*
X177561572Y-52198500D01*
X177558500Y-51784250D01*
X177399750Y-51625500D01*
X176475500Y-51625500D01*
X176221500Y-51625500D01*
X176201500Y-51625500D01*
X176201500Y-51371500D01*
X176221500Y-51371500D01*
X176221500Y-50322250D01*
X176475500Y-50322250D01*
X176475500Y-51371500D01*
X177399750Y-51371500D01*
X177558500Y-51212750D01*
X177561572Y-50798500D01*
X177549312Y-50674018D01*
X177513002Y-50554320D01*
X177454037Y-50444006D01*
X177374685Y-50347315D01*
X177277994Y-50267963D01*
X177167680Y-50208998D01*
X177047982Y-50172688D01*
X176923500Y-50160428D01*
X176634250Y-50163500D01*
X176475500Y-50322250D01*
X176221500Y-50322250D01*
X176062750Y-50163500D01*
X175773500Y-50160428D01*
X175649018Y-50172688D01*
X175529320Y-50208998D01*
X175419006Y-50267963D01*
X175322315Y-50347315D01*
X175256842Y-50427094D01*
X175251462Y-50420538D01*
X175116887Y-50310095D01*
X174963351Y-50228028D01*
X174796755Y-50177492D01*
X174623501Y-50160428D01*
X173973499Y-50160428D01*
X173800245Y-50177492D01*
X173633649Y-50228028D01*
X173480113Y-50310095D01*
X173345538Y-50420538D01*
X173235095Y-50555113D01*
X173203886Y-50613500D01*
X172862114Y-50613500D01*
X172830905Y-50555113D01*
X172720462Y-50420538D01*
X172585887Y-50310095D01*
X172432351Y-50228028D01*
X172265755Y-50177492D01*
X172092501Y-50160428D01*
X171442499Y-50160428D01*
X171269245Y-50177492D01*
X171102649Y-50228028D01*
X170949113Y-50310095D01*
X170814538Y-50420538D01*
X170742500Y-50508316D01*
X170726616Y-50488962D01*
X171689579Y-49526000D01*
X173261046Y-49526000D01*
X173309244Y-49558205D01*
X173497602Y-49636226D01*
X173697561Y-49676000D01*
X173901439Y-49676000D01*
X174101398Y-49636226D01*
X174289756Y-49558205D01*
X174459274Y-49444937D01*
X174603437Y-49300774D01*
X174716705Y-49131256D01*
X174794726Y-48942898D01*
X174834500Y-48742939D01*
X174834500Y-48539061D01*
X174794726Y-48339102D01*
X174716705Y-48150744D01*
X174603437Y-47981226D01*
X174459274Y-47837063D01*
X174289756Y-47723795D01*
X174101398Y-47645774D01*
X173901439Y-47606000D01*
X173697561Y-47606000D01*
X173497602Y-47645774D01*
X173309244Y-47723795D01*
X173261046Y-47756000D01*
X171366469Y-47756000D01*
X171323000Y-47751719D01*
X171279531Y-47756000D01*
X171279523Y-47756000D01*
X171149510Y-47768805D01*
X170982687Y-47819411D01*
X170828941Y-47901589D01*
X170727953Y-47984468D01*
X170727951Y-47984470D01*
X170694183Y-48012183D01*
X170666470Y-48045951D01*
X169122456Y-49589966D01*
X169088683Y-49617683D01*
X168978089Y-49752442D01*
X168895911Y-49906188D01*
X168884744Y-49943001D01*
X168855934Y-50037974D01*
X168845305Y-50073011D01*
X168832500Y-50203024D01*
X168832500Y-50203031D01*
X168828219Y-50246500D01*
X168832500Y-50289970D01*
X168832500Y-50364763D01*
X168764538Y-50420538D01*
X168654095Y-50555113D01*
X168572028Y-50708649D01*
X168521492Y-50875245D01*
X168504428Y-51048499D01*
X168504428Y-51948501D01*
X168521492Y-52121755D01*
X168572028Y-52288351D01*
X168654095Y-52441887D01*
X168764538Y-52576462D01*
X168832500Y-52632237D01*
X168832501Y-81046649D01*
X168701038Y-81154538D01*
X168590595Y-81289113D01*
X168525445Y-81411000D01*
X138669579Y-81411000D01*
X135880535Y-78621957D01*
X135869226Y-78565102D01*
X135791205Y-78376744D01*
X135759000Y-78328546D01*
X135759000Y-77951353D01*
X140743500Y-77951353D01*
X140743500Y-78258647D01*
X140803450Y-78560035D01*
X140921046Y-78843937D01*
X141091769Y-79099442D01*
X141309058Y-79316731D01*
X141564563Y-79487454D01*
X141848465Y-79605050D01*
X142149853Y-79665000D01*
X142457147Y-79665000D01*
X142758535Y-79605050D01*
X143042437Y-79487454D01*
X143297942Y-79316731D01*
X143515231Y-79099442D01*
X143685954Y-78843937D01*
X143803550Y-78560035D01*
X143863500Y-78258647D01*
X143863500Y-77951353D01*
X143803550Y-77649965D01*
X143685954Y-77366063D01*
X143515231Y-77110558D01*
X143418771Y-77014098D01*
X143521594Y-76959137D01*
X143618285Y-76879785D01*
X143697637Y-76783094D01*
X143756602Y-76672780D01*
X143792912Y-76553082D01*
X143805172Y-76428600D01*
X143805172Y-74701400D01*
X143792912Y-74576918D01*
X143756602Y-74457220D01*
X143697637Y-74346906D01*
X143618285Y-74250215D01*
X143521594Y-74170863D01*
X143411280Y-74111898D01*
X143353477Y-74094364D01*
X143467539Y-73980302D01*
X143631542Y-73734853D01*
X143744510Y-73462125D01*
X143802100Y-73172599D01*
X143802100Y-72877401D01*
X143744510Y-72587875D01*
X143631542Y-72315147D01*
X143467539Y-72069698D01*
X143258802Y-71860961D01*
X143100219Y-71755000D01*
X143258802Y-71649039D01*
X143467539Y-71440302D01*
X143631542Y-71194853D01*
X143744510Y-70922125D01*
X143802100Y-70632599D01*
X143802100Y-70337401D01*
X143744510Y-70047875D01*
X143631542Y-69775147D01*
X143467539Y-69529698D01*
X143258802Y-69320961D01*
X143090625Y-69208589D01*
X143161999Y-68983104D01*
X142303500Y-68124605D01*
X141445001Y-68983104D01*
X141516375Y-69208589D01*
X141348198Y-69320961D01*
X141139461Y-69529698D01*
X140975458Y-69775147D01*
X140862490Y-70047875D01*
X140804900Y-70337401D01*
X140804900Y-70632599D01*
X140862490Y-70922125D01*
X140975458Y-71194853D01*
X141139461Y-71440302D01*
X141348198Y-71649039D01*
X141506781Y-71755000D01*
X141348198Y-71860961D01*
X141139461Y-72069698D01*
X140975458Y-72315147D01*
X140862490Y-72587875D01*
X140804900Y-72877401D01*
X140804900Y-73172599D01*
X140862490Y-73462125D01*
X140975458Y-73734853D01*
X141139461Y-73980302D01*
X141253523Y-74094364D01*
X141195720Y-74111898D01*
X141085406Y-74170863D01*
X140988715Y-74250215D01*
X140909363Y-74346906D01*
X140850398Y-74457220D01*
X140814088Y-74576918D01*
X140801828Y-74701400D01*
X140801828Y-76428600D01*
X140814088Y-76553082D01*
X140850398Y-76672780D01*
X140909363Y-76783094D01*
X140988715Y-76879785D01*
X141085406Y-76959137D01*
X141188229Y-77014098D01*
X141091769Y-77110558D01*
X140921046Y-77366063D01*
X140803450Y-77649965D01*
X140743500Y-77951353D01*
X135759000Y-77951353D01*
X135759000Y-68012993D01*
X140799185Y-68012993D01*
X140841355Y-68305164D01*
X140939714Y-68583493D01*
X141014933Y-68724218D01*
X141265396Y-68803499D01*
X142123895Y-67945000D01*
X142483105Y-67945000D01*
X143341604Y-68803499D01*
X143592067Y-68724218D01*
X143719326Y-68457859D01*
X143792175Y-68171790D01*
X143807815Y-67877007D01*
X143765645Y-67584836D01*
X143667286Y-67306507D01*
X143592067Y-67165782D01*
X143341604Y-67086501D01*
X142483105Y-67945000D01*
X142123895Y-67945000D01*
X141265396Y-67086501D01*
X141014933Y-67165782D01*
X140887674Y-67432141D01*
X140814825Y-67718210D01*
X140799185Y-68012993D01*
X135759000Y-68012993D01*
X135759000Y-64404114D01*
X135817387Y-64372905D01*
X135951962Y-64262462D01*
X136007737Y-64194500D01*
X136037031Y-64194500D01*
X136080500Y-64198781D01*
X136123969Y-64194500D01*
X136123977Y-64194500D01*
X136253990Y-64181695D01*
X136420813Y-64131089D01*
X136574559Y-64048911D01*
X136709317Y-63938317D01*
X136737034Y-63904544D01*
X138072549Y-62569030D01*
X138106317Y-62541317D01*
X138216911Y-62406559D01*
X138299089Y-62252813D01*
X138349695Y-62085990D01*
X138362500Y-61955977D01*
X138362500Y-61955967D01*
X138366781Y-61912501D01*
X138362500Y-61869035D01*
X138362500Y-46194954D01*
X138394705Y-46146756D01*
X138472726Y-45958398D01*
X138512500Y-45758439D01*
X138512500Y-45554561D01*
X138472726Y-45354602D01*
X138394705Y-45166244D01*
X138281437Y-44996726D01*
X138137274Y-44852563D01*
X137967756Y-44739295D01*
X137779398Y-44661274D01*
X137579439Y-44621500D01*
X137375561Y-44621500D01*
X137175602Y-44661274D01*
X136987244Y-44739295D01*
X136817726Y-44852563D01*
X136673563Y-44996726D01*
X136560295Y-45166244D01*
X136482274Y-45354602D01*
X136442500Y-45554561D01*
X136442500Y-45758439D01*
X136482274Y-45958398D01*
X136560295Y-46146756D01*
X136592500Y-46194954D01*
X136592501Y-61545920D01*
X136064553Y-62073869D01*
X136144472Y-61924351D01*
X136195008Y-61757755D01*
X136212072Y-61584501D01*
X136212072Y-60934499D01*
X136195008Y-60761245D01*
X136144472Y-60594649D01*
X136062405Y-60441113D01*
X135951962Y-60306538D01*
X135817387Y-60196095D01*
X135759000Y-60164886D01*
X135759000Y-60149614D01*
X135817387Y-60118405D01*
X135951962Y-60007962D01*
X136062405Y-59873387D01*
X136144472Y-59719851D01*
X136195008Y-59553255D01*
X136212072Y-59380001D01*
X136212072Y-58729999D01*
X136195008Y-58556745D01*
X136144472Y-58390149D01*
X136062405Y-58236613D01*
X135951962Y-58102038D01*
X135945406Y-58096658D01*
X136025185Y-58031185D01*
X136104537Y-57934494D01*
X136163502Y-57824180D01*
X136199812Y-57704482D01*
X136212072Y-57580000D01*
X136209000Y-57290750D01*
X136050250Y-57132000D01*
X135001000Y-57132000D01*
X135001000Y-57152000D01*
X134747000Y-57152000D01*
X134747000Y-57132000D01*
X133697750Y-57132000D01*
X133539000Y-57290750D01*
X133535928Y-57580000D01*
X132470020Y-57580000D01*
X132470020Y-56430000D01*
X133535928Y-56430000D01*
X133539000Y-56719250D01*
X133697750Y-56878000D01*
X134747000Y-56878000D01*
X134747000Y-55953750D01*
X135001000Y-55953750D01*
X135001000Y-56878000D01*
X136050250Y-56878000D01*
X136209000Y-56719250D01*
X136212072Y-56430000D01*
X136199812Y-56305518D01*
X136163502Y-56185820D01*
X136104537Y-56075506D01*
X136025185Y-55978815D01*
X135928494Y-55899463D01*
X135818180Y-55840498D01*
X135698482Y-55804188D01*
X135574000Y-55791928D01*
X135159750Y-55795000D01*
X135001000Y-55953750D01*
X134747000Y-55953750D01*
X134588250Y-55795000D01*
X134174000Y-55791928D01*
X134049518Y-55804188D01*
X133929820Y-55840498D01*
X133819506Y-55899463D01*
X133722815Y-55978815D01*
X133643463Y-56075506D01*
X133584498Y-56185820D01*
X133548188Y-56305518D01*
X133535928Y-56430000D01*
X132470020Y-56430000D01*
X132470020Y-54848853D01*
X132473697Y-54811520D01*
X132459023Y-54662534D01*
X132415566Y-54519273D01*
X132344994Y-54387244D01*
X132273819Y-54300517D01*
X132250021Y-54271519D01*
X132221024Y-54247722D01*
X128516276Y-50542975D01*
X128562100Y-50312599D01*
X128562100Y-50017401D01*
X128504510Y-49727875D01*
X128391542Y-49455147D01*
X128227539Y-49209698D01*
X128018802Y-49000961D01*
X127860219Y-48895000D01*
X128018802Y-48789039D01*
X128227539Y-48580302D01*
X128391542Y-48334853D01*
X128504510Y-48062125D01*
X128562100Y-47772599D01*
X128562100Y-47477401D01*
X128504510Y-47187875D01*
X128391542Y-46915147D01*
X128227539Y-46669698D01*
X128018802Y-46460961D01*
X127860219Y-46355000D01*
X128018802Y-46249039D01*
X128227539Y-46040302D01*
X128391542Y-45794853D01*
X128504510Y-45522125D01*
X128562100Y-45232599D01*
X128562100Y-44937401D01*
X128504510Y-44647875D01*
X128391542Y-44375147D01*
X128227539Y-44129698D01*
X128018802Y-43920961D01*
X127860219Y-43815000D01*
X128018802Y-43709039D01*
X128227539Y-43500302D01*
X128391542Y-43254853D01*
X128504510Y-42982125D01*
X128562100Y-42692599D01*
X128562100Y-42397401D01*
X128504510Y-42107875D01*
X128391542Y-41835147D01*
X128227539Y-41589698D01*
X128018802Y-41380961D01*
X127860219Y-41275000D01*
X128018802Y-41169039D01*
X128227539Y-40960302D01*
X128391542Y-40714853D01*
X128504510Y-40442125D01*
X128562100Y-40152599D01*
X128562100Y-39857401D01*
X128504510Y-39567875D01*
X128391542Y-39295147D01*
X128227539Y-39049698D01*
X128018802Y-38840961D01*
X127915478Y-38771922D01*
X128057942Y-38676731D01*
X128275231Y-38459442D01*
X128445954Y-38203937D01*
X128563550Y-37920035D01*
X128623500Y-37618647D01*
X128623500Y-37311353D01*
X128563550Y-37009965D01*
X128445954Y-36726063D01*
X128319960Y-36537500D01*
X141047040Y-36537500D01*
X140921046Y-36726063D01*
X140803450Y-37009965D01*
X140743500Y-37311353D01*
X140743500Y-37618647D01*
X140803450Y-37920035D01*
X140921046Y-38203937D01*
X141091769Y-38459442D01*
X141309058Y-38676731D01*
X141451522Y-38771922D01*
X141348198Y-38840961D01*
X141139461Y-39049698D01*
X140975458Y-39295147D01*
X140862490Y-39567875D01*
X140804900Y-39857401D01*
X140804900Y-40152599D01*
X140862490Y-40442125D01*
X140975458Y-40714853D01*
X141139461Y-40960302D01*
X141348198Y-41169039D01*
X141506781Y-41275000D01*
X141348198Y-41380961D01*
X141139461Y-41589698D01*
X140975458Y-41835147D01*
X140862490Y-42107875D01*
X140804900Y-42397401D01*
X140804900Y-42692599D01*
X140862490Y-42982125D01*
X140975458Y-43254853D01*
X141139461Y-43500302D01*
X141348198Y-43709039D01*
X141506781Y-43815000D01*
X141348198Y-43920961D01*
X141139461Y-44129698D01*
X140975458Y-44375147D01*
X140862490Y-44647875D01*
X140804900Y-44937401D01*
X140804900Y-45232599D01*
X140862490Y-45522125D01*
X140975458Y-45794853D01*
X141139461Y-46040302D01*
X141348198Y-46249039D01*
X141506781Y-46355000D01*
X141348198Y-46460961D01*
X141139461Y-46669698D01*
X140975458Y-46915147D01*
X140862490Y-47187875D01*
X140804900Y-47477401D01*
X140804900Y-47772599D01*
X140862490Y-48062125D01*
X140975458Y-48334853D01*
X141139461Y-48580302D01*
X141348198Y-48789039D01*
X141506781Y-48895000D01*
X141348198Y-49000961D01*
X141139461Y-49209698D01*
X140975458Y-49455147D01*
X140862490Y-49727875D01*
X140804900Y-50017401D01*
X140804900Y-50312599D01*
X140862490Y-50602125D01*
X140975458Y-50874853D01*
X141139461Y-51120302D01*
X141348198Y-51329039D01*
X141506781Y-51435000D01*
X141348198Y-51540961D01*
X141139461Y-51749698D01*
X140975458Y-51995147D01*
X140862490Y-52267875D01*
X140804900Y-52557401D01*
X140804900Y-52852599D01*
X140862490Y-53142125D01*
X140975458Y-53414853D01*
X141139461Y-53660302D01*
X141348198Y-53869039D01*
X141506781Y-53975000D01*
X141348198Y-54080961D01*
X141139461Y-54289698D01*
X140975458Y-54535147D01*
X140862490Y-54807875D01*
X140804900Y-55097401D01*
X140804900Y-55392599D01*
X140862490Y-55682125D01*
X140975458Y-55954853D01*
X141139461Y-56200302D01*
X141348198Y-56409039D01*
X141506781Y-56515000D01*
X141348198Y-56620961D01*
X141139461Y-56829698D01*
X140975458Y-57075147D01*
X140862490Y-57347875D01*
X140804900Y-57637401D01*
X140804900Y-57932599D01*
X140862490Y-58222125D01*
X140975458Y-58494853D01*
X141139461Y-58740302D01*
X141348198Y-58949039D01*
X141506781Y-59055000D01*
X141348198Y-59160961D01*
X141139461Y-59369698D01*
X140975458Y-59615147D01*
X140862490Y-59887875D01*
X140804900Y-60177401D01*
X140804900Y-60472599D01*
X140862490Y-60762125D01*
X140975458Y-61034853D01*
X141139461Y-61280302D01*
X141348198Y-61489039D01*
X141506781Y-61595000D01*
X141348198Y-61700961D01*
X141139461Y-61909698D01*
X140975458Y-62155147D01*
X140862490Y-62427875D01*
X140804900Y-62717401D01*
X140804900Y-63012599D01*
X140862490Y-63302125D01*
X140975458Y-63574853D01*
X141139461Y-63820302D01*
X141348198Y-64029039D01*
X141506781Y-64135000D01*
X141348198Y-64240961D01*
X141139461Y-64449698D01*
X140975458Y-64695147D01*
X140862490Y-64967875D01*
X140804900Y-65257401D01*
X140804900Y-65552599D01*
X140862490Y-65842125D01*
X140975458Y-66114853D01*
X141139461Y-66360302D01*
X141348198Y-66569039D01*
X141516375Y-66681411D01*
X141445001Y-66906896D01*
X142303500Y-67765395D01*
X143161999Y-66906896D01*
X143090625Y-66681411D01*
X143258802Y-66569039D01*
X143467539Y-66360302D01*
X143631542Y-66114853D01*
X143744510Y-65842125D01*
X143802100Y-65552599D01*
X143802100Y-65257401D01*
X143744510Y-64967875D01*
X143631542Y-64695147D01*
X143467539Y-64449698D01*
X143258802Y-64240961D01*
X143100219Y-64135000D01*
X143258802Y-64029039D01*
X143467539Y-63820302D01*
X143631542Y-63574853D01*
X143744510Y-63302125D01*
X143802100Y-63012599D01*
X143802100Y-62717401D01*
X143744510Y-62427875D01*
X143631542Y-62155147D01*
X143467539Y-61909698D01*
X143258802Y-61700961D01*
X143100219Y-61595000D01*
X143258802Y-61489039D01*
X143467539Y-61280302D01*
X143631542Y-61034853D01*
X143744510Y-60762125D01*
X143802100Y-60472599D01*
X143802100Y-60177401D01*
X143744510Y-59887875D01*
X143631542Y-59615147D01*
X143467539Y-59369698D01*
X143274836Y-59176995D01*
X146732000Y-59176995D01*
X146732000Y-59568005D01*
X146808282Y-59951503D01*
X146957915Y-60312750D01*
X147175149Y-60637864D01*
X147451636Y-60914351D01*
X147776750Y-61131585D01*
X148137997Y-61281218D01*
X148521495Y-61357500D01*
X148912505Y-61357500D01*
X149296003Y-61281218D01*
X149657250Y-61131585D01*
X149982364Y-60914351D01*
X150258851Y-60637864D01*
X150476085Y-60312750D01*
X150625718Y-59951503D01*
X150702000Y-59568005D01*
X150702000Y-59176995D01*
X150625718Y-58793497D01*
X150476085Y-58432250D01*
X150258851Y-58107136D01*
X149982364Y-57830649D01*
X149657250Y-57613415D01*
X149296003Y-57463782D01*
X148912505Y-57387500D01*
X148521495Y-57387500D01*
X148137997Y-57463782D01*
X147776750Y-57613415D01*
X147451636Y-57830649D01*
X147175149Y-58107136D01*
X146957915Y-58432250D01*
X146808282Y-58793497D01*
X146732000Y-59176995D01*
X143274836Y-59176995D01*
X143258802Y-59160961D01*
X143100219Y-59055000D01*
X143258802Y-58949039D01*
X143467539Y-58740302D01*
X143631542Y-58494853D01*
X143744510Y-58222125D01*
X143802100Y-57932599D01*
X143802100Y-57637401D01*
X143744510Y-57347875D01*
X143631542Y-57075147D01*
X143467539Y-56829698D01*
X143258802Y-56620961D01*
X143100219Y-56515000D01*
X143258802Y-56409039D01*
X143467539Y-56200302D01*
X143631542Y-55954853D01*
X143744510Y-55682125D01*
X143802100Y-55392599D01*
X143802100Y-55097401D01*
X143744510Y-54807875D01*
X143631542Y-54535147D01*
X143467539Y-54289698D01*
X143258802Y-54080961D01*
X143100219Y-53975000D01*
X143258802Y-53869039D01*
X143467539Y-53660302D01*
X143631542Y-53414853D01*
X143744510Y-53142125D01*
X143802100Y-52852599D01*
X143802100Y-52557401D01*
X143744510Y-52267875D01*
X143631542Y-51995147D01*
X143467539Y-51749698D01*
X143258802Y-51540961D01*
X143100219Y-51435000D01*
X143258802Y-51329039D01*
X143467539Y-51120302D01*
X143631542Y-50874853D01*
X143744510Y-50602125D01*
X143802100Y-50312599D01*
X143802100Y-50017401D01*
X143744510Y-49727875D01*
X143631542Y-49455147D01*
X143467539Y-49209698D01*
X143258802Y-49000961D01*
X143100219Y-48895000D01*
X143258802Y-48789039D01*
X143467539Y-48580302D01*
X143631542Y-48334853D01*
X143744510Y-48062125D01*
X143802100Y-47772599D01*
X143802100Y-47477401D01*
X143744510Y-47187875D01*
X143631542Y-46915147D01*
X143467539Y-46669698D01*
X143258802Y-46460961D01*
X143100219Y-46355000D01*
X143258802Y-46249039D01*
X143467539Y-46040302D01*
X143631542Y-45794853D01*
X143744510Y-45522125D01*
X143802100Y-45232599D01*
X143802100Y-44937401D01*
X143744510Y-44647875D01*
X143631542Y-44375147D01*
X143467539Y-44129698D01*
X143258802Y-43920961D01*
X143100219Y-43815000D01*
X143258802Y-43709039D01*
X143467539Y-43500302D01*
X143631542Y-43254853D01*
X143674819Y-43150372D01*
X204965500Y-43150372D01*
X204965500Y-43590628D01*
X205051390Y-44022425D01*
X205219869Y-44429169D01*
X205464462Y-44795229D01*
X205775771Y-45106538D01*
X206141831Y-45351131D01*
X206548575Y-45519610D01*
X206980372Y-45605500D01*
X207420628Y-45605500D01*
X207852425Y-45519610D01*
X208259169Y-45351131D01*
X208625229Y-45106538D01*
X208936538Y-44795229D01*
X209181131Y-44429169D01*
X209349610Y-44022425D01*
X209435500Y-43590628D01*
X209435500Y-43150372D01*
X209349610Y-42718575D01*
X209181131Y-42311831D01*
X208936538Y-41945771D01*
X208625229Y-41634462D01*
X208259169Y-41389869D01*
X207852425Y-41221390D01*
X207420628Y-41135500D01*
X206980372Y-41135500D01*
X206548575Y-41221390D01*
X206141831Y-41389869D01*
X205775771Y-41634462D01*
X205464462Y-41945771D01*
X205219869Y-42311831D01*
X205051390Y-42718575D01*
X204965500Y-43150372D01*
X143674819Y-43150372D01*
X143744510Y-42982125D01*
X143802100Y-42692599D01*
X143802100Y-42397401D01*
X143744510Y-42107875D01*
X143631542Y-41835147D01*
X143467539Y-41589698D01*
X143258802Y-41380961D01*
X143100219Y-41275000D01*
X143258802Y-41169039D01*
X143467539Y-40960302D01*
X143631542Y-40714853D01*
X143744510Y-40442125D01*
X143802100Y-40152599D01*
X143802100Y-39857401D01*
X143744510Y-39567875D01*
X143631542Y-39295147D01*
X143467539Y-39049698D01*
X143258802Y-38840961D01*
X143155478Y-38771922D01*
X143297942Y-38676731D01*
X143515231Y-38459442D01*
X143685954Y-38203937D01*
X143803550Y-37920035D01*
X143863500Y-37618647D01*
X143863500Y-37311353D01*
X143803550Y-37009965D01*
X143685954Y-36726063D01*
X143559960Y-36537500D01*
X212629221Y-36537500D01*
X212927566Y-36566753D01*
X213183500Y-36644024D01*
X213419550Y-36769535D01*
X213626726Y-36938503D01*
X213797138Y-37144495D01*
X213924292Y-37379663D01*
X214003347Y-37635045D01*
X214034492Y-37931371D01*
X214033501Y-153828216D01*
X214004247Y-154126568D01*
X213926976Y-154382500D01*
X213801467Y-154618549D01*
X213632495Y-154825728D01*
X213426503Y-154996139D01*
X213191338Y-155123292D01*
X212935954Y-155202347D01*
X212639629Y-155233492D01*
X96742784Y-155232501D01*
X96444432Y-155203247D01*
X96188500Y-155125976D01*
X95952451Y-155000467D01*
X95745272Y-154831495D01*
X95574861Y-154625503D01*
X95447708Y-154390338D01*
X95368653Y-154134954D01*
X95337509Y-153838634D01*
X95337509Y-148179372D01*
X99936500Y-148179372D01*
X99936500Y-148619628D01*
X100022390Y-149051425D01*
X100190869Y-149458169D01*
X100435462Y-149824229D01*
X100746771Y-150135538D01*
X101112831Y-150380131D01*
X101519575Y-150548610D01*
X101951372Y-150634500D01*
X102391628Y-150634500D01*
X102823425Y-150548610D01*
X103230169Y-150380131D01*
X103596229Y-150135538D01*
X103907538Y-149824229D01*
X104152131Y-149458169D01*
X104320610Y-149051425D01*
X104406500Y-148619628D01*
X104406500Y-148179372D01*
X204965500Y-148179372D01*
X204965500Y-148619628D01*
X205051390Y-149051425D01*
X205219869Y-149458169D01*
X205464462Y-149824229D01*
X205775771Y-150135538D01*
X206141831Y-150380131D01*
X206548575Y-150548610D01*
X206980372Y-150634500D01*
X207420628Y-150634500D01*
X207852425Y-150548610D01*
X208259169Y-150380131D01*
X208625229Y-150135538D01*
X208936538Y-149824229D01*
X209181131Y-149458169D01*
X209349610Y-149051425D01*
X209435500Y-148619628D01*
X209435500Y-148179372D01*
X209349610Y-147747575D01*
X209181131Y-147340831D01*
X208936538Y-146974771D01*
X208625229Y-146663462D01*
X208259169Y-146418869D01*
X207852425Y-146250390D01*
X207420628Y-146164500D01*
X206980372Y-146164500D01*
X206548575Y-146250390D01*
X206141831Y-146418869D01*
X205775771Y-146663462D01*
X205464462Y-146974771D01*
X205219869Y-147340831D01*
X205051390Y-147747575D01*
X204965500Y-148179372D01*
X104406500Y-148179372D01*
X104320610Y-147747575D01*
X104152131Y-147340831D01*
X103907538Y-146974771D01*
X103596229Y-146663462D01*
X103230169Y-146418869D01*
X102823425Y-146250390D01*
X102391628Y-146164500D01*
X101951372Y-146164500D01*
X101519575Y-146250390D01*
X101112831Y-146418869D01*
X100746771Y-146663462D01*
X100435462Y-146974771D01*
X100190869Y-147340831D01*
X100022390Y-147747575D01*
X99936500Y-148179372D01*
X95337509Y-148179372D01*
X95337509Y-117623638D01*
X113467967Y-117623638D01*
X113510402Y-117843153D01*
X113724936Y-117940035D01*
X113954248Y-117993203D01*
X114189525Y-118000613D01*
X114421728Y-117961979D01*
X114641932Y-117878787D01*
X114708598Y-117843153D01*
X114751033Y-117623638D01*
X114109500Y-116982105D01*
X113467967Y-117623638D01*
X95337509Y-117623638D01*
X95337509Y-116882525D01*
X112911387Y-116882525D01*
X112950021Y-117114728D01*
X113033213Y-117334932D01*
X113068847Y-117401598D01*
X113288362Y-117444033D01*
X113929895Y-116802500D01*
X114289105Y-116802500D01*
X114930638Y-117444033D01*
X115150153Y-117401598D01*
X115247035Y-117187064D01*
X115300203Y-116957752D01*
X115307613Y-116722475D01*
X115268979Y-116490272D01*
X115185787Y-116270068D01*
X115150153Y-116203402D01*
X114930638Y-116160967D01*
X114289105Y-116802500D01*
X113929895Y-116802500D01*
X113288362Y-116160967D01*
X113068847Y-116203402D01*
X112971965Y-116417936D01*
X112918797Y-116647248D01*
X112911387Y-116882525D01*
X95337509Y-116882525D01*
X95337509Y-115981362D01*
X113467967Y-115981362D01*
X114109500Y-116622895D01*
X114751033Y-115981362D01*
X114708598Y-115761847D01*
X114494064Y-115664965D01*
X114264752Y-115611797D01*
X114029475Y-115604387D01*
X113797272Y-115643021D01*
X113577068Y-115726213D01*
X113510402Y-115761847D01*
X113467967Y-115981362D01*
X95337509Y-115981362D01*
X95337509Y-86528987D01*
X101356618Y-86528987D01*
X101428504Y-86773212D01*
X101684441Y-86894362D01*
X101959096Y-86963252D01*
X102241913Y-86977238D01*
X102522024Y-86935779D01*
X102788665Y-86840470D01*
X102914496Y-86773212D01*
X102986382Y-86528987D01*
X102171500Y-85714105D01*
X101356618Y-86528987D01*
X95337509Y-86528987D01*
X95337509Y-85604913D01*
X100728762Y-85604913D01*
X100770221Y-85885024D01*
X100865530Y-86151665D01*
X100932788Y-86277496D01*
X101177013Y-86349382D01*
X101991895Y-85534500D01*
X102351105Y-85534500D01*
X103165987Y-86349382D01*
X103410212Y-86277496D01*
X103531362Y-86021559D01*
X103600252Y-85746904D01*
X103614238Y-85464087D01*
X103572779Y-85183976D01*
X103477470Y-84917335D01*
X103410212Y-84791504D01*
X103165987Y-84719618D01*
X102351105Y-85534500D01*
X101991895Y-85534500D01*
X101177013Y-84719618D01*
X100932788Y-84791504D01*
X100811638Y-85047441D01*
X100742748Y-85322096D01*
X100728762Y-85604913D01*
X95337509Y-85604913D01*
X95337509Y-69850000D01*
X96203614Y-69850000D01*
X96208500Y-69899608D01*
X96208501Y-80849382D01*
X96203614Y-80899000D01*
X96223115Y-81096994D01*
X96280868Y-81287379D01*
X96319848Y-81360305D01*
X96374654Y-81462840D01*
X96500868Y-81616633D01*
X96539401Y-81648256D01*
X98564744Y-83673600D01*
X98596367Y-83712133D01*
X98750160Y-83838347D01*
X98885810Y-83910853D01*
X98925620Y-83932132D01*
X99116005Y-83989885D01*
X99314000Y-84009386D01*
X99363608Y-84004500D01*
X101148568Y-84004500D01*
X101255147Y-84111079D01*
X101485772Y-84265178D01*
X101428504Y-84295788D01*
X101356618Y-84540013D01*
X102171500Y-85354895D01*
X102986382Y-84540013D01*
X102914496Y-84295788D01*
X102854160Y-84267227D01*
X103087853Y-84111079D01*
X103288079Y-83910853D01*
X103445396Y-83675411D01*
X103553757Y-83413803D01*
X103609000Y-83136081D01*
X103609000Y-82852919D01*
X103553757Y-82575197D01*
X103445396Y-82313589D01*
X103288079Y-82078147D01*
X103087853Y-81877921D01*
X102858242Y-81724500D01*
X103087853Y-81571079D01*
X103288079Y-81370853D01*
X103445396Y-81135411D01*
X103553757Y-80873803D01*
X103609000Y-80596081D01*
X103609000Y-80312919D01*
X103553757Y-80035197D01*
X103445396Y-79773589D01*
X103288079Y-79538147D01*
X103087853Y-79337921D01*
X102858242Y-79184500D01*
X103087853Y-79031079D01*
X103288079Y-78830853D01*
X103445396Y-78595411D01*
X103553757Y-78333803D01*
X103609000Y-78056081D01*
X103609000Y-77772919D01*
X103553757Y-77495197D01*
X103445396Y-77233589D01*
X103288079Y-76998147D01*
X103087853Y-76797921D01*
X102852411Y-76640604D01*
X102590803Y-76532243D01*
X102313081Y-76477000D01*
X102029919Y-76477000D01*
X101752197Y-76532243D01*
X101490589Y-76640604D01*
X101255147Y-76797921D01*
X101054921Y-76998147D01*
X100897604Y-77233589D01*
X100789243Y-77495197D01*
X100734000Y-77772919D01*
X100734000Y-78056081D01*
X100789243Y-78333803D01*
X100897604Y-78595411D01*
X101054921Y-78830853D01*
X101255147Y-79031079D01*
X101484758Y-79184500D01*
X101255147Y-79337921D01*
X101054921Y-79538147D01*
X100997840Y-79623575D01*
X100830640Y-79456375D01*
X100620176Y-79315747D01*
X100386321Y-79218881D01*
X100138061Y-79169500D01*
X99884939Y-79169500D01*
X99636679Y-79218881D01*
X99402824Y-79315747D01*
X99192360Y-79456375D01*
X99013375Y-79635360D01*
X98872747Y-79845824D01*
X98775881Y-80079679D01*
X98726500Y-80327939D01*
X98726500Y-80581061D01*
X98775881Y-80829321D01*
X98872747Y-81063176D01*
X98997023Y-81249167D01*
X98228500Y-80480645D01*
X98228500Y-71288987D01*
X101356618Y-71288987D01*
X101428504Y-71533212D01*
X101684441Y-71654362D01*
X101959096Y-71723252D01*
X102241913Y-71737238D01*
X102522024Y-71695779D01*
X102788665Y-71600470D01*
X102914496Y-71533212D01*
X102986382Y-71288987D01*
X102171500Y-70474105D01*
X101356618Y-71288987D01*
X98228500Y-71288987D01*
X98228500Y-70364913D01*
X100728762Y-70364913D01*
X100770221Y-70645024D01*
X100865530Y-70911665D01*
X100932788Y-71037496D01*
X101177013Y-71109382D01*
X101991895Y-70294500D01*
X102351105Y-70294500D01*
X103165987Y-71109382D01*
X103410212Y-71037496D01*
X103531362Y-70781559D01*
X103600252Y-70506904D01*
X103614238Y-70224087D01*
X103572779Y-69943976D01*
X103477470Y-69677335D01*
X103410212Y-69551504D01*
X103165987Y-69479618D01*
X102351105Y-70294500D01*
X101991895Y-70294500D01*
X101177013Y-69479618D01*
X100932788Y-69551504D01*
X100811638Y-69807441D01*
X100742748Y-70082096D01*
X100728762Y-70364913D01*
X98228500Y-70364913D01*
X98228500Y-70268355D01*
X99732356Y-68764500D01*
X101148568Y-68764500D01*
X101255147Y-68871079D01*
X101485772Y-69025178D01*
X101428504Y-69055788D01*
X101356618Y-69300013D01*
X102171500Y-70114895D01*
X102986382Y-69300013D01*
X102914496Y-69055788D01*
X102854160Y-69027227D01*
X103087853Y-68871079D01*
X103194432Y-68764500D01*
X109106892Y-68764500D01*
X109156500Y-68769386D01*
X109354494Y-68749885D01*
X109544880Y-68692132D01*
X109720340Y-68598347D01*
X109874133Y-68472133D01*
X109905761Y-68433594D01*
X111924356Y-66415000D01*
X115745693Y-66415000D01*
X115809837Y-66510998D01*
X116051502Y-66752663D01*
X116335669Y-66942537D01*
X116651419Y-67073325D01*
X116986617Y-67140000D01*
X117328383Y-67140000D01*
X117663581Y-67073325D01*
X117979331Y-66942537D01*
X118263498Y-66752663D01*
X118505163Y-66510998D01*
X118695037Y-66226831D01*
X118825825Y-65911081D01*
X118892500Y-65575883D01*
X118892500Y-65234117D01*
X118825825Y-64898919D01*
X118695037Y-64583169D01*
X118505163Y-64299002D01*
X118292500Y-64086339D01*
X118292500Y-60404287D01*
X118301680Y-60401502D01*
X118411994Y-60342537D01*
X118508685Y-60263185D01*
X118588037Y-60166494D01*
X118647002Y-60056180D01*
X118683312Y-59936482D01*
X118695572Y-59812000D01*
X118695572Y-58812000D01*
X118683312Y-58687518D01*
X118647002Y-58567820D01*
X118588037Y-58457506D01*
X118508685Y-58360815D01*
X118411994Y-58281463D01*
X118301680Y-58222498D01*
X118181982Y-58186188D01*
X118057500Y-58173928D01*
X117182061Y-58173928D01*
X117157500Y-58171509D01*
X117132939Y-58173928D01*
X116257500Y-58173928D01*
X116133018Y-58186188D01*
X116013320Y-58222498D01*
X115903006Y-58281463D01*
X115806315Y-58360815D01*
X115726963Y-58457506D01*
X115667998Y-58567820D01*
X115631688Y-58687518D01*
X115619428Y-58812000D01*
X115619428Y-59812000D01*
X115631688Y-59936482D01*
X115667998Y-60056180D01*
X115726963Y-60166494D01*
X115806315Y-60263185D01*
X115903006Y-60342537D01*
X116013320Y-60401502D01*
X116022500Y-60404287D01*
X116022501Y-64086338D01*
X115809837Y-64299002D01*
X115745693Y-64395000D01*
X111555608Y-64395000D01*
X111506000Y-64390114D01*
X111308005Y-64409615D01*
X111175870Y-64449698D01*
X111117620Y-64467368D01*
X110942160Y-64561153D01*
X110788367Y-64687367D01*
X110756744Y-64725900D01*
X108738145Y-66744500D01*
X103194432Y-66744500D01*
X103087853Y-66637921D01*
X102858242Y-66484500D01*
X103087853Y-66331079D01*
X103288079Y-66130853D01*
X103445396Y-65895411D01*
X103553757Y-65633803D01*
X103609000Y-65356081D01*
X103609000Y-65072919D01*
X103553757Y-64795197D01*
X103445396Y-64533589D01*
X103288079Y-64298147D01*
X103087853Y-64097921D01*
X102858242Y-63944500D01*
X103087853Y-63791079D01*
X103288079Y-63590853D01*
X103445396Y-63355411D01*
X103553757Y-63093803D01*
X103609000Y-62816081D01*
X103609000Y-62532919D01*
X103553757Y-62255197D01*
X103445396Y-61993589D01*
X103288079Y-61758147D01*
X103087853Y-61557921D01*
X102852411Y-61400604D01*
X102590803Y-61292243D01*
X102313081Y-61237000D01*
X102029919Y-61237000D01*
X101752197Y-61292243D01*
X101490589Y-61400604D01*
X101255147Y-61557921D01*
X101054921Y-61758147D01*
X100897604Y-61993589D01*
X100789243Y-62255197D01*
X100734000Y-62532919D01*
X100734000Y-62816081D01*
X100789243Y-63093803D01*
X100897604Y-63355411D01*
X101054921Y-63590853D01*
X101255147Y-63791079D01*
X101484758Y-63944500D01*
X101255147Y-64097921D01*
X101054921Y-64298147D01*
X100997840Y-64383575D01*
X100830640Y-64216375D01*
X100620176Y-64075747D01*
X100386321Y-63978881D01*
X100138061Y-63929500D01*
X99884939Y-63929500D01*
X99636679Y-63978881D01*
X99402824Y-64075747D01*
X99192360Y-64216375D01*
X99013375Y-64395360D01*
X98872747Y-64605824D01*
X98775881Y-64839679D01*
X98726500Y-65087939D01*
X98726500Y-65341061D01*
X98775881Y-65589321D01*
X98872747Y-65823176D01*
X99013375Y-66033640D01*
X99192360Y-66212625D01*
X99402824Y-66353253D01*
X99636679Y-66450119D01*
X99884939Y-66499500D01*
X100138061Y-66499500D01*
X100386321Y-66450119D01*
X100620176Y-66353253D01*
X100830640Y-66212625D01*
X100997840Y-66045425D01*
X101054921Y-66130853D01*
X101255147Y-66331079D01*
X101484758Y-66484500D01*
X101255147Y-66637921D01*
X101148568Y-66744500D01*
X99363608Y-66744500D01*
X99314000Y-66739614D01*
X99116005Y-66759115D01*
X99043989Y-66780961D01*
X98925620Y-66816868D01*
X98750160Y-66910653D01*
X98596367Y-67036867D01*
X98564744Y-67075400D01*
X96539406Y-69100739D01*
X96500867Y-69132367D01*
X96374653Y-69286160D01*
X96356052Y-69320961D01*
X96280868Y-69461621D01*
X96223115Y-69652006D01*
X96203614Y-69850000D01*
X95337509Y-69850000D01*
X95337509Y-46675275D01*
X109297824Y-46675275D01*
X109357842Y-47270098D01*
X109532750Y-47841782D01*
X109807745Y-48356260D01*
X110215471Y-48620424D01*
X112167895Y-46668000D01*
X110215471Y-44715576D01*
X109807745Y-44979740D01*
X109527183Y-45507661D01*
X109355004Y-46080173D01*
X109297824Y-46675275D01*
X95337509Y-46675275D01*
X95337509Y-43150372D01*
X99936500Y-43150372D01*
X99936500Y-43590628D01*
X100022390Y-44022425D01*
X100190869Y-44429169D01*
X100435462Y-44795229D01*
X100746771Y-45106538D01*
X101112831Y-45351131D01*
X101519575Y-45519610D01*
X101951372Y-45605500D01*
X102391628Y-45605500D01*
X102823425Y-45519610D01*
X103230169Y-45351131D01*
X103596229Y-45106538D01*
X103907538Y-44795229D01*
X104080768Y-44535971D01*
X110395076Y-44535971D01*
X112347500Y-46488395D01*
X112361643Y-46474253D01*
X112541248Y-46653858D01*
X112527105Y-46668000D01*
X112541248Y-46682143D01*
X112361643Y-46861748D01*
X112347500Y-46847605D01*
X110395076Y-48800029D01*
X110659240Y-49207755D01*
X111187161Y-49488317D01*
X111759673Y-49660496D01*
X112354775Y-49717676D01*
X112949598Y-49657658D01*
X113521282Y-49482750D01*
X114035760Y-49207755D01*
X114192803Y-48965365D01*
X114112500Y-49369079D01*
X114112500Y-49966921D01*
X114229133Y-50553277D01*
X114457918Y-51105612D01*
X114790062Y-51602700D01*
X115212800Y-52025438D01*
X115709888Y-52357582D01*
X116012500Y-52482928D01*
X116012501Y-55422936D01*
X115903006Y-55481463D01*
X115806315Y-55560815D01*
X115726963Y-55657506D01*
X115667998Y-55767820D01*
X115631688Y-55887518D01*
X115619428Y-56012000D01*
X115619428Y-57012000D01*
X115631688Y-57136482D01*
X115667998Y-57256180D01*
X115726963Y-57366494D01*
X115806315Y-57463185D01*
X115903006Y-57542537D01*
X116013320Y-57601502D01*
X116133018Y-57637812D01*
X116257500Y-57650072D01*
X117132938Y-57650072D01*
X117157499Y-57652491D01*
X117182060Y-57650072D01*
X118057500Y-57650072D01*
X118181982Y-57637812D01*
X118301680Y-57601502D01*
X118411994Y-57542537D01*
X118508685Y-57463185D01*
X118588037Y-57366494D01*
X118647002Y-57256180D01*
X118683312Y-57136482D01*
X118695572Y-57012000D01*
X118695572Y-56012000D01*
X118683312Y-55887518D01*
X118647002Y-55767820D01*
X118588037Y-55657506D01*
X118508685Y-55560815D01*
X118411994Y-55481463D01*
X118301680Y-55422498D01*
X118282500Y-55416680D01*
X118282500Y-52482928D01*
X118585112Y-52357582D01*
X119082200Y-52025438D01*
X119504938Y-51602700D01*
X119837082Y-51105612D01*
X120065867Y-50553277D01*
X120182500Y-49966921D01*
X120182500Y-49369079D01*
X120065867Y-48782723D01*
X119837082Y-48230388D01*
X119504938Y-47733300D01*
X119082200Y-47310562D01*
X118585112Y-46978418D01*
X118062473Y-46761933D01*
X118321282Y-46682750D01*
X118835760Y-46407755D01*
X119099924Y-46000029D01*
X117147500Y-44047605D01*
X117133358Y-44061748D01*
X116953753Y-43882143D01*
X116967895Y-43868000D01*
X117327105Y-43868000D01*
X119279529Y-45820424D01*
X119687255Y-45556260D01*
X119967817Y-45028339D01*
X120139996Y-44455827D01*
X120197176Y-43860725D01*
X120137158Y-43265902D01*
X119962250Y-42694218D01*
X119687255Y-42179740D01*
X119279529Y-41915576D01*
X117327105Y-43868000D01*
X116967895Y-43868000D01*
X115015471Y-41915576D01*
X114607745Y-42179740D01*
X114327183Y-42707661D01*
X114155004Y-43280173D01*
X114097824Y-43875275D01*
X114139506Y-44288372D01*
X114035760Y-44128245D01*
X113507839Y-43847683D01*
X112935327Y-43675504D01*
X112340225Y-43618324D01*
X111745402Y-43678342D01*
X111173718Y-43853250D01*
X110659240Y-44128245D01*
X110395076Y-44535971D01*
X104080768Y-44535971D01*
X104152131Y-44429169D01*
X104320610Y-44022425D01*
X104406500Y-43590628D01*
X104406500Y-43150372D01*
X104320610Y-42718575D01*
X104152131Y-42311831D01*
X103907538Y-41945771D01*
X103697738Y-41735971D01*
X115195076Y-41735971D01*
X117147500Y-43688395D01*
X119099924Y-41735971D01*
X118835760Y-41328245D01*
X118307839Y-41047683D01*
X117735327Y-40875504D01*
X117140225Y-40818324D01*
X116545402Y-40878342D01*
X115973718Y-41053250D01*
X115459240Y-41328245D01*
X115195076Y-41735971D01*
X103697738Y-41735971D01*
X103596229Y-41634462D01*
X103230169Y-41389869D01*
X102823425Y-41221390D01*
X102391628Y-41135500D01*
X101951372Y-41135500D01*
X101519575Y-41221390D01*
X101112831Y-41389869D01*
X100746771Y-41634462D01*
X100435462Y-41945771D01*
X100190869Y-42311831D01*
X100022390Y-42718575D01*
X99936500Y-43150372D01*
X95337509Y-43150372D01*
X95337509Y-37942770D01*
X95366762Y-37644425D01*
X95444033Y-37388491D01*
X95569544Y-37152441D01*
X95738512Y-36945265D01*
X95944504Y-36774853D01*
X96179672Y-36647699D01*
X96435054Y-36568644D01*
X96731375Y-36537500D01*
X125807040Y-36537500D01*
X125681046Y-36726063D01*
G37*
X125681046Y-36726063D02*
X125563450Y-37009965D01*
X125503500Y-37311353D01*
X125503500Y-37618647D01*
X125563450Y-37920035D01*
X125681046Y-38203937D01*
X125851769Y-38459442D01*
X126069058Y-38676731D01*
X126211522Y-38771922D01*
X126108198Y-38840961D01*
X125899461Y-39049698D01*
X125735458Y-39295147D01*
X125622490Y-39567875D01*
X125564900Y-39857401D01*
X125564900Y-40152599D01*
X125622490Y-40442125D01*
X125735458Y-40714853D01*
X125899461Y-40960302D01*
X126108198Y-41169039D01*
X126266781Y-41275000D01*
X126108198Y-41380961D01*
X125899461Y-41589698D01*
X125735458Y-41835147D01*
X125622490Y-42107875D01*
X125564900Y-42397401D01*
X125564900Y-42692599D01*
X125622490Y-42982125D01*
X125735458Y-43254853D01*
X125899461Y-43500302D01*
X126108198Y-43709039D01*
X126266781Y-43815000D01*
X126108198Y-43920961D01*
X125899461Y-44129698D01*
X125735458Y-44375147D01*
X125622490Y-44647875D01*
X125564900Y-44937401D01*
X125564900Y-45232599D01*
X125622490Y-45522125D01*
X125735458Y-45794853D01*
X125899461Y-46040302D01*
X126108198Y-46249039D01*
X126266781Y-46355000D01*
X126108198Y-46460961D01*
X125899461Y-46669698D01*
X125735458Y-46915147D01*
X125622490Y-47187875D01*
X125564900Y-47477401D01*
X125564900Y-47772599D01*
X125610724Y-48002974D01*
X124774503Y-48839196D01*
X124745499Y-48862999D01*
X124690371Y-48930174D01*
X124650526Y-48978724D01*
X124579955Y-49110753D01*
X124579954Y-49110754D01*
X124536497Y-49254015D01*
X124525500Y-49365668D01*
X124525500Y-49365678D01*
X124521824Y-49403000D01*
X124525500Y-49440322D01*
X124525501Y-61724697D01*
X114487503Y-71762696D01*
X114458499Y-71786499D01*
X114403371Y-71853674D01*
X114363526Y-71902224D01*
X114318268Y-71986896D01*
X114292954Y-72034254D01*
X114249497Y-72177515D01*
X114238500Y-72289168D01*
X114238500Y-72289178D01*
X114234824Y-72326500D01*
X114238500Y-72363822D01*
X114238501Y-112574167D01*
X114234824Y-112611500D01*
X114249498Y-112760485D01*
X114292954Y-112903746D01*
X114363526Y-113035776D01*
X114434701Y-113122502D01*
X114458500Y-113151501D01*
X114487498Y-113175299D01*
X115454915Y-114142717D01*
X115454500Y-114144803D01*
X115454500Y-114380197D01*
X115500423Y-114611069D01*
X115590505Y-114828545D01*
X115721283Y-115024268D01*
X115887732Y-115190717D01*
X116083455Y-115321495D01*
X116300931Y-115411577D01*
X116531803Y-115457500D01*
X116767197Y-115457500D01*
X116998069Y-115411577D01*
X117215545Y-115321495D01*
X117411268Y-115190717D01*
X117577717Y-115024268D01*
X117708495Y-114828545D01*
X117798577Y-114611069D01*
X117844500Y-114380197D01*
X117844500Y-114144803D01*
X117798577Y-113913931D01*
X117708495Y-113696455D01*
X117577717Y-113500732D01*
X117411268Y-113334283D01*
X117215545Y-113203505D01*
X116998069Y-113113423D01*
X116767197Y-113067500D01*
X116531803Y-113067500D01*
X116529717Y-113067915D01*
X115758500Y-112296699D01*
X115758500Y-84987500D01*
X119098428Y-84987500D01*
X119110688Y-85111982D01*
X119146998Y-85231680D01*
X119205963Y-85341994D01*
X119285315Y-85438685D01*
X119382006Y-85518037D01*
X119492320Y-85577002D01*
X119612018Y-85613312D01*
X119736500Y-85625572D01*
X120300750Y-85622500D01*
X120459500Y-85463750D01*
X120459500Y-84264500D01*
X119260250Y-84264500D01*
X119101500Y-84423250D01*
X119098428Y-84987500D01*
X115758500Y-84987500D01*
X115758500Y-83287500D01*
X119098428Y-83287500D01*
X119101500Y-83851750D01*
X119260250Y-84010500D01*
X120459500Y-84010500D01*
X120459500Y-82811250D01*
X120300750Y-82652500D01*
X119736500Y-82649428D01*
X119612018Y-82661688D01*
X119492320Y-82697998D01*
X119382006Y-82756963D01*
X119285315Y-82836315D01*
X119205963Y-82933006D01*
X119146998Y-83043320D01*
X119110688Y-83163018D01*
X119098428Y-83287500D01*
X115758500Y-83287500D01*
X115758500Y-77225200D01*
X115813320Y-77254502D01*
X115933018Y-77290812D01*
X116057500Y-77303072D01*
X118257500Y-77303072D01*
X118381982Y-77290812D01*
X118501680Y-77254502D01*
X118611994Y-77195537D01*
X118708685Y-77116185D01*
X118788037Y-77019494D01*
X118847002Y-76909180D01*
X118883312Y-76789482D01*
X118892125Y-76700000D01*
X126079159Y-76700000D01*
X126108198Y-76729039D01*
X126211522Y-76798078D01*
X126069058Y-76893269D01*
X125851769Y-77110558D01*
X125681046Y-77366063D01*
X125563450Y-77649965D01*
X125503500Y-77951353D01*
X125503500Y-78258647D01*
X125563450Y-78560035D01*
X125681046Y-78843937D01*
X125851769Y-79099442D01*
X126069058Y-79316731D01*
X126324563Y-79487454D01*
X126608465Y-79605050D01*
X126875899Y-79658246D01*
X125883145Y-80651000D01*
X125525608Y-80651000D01*
X125476000Y-80646114D01*
X125426393Y-80651000D01*
X125426392Y-80651000D01*
X125278006Y-80665615D01*
X125087620Y-80723368D01*
X124912160Y-80817153D01*
X124812429Y-80899000D01*
X124758367Y-80943367D01*
X124632153Y-81097160D01*
X124538368Y-81272620D01*
X124527632Y-81308012D01*
X123183145Y-82652500D01*
X122980240Y-82652500D01*
X122693342Y-82709568D01*
X122423089Y-82821510D01*
X122179868Y-82984025D01*
X122048013Y-83115880D01*
X122026002Y-83043320D01*
X121967037Y-82933006D01*
X121887685Y-82836315D01*
X121790994Y-82756963D01*
X121680680Y-82697998D01*
X121560982Y-82661688D01*
X121436500Y-82649428D01*
X120872250Y-82652500D01*
X120713500Y-82811250D01*
X120713500Y-84010500D01*
X120733500Y-84010500D01*
X120733500Y-84264500D01*
X120713500Y-84264500D01*
X120713500Y-85463750D01*
X120872250Y-85622500D01*
X121436500Y-85625572D01*
X121560982Y-85613312D01*
X121680680Y-85577002D01*
X121790994Y-85518037D01*
X121887685Y-85438685D01*
X121967037Y-85341994D01*
X122026002Y-85231680D01*
X122048013Y-85159120D01*
X122116500Y-85227607D01*
X122116501Y-112447143D01*
X118927427Y-115636218D01*
X118840931Y-115653423D01*
X118623455Y-115743505D01*
X118427732Y-115874283D01*
X118261283Y-116040732D01*
X118130505Y-116236455D01*
X118040423Y-116453931D01*
X117994500Y-116684803D01*
X117994500Y-116920197D01*
X118040423Y-117151069D01*
X118130505Y-117368545D01*
X118261283Y-117564268D01*
X118427732Y-117730717D01*
X118623455Y-117861495D01*
X118840931Y-117951577D01*
X118927427Y-117968782D01*
X121970244Y-121011600D01*
X122001867Y-121050133D01*
X122155660Y-121176347D01*
X122331120Y-121270132D01*
X122521505Y-121327885D01*
X122719500Y-121347386D01*
X122769108Y-121342500D01*
X131040392Y-121342500D01*
X131090000Y-121347386D01*
X131287994Y-121327885D01*
X131478380Y-121270132D01*
X131653840Y-121176347D01*
X131807633Y-121050133D01*
X131839261Y-121011594D01*
X134818573Y-118032282D01*
X134905069Y-118015077D01*
X135122545Y-117924995D01*
X135318268Y-117794217D01*
X135484717Y-117627768D01*
X135615495Y-117432045D01*
X135704986Y-117215995D01*
X146732000Y-117215995D01*
X146732000Y-117607005D01*
X146808282Y-117990503D01*
X146957915Y-118351750D01*
X147175149Y-118676864D01*
X147451636Y-118953351D01*
X147776750Y-119170585D01*
X148137997Y-119320218D01*
X148521495Y-119396500D01*
X148912505Y-119396500D01*
X149296003Y-119320218D01*
X149657250Y-119170585D01*
X149982364Y-118953351D01*
X150258851Y-118676864D01*
X150476085Y-118351750D01*
X150625718Y-117990503D01*
X150702000Y-117607005D01*
X150702000Y-117215995D01*
X195754000Y-117215995D01*
X195754000Y-117607005D01*
X195830282Y-117990503D01*
X195979915Y-118351750D01*
X196197149Y-118676864D01*
X196473636Y-118953351D01*
X196798750Y-119170585D01*
X197159997Y-119320218D01*
X197543495Y-119396500D01*
X197934505Y-119396500D01*
X198318003Y-119320218D01*
X198679250Y-119170585D01*
X199004364Y-118953351D01*
X199280851Y-118676864D01*
X199498085Y-118351750D01*
X199647718Y-117990503D01*
X199724000Y-117607005D01*
X199724000Y-117215995D01*
X199647718Y-116832497D01*
X199498085Y-116471250D01*
X199280851Y-116146136D01*
X199004364Y-115869649D01*
X198679250Y-115652415D01*
X198318003Y-115502782D01*
X197934505Y-115426500D01*
X197543495Y-115426500D01*
X197159997Y-115502782D01*
X196798750Y-115652415D01*
X196473636Y-115869649D01*
X196197149Y-116146136D01*
X195979915Y-116471250D01*
X195830282Y-116832497D01*
X195754000Y-117215995D01*
X150702000Y-117215995D01*
X150625718Y-116832497D01*
X150476085Y-116471250D01*
X150258851Y-116146136D01*
X149982364Y-115869649D01*
X149657250Y-115652415D01*
X149296003Y-115502782D01*
X148912505Y-115426500D01*
X148521495Y-115426500D01*
X148137997Y-115502782D01*
X147776750Y-115652415D01*
X147451636Y-115869649D01*
X147175149Y-116146136D01*
X146957915Y-116471250D01*
X146808282Y-116832497D01*
X146732000Y-117215995D01*
X135704986Y-117215995D01*
X135705577Y-117214569D01*
X135751500Y-116983697D01*
X135751500Y-116748303D01*
X135705577Y-116517431D01*
X135615495Y-116299955D01*
X135484717Y-116104232D01*
X135318268Y-115937783D01*
X135122545Y-115807005D01*
X134905069Y-115716923D01*
X134674197Y-115671000D01*
X134438803Y-115671000D01*
X134207931Y-115716923D01*
X133990455Y-115807005D01*
X133794732Y-115937783D01*
X133628283Y-116104232D01*
X133497505Y-116299955D01*
X133407423Y-116517431D01*
X133390218Y-116603927D01*
X130671645Y-119322500D01*
X123137856Y-119322500D01*
X121502494Y-117687138D01*
X128834967Y-117687138D01*
X128877402Y-117906653D01*
X129091936Y-118003535D01*
X129321248Y-118056703D01*
X129556525Y-118064113D01*
X129788728Y-118025479D01*
X130008932Y-117942287D01*
X130075598Y-117906653D01*
X130118033Y-117687138D01*
X129476500Y-117045605D01*
X128834967Y-117687138D01*
X121502494Y-117687138D01*
X120761381Y-116946025D01*
X128278387Y-116946025D01*
X128317021Y-117178228D01*
X128400213Y-117398432D01*
X128435847Y-117465098D01*
X128655362Y-117507533D01*
X129296895Y-116866000D01*
X129656105Y-116866000D01*
X130297638Y-117507533D01*
X130517153Y-117465098D01*
X130614035Y-117250564D01*
X130667203Y-117021252D01*
X130674613Y-116785975D01*
X130635979Y-116553772D01*
X130552787Y-116333568D01*
X130517153Y-116266902D01*
X130297638Y-116224467D01*
X129656105Y-116866000D01*
X129296895Y-116866000D01*
X128655362Y-116224467D01*
X128435847Y-116266902D01*
X128338965Y-116481436D01*
X128285797Y-116710748D01*
X128278387Y-116946025D01*
X120761381Y-116946025D01*
X120617855Y-116802500D01*
X121375493Y-116044862D01*
X128834967Y-116044862D01*
X129476500Y-116686395D01*
X130118033Y-116044862D01*
X130075598Y-115825347D01*
X129861064Y-115728465D01*
X129631752Y-115675297D01*
X129396475Y-115667887D01*
X129164272Y-115706521D01*
X128944068Y-115789713D01*
X128877402Y-115825347D01*
X128834967Y-116044862D01*
X121375493Y-116044862D01*
X123805600Y-113614756D01*
X123844133Y-113583133D01*
X123970347Y-113429340D01*
X124064132Y-113253880D01*
X124087477Y-113176923D01*
X124121885Y-113063495D01*
X124141386Y-112865500D01*
X124136500Y-112815892D01*
X124136500Y-85227607D01*
X124279975Y-85084132D01*
X124396500Y-84909740D01*
X124513025Y-85084132D01*
X124719868Y-85290975D01*
X124963089Y-85453490D01*
X125233342Y-85565432D01*
X125520240Y-85622500D01*
X125812760Y-85622500D01*
X126099658Y-85565432D01*
X126369911Y-85453490D01*
X126613132Y-85290975D01*
X126819975Y-85084132D01*
X126936500Y-84909740D01*
X127053025Y-85084132D01*
X127259868Y-85290975D01*
X127503089Y-85453490D01*
X127773342Y-85565432D01*
X128060240Y-85622500D01*
X128352760Y-85622500D01*
X128639658Y-85565432D01*
X128909911Y-85453490D01*
X129153132Y-85290975D01*
X129359975Y-85084132D01*
X129522490Y-84840911D01*
X129634432Y-84570658D01*
X129691500Y-84283760D01*
X129691500Y-83991240D01*
X129647709Y-83771092D01*
X130950020Y-82468781D01*
X130950021Y-113778023D01*
X130867423Y-113977431D01*
X130821500Y-114208303D01*
X130821500Y-114443697D01*
X130867423Y-114674569D01*
X130957505Y-114892045D01*
X131088283Y-115087768D01*
X131254732Y-115254217D01*
X131450455Y-115384995D01*
X131667931Y-115475077D01*
X131898803Y-115521000D01*
X132134197Y-115521000D01*
X132365069Y-115475077D01*
X132582545Y-115384995D01*
X132778268Y-115254217D01*
X132944717Y-115087768D01*
X133075495Y-114892045D01*
X133165577Y-114674569D01*
X133211500Y-114443697D01*
X133211500Y-114208303D01*
X133165577Y-113977431D01*
X133075495Y-113759955D01*
X132944717Y-113564232D01*
X132778268Y-113397783D01*
X132582545Y-113267005D01*
X132470020Y-113220395D01*
X132470020Y-57580000D01*
X133535928Y-57580000D01*
X133548188Y-57704482D01*
X133584498Y-57824180D01*
X133643463Y-57934494D01*
X133722815Y-58031185D01*
X133802594Y-58096658D01*
X133796038Y-58102038D01*
X133685595Y-58236613D01*
X133603528Y-58390149D01*
X133552992Y-58556745D01*
X133535928Y-58729999D01*
X133535928Y-59380001D01*
X133552992Y-59553255D01*
X133603528Y-59719851D01*
X133685595Y-59873387D01*
X133796038Y-60007962D01*
X133930613Y-60118405D01*
X133989001Y-60149614D01*
X133989000Y-60164886D01*
X133930613Y-60196095D01*
X133796038Y-60306538D01*
X133685595Y-60441113D01*
X133603528Y-60594649D01*
X133552992Y-60761245D01*
X133535928Y-60934499D01*
X133535928Y-61584501D01*
X133552992Y-61757755D01*
X133603528Y-61924351D01*
X133685595Y-62077887D01*
X133796038Y-62212462D01*
X133883816Y-62284500D01*
X133796038Y-62356538D01*
X133685595Y-62491113D01*
X133603528Y-62644649D01*
X133552992Y-62811245D01*
X133535928Y-62984499D01*
X133535928Y-63634501D01*
X133552992Y-63807755D01*
X133603528Y-63974351D01*
X133685595Y-64127887D01*
X133796038Y-64262462D01*
X133930613Y-64372905D01*
X133989001Y-64404114D01*
X133989000Y-78328546D01*
X133956795Y-78376744D01*
X133878774Y-78565102D01*
X133839000Y-78765061D01*
X133839000Y-78968939D01*
X133878774Y-79168898D01*
X133956795Y-79357256D01*
X134070063Y-79526774D01*
X134214226Y-79670937D01*
X134383744Y-79784205D01*
X134572102Y-79862226D01*
X134628957Y-79873535D01*
X137646470Y-82891049D01*
X137674183Y-82924817D01*
X137707951Y-82952530D01*
X137707953Y-82952532D01*
X137754326Y-82990589D01*
X137808941Y-83035411D01*
X137962687Y-83117589D01*
X138129510Y-83168195D01*
X138259523Y-83181000D01*
X138259533Y-83181000D01*
X138302999Y-83185281D01*
X138346465Y-83181000D01*
X168594791Y-83181000D01*
X168701038Y-83310462D01*
X168769000Y-83366237D01*
X168769001Y-111503875D01*
X168764538Y-111507538D01*
X168654095Y-111642113D01*
X168572028Y-111795649D01*
X168521492Y-111962245D01*
X168504428Y-112135499D01*
X168504428Y-113035501D01*
X168521492Y-113208755D01*
X168572028Y-113375351D01*
X168654095Y-113528887D01*
X168764538Y-113663462D01*
X168899113Y-113773905D01*
X169052649Y-113855972D01*
X169219245Y-113906508D01*
X169392499Y-113923572D01*
X170042501Y-113923572D01*
X170215755Y-113906508D01*
X170382351Y-113855972D01*
X170535887Y-113773905D01*
X170670462Y-113663462D01*
X170742500Y-113575684D01*
X170814538Y-113663462D01*
X170949113Y-113773905D01*
X171102649Y-113855972D01*
X171269245Y-113906508D01*
X171442499Y-113923572D01*
X172092501Y-113923572D01*
X172265755Y-113906508D01*
X172432351Y-113855972D01*
X172585887Y-113773905D01*
X172720462Y-113663462D01*
X172830905Y-113528887D01*
X172862114Y-113470500D01*
X173212886Y-113470500D01*
X173244095Y-113528887D01*
X173354538Y-113663462D01*
X173489113Y-113773905D01*
X173642649Y-113855972D01*
X173809245Y-113906508D01*
X173982499Y-113923572D01*
X174632501Y-113923572D01*
X174805755Y-113906508D01*
X174972351Y-113855972D01*
X175125887Y-113773905D01*
X175260462Y-113663462D01*
X175265842Y-113656906D01*
X175331315Y-113736685D01*
X175428006Y-113816037D01*
X175538320Y-113875002D01*
X175658018Y-113911312D01*
X175782500Y-113923572D01*
X176071750Y-113920500D01*
X176230500Y-113761750D01*
X176230500Y-112712500D01*
X176484500Y-112712500D01*
X176484500Y-113761750D01*
X176643250Y-113920500D01*
X176932500Y-113923572D01*
X177056982Y-113911312D01*
X177176680Y-113875002D01*
X177286994Y-113816037D01*
X177383685Y-113736685D01*
X177463037Y-113639994D01*
X177522002Y-113529680D01*
X177558312Y-113409982D01*
X177570572Y-113285500D01*
X177567500Y-112871250D01*
X177408750Y-112712500D01*
X176484500Y-112712500D01*
X176230500Y-112712500D01*
X176210500Y-112712500D01*
X176210500Y-112458500D01*
X176230500Y-112458500D01*
X176230500Y-111409250D01*
X176484500Y-111409250D01*
X176484500Y-112458500D01*
X177408750Y-112458500D01*
X177567500Y-112299750D01*
X177570572Y-111885500D01*
X177558312Y-111761018D01*
X177522002Y-111641320D01*
X177463037Y-111531006D01*
X177383685Y-111434315D01*
X177286994Y-111354963D01*
X177176680Y-111295998D01*
X177056982Y-111259688D01*
X176932500Y-111247428D01*
X176643250Y-111250500D01*
X176484500Y-111409250D01*
X176230500Y-111409250D01*
X176071750Y-111250500D01*
X175782500Y-111247428D01*
X175658018Y-111259688D01*
X175538320Y-111295998D01*
X175428006Y-111354963D01*
X175331315Y-111434315D01*
X175265842Y-111514094D01*
X175260462Y-111507538D01*
X175125887Y-111397095D01*
X174972351Y-111315028D01*
X174805755Y-111264492D01*
X174632501Y-111247428D01*
X173982499Y-111247428D01*
X173809245Y-111264492D01*
X173642649Y-111315028D01*
X173489113Y-111397095D01*
X173354538Y-111507538D01*
X173244095Y-111642113D01*
X173212886Y-111700500D01*
X172862114Y-111700500D01*
X172830905Y-111642113D01*
X172720462Y-111507538D01*
X172585887Y-111397095D01*
X172432351Y-111315028D01*
X172265755Y-111264492D01*
X172092501Y-111247428D01*
X171442499Y-111247428D01*
X171269245Y-111264492D01*
X171102649Y-111315028D01*
X170949113Y-111397095D01*
X170814538Y-111507538D01*
X170742500Y-111595316D01*
X170670462Y-111507538D01*
X170539000Y-111399650D01*
X170539000Y-83366237D01*
X170606962Y-83310462D01*
X170679000Y-83222684D01*
X170751038Y-83310462D01*
X170885613Y-83420905D01*
X171039149Y-83502972D01*
X171205745Y-83553508D01*
X171378999Y-83570572D01*
X172029001Y-83570572D01*
X172202255Y-83553508D01*
X172368851Y-83502972D01*
X172522387Y-83420905D01*
X172656962Y-83310462D01*
X172767405Y-83175887D01*
X172798614Y-83117500D01*
X173194886Y-83117500D01*
X173226095Y-83175887D01*
X173336538Y-83310462D01*
X173471113Y-83420905D01*
X173624649Y-83502972D01*
X173791245Y-83553508D01*
X173964499Y-83570572D01*
X174614501Y-83570572D01*
X174787755Y-83553508D01*
X174954351Y-83502972D01*
X175107887Y-83420905D01*
X175242462Y-83310462D01*
X175247842Y-83303906D01*
X175313315Y-83383685D01*
X175410006Y-83463037D01*
X175520320Y-83522002D01*
X175640018Y-83558312D01*
X175764500Y-83570572D01*
X176053750Y-83567500D01*
X176212500Y-83408750D01*
X176212500Y-82359500D01*
X176466500Y-82359500D01*
X176466500Y-83408750D01*
X176625250Y-83567500D01*
X176914500Y-83570572D01*
X177038982Y-83558312D01*
X177158680Y-83522002D01*
X177268994Y-83463037D01*
X177365685Y-83383685D01*
X177445037Y-83286994D01*
X177504002Y-83176680D01*
X177540312Y-83056982D01*
X177552572Y-82932500D01*
X177549500Y-82518250D01*
X177390750Y-82359500D01*
X176466500Y-82359500D01*
X176212500Y-82359500D01*
X176192500Y-82359500D01*
X176192500Y-82105500D01*
X176212500Y-82105500D01*
X176212500Y-81056250D01*
X176466500Y-81056250D01*
X176466500Y-82105500D01*
X177390750Y-82105500D01*
X177549500Y-81946750D01*
X177552572Y-81532500D01*
X177540312Y-81408018D01*
X177504002Y-81288320D01*
X177445037Y-81178006D01*
X177365685Y-81081315D01*
X177268994Y-81001963D01*
X177158680Y-80942998D01*
X177038982Y-80906688D01*
X176914500Y-80894428D01*
X176625250Y-80897500D01*
X176466500Y-81056250D01*
X176212500Y-81056250D01*
X176053750Y-80897500D01*
X175764500Y-80894428D01*
X175640018Y-80906688D01*
X175520320Y-80942998D01*
X175410006Y-81001963D01*
X175313315Y-81081315D01*
X175247842Y-81161094D01*
X175242462Y-81154538D01*
X175107887Y-81044095D01*
X174954351Y-80962028D01*
X174787755Y-80911492D01*
X174614501Y-80894428D01*
X173964499Y-80894428D01*
X173791245Y-80911492D01*
X173624649Y-80962028D01*
X173471113Y-81044095D01*
X173336538Y-81154538D01*
X173226095Y-81289113D01*
X173194886Y-81347500D01*
X172798614Y-81347500D01*
X172767405Y-81289113D01*
X172656962Y-81154538D01*
X172522387Y-81044095D01*
X172368851Y-80962028D01*
X172202255Y-80911492D01*
X172029001Y-80894428D01*
X171378999Y-80894428D01*
X171205745Y-80911492D01*
X171039149Y-80962028D01*
X170885613Y-81044095D01*
X170751038Y-81154538D01*
X170679000Y-81242316D01*
X170606962Y-81154538D01*
X170602500Y-81150876D01*
X170602500Y-59176995D01*
X195754000Y-59176995D01*
X195754000Y-59568005D01*
X195830282Y-59951503D01*
X195979915Y-60312750D01*
X196197149Y-60637864D01*
X196473636Y-60914351D01*
X196798750Y-61131585D01*
X197159997Y-61281218D01*
X197543495Y-61357500D01*
X197934505Y-61357500D01*
X198318003Y-61281218D01*
X198679250Y-61131585D01*
X199004364Y-60914351D01*
X199280851Y-60637864D01*
X199498085Y-60312750D01*
X199647718Y-59951503D01*
X199724000Y-59568005D01*
X199724000Y-59176995D01*
X199647718Y-58793497D01*
X199498085Y-58432250D01*
X199280851Y-58107136D01*
X199004364Y-57830649D01*
X198679250Y-57613415D01*
X198318003Y-57463782D01*
X197934505Y-57387500D01*
X197543495Y-57387500D01*
X197159997Y-57463782D01*
X196798750Y-57613415D01*
X196473636Y-57830649D01*
X196197149Y-58107136D01*
X195979915Y-58432250D01*
X195830282Y-58793497D01*
X195754000Y-59176995D01*
X170602500Y-59176995D01*
X170602500Y-52632237D01*
X170670462Y-52576462D01*
X170742500Y-52488684D01*
X170814538Y-52576462D01*
X170949113Y-52686905D01*
X171102649Y-52768972D01*
X171269245Y-52819508D01*
X171442499Y-52836572D01*
X172092501Y-52836572D01*
X172265755Y-52819508D01*
X172432351Y-52768972D01*
X172585887Y-52686905D01*
X172720462Y-52576462D01*
X172830905Y-52441887D01*
X172862114Y-52383500D01*
X173203886Y-52383500D01*
X173235095Y-52441887D01*
X173345538Y-52576462D01*
X173480113Y-52686905D01*
X173633649Y-52768972D01*
X173800245Y-52819508D01*
X173973499Y-52836572D01*
X174623501Y-52836572D01*
X174796755Y-52819508D01*
X174963351Y-52768972D01*
X175116887Y-52686905D01*
X175251462Y-52576462D01*
X175256842Y-52569906D01*
X175322315Y-52649685D01*
X175419006Y-52729037D01*
X175529320Y-52788002D01*
X175649018Y-52824312D01*
X175773500Y-52836572D01*
X176062750Y-52833500D01*
X176221500Y-52674750D01*
X176221500Y-51625500D01*
X176475500Y-51625500D01*
X176475500Y-52674750D01*
X176634250Y-52833500D01*
X176923500Y-52836572D01*
X177047982Y-52824312D01*
X177167680Y-52788002D01*
X177277994Y-52729037D01*
X177374685Y-52649685D01*
X177454037Y-52552994D01*
X177513002Y-52442680D01*
X177549312Y-52322982D01*
X177561572Y-52198500D01*
X177558500Y-51784250D01*
X177399750Y-51625500D01*
X176475500Y-51625500D01*
X176221500Y-51625500D01*
X176201500Y-51625500D01*
X176201500Y-51371500D01*
X176221500Y-51371500D01*
X176221500Y-50322250D01*
X176475500Y-50322250D01*
X176475500Y-51371500D01*
X177399750Y-51371500D01*
X177558500Y-51212750D01*
X177561572Y-50798500D01*
X177549312Y-50674018D01*
X177513002Y-50554320D01*
X177454037Y-50444006D01*
X177374685Y-50347315D01*
X177277994Y-50267963D01*
X177167680Y-50208998D01*
X177047982Y-50172688D01*
X176923500Y-50160428D01*
X176634250Y-50163500D01*
X176475500Y-50322250D01*
X176221500Y-50322250D01*
X176062750Y-50163500D01*
X175773500Y-50160428D01*
X175649018Y-50172688D01*
X175529320Y-50208998D01*
X175419006Y-50267963D01*
X175322315Y-50347315D01*
X175256842Y-50427094D01*
X175251462Y-50420538D01*
X175116887Y-50310095D01*
X174963351Y-50228028D01*
X174796755Y-50177492D01*
X174623501Y-50160428D01*
X173973499Y-50160428D01*
X173800245Y-50177492D01*
X173633649Y-50228028D01*
X173480113Y-50310095D01*
X173345538Y-50420538D01*
X173235095Y-50555113D01*
X173203886Y-50613500D01*
X172862114Y-50613500D01*
X172830905Y-50555113D01*
X172720462Y-50420538D01*
X172585887Y-50310095D01*
X172432351Y-50228028D01*
X172265755Y-50177492D01*
X172092501Y-50160428D01*
X171442499Y-50160428D01*
X171269245Y-50177492D01*
X171102649Y-50228028D01*
X170949113Y-50310095D01*
X170814538Y-50420538D01*
X170742500Y-50508316D01*
X170726616Y-50488962D01*
X171689579Y-49526000D01*
X173261046Y-49526000D01*
X173309244Y-49558205D01*
X173497602Y-49636226D01*
X173697561Y-49676000D01*
X173901439Y-49676000D01*
X174101398Y-49636226D01*
X174289756Y-49558205D01*
X174459274Y-49444937D01*
X174603437Y-49300774D01*
X174716705Y-49131256D01*
X174794726Y-48942898D01*
X174834500Y-48742939D01*
X174834500Y-48539061D01*
X174794726Y-48339102D01*
X174716705Y-48150744D01*
X174603437Y-47981226D01*
X174459274Y-47837063D01*
X174289756Y-47723795D01*
X174101398Y-47645774D01*
X173901439Y-47606000D01*
X173697561Y-47606000D01*
X173497602Y-47645774D01*
X173309244Y-47723795D01*
X173261046Y-47756000D01*
X171366469Y-47756000D01*
X171323000Y-47751719D01*
X171279531Y-47756000D01*
X171279523Y-47756000D01*
X171149510Y-47768805D01*
X170982687Y-47819411D01*
X170828941Y-47901589D01*
X170727953Y-47984468D01*
X170727951Y-47984470D01*
X170694183Y-48012183D01*
X170666470Y-48045951D01*
X169122456Y-49589966D01*
X169088683Y-49617683D01*
X168978089Y-49752442D01*
X168895911Y-49906188D01*
X168884744Y-49943001D01*
X168855934Y-50037974D01*
X168845305Y-50073011D01*
X168832500Y-50203024D01*
X168832500Y-50203031D01*
X168828219Y-50246500D01*
X168832500Y-50289970D01*
X168832500Y-50364763D01*
X168764538Y-50420538D01*
X168654095Y-50555113D01*
X168572028Y-50708649D01*
X168521492Y-50875245D01*
X168504428Y-51048499D01*
X168504428Y-51948501D01*
X168521492Y-52121755D01*
X168572028Y-52288351D01*
X168654095Y-52441887D01*
X168764538Y-52576462D01*
X168832500Y-52632237D01*
X168832501Y-81046649D01*
X168701038Y-81154538D01*
X168590595Y-81289113D01*
X168525445Y-81411000D01*
X138669579Y-81411000D01*
X135880535Y-78621957D01*
X135869226Y-78565102D01*
X135791205Y-78376744D01*
X135759000Y-78328546D01*
X135759000Y-77951353D01*
X140743500Y-77951353D01*
X140743500Y-78258647D01*
X140803450Y-78560035D01*
X140921046Y-78843937D01*
X141091769Y-79099442D01*
X141309058Y-79316731D01*
X141564563Y-79487454D01*
X141848465Y-79605050D01*
X142149853Y-79665000D01*
X142457147Y-79665000D01*
X142758535Y-79605050D01*
X143042437Y-79487454D01*
X143297942Y-79316731D01*
X143515231Y-79099442D01*
X143685954Y-78843937D01*
X143803550Y-78560035D01*
X143863500Y-78258647D01*
X143863500Y-77951353D01*
X143803550Y-77649965D01*
X143685954Y-77366063D01*
X143515231Y-77110558D01*
X143418771Y-77014098D01*
X143521594Y-76959137D01*
X143618285Y-76879785D01*
X143697637Y-76783094D01*
X143756602Y-76672780D01*
X143792912Y-76553082D01*
X143805172Y-76428600D01*
X143805172Y-74701400D01*
X143792912Y-74576918D01*
X143756602Y-74457220D01*
X143697637Y-74346906D01*
X143618285Y-74250215D01*
X143521594Y-74170863D01*
X143411280Y-74111898D01*
X143353477Y-74094364D01*
X143467539Y-73980302D01*
X143631542Y-73734853D01*
X143744510Y-73462125D01*
X143802100Y-73172599D01*
X143802100Y-72877401D01*
X143744510Y-72587875D01*
X143631542Y-72315147D01*
X143467539Y-72069698D01*
X143258802Y-71860961D01*
X143100219Y-71755000D01*
X143258802Y-71649039D01*
X143467539Y-71440302D01*
X143631542Y-71194853D01*
X143744510Y-70922125D01*
X143802100Y-70632599D01*
X143802100Y-70337401D01*
X143744510Y-70047875D01*
X143631542Y-69775147D01*
X143467539Y-69529698D01*
X143258802Y-69320961D01*
X143090625Y-69208589D01*
X143161999Y-68983104D01*
X142303500Y-68124605D01*
X141445001Y-68983104D01*
X141516375Y-69208589D01*
X141348198Y-69320961D01*
X141139461Y-69529698D01*
X140975458Y-69775147D01*
X140862490Y-70047875D01*
X140804900Y-70337401D01*
X140804900Y-70632599D01*
X140862490Y-70922125D01*
X140975458Y-71194853D01*
X141139461Y-71440302D01*
X141348198Y-71649039D01*
X141506781Y-71755000D01*
X141348198Y-71860961D01*
X141139461Y-72069698D01*
X140975458Y-72315147D01*
X140862490Y-72587875D01*
X140804900Y-72877401D01*
X140804900Y-73172599D01*
X140862490Y-73462125D01*
X140975458Y-73734853D01*
X141139461Y-73980302D01*
X141253523Y-74094364D01*
X141195720Y-74111898D01*
X141085406Y-74170863D01*
X140988715Y-74250215D01*
X140909363Y-74346906D01*
X140850398Y-74457220D01*
X140814088Y-74576918D01*
X140801828Y-74701400D01*
X140801828Y-76428600D01*
X140814088Y-76553082D01*
X140850398Y-76672780D01*
X140909363Y-76783094D01*
X140988715Y-76879785D01*
X141085406Y-76959137D01*
X141188229Y-77014098D01*
X141091769Y-77110558D01*
X140921046Y-77366063D01*
X140803450Y-77649965D01*
X140743500Y-77951353D01*
X135759000Y-77951353D01*
X135759000Y-68012993D01*
X140799185Y-68012993D01*
X140841355Y-68305164D01*
X140939714Y-68583493D01*
X141014933Y-68724218D01*
X141265396Y-68803499D01*
X142123895Y-67945000D01*
X142483105Y-67945000D01*
X143341604Y-68803499D01*
X143592067Y-68724218D01*
X143719326Y-68457859D01*
X143792175Y-68171790D01*
X143807815Y-67877007D01*
X143765645Y-67584836D01*
X143667286Y-67306507D01*
X143592067Y-67165782D01*
X143341604Y-67086501D01*
X142483105Y-67945000D01*
X142123895Y-67945000D01*
X141265396Y-67086501D01*
X141014933Y-67165782D01*
X140887674Y-67432141D01*
X140814825Y-67718210D01*
X140799185Y-68012993D01*
X135759000Y-68012993D01*
X135759000Y-64404114D01*
X135817387Y-64372905D01*
X135951962Y-64262462D01*
X136007737Y-64194500D01*
X136037031Y-64194500D01*
X136080500Y-64198781D01*
X136123969Y-64194500D01*
X136123977Y-64194500D01*
X136253990Y-64181695D01*
X136420813Y-64131089D01*
X136574559Y-64048911D01*
X136709317Y-63938317D01*
X136737034Y-63904544D01*
X138072549Y-62569030D01*
X138106317Y-62541317D01*
X138216911Y-62406559D01*
X138299089Y-62252813D01*
X138349695Y-62085990D01*
X138362500Y-61955977D01*
X138362500Y-61955967D01*
X138366781Y-61912501D01*
X138362500Y-61869035D01*
X138362500Y-46194954D01*
X138394705Y-46146756D01*
X138472726Y-45958398D01*
X138512500Y-45758439D01*
X138512500Y-45554561D01*
X138472726Y-45354602D01*
X138394705Y-45166244D01*
X138281437Y-44996726D01*
X138137274Y-44852563D01*
X137967756Y-44739295D01*
X137779398Y-44661274D01*
X137579439Y-44621500D01*
X137375561Y-44621500D01*
X137175602Y-44661274D01*
X136987244Y-44739295D01*
X136817726Y-44852563D01*
X136673563Y-44996726D01*
X136560295Y-45166244D01*
X136482274Y-45354602D01*
X136442500Y-45554561D01*
X136442500Y-45758439D01*
X136482274Y-45958398D01*
X136560295Y-46146756D01*
X136592500Y-46194954D01*
X136592501Y-61545920D01*
X136064553Y-62073869D01*
X136144472Y-61924351D01*
X136195008Y-61757755D01*
X136212072Y-61584501D01*
X136212072Y-60934499D01*
X136195008Y-60761245D01*
X136144472Y-60594649D01*
X136062405Y-60441113D01*
X135951962Y-60306538D01*
X135817387Y-60196095D01*
X135759000Y-60164886D01*
X135759000Y-60149614D01*
X135817387Y-60118405D01*
X135951962Y-60007962D01*
X136062405Y-59873387D01*
X136144472Y-59719851D01*
X136195008Y-59553255D01*
X136212072Y-59380001D01*
X136212072Y-58729999D01*
X136195008Y-58556745D01*
X136144472Y-58390149D01*
X136062405Y-58236613D01*
X135951962Y-58102038D01*
X135945406Y-58096658D01*
X136025185Y-58031185D01*
X136104537Y-57934494D01*
X136163502Y-57824180D01*
X136199812Y-57704482D01*
X136212072Y-57580000D01*
X136209000Y-57290750D01*
X136050250Y-57132000D01*
X135001000Y-57132000D01*
X135001000Y-57152000D01*
X134747000Y-57152000D01*
X134747000Y-57132000D01*
X133697750Y-57132000D01*
X133539000Y-57290750D01*
X133535928Y-57580000D01*
X132470020Y-57580000D01*
X132470020Y-56430000D01*
X133535928Y-56430000D01*
X133539000Y-56719250D01*
X133697750Y-56878000D01*
X134747000Y-56878000D01*
X134747000Y-55953750D01*
X135001000Y-55953750D01*
X135001000Y-56878000D01*
X136050250Y-56878000D01*
X136209000Y-56719250D01*
X136212072Y-56430000D01*
X136199812Y-56305518D01*
X136163502Y-56185820D01*
X136104537Y-56075506D01*
X136025185Y-55978815D01*
X135928494Y-55899463D01*
X135818180Y-55840498D01*
X135698482Y-55804188D01*
X135574000Y-55791928D01*
X135159750Y-55795000D01*
X135001000Y-55953750D01*
X134747000Y-55953750D01*
X134588250Y-55795000D01*
X134174000Y-55791928D01*
X134049518Y-55804188D01*
X133929820Y-55840498D01*
X133819506Y-55899463D01*
X133722815Y-55978815D01*
X133643463Y-56075506D01*
X133584498Y-56185820D01*
X133548188Y-56305518D01*
X133535928Y-56430000D01*
X132470020Y-56430000D01*
X132470020Y-54848853D01*
X132473697Y-54811520D01*
X132459023Y-54662534D01*
X132415566Y-54519273D01*
X132344994Y-54387244D01*
X132273819Y-54300517D01*
X132250021Y-54271519D01*
X132221024Y-54247722D01*
X128516276Y-50542975D01*
X128562100Y-50312599D01*
X128562100Y-50017401D01*
X128504510Y-49727875D01*
X128391542Y-49455147D01*
X128227539Y-49209698D01*
X128018802Y-49000961D01*
X127860219Y-48895000D01*
X128018802Y-48789039D01*
X128227539Y-48580302D01*
X128391542Y-48334853D01*
X128504510Y-48062125D01*
X128562100Y-47772599D01*
X128562100Y-47477401D01*
X128504510Y-47187875D01*
X128391542Y-46915147D01*
X128227539Y-46669698D01*
X128018802Y-46460961D01*
X127860219Y-46355000D01*
X128018802Y-46249039D01*
X128227539Y-46040302D01*
X128391542Y-45794853D01*
X128504510Y-45522125D01*
X128562100Y-45232599D01*
X128562100Y-44937401D01*
X128504510Y-44647875D01*
X128391542Y-44375147D01*
X128227539Y-44129698D01*
X128018802Y-43920961D01*
X127860219Y-43815000D01*
X128018802Y-43709039D01*
X128227539Y-43500302D01*
X128391542Y-43254853D01*
X128504510Y-42982125D01*
X128562100Y-42692599D01*
X128562100Y-42397401D01*
X128504510Y-42107875D01*
X128391542Y-41835147D01*
X128227539Y-41589698D01*
X128018802Y-41380961D01*
X127860219Y-41275000D01*
X128018802Y-41169039D01*
X128227539Y-40960302D01*
X128391542Y-40714853D01*
X128504510Y-40442125D01*
X128562100Y-40152599D01*
X128562100Y-39857401D01*
X128504510Y-39567875D01*
X128391542Y-39295147D01*
X128227539Y-39049698D01*
X128018802Y-38840961D01*
X127915478Y-38771922D01*
X128057942Y-38676731D01*
X128275231Y-38459442D01*
X128445954Y-38203937D01*
X128563550Y-37920035D01*
X128623500Y-37618647D01*
X128623500Y-37311353D01*
X128563550Y-37009965D01*
X128445954Y-36726063D01*
X128319960Y-36537500D01*
X141047040Y-36537500D01*
X140921046Y-36726063D01*
X140803450Y-37009965D01*
X140743500Y-37311353D01*
X140743500Y-37618647D01*
X140803450Y-37920035D01*
X140921046Y-38203937D01*
X141091769Y-38459442D01*
X141309058Y-38676731D01*
X141451522Y-38771922D01*
X141348198Y-38840961D01*
X141139461Y-39049698D01*
X140975458Y-39295147D01*
X140862490Y-39567875D01*
X140804900Y-39857401D01*
X140804900Y-40152599D01*
X140862490Y-40442125D01*
X140975458Y-40714853D01*
X141139461Y-40960302D01*
X141348198Y-41169039D01*
X141506781Y-41275000D01*
X141348198Y-41380961D01*
X141139461Y-41589698D01*
X140975458Y-41835147D01*
X140862490Y-42107875D01*
X140804900Y-42397401D01*
X140804900Y-42692599D01*
X140862490Y-42982125D01*
X140975458Y-43254853D01*
X141139461Y-43500302D01*
X141348198Y-43709039D01*
X141506781Y-43815000D01*
X141348198Y-43920961D01*
X141139461Y-44129698D01*
X140975458Y-44375147D01*
X140862490Y-44647875D01*
X140804900Y-44937401D01*
X140804900Y-45232599D01*
X140862490Y-45522125D01*
X140975458Y-45794853D01*
X141139461Y-46040302D01*
X141348198Y-46249039D01*
X141506781Y-46355000D01*
X141348198Y-46460961D01*
X141139461Y-46669698D01*
X140975458Y-46915147D01*
X140862490Y-47187875D01*
X140804900Y-47477401D01*
X140804900Y-47772599D01*
X140862490Y-48062125D01*
X140975458Y-48334853D01*
X141139461Y-48580302D01*
X141348198Y-48789039D01*
X141506781Y-48895000D01*
X141348198Y-49000961D01*
X141139461Y-49209698D01*
X140975458Y-49455147D01*
X140862490Y-49727875D01*
X140804900Y-50017401D01*
X140804900Y-50312599D01*
X140862490Y-50602125D01*
X140975458Y-50874853D01*
X141139461Y-51120302D01*
X141348198Y-51329039D01*
X141506781Y-51435000D01*
X141348198Y-51540961D01*
X141139461Y-51749698D01*
X140975458Y-51995147D01*
X140862490Y-52267875D01*
X140804900Y-52557401D01*
X140804900Y-52852599D01*
X140862490Y-53142125D01*
X140975458Y-53414853D01*
X141139461Y-53660302D01*
X141348198Y-53869039D01*
X141506781Y-53975000D01*
X141348198Y-54080961D01*
X141139461Y-54289698D01*
X140975458Y-54535147D01*
X140862490Y-54807875D01*
X140804900Y-55097401D01*
X140804900Y-55392599D01*
X140862490Y-55682125D01*
X140975458Y-55954853D01*
X141139461Y-56200302D01*
X141348198Y-56409039D01*
X141506781Y-56515000D01*
X141348198Y-56620961D01*
X141139461Y-56829698D01*
X140975458Y-57075147D01*
X140862490Y-57347875D01*
X140804900Y-57637401D01*
X140804900Y-57932599D01*
X140862490Y-58222125D01*
X140975458Y-58494853D01*
X141139461Y-58740302D01*
X141348198Y-58949039D01*
X141506781Y-59055000D01*
X141348198Y-59160961D01*
X141139461Y-59369698D01*
X140975458Y-59615147D01*
X140862490Y-59887875D01*
X140804900Y-60177401D01*
X140804900Y-60472599D01*
X140862490Y-60762125D01*
X140975458Y-61034853D01*
X141139461Y-61280302D01*
X141348198Y-61489039D01*
X141506781Y-61595000D01*
X141348198Y-61700961D01*
X141139461Y-61909698D01*
X140975458Y-62155147D01*
X140862490Y-62427875D01*
X140804900Y-62717401D01*
X140804900Y-63012599D01*
X140862490Y-63302125D01*
X140975458Y-63574853D01*
X141139461Y-63820302D01*
X141348198Y-64029039D01*
X141506781Y-64135000D01*
X141348198Y-64240961D01*
X141139461Y-64449698D01*
X140975458Y-64695147D01*
X140862490Y-64967875D01*
X140804900Y-65257401D01*
X140804900Y-65552599D01*
X140862490Y-65842125D01*
X140975458Y-66114853D01*
X141139461Y-66360302D01*
X141348198Y-66569039D01*
X141516375Y-66681411D01*
X141445001Y-66906896D01*
X142303500Y-67765395D01*
X143161999Y-66906896D01*
X143090625Y-66681411D01*
X143258802Y-66569039D01*
X143467539Y-66360302D01*
X143631542Y-66114853D01*
X143744510Y-65842125D01*
X143802100Y-65552599D01*
X143802100Y-65257401D01*
X143744510Y-64967875D01*
X143631542Y-64695147D01*
X143467539Y-64449698D01*
X143258802Y-64240961D01*
X143100219Y-64135000D01*
X143258802Y-64029039D01*
X143467539Y-63820302D01*
X143631542Y-63574853D01*
X143744510Y-63302125D01*
X143802100Y-63012599D01*
X143802100Y-62717401D01*
X143744510Y-62427875D01*
X143631542Y-62155147D01*
X143467539Y-61909698D01*
X143258802Y-61700961D01*
X143100219Y-61595000D01*
X143258802Y-61489039D01*
X143467539Y-61280302D01*
X143631542Y-61034853D01*
X143744510Y-60762125D01*
X143802100Y-60472599D01*
X143802100Y-60177401D01*
X143744510Y-59887875D01*
X143631542Y-59615147D01*
X143467539Y-59369698D01*
X143274836Y-59176995D01*
X146732000Y-59176995D01*
X146732000Y-59568005D01*
X146808282Y-59951503D01*
X146957915Y-60312750D01*
X147175149Y-60637864D01*
X147451636Y-60914351D01*
X147776750Y-61131585D01*
X148137997Y-61281218D01*
X148521495Y-61357500D01*
X148912505Y-61357500D01*
X149296003Y-61281218D01*
X149657250Y-61131585D01*
X149982364Y-60914351D01*
X150258851Y-60637864D01*
X150476085Y-60312750D01*
X150625718Y-59951503D01*
X150702000Y-59568005D01*
X150702000Y-59176995D01*
X150625718Y-58793497D01*
X150476085Y-58432250D01*
X150258851Y-58107136D01*
X149982364Y-57830649D01*
X149657250Y-57613415D01*
X149296003Y-57463782D01*
X148912505Y-57387500D01*
X148521495Y-57387500D01*
X148137997Y-57463782D01*
X147776750Y-57613415D01*
X147451636Y-57830649D01*
X147175149Y-58107136D01*
X146957915Y-58432250D01*
X146808282Y-58793497D01*
X146732000Y-59176995D01*
X143274836Y-59176995D01*
X143258802Y-59160961D01*
X143100219Y-59055000D01*
X143258802Y-58949039D01*
X143467539Y-58740302D01*
X143631542Y-58494853D01*
X143744510Y-58222125D01*
X143802100Y-57932599D01*
X143802100Y-57637401D01*
X143744510Y-57347875D01*
X143631542Y-57075147D01*
X143467539Y-56829698D01*
X143258802Y-56620961D01*
X143100219Y-56515000D01*
X143258802Y-56409039D01*
X143467539Y-56200302D01*
X143631542Y-55954853D01*
X143744510Y-55682125D01*
X143802100Y-55392599D01*
X143802100Y-55097401D01*
X143744510Y-54807875D01*
X143631542Y-54535147D01*
X143467539Y-54289698D01*
X143258802Y-54080961D01*
X143100219Y-53975000D01*
X143258802Y-53869039D01*
X143467539Y-53660302D01*
X143631542Y-53414853D01*
X143744510Y-53142125D01*
X143802100Y-52852599D01*
X143802100Y-52557401D01*
X143744510Y-52267875D01*
X143631542Y-51995147D01*
X143467539Y-51749698D01*
X143258802Y-51540961D01*
X143100219Y-51435000D01*
X143258802Y-51329039D01*
X143467539Y-51120302D01*
X143631542Y-50874853D01*
X143744510Y-50602125D01*
X143802100Y-50312599D01*
X143802100Y-50017401D01*
X143744510Y-49727875D01*
X143631542Y-49455147D01*
X143467539Y-49209698D01*
X143258802Y-49000961D01*
X143100219Y-48895000D01*
X143258802Y-48789039D01*
X143467539Y-48580302D01*
X143631542Y-48334853D01*
X143744510Y-48062125D01*
X143802100Y-47772599D01*
X143802100Y-47477401D01*
X143744510Y-47187875D01*
X143631542Y-46915147D01*
X143467539Y-46669698D01*
X143258802Y-46460961D01*
X143100219Y-46355000D01*
X143258802Y-46249039D01*
X143467539Y-46040302D01*
X143631542Y-45794853D01*
X143744510Y-45522125D01*
X143802100Y-45232599D01*
X143802100Y-44937401D01*
X143744510Y-44647875D01*
X143631542Y-44375147D01*
X143467539Y-44129698D01*
X143258802Y-43920961D01*
X143100219Y-43815000D01*
X143258802Y-43709039D01*
X143467539Y-43500302D01*
X143631542Y-43254853D01*
X143674819Y-43150372D01*
X204965500Y-43150372D01*
X204965500Y-43590628D01*
X205051390Y-44022425D01*
X205219869Y-44429169D01*
X205464462Y-44795229D01*
X205775771Y-45106538D01*
X206141831Y-45351131D01*
X206548575Y-45519610D01*
X206980372Y-45605500D01*
X207420628Y-45605500D01*
X207852425Y-45519610D01*
X208259169Y-45351131D01*
X208625229Y-45106538D01*
X208936538Y-44795229D01*
X209181131Y-44429169D01*
X209349610Y-44022425D01*
X209435500Y-43590628D01*
X209435500Y-43150372D01*
X209349610Y-42718575D01*
X209181131Y-42311831D01*
X208936538Y-41945771D01*
X208625229Y-41634462D01*
X208259169Y-41389869D01*
X207852425Y-41221390D01*
X207420628Y-41135500D01*
X206980372Y-41135500D01*
X206548575Y-41221390D01*
X206141831Y-41389869D01*
X205775771Y-41634462D01*
X205464462Y-41945771D01*
X205219869Y-42311831D01*
X205051390Y-42718575D01*
X204965500Y-43150372D01*
X143674819Y-43150372D01*
X143744510Y-42982125D01*
X143802100Y-42692599D01*
X143802100Y-42397401D01*
X143744510Y-42107875D01*
X143631542Y-41835147D01*
X143467539Y-41589698D01*
X143258802Y-41380961D01*
X143100219Y-41275000D01*
X143258802Y-41169039D01*
X143467539Y-40960302D01*
X143631542Y-40714853D01*
X143744510Y-40442125D01*
X143802100Y-40152599D01*
X143802100Y-39857401D01*
X143744510Y-39567875D01*
X143631542Y-39295147D01*
X143467539Y-39049698D01*
X143258802Y-38840961D01*
X143155478Y-38771922D01*
X143297942Y-38676731D01*
X143515231Y-38459442D01*
X143685954Y-38203937D01*
X143803550Y-37920035D01*
X143863500Y-37618647D01*
X143863500Y-37311353D01*
X143803550Y-37009965D01*
X143685954Y-36726063D01*
X143559960Y-36537500D01*
X212629221Y-36537500D01*
X212927566Y-36566753D01*
X213183500Y-36644024D01*
X213419550Y-36769535D01*
X213626726Y-36938503D01*
X213797138Y-37144495D01*
X213924292Y-37379663D01*
X214003347Y-37635045D01*
X214034492Y-37931371D01*
X214033501Y-153828216D01*
X214004247Y-154126568D01*
X213926976Y-154382500D01*
X213801467Y-154618549D01*
X213632495Y-154825728D01*
X213426503Y-154996139D01*
X213191338Y-155123292D01*
X212935954Y-155202347D01*
X212639629Y-155233492D01*
X96742784Y-155232501D01*
X96444432Y-155203247D01*
X96188500Y-155125976D01*
X95952451Y-155000467D01*
X95745272Y-154831495D01*
X95574861Y-154625503D01*
X95447708Y-154390338D01*
X95368653Y-154134954D01*
X95337509Y-153838634D01*
X95337509Y-148179372D01*
X99936500Y-148179372D01*
X99936500Y-148619628D01*
X100022390Y-149051425D01*
X100190869Y-149458169D01*
X100435462Y-149824229D01*
X100746771Y-150135538D01*
X101112831Y-150380131D01*
X101519575Y-150548610D01*
X101951372Y-150634500D01*
X102391628Y-150634500D01*
X102823425Y-150548610D01*
X103230169Y-150380131D01*
X103596229Y-150135538D01*
X103907538Y-149824229D01*
X104152131Y-149458169D01*
X104320610Y-149051425D01*
X104406500Y-148619628D01*
X104406500Y-148179372D01*
X204965500Y-148179372D01*
X204965500Y-148619628D01*
X205051390Y-149051425D01*
X205219869Y-149458169D01*
X205464462Y-149824229D01*
X205775771Y-150135538D01*
X206141831Y-150380131D01*
X206548575Y-150548610D01*
X206980372Y-150634500D01*
X207420628Y-150634500D01*
X207852425Y-150548610D01*
X208259169Y-150380131D01*
X208625229Y-150135538D01*
X208936538Y-149824229D01*
X209181131Y-149458169D01*
X209349610Y-149051425D01*
X209435500Y-148619628D01*
X209435500Y-148179372D01*
X209349610Y-147747575D01*
X209181131Y-147340831D01*
X208936538Y-146974771D01*
X208625229Y-146663462D01*
X208259169Y-146418869D01*
X207852425Y-146250390D01*
X207420628Y-146164500D01*
X206980372Y-146164500D01*
X206548575Y-146250390D01*
X206141831Y-146418869D01*
X205775771Y-146663462D01*
X205464462Y-146974771D01*
X205219869Y-147340831D01*
X205051390Y-147747575D01*
X204965500Y-148179372D01*
X104406500Y-148179372D01*
X104320610Y-147747575D01*
X104152131Y-147340831D01*
X103907538Y-146974771D01*
X103596229Y-146663462D01*
X103230169Y-146418869D01*
X102823425Y-146250390D01*
X102391628Y-146164500D01*
X101951372Y-146164500D01*
X101519575Y-146250390D01*
X101112831Y-146418869D01*
X100746771Y-146663462D01*
X100435462Y-146974771D01*
X100190869Y-147340831D01*
X100022390Y-147747575D01*
X99936500Y-148179372D01*
X95337509Y-148179372D01*
X95337509Y-117623638D01*
X113467967Y-117623638D01*
X113510402Y-117843153D01*
X113724936Y-117940035D01*
X113954248Y-117993203D01*
X114189525Y-118000613D01*
X114421728Y-117961979D01*
X114641932Y-117878787D01*
X114708598Y-117843153D01*
X114751033Y-117623638D01*
X114109500Y-116982105D01*
X113467967Y-117623638D01*
X95337509Y-117623638D01*
X95337509Y-116882525D01*
X112911387Y-116882525D01*
X112950021Y-117114728D01*
X113033213Y-117334932D01*
X113068847Y-117401598D01*
X113288362Y-117444033D01*
X113929895Y-116802500D01*
X114289105Y-116802500D01*
X114930638Y-117444033D01*
X115150153Y-117401598D01*
X115247035Y-117187064D01*
X115300203Y-116957752D01*
X115307613Y-116722475D01*
X115268979Y-116490272D01*
X115185787Y-116270068D01*
X115150153Y-116203402D01*
X114930638Y-116160967D01*
X114289105Y-116802500D01*
X113929895Y-116802500D01*
X113288362Y-116160967D01*
X113068847Y-116203402D01*
X112971965Y-116417936D01*
X112918797Y-116647248D01*
X112911387Y-116882525D01*
X95337509Y-116882525D01*
X95337509Y-115981362D01*
X113467967Y-115981362D01*
X114109500Y-116622895D01*
X114751033Y-115981362D01*
X114708598Y-115761847D01*
X114494064Y-115664965D01*
X114264752Y-115611797D01*
X114029475Y-115604387D01*
X113797272Y-115643021D01*
X113577068Y-115726213D01*
X113510402Y-115761847D01*
X113467967Y-115981362D01*
X95337509Y-115981362D01*
X95337509Y-86528987D01*
X101356618Y-86528987D01*
X101428504Y-86773212D01*
X101684441Y-86894362D01*
X101959096Y-86963252D01*
X102241913Y-86977238D01*
X102522024Y-86935779D01*
X102788665Y-86840470D01*
X102914496Y-86773212D01*
X102986382Y-86528987D01*
X102171500Y-85714105D01*
X101356618Y-86528987D01*
X95337509Y-86528987D01*
X95337509Y-85604913D01*
X100728762Y-85604913D01*
X100770221Y-85885024D01*
X100865530Y-86151665D01*
X100932788Y-86277496D01*
X101177013Y-86349382D01*
X101991895Y-85534500D01*
X102351105Y-85534500D01*
X103165987Y-86349382D01*
X103410212Y-86277496D01*
X103531362Y-86021559D01*
X103600252Y-85746904D01*
X103614238Y-85464087D01*
X103572779Y-85183976D01*
X103477470Y-84917335D01*
X103410212Y-84791504D01*
X103165987Y-84719618D01*
X102351105Y-85534500D01*
X101991895Y-85534500D01*
X101177013Y-84719618D01*
X100932788Y-84791504D01*
X100811638Y-85047441D01*
X100742748Y-85322096D01*
X100728762Y-85604913D01*
X95337509Y-85604913D01*
X95337509Y-69850000D01*
X96203614Y-69850000D01*
X96208500Y-69899608D01*
X96208501Y-80849382D01*
X96203614Y-80899000D01*
X96223115Y-81096994D01*
X96280868Y-81287379D01*
X96319848Y-81360305D01*
X96374654Y-81462840D01*
X96500868Y-81616633D01*
X96539401Y-81648256D01*
X98564744Y-83673600D01*
X98596367Y-83712133D01*
X98750160Y-83838347D01*
X98885810Y-83910853D01*
X98925620Y-83932132D01*
X99116005Y-83989885D01*
X99314000Y-84009386D01*
X99363608Y-84004500D01*
X101148568Y-84004500D01*
X101255147Y-84111079D01*
X101485772Y-84265178D01*
X101428504Y-84295788D01*
X101356618Y-84540013D01*
X102171500Y-85354895D01*
X102986382Y-84540013D01*
X102914496Y-84295788D01*
X102854160Y-84267227D01*
X103087853Y-84111079D01*
X103288079Y-83910853D01*
X103445396Y-83675411D01*
X103553757Y-83413803D01*
X103609000Y-83136081D01*
X103609000Y-82852919D01*
X103553757Y-82575197D01*
X103445396Y-82313589D01*
X103288079Y-82078147D01*
X103087853Y-81877921D01*
X102858242Y-81724500D01*
X103087853Y-81571079D01*
X103288079Y-81370853D01*
X103445396Y-81135411D01*
X103553757Y-80873803D01*
X103609000Y-80596081D01*
X103609000Y-80312919D01*
X103553757Y-80035197D01*
X103445396Y-79773589D01*
X103288079Y-79538147D01*
X103087853Y-79337921D01*
X102858242Y-79184500D01*
X103087853Y-79031079D01*
X103288079Y-78830853D01*
X103445396Y-78595411D01*
X103553757Y-78333803D01*
X103609000Y-78056081D01*
X103609000Y-77772919D01*
X103553757Y-77495197D01*
X103445396Y-77233589D01*
X103288079Y-76998147D01*
X103087853Y-76797921D01*
X102852411Y-76640604D01*
X102590803Y-76532243D01*
X102313081Y-76477000D01*
X102029919Y-76477000D01*
X101752197Y-76532243D01*
X101490589Y-76640604D01*
X101255147Y-76797921D01*
X101054921Y-76998147D01*
X100897604Y-77233589D01*
X100789243Y-77495197D01*
X100734000Y-77772919D01*
X100734000Y-78056081D01*
X100789243Y-78333803D01*
X100897604Y-78595411D01*
X101054921Y-78830853D01*
X101255147Y-79031079D01*
X101484758Y-79184500D01*
X101255147Y-79337921D01*
X101054921Y-79538147D01*
X100997840Y-79623575D01*
X100830640Y-79456375D01*
X100620176Y-79315747D01*
X100386321Y-79218881D01*
X100138061Y-79169500D01*
X99884939Y-79169500D01*
X99636679Y-79218881D01*
X99402824Y-79315747D01*
X99192360Y-79456375D01*
X99013375Y-79635360D01*
X98872747Y-79845824D01*
X98775881Y-80079679D01*
X98726500Y-80327939D01*
X98726500Y-80581061D01*
X98775881Y-80829321D01*
X98872747Y-81063176D01*
X98997023Y-81249167D01*
X98228500Y-80480645D01*
X98228500Y-71288987D01*
X101356618Y-71288987D01*
X101428504Y-71533212D01*
X101684441Y-71654362D01*
X101959096Y-71723252D01*
X102241913Y-71737238D01*
X102522024Y-71695779D01*
X102788665Y-71600470D01*
X102914496Y-71533212D01*
X102986382Y-71288987D01*
X102171500Y-70474105D01*
X101356618Y-71288987D01*
X98228500Y-71288987D01*
X98228500Y-70364913D01*
X100728762Y-70364913D01*
X100770221Y-70645024D01*
X100865530Y-70911665D01*
X100932788Y-71037496D01*
X101177013Y-71109382D01*
X101991895Y-70294500D01*
X102351105Y-70294500D01*
X103165987Y-71109382D01*
X103410212Y-71037496D01*
X103531362Y-70781559D01*
X103600252Y-70506904D01*
X103614238Y-70224087D01*
X103572779Y-69943976D01*
X103477470Y-69677335D01*
X103410212Y-69551504D01*
X103165987Y-69479618D01*
X102351105Y-70294500D01*
X101991895Y-70294500D01*
X101177013Y-69479618D01*
X100932788Y-69551504D01*
X100811638Y-69807441D01*
X100742748Y-70082096D01*
X100728762Y-70364913D01*
X98228500Y-70364913D01*
X98228500Y-70268355D01*
X99732356Y-68764500D01*
X101148568Y-68764500D01*
X101255147Y-68871079D01*
X101485772Y-69025178D01*
X101428504Y-69055788D01*
X101356618Y-69300013D01*
X102171500Y-70114895D01*
X102986382Y-69300013D01*
X102914496Y-69055788D01*
X102854160Y-69027227D01*
X103087853Y-68871079D01*
X103194432Y-68764500D01*
X109106892Y-68764500D01*
X109156500Y-68769386D01*
X109354494Y-68749885D01*
X109544880Y-68692132D01*
X109720340Y-68598347D01*
X109874133Y-68472133D01*
X109905761Y-68433594D01*
X111924356Y-66415000D01*
X115745693Y-66415000D01*
X115809837Y-66510998D01*
X116051502Y-66752663D01*
X116335669Y-66942537D01*
X116651419Y-67073325D01*
X116986617Y-67140000D01*
X117328383Y-67140000D01*
X117663581Y-67073325D01*
X117979331Y-66942537D01*
X118263498Y-66752663D01*
X118505163Y-66510998D01*
X118695037Y-66226831D01*
X118825825Y-65911081D01*
X118892500Y-65575883D01*
X118892500Y-65234117D01*
X118825825Y-64898919D01*
X118695037Y-64583169D01*
X118505163Y-64299002D01*
X118292500Y-64086339D01*
X118292500Y-60404287D01*
X118301680Y-60401502D01*
X118411994Y-60342537D01*
X118508685Y-60263185D01*
X118588037Y-60166494D01*
X118647002Y-60056180D01*
X118683312Y-59936482D01*
X118695572Y-59812000D01*
X118695572Y-58812000D01*
X118683312Y-58687518D01*
X118647002Y-58567820D01*
X118588037Y-58457506D01*
X118508685Y-58360815D01*
X118411994Y-58281463D01*
X118301680Y-58222498D01*
X118181982Y-58186188D01*
X118057500Y-58173928D01*
X117182061Y-58173928D01*
X117157500Y-58171509D01*
X117132939Y-58173928D01*
X116257500Y-58173928D01*
X116133018Y-58186188D01*
X116013320Y-58222498D01*
X115903006Y-58281463D01*
X115806315Y-58360815D01*
X115726963Y-58457506D01*
X115667998Y-58567820D01*
X115631688Y-58687518D01*
X115619428Y-58812000D01*
X115619428Y-59812000D01*
X115631688Y-59936482D01*
X115667998Y-60056180D01*
X115726963Y-60166494D01*
X115806315Y-60263185D01*
X115903006Y-60342537D01*
X116013320Y-60401502D01*
X116022500Y-60404287D01*
X116022501Y-64086338D01*
X115809837Y-64299002D01*
X115745693Y-64395000D01*
X111555608Y-64395000D01*
X111506000Y-64390114D01*
X111308005Y-64409615D01*
X111175870Y-64449698D01*
X111117620Y-64467368D01*
X110942160Y-64561153D01*
X110788367Y-64687367D01*
X110756744Y-64725900D01*
X108738145Y-66744500D01*
X103194432Y-66744500D01*
X103087853Y-66637921D01*
X102858242Y-66484500D01*
X103087853Y-66331079D01*
X103288079Y-66130853D01*
X103445396Y-65895411D01*
X103553757Y-65633803D01*
X103609000Y-65356081D01*
X103609000Y-65072919D01*
X103553757Y-64795197D01*
X103445396Y-64533589D01*
X103288079Y-64298147D01*
X103087853Y-64097921D01*
X102858242Y-63944500D01*
X103087853Y-63791079D01*
X103288079Y-63590853D01*
X103445396Y-63355411D01*
X103553757Y-63093803D01*
X103609000Y-62816081D01*
X103609000Y-62532919D01*
X103553757Y-62255197D01*
X103445396Y-61993589D01*
X103288079Y-61758147D01*
X103087853Y-61557921D01*
X102852411Y-61400604D01*
X102590803Y-61292243D01*
X102313081Y-61237000D01*
X102029919Y-61237000D01*
X101752197Y-61292243D01*
X101490589Y-61400604D01*
X101255147Y-61557921D01*
X101054921Y-61758147D01*
X100897604Y-61993589D01*
X100789243Y-62255197D01*
X100734000Y-62532919D01*
X100734000Y-62816081D01*
X100789243Y-63093803D01*
X100897604Y-63355411D01*
X101054921Y-63590853D01*
X101255147Y-63791079D01*
X101484758Y-63944500D01*
X101255147Y-64097921D01*
X101054921Y-64298147D01*
X100997840Y-64383575D01*
X100830640Y-64216375D01*
X100620176Y-64075747D01*
X100386321Y-63978881D01*
X100138061Y-63929500D01*
X99884939Y-63929500D01*
X99636679Y-63978881D01*
X99402824Y-64075747D01*
X99192360Y-64216375D01*
X99013375Y-64395360D01*
X98872747Y-64605824D01*
X98775881Y-64839679D01*
X98726500Y-65087939D01*
X98726500Y-65341061D01*
X98775881Y-65589321D01*
X98872747Y-65823176D01*
X99013375Y-66033640D01*
X99192360Y-66212625D01*
X99402824Y-66353253D01*
X99636679Y-66450119D01*
X99884939Y-66499500D01*
X100138061Y-66499500D01*
X100386321Y-66450119D01*
X100620176Y-66353253D01*
X100830640Y-66212625D01*
X100997840Y-66045425D01*
X101054921Y-66130853D01*
X101255147Y-66331079D01*
X101484758Y-66484500D01*
X101255147Y-66637921D01*
X101148568Y-66744500D01*
X99363608Y-66744500D01*
X99314000Y-66739614D01*
X99116005Y-66759115D01*
X99043989Y-66780961D01*
X98925620Y-66816868D01*
X98750160Y-66910653D01*
X98596367Y-67036867D01*
X98564744Y-67075400D01*
X96539406Y-69100739D01*
X96500867Y-69132367D01*
X96374653Y-69286160D01*
X96356052Y-69320961D01*
X96280868Y-69461621D01*
X96223115Y-69652006D01*
X96203614Y-69850000D01*
X95337509Y-69850000D01*
X95337509Y-46675275D01*
X109297824Y-46675275D01*
X109357842Y-47270098D01*
X109532750Y-47841782D01*
X109807745Y-48356260D01*
X110215471Y-48620424D01*
X112167895Y-46668000D01*
X110215471Y-44715576D01*
X109807745Y-44979740D01*
X109527183Y-45507661D01*
X109355004Y-46080173D01*
X109297824Y-46675275D01*
X95337509Y-46675275D01*
X95337509Y-43150372D01*
X99936500Y-43150372D01*
X99936500Y-43590628D01*
X100022390Y-44022425D01*
X100190869Y-44429169D01*
X100435462Y-44795229D01*
X100746771Y-45106538D01*
X101112831Y-45351131D01*
X101519575Y-45519610D01*
X101951372Y-45605500D01*
X102391628Y-45605500D01*
X102823425Y-45519610D01*
X103230169Y-45351131D01*
X103596229Y-45106538D01*
X103907538Y-44795229D01*
X104080768Y-44535971D01*
X110395076Y-44535971D01*
X112347500Y-46488395D01*
X112361643Y-46474253D01*
X112541248Y-46653858D01*
X112527105Y-46668000D01*
X112541248Y-46682143D01*
X112361643Y-46861748D01*
X112347500Y-46847605D01*
X110395076Y-48800029D01*
X110659240Y-49207755D01*
X111187161Y-49488317D01*
X111759673Y-49660496D01*
X112354775Y-49717676D01*
X112949598Y-49657658D01*
X113521282Y-49482750D01*
X114035760Y-49207755D01*
X114192803Y-48965365D01*
X114112500Y-49369079D01*
X114112500Y-49966921D01*
X114229133Y-50553277D01*
X114457918Y-51105612D01*
X114790062Y-51602700D01*
X115212800Y-52025438D01*
X115709888Y-52357582D01*
X116012500Y-52482928D01*
X116012501Y-55422936D01*
X115903006Y-55481463D01*
X115806315Y-55560815D01*
X115726963Y-55657506D01*
X115667998Y-55767820D01*
X115631688Y-55887518D01*
X115619428Y-56012000D01*
X115619428Y-57012000D01*
X115631688Y-57136482D01*
X115667998Y-57256180D01*
X115726963Y-57366494D01*
X115806315Y-57463185D01*
X115903006Y-57542537D01*
X116013320Y-57601502D01*
X116133018Y-57637812D01*
X116257500Y-57650072D01*
X117132938Y-57650072D01*
X117157499Y-57652491D01*
X117182060Y-57650072D01*
X118057500Y-57650072D01*
X118181982Y-57637812D01*
X118301680Y-57601502D01*
X118411994Y-57542537D01*
X118508685Y-57463185D01*
X118588037Y-57366494D01*
X118647002Y-57256180D01*
X118683312Y-57136482D01*
X118695572Y-57012000D01*
X118695572Y-56012000D01*
X118683312Y-55887518D01*
X118647002Y-55767820D01*
X118588037Y-55657506D01*
X118508685Y-55560815D01*
X118411994Y-55481463D01*
X118301680Y-55422498D01*
X118282500Y-55416680D01*
X118282500Y-52482928D01*
X118585112Y-52357582D01*
X119082200Y-52025438D01*
X119504938Y-51602700D01*
X119837082Y-51105612D01*
X120065867Y-50553277D01*
X120182500Y-49966921D01*
X120182500Y-49369079D01*
X120065867Y-48782723D01*
X119837082Y-48230388D01*
X119504938Y-47733300D01*
X119082200Y-47310562D01*
X118585112Y-46978418D01*
X118062473Y-46761933D01*
X118321282Y-46682750D01*
X118835760Y-46407755D01*
X119099924Y-46000029D01*
X117147500Y-44047605D01*
X117133358Y-44061748D01*
X116953753Y-43882143D01*
X116967895Y-43868000D01*
X117327105Y-43868000D01*
X119279529Y-45820424D01*
X119687255Y-45556260D01*
X119967817Y-45028339D01*
X120139996Y-44455827D01*
X120197176Y-43860725D01*
X120137158Y-43265902D01*
X119962250Y-42694218D01*
X119687255Y-42179740D01*
X119279529Y-41915576D01*
X117327105Y-43868000D01*
X116967895Y-43868000D01*
X115015471Y-41915576D01*
X114607745Y-42179740D01*
X114327183Y-42707661D01*
X114155004Y-43280173D01*
X114097824Y-43875275D01*
X114139506Y-44288372D01*
X114035760Y-44128245D01*
X113507839Y-43847683D01*
X112935327Y-43675504D01*
X112340225Y-43618324D01*
X111745402Y-43678342D01*
X111173718Y-43853250D01*
X110659240Y-44128245D01*
X110395076Y-44535971D01*
X104080768Y-44535971D01*
X104152131Y-44429169D01*
X104320610Y-44022425D01*
X104406500Y-43590628D01*
X104406500Y-43150372D01*
X104320610Y-42718575D01*
X104152131Y-42311831D01*
X103907538Y-41945771D01*
X103697738Y-41735971D01*
X115195076Y-41735971D01*
X117147500Y-43688395D01*
X119099924Y-41735971D01*
X118835760Y-41328245D01*
X118307839Y-41047683D01*
X117735327Y-40875504D01*
X117140225Y-40818324D01*
X116545402Y-40878342D01*
X115973718Y-41053250D01*
X115459240Y-41328245D01*
X115195076Y-41735971D01*
X103697738Y-41735971D01*
X103596229Y-41634462D01*
X103230169Y-41389869D01*
X102823425Y-41221390D01*
X102391628Y-41135500D01*
X101951372Y-41135500D01*
X101519575Y-41221390D01*
X101112831Y-41389869D01*
X100746771Y-41634462D01*
X100435462Y-41945771D01*
X100190869Y-42311831D01*
X100022390Y-42718575D01*
X99936500Y-43150372D01*
X95337509Y-43150372D01*
X95337509Y-37942770D01*
X95366762Y-37644425D01*
X95444033Y-37388491D01*
X95569544Y-37152441D01*
X95738512Y-36945265D01*
X95944504Y-36774853D01*
X96179672Y-36647699D01*
X96435054Y-36568644D01*
X96731375Y-36537500D01*
X125807040Y-36537500D01*
X125681046Y-36726063D01*
G36*
X125564900Y-63012599D02*
G01*
X125622490Y-63302125D01*
X125735458Y-63574853D01*
X125899461Y-63820302D01*
X126108198Y-64029039D01*
X126266781Y-64135000D01*
X126108198Y-64240961D01*
X125899461Y-64449698D01*
X125735458Y-64695147D01*
X125622490Y-64967875D01*
X125564900Y-65257401D01*
X125564900Y-65552599D01*
X125622490Y-65842125D01*
X125735458Y-66114853D01*
X125899461Y-66360302D01*
X126108198Y-66569039D01*
X126266781Y-66675000D01*
X126108198Y-66780961D01*
X125899461Y-66989698D01*
X125735458Y-67235147D01*
X125622490Y-67507875D01*
X125564900Y-67797401D01*
X125564900Y-68092599D01*
X125622490Y-68382125D01*
X125735458Y-68654853D01*
X125899461Y-68900302D01*
X126108198Y-69109039D01*
X126266781Y-69215000D01*
X126108198Y-69320961D01*
X125899461Y-69529698D01*
X125735458Y-69775147D01*
X125622490Y-70047875D01*
X125564900Y-70337401D01*
X125564900Y-70632599D01*
X125622490Y-70922125D01*
X125735458Y-71194853D01*
X125899461Y-71440302D01*
X126108198Y-71649039D01*
X126276375Y-71761411D01*
X126205001Y-71986896D01*
X127063500Y-72845395D01*
X127921999Y-71986896D01*
X127850625Y-71761411D01*
X128018802Y-71649039D01*
X128227539Y-71440302D01*
X128339501Y-71272738D01*
X128339501Y-72241804D01*
X128101604Y-72166501D01*
X127243105Y-73025000D01*
X128101604Y-73883499D01*
X128339501Y-73808196D01*
X128339500Y-74777261D01*
X128227539Y-74609698D01*
X128018802Y-74400961D01*
X127850625Y-74288589D01*
X127921999Y-74063104D01*
X127063500Y-73204605D01*
X126205001Y-74063104D01*
X126276375Y-74288589D01*
X126108198Y-74400961D01*
X126079159Y-74430000D01*
X118892125Y-74430000D01*
X118883312Y-74340518D01*
X118847002Y-74220820D01*
X118788037Y-74110506D01*
X118708685Y-74013815D01*
X118611994Y-73934463D01*
X118501680Y-73875498D01*
X118381982Y-73839188D01*
X118257500Y-73826928D01*
X116057500Y-73826928D01*
X115933018Y-73839188D01*
X115813320Y-73875498D01*
X115758500Y-73904800D01*
X115758500Y-73092993D01*
X125559185Y-73092993D01*
X125601355Y-73385164D01*
X125699714Y-73663493D01*
X125774933Y-73804218D01*
X126025396Y-73883499D01*
X126883895Y-73025000D01*
X126025396Y-72166501D01*
X125774933Y-72245782D01*
X125647674Y-72512141D01*
X125574825Y-72798210D01*
X125559185Y-73092993D01*
X115758500Y-73092993D01*
X115758500Y-72641301D01*
X125564900Y-62834902D01*
X125564900Y-63012599D01*
G37*
X125564900Y-63012599D02*
X125622490Y-63302125D01*
X125735458Y-63574853D01*
X125899461Y-63820302D01*
X126108198Y-64029039D01*
X126266781Y-64135000D01*
X126108198Y-64240961D01*
X125899461Y-64449698D01*
X125735458Y-64695147D01*
X125622490Y-64967875D01*
X125564900Y-65257401D01*
X125564900Y-65552599D01*
X125622490Y-65842125D01*
X125735458Y-66114853D01*
X125899461Y-66360302D01*
X126108198Y-66569039D01*
X126266781Y-66675000D01*
X126108198Y-66780961D01*
X125899461Y-66989698D01*
X125735458Y-67235147D01*
X125622490Y-67507875D01*
X125564900Y-67797401D01*
X125564900Y-68092599D01*
X125622490Y-68382125D01*
X125735458Y-68654853D01*
X125899461Y-68900302D01*
X126108198Y-69109039D01*
X126266781Y-69215000D01*
X126108198Y-69320961D01*
X125899461Y-69529698D01*
X125735458Y-69775147D01*
X125622490Y-70047875D01*
X125564900Y-70337401D01*
X125564900Y-70632599D01*
X125622490Y-70922125D01*
X125735458Y-71194853D01*
X125899461Y-71440302D01*
X126108198Y-71649039D01*
X126276375Y-71761411D01*
X126205001Y-71986896D01*
X127063500Y-72845395D01*
X127921999Y-71986896D01*
X127850625Y-71761411D01*
X128018802Y-71649039D01*
X128227539Y-71440302D01*
X128339501Y-71272738D01*
X128339501Y-72241804D01*
X128101604Y-72166501D01*
X127243105Y-73025000D01*
X128101604Y-73883499D01*
X128339501Y-73808196D01*
X128339500Y-74777261D01*
X128227539Y-74609698D01*
X128018802Y-74400961D01*
X127850625Y-74288589D01*
X127921999Y-74063104D01*
X127063500Y-73204605D01*
X126205001Y-74063104D01*
X126276375Y-74288589D01*
X126108198Y-74400961D01*
X126079159Y-74430000D01*
X118892125Y-74430000D01*
X118883312Y-74340518D01*
X118847002Y-74220820D01*
X118788037Y-74110506D01*
X118708685Y-74013815D01*
X118611994Y-73934463D01*
X118501680Y-73875498D01*
X118381982Y-73839188D01*
X118257500Y-73826928D01*
X116057500Y-73826928D01*
X115933018Y-73839188D01*
X115813320Y-73875498D01*
X115758500Y-73904800D01*
X115758500Y-73092993D01*
X125559185Y-73092993D01*
X125601355Y-73385164D01*
X125699714Y-73663493D01*
X125774933Y-73804218D01*
X126025396Y-73883499D01*
X126883895Y-73025000D01*
X126025396Y-72166501D01*
X125774933Y-72245782D01*
X125647674Y-72512141D01*
X125574825Y-72798210D01*
X125559185Y-73092993D01*
X115758500Y-73092993D01*
X115758500Y-72641301D01*
X125564900Y-62834902D01*
X125564900Y-63012599D01*
G36*
X130050000Y-64386302D02*
G01*
X130050000Y-69499307D01*
X130028594Y-69481739D01*
X128562100Y-68015245D01*
X128562100Y-67797401D01*
X128504510Y-67507875D01*
X128391542Y-67235147D01*
X128227539Y-66989698D01*
X128018802Y-66780961D01*
X127860219Y-66675000D01*
X128018802Y-66569039D01*
X128227539Y-66360302D01*
X128391542Y-66114853D01*
X128504510Y-65842125D01*
X128562100Y-65552599D01*
X128562100Y-65257401D01*
X128504510Y-64967875D01*
X128391542Y-64695147D01*
X128227539Y-64449698D01*
X128018802Y-64240961D01*
X127860219Y-64135000D01*
X128018802Y-64029039D01*
X128227539Y-63820302D01*
X128391542Y-63574853D01*
X128504510Y-63302125D01*
X128562100Y-63012599D01*
X128562100Y-62898402D01*
X130050000Y-64386302D01*
G37*
X130050000Y-64386302D02*
X130050000Y-69499307D01*
X130028594Y-69481739D01*
X128562100Y-68015245D01*
X128562100Y-67797401D01*
X128504510Y-67507875D01*
X128391542Y-67235147D01*
X128227539Y-66989698D01*
X128018802Y-66780961D01*
X127860219Y-66675000D01*
X128018802Y-66569039D01*
X128227539Y-66360302D01*
X128391542Y-66114853D01*
X128504510Y-65842125D01*
X128562100Y-65552599D01*
X128562100Y-65257401D01*
X128504510Y-64967875D01*
X128391542Y-64695147D01*
X128227539Y-64449698D01*
X128018802Y-64240961D01*
X127860219Y-64135000D01*
X128018802Y-64029039D01*
X128227539Y-63820302D01*
X128391542Y-63574853D01*
X128504510Y-63302125D01*
X128562100Y-63012599D01*
X128562100Y-62898402D01*
X130050000Y-64386302D01*
G36*
X130950020Y-55126322D02*
G01*
X130950020Y-60596718D01*
X128516276Y-58162974D01*
X128562100Y-57932599D01*
X128562100Y-57637401D01*
X128504510Y-57347875D01*
X128391542Y-57075147D01*
X128227539Y-56829698D01*
X128018802Y-56620961D01*
X127860219Y-56515000D01*
X128018802Y-56409039D01*
X128227539Y-56200302D01*
X128391542Y-55954853D01*
X128504510Y-55682125D01*
X128562100Y-55392599D01*
X128562100Y-55097401D01*
X128504510Y-54807875D01*
X128391542Y-54535147D01*
X128227539Y-54289698D01*
X128018802Y-54080961D01*
X127860219Y-53975000D01*
X128018802Y-53869039D01*
X128227539Y-53660302D01*
X128391542Y-53414853D01*
X128504510Y-53142125D01*
X128562100Y-52852599D01*
X128562100Y-52738401D01*
X130950020Y-55126322D01*
G37*
X130950020Y-55126322D02*
X130950020Y-60596718D01*
X128516276Y-58162974D01*
X128562100Y-57932599D01*
X128562100Y-57637401D01*
X128504510Y-57347875D01*
X128391542Y-57075147D01*
X128227539Y-56829698D01*
X128018802Y-56620961D01*
X127860219Y-56515000D01*
X128018802Y-56409039D01*
X128227539Y-56200302D01*
X128391542Y-55954853D01*
X128504510Y-55682125D01*
X128562100Y-55392599D01*
X128562100Y-55097401D01*
X128504510Y-54807875D01*
X128391542Y-54535147D01*
X128227539Y-54289698D01*
X128018802Y-54080961D01*
X127860219Y-53975000D01*
X128018802Y-53869039D01*
X128227539Y-53660302D01*
X128391542Y-53414853D01*
X128504510Y-53142125D01*
X128562100Y-52852599D01*
X128562100Y-52738401D01*
X130950020Y-55126322D01*
%TD*%
M02*
