%TF.GenerationSoftware,KiCad,Pcbnew,(5.1.6)-1*%
%TF.CreationDate,2024-05-27T20:35:23-04:00*%
%TF.ProjectId,watercooled-pi-120mm,77617465-7263-46f6-9f6c-65642d70692d,rev?*%
%TF.SameCoordinates,Original*%
%TF.FileFunction,Paste,Top*%
%TF.FilePolarity,Positive*%
%FSLAX46Y46*%
G04 Gerber Fmt 4.6, Leading zero omitted, Abs format (unit mm)*
G04 Created by KiCad (PCBNEW (5.1.6)-1) date 2024-05-27 20:35:23*
%MOMM*%
%LPD*%
G01*
G04 APERTURE LIST*
%ADD10R,1.800000X1.000000*%
G04 APERTURE END LIST*
D10*
%TO.C,F0*%
X117157500Y-56512000D03*
X117157500Y-59312000D03*
%TD*%
%TO.C,D2*%
G36*
G01*
X134423999Y-58480000D02*
X135324001Y-58480000D01*
G75*
G02*
X135574000Y-58729999I0J-249999D01*
G01*
X135574000Y-59380001D01*
G75*
G02*
X135324001Y-59630000I-249999J0D01*
G01*
X134423999Y-59630000D01*
G75*
G02*
X134174000Y-59380001I0J249999D01*
G01*
X134174000Y-58729999D01*
G75*
G02*
X134423999Y-58480000I249999J0D01*
G01*
G37*
G36*
G01*
X134423999Y-56430000D02*
X135324001Y-56430000D01*
G75*
G02*
X135574000Y-56679999I0J-249999D01*
G01*
X135574000Y-57330001D01*
G75*
G02*
X135324001Y-57580000I-249999J0D01*
G01*
X134423999Y-57580000D01*
G75*
G02*
X134174000Y-57330001I0J249999D01*
G01*
X134174000Y-56679999D01*
G75*
G02*
X134423999Y-56430000I249999J0D01*
G01*
G37*
%TD*%
%TO.C,D3*%
G36*
G01*
X176923500Y-51048499D02*
X176923500Y-51948501D01*
G75*
G02*
X176673501Y-52198500I-249999J0D01*
G01*
X176023499Y-52198500D01*
G75*
G02*
X175773500Y-51948501I0J249999D01*
G01*
X175773500Y-51048499D01*
G75*
G02*
X176023499Y-50798500I249999J0D01*
G01*
X176673501Y-50798500D01*
G75*
G02*
X176923500Y-51048499I0J-249999D01*
G01*
G37*
G36*
G01*
X174873500Y-51048499D02*
X174873500Y-51948501D01*
G75*
G02*
X174623501Y-52198500I-249999J0D01*
G01*
X173973499Y-52198500D01*
G75*
G02*
X173723500Y-51948501I0J249999D01*
G01*
X173723500Y-51048499D01*
G75*
G02*
X173973499Y-50798500I249999J0D01*
G01*
X174623501Y-50798500D01*
G75*
G02*
X174873500Y-51048499I0J-249999D01*
G01*
G37*
%TD*%
%TO.C,D4*%
G36*
G01*
X174864500Y-81782499D02*
X174864500Y-82682501D01*
G75*
G02*
X174614501Y-82932500I-249999J0D01*
G01*
X173964499Y-82932500D01*
G75*
G02*
X173714500Y-82682501I0J249999D01*
G01*
X173714500Y-81782499D01*
G75*
G02*
X173964499Y-81532500I249999J0D01*
G01*
X174614501Y-81532500D01*
G75*
G02*
X174864500Y-81782499I0J-249999D01*
G01*
G37*
G36*
G01*
X176914500Y-81782499D02*
X176914500Y-82682501D01*
G75*
G02*
X176664501Y-82932500I-249999J0D01*
G01*
X176014499Y-82932500D01*
G75*
G02*
X175764500Y-82682501I0J249999D01*
G01*
X175764500Y-81782499D01*
G75*
G02*
X176014499Y-81532500I249999J0D01*
G01*
X176664501Y-81532500D01*
G75*
G02*
X176914500Y-81782499I0J-249999D01*
G01*
G37*
%TD*%
%TO.C,D5*%
G36*
G01*
X176932500Y-112135499D02*
X176932500Y-113035501D01*
G75*
G02*
X176682501Y-113285500I-249999J0D01*
G01*
X176032499Y-113285500D01*
G75*
G02*
X175782500Y-113035501I0J249999D01*
G01*
X175782500Y-112135499D01*
G75*
G02*
X176032499Y-111885500I249999J0D01*
G01*
X176682501Y-111885500D01*
G75*
G02*
X176932500Y-112135499I0J-249999D01*
G01*
G37*
G36*
G01*
X174882500Y-112135499D02*
X174882500Y-113035501D01*
G75*
G02*
X174632501Y-113285500I-249999J0D01*
G01*
X173982499Y-113285500D01*
G75*
G02*
X173732500Y-113035501I0J249999D01*
G01*
X173732500Y-112135499D01*
G75*
G02*
X173982499Y-111885500I249999J0D01*
G01*
X174632501Y-111885500D01*
G75*
G02*
X174882500Y-112135499I0J-249999D01*
G01*
G37*
%TD*%
%TO.C,R2*%
G36*
G01*
X134423999Y-62734500D02*
X135324001Y-62734500D01*
G75*
G02*
X135574000Y-62984499I0J-249999D01*
G01*
X135574000Y-63634501D01*
G75*
G02*
X135324001Y-63884500I-249999J0D01*
G01*
X134423999Y-63884500D01*
G75*
G02*
X134174000Y-63634501I0J249999D01*
G01*
X134174000Y-62984499D01*
G75*
G02*
X134423999Y-62734500I249999J0D01*
G01*
G37*
G36*
G01*
X134423999Y-60684500D02*
X135324001Y-60684500D01*
G75*
G02*
X135574000Y-60934499I0J-249999D01*
G01*
X135574000Y-61584501D01*
G75*
G02*
X135324001Y-61834500I-249999J0D01*
G01*
X134423999Y-61834500D01*
G75*
G02*
X134174000Y-61584501I0J249999D01*
G01*
X134174000Y-60934499D01*
G75*
G02*
X134423999Y-60684500I249999J0D01*
G01*
G37*
%TD*%
%TO.C,R3*%
G36*
G01*
X172342500Y-51048499D02*
X172342500Y-51948501D01*
G75*
G02*
X172092501Y-52198500I-249999J0D01*
G01*
X171442499Y-52198500D01*
G75*
G02*
X171192500Y-51948501I0J249999D01*
G01*
X171192500Y-51048499D01*
G75*
G02*
X171442499Y-50798500I249999J0D01*
G01*
X172092501Y-50798500D01*
G75*
G02*
X172342500Y-51048499I0J-249999D01*
G01*
G37*
G36*
G01*
X170292500Y-51048499D02*
X170292500Y-51948501D01*
G75*
G02*
X170042501Y-52198500I-249999J0D01*
G01*
X169392499Y-52198500D01*
G75*
G02*
X169142500Y-51948501I0J249999D01*
G01*
X169142500Y-51048499D01*
G75*
G02*
X169392499Y-50798500I249999J0D01*
G01*
X170042501Y-50798500D01*
G75*
G02*
X170292500Y-51048499I0J-249999D01*
G01*
G37*
%TD*%
%TO.C,R4*%
G36*
G01*
X172279000Y-81782499D02*
X172279000Y-82682501D01*
G75*
G02*
X172029001Y-82932500I-249999J0D01*
G01*
X171378999Y-82932500D01*
G75*
G02*
X171129000Y-82682501I0J249999D01*
G01*
X171129000Y-81782499D01*
G75*
G02*
X171378999Y-81532500I249999J0D01*
G01*
X172029001Y-81532500D01*
G75*
G02*
X172279000Y-81782499I0J-249999D01*
G01*
G37*
G36*
G01*
X170229000Y-81782499D02*
X170229000Y-82682501D01*
G75*
G02*
X169979001Y-82932500I-249999J0D01*
G01*
X169328999Y-82932500D01*
G75*
G02*
X169079000Y-82682501I0J249999D01*
G01*
X169079000Y-81782499D01*
G75*
G02*
X169328999Y-81532500I249999J0D01*
G01*
X169979001Y-81532500D01*
G75*
G02*
X170229000Y-81782499I0J-249999D01*
G01*
G37*
%TD*%
%TO.C,R5*%
G36*
G01*
X170292500Y-112135499D02*
X170292500Y-113035501D01*
G75*
G02*
X170042501Y-113285500I-249999J0D01*
G01*
X169392499Y-113285500D01*
G75*
G02*
X169142500Y-113035501I0J249999D01*
G01*
X169142500Y-112135499D01*
G75*
G02*
X169392499Y-111885500I249999J0D01*
G01*
X170042501Y-111885500D01*
G75*
G02*
X170292500Y-112135499I0J-249999D01*
G01*
G37*
G36*
G01*
X172342500Y-112135499D02*
X172342500Y-113035501D01*
G75*
G02*
X172092501Y-113285500I-249999J0D01*
G01*
X171442499Y-113285500D01*
G75*
G02*
X171192500Y-113035501I0J249999D01*
G01*
X171192500Y-112135499D01*
G75*
G02*
X171442499Y-111885500I249999J0D01*
G01*
X172092501Y-111885500D01*
G75*
G02*
X172342500Y-112135499I0J-249999D01*
G01*
G37*
%TD*%
M02*
